<?xml version="1.0" encoding="utf-8"?>
<!-- Generator: Adobe Illustrator 23.0.4, SVG Export Plug-In . SVG Version: 6.00 Build 0)  -->
<svg version="1.1" id="Layer_1" xmlns="http://www.w3.org/2000/svg" xmlns:xlink="http://www.w3.org/1999/xlink" x="0px" y="0px"
	 viewBox="0 0 140 140" style="enable-background:new 0 0 140 140;" xml:space="preserve">
<style type="text/css">
	.st0{fill:#FABC3D;}
</style>
<path class="st0" d="M120.55,76.24L95.77,62.56V38.82L70,24.58L44.23,38.82v23.74L19.45,76.24v24.95l25.77,14.23L70,101.74
	l24.77,13.68l25.77-14.23L120.55,76.24L120.55,76.24z M93.77,62.56L71,75.13V53.68L93.77,41.1V62.56z M94.77,89.36l-12.9-7.12
	l-9.78-5.4L94.8,64.3l22.68,12.52L94.77,89.36z M47.3,39.41L70,26.87l22.7,12.54L70,51.94l-0.02-0.01L47.3,39.41z M69,53.68v21.46
	l0,0L46.23,62.56V41.1l9.82,5.42L69,53.68z M45.2,64.3l22.7,12.54L45.23,89.36l-22.7-12.54L45.2,64.3z M21.45,100V78.52L44.23,91.1
	v21.48L21.45,100z M46.23,91.1l13.4-7.4L69,78.52v0.03V100l-22.77,12.58V91.1z M71,100V78.55v-0.03L93.77,91.1v21.48L71,100z
	 M95.77,112.58V91.1l22.77-12.58V100L95.77,112.58z"/>
</svg>
