<?xml version="1.0" encoding="utf-8"?>
<!-- Generator: Adobe Illustrator 23.1.1, SVG Export Plug-In . SVG Version: 6.00 Build 0)  -->
<svg version="1.1" id="Layer_1" xmlns="http://www.w3.org/2000/svg" xmlns:xlink="http://www.w3.org/1999/xlink" x="0px" y="0px"
	 viewBox="0 0 140 140" style="enable-background:new 0 0 140 140;" xml:space="preserve">
<style type="text/css">
	.st0{fill:none;stroke:#FABC3D;stroke-width:1.4724;stroke-miterlimit:10;}
</style>
<g>
	<g id="Layer_1-2">
		<path class="st0" d="M84.9,82V69.6h-8.1c-0.5-1.9-1.3-3.7-2.3-5.4l5.8-5.8l-8.8-8.8l-5.8,5.8c-1.7-1-3.5-1.7-5.4-2.3v-8.2H47.8V53
			c-1.9,0.5-3.7,1.3-5.5,2.3l-5.7-5.8l-8.8,8.9l5.8,5.8c-1,1.7-1.7,3.5-2.3,5.4h-8.1V82h8.1c0.5,1.9,1.3,3.7,2.3,5.5l-5.8,5.7
			l8.8,8.8l5.7-5.8c1.7,1,3.5,1.7,5.5,2.3v8.1h12.5v-8.1c1.9-0.5,3.7-1.3,5.4-2.3l5.8,5.8l8.8-8.8l-5.8-5.8c1-1.7,1.7-3.5,2.3-5.5
			L84.9,82L84.9,82z M54.1,82.8c-3.9,0-7-3.1-7-7c0-3.9,3.1-7,7-7s7,3.1,7,7l0,0C61,79.7,57.9,82.8,54.1,82.8z"/>
		<path class="st0" d="M116.8,54v-7h-4.5c-0.3-1.1-0.7-2.1-1.3-3l3.2-3.2l-5-4.9l-3.2,3.2c-0.9-0.5-2-0.9-3-1.3v-4.6h-7v4.6
			c-1.1,0.3-2.1,0.7-3,1.3L89.9,36l-4.9,4.9l3.2,3.2c-0.5,0.9-1,1.9-1.3,3h-4.5v7H87c0.3,1.1,0.7,2.1,1.3,3l-3.2,3.2l4.9,4.9
			l3.2-3.2c0.9,0.5,2,0.9,3,1.3v4.5h7v-4.6c1.1-0.3,2.1-0.7,3-1.3l3.2,3.2l5-4.9l-3.2-3.2c0.5-0.9,0.9-1.9,1.3-3H116.8z M99.6,54.5
			c-2.1,0-3.9-1.7-3.9-3.9s1.7-3.9,3.9-3.9c2.1,0,3.9,1.7,3.9,3.9l0,0C103.5,52.8,101.8,54.5,99.6,54.5L99.6,54.5z"/>
	</g>
</g>
</svg>
