<?xml version="1.0" encoding="utf-8"?>
<!-- Generator: Adobe Illustrator 24.0.2, SVG Export Plug-In . SVG Version: 6.00 Build 0)  -->
<svg version="1.1" id="Layer_1" xmlns="http://www.w3.org/2000/svg" xmlns:xlink="http://www.w3.org/1999/xlink" x="0px" y="0px"
	 viewBox="0 0 140 140" style="enable-background:new 0 0 140 140;" xml:space="preserve">
<style type="text/css">
	.st0{fill:#FABC3D;}
</style>
<title>Project Lifecycle - Blue</title>
<path class="st0" d="M120.1,95.2c0-0.1-0.1-0.2-0.1-0.3c-0.3-0.5-0.9-0.8-1.5-0.6l-7.9,2.1c1.2-2.2,2.1-4.5,2.9-6.8
	c0-0.1,0.1-0.2,0.1-0.3c0.2-0.5,0.4-1.1,0.5-1.7c0.1-0.3,0.2-0.7,0.3-1s0.2-0.7,0.3-1c0.1-0.6,0.3-1.2,0.4-1.7c0-0.1,0-0.2,0.1-0.3
	c0.7-3.7,1-7.4,0.9-11.2V72c0-0.1,0-0.3,0-0.4c0-0.5-0.1-0.9-0.1-1.4c0-0.1,0-0.2,0-0.3c0-0.1,0-0.2,0-0.3c0-0.2,0-0.4-0.1-0.6
	c0-0.2-0.1-0.5-0.1-0.8c-0.8-6.4-2.8-12.6-6.1-18.2c-2.1-3.7-4.7-7-7.7-10c-0.7-0.7-1.4-1.3-2.1-1.9l0,0c-0.4-0.4-0.9-0.8-1.3-1.1
	l-0.3-0.3c-0.4-0.3-0.7-0.6-1.1-0.9c-0.5-0.4-1-0.8-1.5-1.1l0,0c-0.6-0.4-1.2-0.9-1.9-1.3l-0.1-0.1c-0.5-0.3-1-0.6-1.6-1l0,0l0,0
	l-1.3,2.3l0,0l0,0c2.7,1.5,5.2,3.3,7.5,5.4l0.7,0.7c0.2,0.1,0.3,0.3,0.5,0.4c0.5,0.4,0.9,0.9,1.3,1.3l0.1,0.1l0.1,0.1
	c5.5,5.8,9.3,12.8,11.2,20.5c0,0.2,0.1,0.3,0.1,0.5c0.1,0.5,0.2,1,0.3,1.5c0.1,0.3,0.1,0.5,0.2,0.8c0.1,0.5,0.2,1,0.3,1.6
	c0,0.2,0.1,0.4,0.1,0.5c0.1,0.6,0.1,1.2,0.2,1.7l0,0c0,0.4,0.1,0.8,0.1,1.2c0,0.4,0,0.6,0.1,0.9c0,0.6,0,1.1,0,1.7
	c0,0.2,0,0.3,0,0.5c0,0.6,0,1.1,0,1.7c0,0.2,0,0.4,0,0.6c0,0.4-0.1,0.9-0.1,1.3c0,0.4-0.1,0.7-0.1,1.1c0,0.2-0.1,0.5-0.1,0.7
	c-0.1,0.6-0.1,1.1-0.2,1.7c0,0,0,0.1,0,0.1c-0.2,1.5-0.6,3-1,4.4c-0.4,1.5-0.9,2.9-1.4,4.3l0,0.1c-0.2,0.5-0.4,1.1-0.6,1.6l-0.3,0.7
	c-0.1,0.3-0.3,0.6-0.5,1c-0.2,0.3-0.4,0.8-0.6,1.2c-0.1,0.1-0.1,0.3-0.2,0.4l-2.1-7.9c-0.2-0.7-0.9-1.2-1.6-1
	c-0.7,0.2-1.2,0.9-1,1.6c0,0,0,0,0,0l2.2,8.3l0.5,1.8c0,0.2,0.1,0.3,0.2,0.4l0,0l0,0c0.4,0.9,1.4,1.4,2.3,1.3l0,0
	c0.2,0,0.3,0,0.5-0.1l0.2,0l9.8-2.6C119.9,96.6,120.3,95.9,120.1,95.2z"/>
<path class="st0" d="M92.6,115.4l-2.6-1.5l0,0h0c-2.5,1.4-5,2.5-7.7,3.4c-0.5,0.2-0.9,0.3-1.4,0.4l-0.2,0.1
	c-0.6,0.2-1.2,0.3-1.7,0.5l-0.5,0.1c-0.5,0.1-1.1,0.2-1.6,0.3l-0.6,0.1c-0.5,0.1-1.1,0.2-1.6,0.3l-0.5,0.1c-0.6,0.1-1.2,0.1-1.7,0.2
	l0,0c-0.4,0-0.8,0.1-1.2,0.1l-0.7,0h-0.2c-0.6,0-1.1,0-1.7,0h-0.5c-0.6,0-1.1,0-1.7,0h-0.6c-0.4,0-0.9-0.1-1.3-0.1
	c-0.4,0-0.7-0.1-1.1-0.1c-0.2,0-0.5-0.1-0.7-0.1c-0.5-0.1-1.1-0.1-1.7-0.2h-0.1c-1.5-0.2-3-0.6-4.4-1c-1.5-0.4-2.9-0.9-4.3-1.4
	l-0.1-0.1c-0.5-0.2-1.1-0.4-1.6-0.6l-0.7-0.3c-0.3-0.1-0.7-0.3-1-0.5c-0.3-0.2-0.8-0.4-1.2-0.6l-0.5-0.3c-0.5-0.3-1-0.5-1.5-0.8
	l-0.4-0.2c-0.5-0.3-1-0.6-1.5-0.9c-0.3-0.2-0.5-0.3-0.8-0.5s-0.7-0.4-1-0.7l0,0c-0.5-0.3-0.9-0.7-1.4-1l-0.4-0.3
	c-0.4-0.3-0.9-0.7-1.3-1l-0.5-0.4c-0.4-0.4-0.8-0.7-1.2-1.1l-0.4-0.4c-2.6-2.5-5-5.4-6.9-8.5l7.9,2.1c0.7,0.2,1.5-0.2,1.7-0.9
	c0,0,0,0,0,0c0.1-0.3,0-0.7-0.1-1c-0.2-0.3-0.5-0.5-0.8-0.6L30,95.7l-1.8-0.5c-0.1,0-0.3-0.1-0.4-0.1h0c-0.5,0-0.9,0.1-1.4,0.3
	c-0.4,0.2-0.7,0.6-0.9,1v0l0,0c-0.1,0.1-0.1,0.3-0.2,0.4l0,0.2l-2.6,9.9c-0.2,0.7,0.2,1.5,1,1.7c0.7,0.2,1.5-0.2,1.7-1l2.1-7.9
	c1.9,3,4.1,5.8,6.6,8.2l0,0l0,0c1,1,2.2,2.1,3.3,3l0.4,0.3l0.8,0.6l0.2,0.1l0.1,0.1c0.4,0.3,0.7,0.5,1.1,0.8l0.4,0.3l0,0l0.3,0.2
	c0.2,0.2,0.5,0.3,0.7,0.5l0,0c0.3,0.2,0.7,0.5,1,0.7l0.1,0.1c3.2,2,6.6,3.6,10.1,4.8l0.3,0.1c0.5,0.2,1.1,0.4,1.7,0.5
	c0.3,0.1,0.7,0.2,1,0.3s0.7,0.2,1,0.3c0.6,0.1,1.2,0.3,1.7,0.4l0.3,0.1c3.7,0.7,7.4,1,11.2,0.9H70h0.2c0.3,0,0.7,0,1-0.1L72,122
	l0.4,0l0,0l0.5,0c0.4,0,0.9-0.1,1.3-0.2h0.1l0.2,0l1-0.1l0.5-0.1c1.5-0.2,2.9-0.6,4.3-0.9h0h0c3-0.8,6-1.9,8.8-3.3l0.3-0.2
	c0.5-0.3,1.1-0.5,1.6-0.8l0.9-0.5C92.2,115.7,92.4,115.6,92.6,115.4L92.6,115.4L92.6,115.4z"/>
<path class="st0" d="M22.5,74L22.5,74c0-3.7,0.4-7.3,1.3-10.9c0-0.1,0-0.2,0.1-0.2c0.1-0.5,0.3-1,0.4-1.4c0-0.1,0.1-0.2,0.1-0.3
	s0.1-0.3,0.2-0.5c0-0.2,0.1-0.3,0.2-0.5c2.4-7.6,6.8-14.4,12.7-19.7l0.4-0.3c0.7-0.6,1.5-1.3,2.2-1.9c0.4-0.3,0.8-0.6,1.2-0.9
	l0.4-0.3c0.5-0.4,1.1-0.8,1.7-1.1h0l0,0c0.6-0.4,1.3-0.8,1.9-1.2s1.3-0.7,2-1.1l0.1,0c0.6-0.3,1.2-0.6,1.8-0.9l0.5-0.2l0.8-0.4
	l0.5-0.2c0.6-0.2,1.2-0.5,1.8-0.7l0.4-0.1c4.2-1.4,8.5-2.3,13-2.5l-5.8,5.8c-0.5,0.5-0.5,1.4,0,1.9c0.5,0.5,1.4,0.5,1.9,0l6-6
	l1.3-1.3c0.1-0.1,0.2-0.2,0.3-0.4v0l0,0c0.5-0.8,0.5-1.8,0.1-2.5L69.8,26v0l0,0c-0.1-0.1-0.2-0.2-0.3-0.4l-0.1-0.1l-7.2-7.2
	c-0.5-0.5-1.4-0.5-1.9,0c-0.5,0.5-0.5,1.4,0,1.9l5.8,5.8c-4.9,0.2-9.7,1.1-14.3,2.8l-0.9,0.4l-0.8,0.3c-0.5,0.2-1.1,0.5-1.7,0.7
	L48,30.2l-0.3,0.1h0l-0.9,0.4l-0.2,0.1l-0.8,0.4l-0.3,0.2l-0.6,0.3L44.4,32l-0.5,0.3l-0.5,0.3l-0.4,0.3l-0.6,0.4L42,33.5l-0.7,0.5
	l-0.2,0.1l-0.8,0.5l0,0L40,34.8L39.7,35l-0.1,0.1l-0.2,0.2c-0.4,0.3-0.7,0.5-1.1,0.8c-0.2,0.2-0.5,0.4-0.7,0.5
	c-0.2,0.2-0.5,0.4-0.8,0.6c-0.5,0.4-1,0.9-1.5,1.4c-0.4,0.3-0.7,0.7-1,1c-0.1,0.1-0.2,0.2-0.4,0.3L33.8,40c-0.3,0.3-0.7,0.7-1,1
	c-0.1,0.1-0.2,0.3-0.4,0.4c-0.3,0.4-0.7,0.7-1,1.1l-0.2,0.2c-1,1.2-2,2.4-2.9,3.7L28,47.1c-0.2,0.3-0.4,0.7-0.6,1
	c-0.2,0.3-0.4,0.6-0.5,0.9c-0.2,0.3-0.3,0.5-0.5,0.8c-0.3,0.6-0.7,1.2-1,1.7c0,0.1-0.1,0.2-0.2,0.3c-0.3,0.5-0.5,1.1-0.8,1.6
	c-0.1,0.2-0.2,0.5-0.4,0.7c-0.2,0.4-0.4,0.8-0.5,1.2c-0.2,0.4-0.3,0.7-0.4,1.1c-0.1,0.4-0.3,0.7-0.4,1c-0.1,0.3-0.3,0.8-0.4,1.2
	c-0.1,0.4-0.2,0.7-0.3,1.1s-0.2,0.7-0.3,1.1c-0.1,0.2-0.1,0.4-0.2,0.7c-0.1,0.2-0.1,0.4-0.1,0.6c-0.1,0.4-0.2,0.9-0.3,1.3
	c-0.1,0.3-0.1,0.6-0.2,0.9c-0.1,0.6-0.2,1.2-0.3,1.7c0,0.2-0.1,0.4-0.1,0.6c-0.1,0.6-0.2,1.3-0.3,1.9c0,0.1,0,0.3,0,0.4
	c-0.1,0.7-0.1,1.4-0.2,2v0.3c0,0.7-0.1,1.4-0.1,2.1c0,0.1,0,0.2,0,0.2V74L22.5,74L22.5,74z"/>
<polygon class="st0" points="68.7,71.4 45.4,71.4 45.4,98.6 48.1,98.6 48.1,74.1 68.7,74.1 68.7,98.6 71.3,98.6 71.3,71.4 
	71.3,60.3 91.9,52 91.9,98.6 94.6,98.6 94.6,48 68.7,58.5 "/>
</svg>
