<svg aria-hidden="true" style="position: absolute; width: 0; height: 0; overflow: hidden;" version="1.1" xmlns="http://www.w3.org/2000/svg" xmlns:xlink="http://www.w3.org/1999/xlink">
<defs>
<symbol id="icon-support" viewBox="0 0 72 64">
<title>support</title>
<path d="M68 56.323c0 2.844 1.627 5.307 4 6.511v0.996c-0.664 0.091-1.342 0.139-2.031 0.139-4.251 0-8.084-1.783-10.795-4.642-1.639 0.436-3.375 0.672-5.174 0.672-9.941 0-18-7.163-18-16s8.059-16 18-16c9.941 0 18 7.163 18 16 0 3.459-1.235 6.662-3.335 9.279-0.427 0.926-0.665 1.957-0.665 3.044zM32 0c17.404 0 31.562 11.288 31.99 25.345-3.074-1.37-6.474-2.095-9.99-2.095-5.972 0-11.614 2.090-15.884 5.886-4.428 3.936-6.866 9.215-6.866 14.864 0 2.792 0.596 5.493 1.733 7.987-0.327 0.008-0.654 0.013-0.983 0.013-1.697 0-3.363-0.108-4.989-0.315-6.874 6.874-15.078 8.106-23.011 8.287v-1.682c4.284-2.099 8-5.921 8-10.29 0-0.61-0.047-1.208-0.135-1.794-7.237-4.767-11.865-12.047-11.865-20.206 0-14.359 14.327-26 32-26z"></path>
</symbol>
<symbol id="icon-speed-up" viewBox="0 0 64 64">
<title>speed-up</title>
<path d="M44 4l-20 20h-12l-12 16c0 0 12.713-3.541 20.129-1.88l-20.129 25.88 26.369-20.509c3.677 8.416-2.369 20.509-2.369 20.509l16-12v-12l20-20 4-20-20 4z"></path>
</symbol>
<symbol id="icon-security" viewBox="0 0 64 64">
<title>security</title>
<path d="M60 0l-28 8-28-8c0 0-0.281 3.231 0 8l28 8.756 28-8.756c0.281-4.769 0-8 0-8zM4.512 12.194c1.499 15.669 7.093 42.015 27.488 51.806 20.395-9.791 25.989-36.137 27.488-51.806l-27.488 10.335-27.488-10.335z"></path>
</symbol>
<symbol id="icon-maintenance" viewBox="0 0 64 64">
<title>maintenance</title>
<path d="M64 24.816l-22.111-3.213-9.889-20.036-9.889 20.036-22.111 3.213 16 15.596-3.777 22.022 19.777-10.397 19.777 10.397-3.777-22.022 16-15.596z"></path>
</symbol>
</defs>
</svg>
