<?xml version="1.0" encoding="utf-8"?>
<!-- Generator: Adobe Illustrator 22.0.1, SVG Export Plug-In . SVG Version: 6.00 Build 0)  -->
<svg version="1.0" id="Слой_1" xmlns="http://www.w3.org/2000/svg" xmlns:xlink="http://www.w3.org/1999/xlink" x="0px" y="0px"
	 width="160px" height="100px" viewBox="0 0 160 100" style="enable-background:new 0 0 160 100;" xml:space="preserve">
<style type="text/css">
	.st0{fill:#234E9E;}
	.st1{fill:none;stroke:#234E9E;stroke-width:0.216;stroke-miterlimit:10;}
	.st2{fill:#1E4E9D;}
	.st3{fill:none;stroke:#006FB5;stroke-width:0.216;stroke-miterlimit:22.926;}
	.st4{fill:none;stroke:#0079BC;stroke-width:0.216;stroke-miterlimit:22.926;}
	.st5{fill:none;stroke:#3B85C4;stroke-width:0.216;stroke-miterlimit:22.926;}
	.st6{fill:none;stroke:#5B91CB;stroke-width:0.216;stroke-miterlimit:22.926;}
	.st7{fill:none;stroke:#729FD2;stroke-width:0.2211;stroke-miterlimit:22.926;}
	.st8{fill:none;stroke:#89ABD8;stroke-width:0.2619;stroke-miterlimit:22.926;}
	.st9{fill:none;stroke:#9DB7DF;stroke-width:0.3019;stroke-miterlimit:22.926;}
	.st10{fill:none;stroke:#B1C4E6;stroke-width:0.3399;stroke-miterlimit:22.926;}
	.st11{fill:none;stroke:#C1CFEA;stroke-width:0.3781;stroke-miterlimit:22.926;}
	.st12{fill:none;stroke:#D1DBEF;stroke-width:0.415;stroke-miterlimit:22.926;}
	.st13{fill:none;stroke:#E1E8F6;stroke-width:0.451;stroke-miterlimit:22.926;}
	.st14{fill:none;stroke:#F0F3FB;stroke-width:0.4861;stroke-miterlimit:22.926;}
	.st15{fill:none;stroke:#FFFFFF;stroke-width:0.5199;stroke-miterlimit:22.926;}
	.st16{fill:none;stroke:#2E4659;stroke-width:0.822;stroke-miterlimit:22.926;}
	.st17{fill:none;stroke:#FFFFFF;stroke-width:1.1769;stroke-miterlimit:22.926;}
	.st18{fill:none;stroke:#1E4E9D;stroke-width:0.411;stroke-miterlimit:22.926;}
</style>
<polygon class="st0" points="40.9,64.1 40.7,64.1 40.7,59.9 43.5,59.9 43.5,64.1 43.4,64.1 43.4,60.1 40.9,60.1 "/>
<polygon class="st1" points="40.9,64.2 40.7,64.2 40.7,59.9 43.6,59.9 43.6,64.2 43.4,64.2 43.4,60.1 40.9,60.1 "/>
<path class="st0" d="M45.4,64.1h-0.2v-4.2h2.3l0.6,0.6v1.3l-0.6,0.6h-2.1V64.1z M45.4,60.1v2.1h2l0.5-0.5v-1.2l-0.5-0.5L45.4,60.1
	L45.4,60.1z"/>
<path class="st1" d="M45.4,64.2h-0.2v-4.3h2.3l0.6,0.6v1.4l-0.6,0.6h-2.1L45.4,64.2L45.4,64.2z M45.4,60.1v2.1h2l0.5-0.5v-1.2
	l-0.5-0.5C47.5,60.1,45.4,60.1,45.4,60.1z"/>
<path class="st0" d="M51.8,59.9l0.6,0.6v3.1l-0.6,0.6H50l-0.6-0.6v-3.1l0.6-0.6H51.8z M51.8,60.1h-1.7l-0.5,0.5v3l0.5,0.5h1.7
	l0.5-0.5v-3L51.8,60.1z"/>
<path class="st1" d="M51.8,59.9l0.6,0.6v3.1l-0.6,0.6H50l-0.6-0.6v-3.1l0.6-0.6H51.8z M51.8,60.1h-1.7l-0.5,0.5v3l0.5,0.5h1.7
	l0.5-0.5v-3L51.8,60.1z"/>
<polygon class="st0" points="54.3,64.1 54,64.1 54,59.9 54.2,59.9 54.2,63.9 56.6,59.9 56.9,59.9 56.9,64.1 56.7,64.1 56.7,60.1 "/>
<polygon class="st1" points="54.3,64.2 54,64.2 54,59.9 54.2,59.9 54.2,63.9 56.6,59.9 56.9,59.9 56.9,64.2 56.7,64.2 56.7,60.1 "/>
<polygon class="st0" points="60.7,60.5 60.3,60.1 58.6,60.1 58.2,60.2 58.1,60.1 58.6,59.9 60.4,59.9 60.9,60.4 60.9,61.5 60.5,62
	60.9,62.4 60.9,63.6 60.4,64.1 58.5,64.1 58.1,64 58.1,63.8 58.6,64 60.3,64 60.8,63.5 60.8,62.5 60.3,62.1 59,62.1 59,61.9
	60.3,61.9 60.7,61.5 "/>
<polygon class="st1" points="60.7,60.5 60.3,60.1 58.6,60.1 58.2,60.2 58.1,60.1 58.6,59.9 60.4,59.9 60.9,60.4 60.9,61.5 60.5,62
	61,62.5 61,63.6 60.4,64.2 58.5,64.2 58.1,64 58.1,63.8 58.6,64 60.3,64 60.8,63.5 60.8,62.5 60.3,62.1 59,62.1 59,61.9 60.3,61.9
	60.7,61.5 "/>
<path class="st0" d="M65.3,62.4v1.2l-0.6,0.6h-2.3v-4.2h2.3l0.4,0.4v1.2l-0.3,0.3L65.3,62.4z M62.6,61.8h2l0.3-0.3v-1.1l-0.3-0.3h-2
	V61.8L62.6,61.8z M64.7,62h-2v2h2l0.5-0.4v-1.1L64.7,62z"/>
<path class="st1" d="M65.3,62.4v1.2l-0.6,0.6h-2.3v-4.3h2.3l0.4,0.4v1.2l-0.3,0.3L65.3,62.4z M62.6,61.8h2l0.3-0.3v-1.1l-0.3-0.3h-2
	V61.8L62.6,61.8z M64.7,62h-2v2h2l0.5-0.5v-1.1L64.7,62z"/>
<path class="st0" d="M69.1,59.9l0.6,0.6v3.1l-0.6,0.6h-1.8l-0.6-0.6v-3.1l0.6-0.6H69.1z M69,60.1h-1.7l-0.5,0.5v3l0.5,0.5H69
	l0.5-0.5v-3L69,60.1z"/>
<path class="st1" d="M69.1,59.9l0.6,0.6v3.1l-0.6,0.6h-1.8l-0.6-0.6v-3.1l0.6-0.6H69.1z M69,60.1h-1.7l-0.5,0.5v3l0.5,0.5H69
	l0.5-0.5v-3L69,60.1z"/>
<path class="st0" d="M74.5,65.2h-0.2v-1H71v1h-0.2V64h0.3l0.3-0.4l0.4-3.6h2.2V64h0.4L74.5,65.2L74.5,65.2z M71.4,64h2.5v-3.9H72
	l-0.4,3.5L71.4,64z"/>
<path class="st1" d="M74.5,65.2h-0.2v-1H71v1h-0.2V64h0.3l0.3-0.4l0.4-3.6h2.3V64h0.4V65.2L74.5,65.2z M71.3,64h2.5v-3.9H72
	l-0.4,3.5L71.3,64z"/>
<polygon class="st0" points="76.1,64.1 75.8,64.1 75.8,59.9 76,59.9 76,63.9 78.4,59.9 78.7,59.9 78.7,64.1 78.5,64.1 78.5,60.1 "/>
<polygon class="st1" points="76.1,64.2 75.8,64.2 75.8,59.9 76,59.9 76,63.9 78.4,59.9 78.7,59.9 78.7,64.2 78.5,64.2 78.5,60.1 "/>
<polygon class="st0" points="81.5,64.1 81.3,64.1 81.3,60.1 79.9,60.1 79.9,59.9 82.9,59.9 82.9,60.1 81.5,60.1 "/>
<polygon class="st1" points="81.5,64.2 81.3,64.2 81.3,60.1 79.9,60.1 79.9,59.9 82.9,59.9 82.9,60.1 81.5,60.1 "/>
<polygon class="st0" points="84.1,59.9 86.7,59.9 86.7,60.1 84.3,60.1 84.3,61.8 86.5,61.8 86.5,62 84.3,62 84.3,64 86.7,64
	86.7,64.1 84.1,64.1 "/>
<polygon class="st1" points="84.1,59.9 86.7,59.9 86.7,60.1 84.3,60.1 84.3,61.8 86.5,61.8 86.5,62 84.3,62 84.3,64 86.7,64
	86.7,64.2 84.1,64.2 "/>
<polygon class="st0" points="90.9,64.1 90.7,64.1 90.7,60.1 88.8,60.1 88.4,63.7 88.1,64 87.6,64.2 87.6,64 88,63.8 88.2,63.6
	88.6,59.9 90.9,59.9 "/>
<polygon class="st1" points="90.9,64.2 90.7,64.2 90.7,60.1 88.8,60.1 88.4,63.7 88.1,64 87.6,64.2 87.6,64 88,63.9 88.2,63.6
	88.6,59.9 90.9,59.9 "/>
<path class="st0" d="M92.6,59.9h0.2v1.8h2.1l0.6,0.6v1.3l-0.6,0.6h-2.3L92.6,59.9L92.6,59.9z M94.8,61.9h-2V64h2l0.5-0.5v-1.1
	L94.8,61.9z"/>
<path class="st1" d="M92.6,59.9h0.2v1.8h2.1l0.6,0.6v1.3l-0.6,0.6h-2.3L92.6,59.9L92.6,59.9z M94.8,61.9h-2V64h2l0.5-0.5v-1.1
	L94.8,61.9z"/>
<polygon class="st0" points="102,63.5 102.1,63.7 101.6,64.1 99.8,64.1 99.3,63.6 99.3,60.5 99.8,59.9 101.5,59.9 102.1,60.5
	102.1,61.1 101.9,61.1 101.9,60.5 101.5,60.1 99.9,60.1 99.5,60.5 99.5,63.5 99.9,64 101.5,64 "/>
<polygon class="st1" points="102,63.6 102.1,63.7 101.6,64.2 99.8,64.2 99.3,63.6 99.3,60.5 99.8,59.9 101.6,59.9 102.1,60.5
	102.1,61.1 101.9,61.1 101.9,60.5 101.5,60.1 99.9,60.1 99.4,60.5 99.4,63.5 99.9,64 101.6,64 "/>
<polygon class="st0" points="103.8,64.1 103.5,64.1 103.5,59.9 103.7,59.9 103.7,63.9 106.1,59.9 106.4,59.9 106.4,64.1 106.2,64.1
	106.2,60.1 "/>
<polygon class="st1" points="103.8,64.2 103.5,64.2 103.5,59.9 103.7,59.9 103.7,63.9 106.1,59.9 106.4,59.9 106.4,64.2 106.2,64.2
	106.2,60.1 "/>
<polygon class="st0" points="110.9,64.1 110.7,64.1 110.7,60.1 108.8,60.1 108.4,63.7 108.1,64 107.6,64.2 107.6,64 108,63.8
	108.2,63.6 108.6,59.9 110.9,59.9 "/>
<polygon class="st1" points="110.9,64.2 110.7,64.2 110.7,60.1 108.8,60.1 108.4,63.7 108.1,64 107.6,64.2 107.5,64 108,63.9
	108.2,63.6 108.6,59.9 110.9,59.9 "/>
<path class="st0" d="M114.9,59.9l0.6,0.6v3.1l-0.6,0.6h-1.8l-0.6-0.6v-3.1l0.6-0.6H114.9z M114.8,60.1h-1.7l-0.5,0.5v3l0.5,0.5h1.7
	l0.5-0.5v-3L114.8,60.1z"/>
<path class="st1" d="M114.9,59.9l0.6,0.6v3.1l-0.6,0.6h-1.8l-0.6-0.6v-3.1l0.6-0.6H114.9z M114.8,60.1h-1.7l-0.5,0.5v3l0.5,0.5h1.7
	l0.5-0.5v-3L114.8,60.1z"/>
<path class="st0" d="M119.9,62.4v1.2l-0.6,0.6h-2.3v-4.2h2.3l0.4,0.4v1.2l-0.3,0.3L119.9,62.4z M117.3,61.8h2l0.3-0.3v-1.1l-0.3-0.3
	h-2V61.8z M119.3,62h-2v2h2l0.5-0.4v-1.1L119.3,62z"/>
<path class="st1" d="M119.9,62.4v1.2l-0.6,0.6h-2.3v-4.3h2.3l0.4,0.4v1.2l-0.3,0.3L119.9,62.4z M117.3,61.8h2l0.3-0.3v-1.1l-0.3-0.3
	h-2V61.8z M119.3,62h-2v2h2l0.5-0.5v-1.1L119.3,62z"/>
<path class="st0" d="M123.7,59.9l0.6,0.6v3.1l-0.6,0.6h-1.8l-0.6-0.6v-3.1l0.6-0.6H123.7z M123.7,60.1H122l-0.5,0.5v3L122,64h1.6
	l0.5-0.5v-3L123.7,60.1z"/>
<path class="st1" d="M123.7,59.9l0.6,0.6v3.1l-0.6,0.6h-1.8l-0.6-0.6v-3.1l0.6-0.6H123.7z M123.7,60.1H122l-0.5,0.5v3L122,64h1.7
	l0.5-0.5v-3L123.7,60.1z"/>
<polygon class="st0" points="126.1,64.1 125.9,64.1 125.9,59.9 128.4,59.9 128.4,60.1 126.1,60.1 "/>
<polygon class="st1" points="126.1,64.2 125.9,64.2 125.9,59.9 128.5,59.9 128.5,60.1 126.1,60.1 "/>
<path class="st0" d="M131.9,59.9l0.6,0.6v3.1l-0.6,0.6h-1.8l-0.6-0.6v-3.1l0.6-0.6H131.9z M131.9,60.1h-1.6l-0.5,0.5v3l0.5,0.5h1.6
	l0.5-0.5v-3L131.9,60.1z"/>
<path class="st1" d="M131.9,59.9l0.6,0.6v3.1l-0.6,0.6h-1.8l-0.6-0.6v-3.1l0.6-0.6H131.9z M131.9,60.1h-1.7l-0.5,0.5v3l0.5,0.5h1.7
	l0.5-0.5v-3L131.9,60.1z"/>
<polygon class="st0" points="136.9,64.1 136.7,64.1 136.7,59.9 136.9,59.9 136.9,61.9 137.8,61.9 139,60 139.5,59.9 139.5,60
	139.1,60.2 138,62 139.1,63.9 139.5,64 139.5,64.2 139,64 137.8,62.1 136.9,62.1 "/>
<polygon class="st1" points="136.8,64.2 136.7,64.2 136.7,59.9 136.8,59.9 136.8,61.9 137.8,61.9 139,60 139.5,59.9 139.6,60
	139.1,60.2 138,62 139.1,63.9 139.6,64 139.5,64.2 139,64 137.8,62.1 136.8,62.1 "/>
<path class="st0" d="M140.6,64.2l-0.2-0.1l1.4-4.2h0.4l1.4,4.2l-0.2,0.1l-0.5-1.4h-1.9L140.6,64.2z M142.9,62.6l-0.8-2.5H142
	l-0.8,2.5H142.9z"/>
<path class="st1" d="M140.6,64.2l-0.2-0.1l1.4-4.2h0.4l1.4,4.2l-0.2,0.1l-0.5-1.4h-1.9L140.6,64.2z M142.9,62.6l-0.8-2.5H142
	l-0.8,2.5H142.9z"/>
<path class="st0" d="M144.9,59.9h2.6v0.2h-2.4v1.6h2.1l0.6,0.6v1.3l-0.6,0.6h-2.3L144.9,59.9L144.9,59.9z M147.1,61.9h-2V64h2
	l0.5-0.5v-1.1L147.1,61.9z"/>
<path class="st1" d="M144.9,59.9h2.6v0.2h-2.4v1.7h2.1l0.6,0.6v1.3l-0.6,0.6h-2.3L144.9,59.9L144.9,59.9z M147.1,61.9h-2V64h2
	l0.5-0.5v-1.1L147.1,61.9z"/>
<polygon class="st0" points="149.2,59.9 151.8,59.9 151.8,60.1 149.4,60.1 149.4,61.8 151.6,61.8 151.6,62 149.4,62 149.4,64
	151.8,64 151.8,64.1 149.2,64.1 "/>
<polygon class="st1" points="149.2,59.9 151.8,59.9 151.8,60.1 149.4,60.1 149.4,61.8 151.6,61.8 151.6,62 149.4,62 149.4,64
	151.8,64 151.8,64.2 149.2,64.2 "/>
<polygon class="st0" points="156,64.1 155.8,64.1 155.8,60.1 153.9,60.1 153.5,63.7 153.2,64 152.7,64.2 152.7,64 153.1,63.8
	153.3,63.6 153.7,59.9 156,59.9 "/>
<polygon class="st1" points="156,64.2 155.8,64.2 155.8,60.1 153.9,60.1 153.5,63.7 153.2,64 152.7,64.2 152.6,64 153.1,63.9
	153.3,63.6 153.7,59.9 156,59.9 "/>
<path class="st0" d="M160.2,62.4H159l-1,1.6l-0.5,0.2l-0.1-0.2l0.4-0.1l0.9-1.5h-0.7l-0.6-0.6v-1.3l0.6-0.6h2.2v4.2h-0.2L160.2,62.4
	L160.2,62.4z M158.2,60.1l-0.5,0.5v1.2l0.5,0.5h2v-2.1L158.2,60.1L158.2,60.1z"/>
<path class="st1" d="M160.2,62.4H159l-1,1.6l-0.5,0.2l-0.1-0.2l0.4-0.1l0.9-1.5h-0.7l-0.6-0.6v-1.4l0.6-0.6h2.3v4.3h-0.2L160.2,62.4
	L160.2,62.4z M158.2,60.1l-0.5,0.5v1.2l0.5,0.5h2v-2.1L158.2,60.1L158.2,60.1z"/>
<path class="st2" d="M17,35.3c4.3,0,8.2,1.8,11,4.6c2.8,2.8,4.6,6.7,4.6,11c0,4.3-1.7,8.2-4.6,11c-2.8,2.8-6.7,4.6-11,4.6
	c-4.3,0-8.2-1.7-11-4.6c-2.8-2.8-4.6-6.7-4.6-11c0-4.3,1.7-8.2,4.6-11C8.8,37,12.7,35.3,17,35.3"/>
<path class="st3" d="M16.4,45.2c1-0.1,2,0.6,2.1,1.6c0.1,1-0.6,2-1.6,2.1c-1,0.1-2-0.6-2.1-1.6C14.7,46.3,15.4,45.4,16.4,45.2z
	 M22.1,48.3c0.4,0.9,0.1,2-0.9,2.5c-0.9,0.4-2,0.1-2.5-0.9c-0.4-0.9-0.1-2,0.9-2.5C20.5,47,21.6,47.3,22.1,48.3z M21,54.6
	c-0.7,0.7-1.9,0.7-2.6,0c-0.7-0.7-0.7-1.9,0-2.6c0.7-0.7,1.9-0.7,2.6,0C21.7,52.7,21.7,53.9,21,54.6z M14.6,55.5
	c-0.9-0.5-1.2-1.6-0.8-2.5c0.5-0.9,1.6-1.2,2.5-0.8c0.9,0.5,1.2,1.6,0.8,2.5C16.6,55.6,15.5,56,14.6,55.5z M11.8,49.7
	c0.2-1,1.1-1.7,2.1-1.5c1,0.2,1.7,1.1,1.5,2.1c-0.2,1-1.1,1.7-2.1,1.5C12.3,51.7,11.6,50.7,11.8,49.7z"/>
<path class="st4" d="M17.4,45.3c1,0.1,1.7,0.9,1.7,1.9c-0.1,1-0.9,1.7-1.9,1.7c-1-0.1-1.7-0.9-1.7-1.9C15.6,46,16.4,45.3,17.4,45.3z
	 M22.3,49.3c0.2,1-0.4,1.9-1.3,2.2c-1,0.2-1.9-0.4-2.2-1.3c-0.2-1,0.4-1.9,1.3-2.2C21.1,47.7,22.1,48.3,22.3,49.3z M20.1,55.2
	c-0.8,0.5-2,0.3-2.5-0.6c-0.5-0.8-0.3-2,0.6-2.5c0.8-0.5,2-0.3,2.5,0.6C21.2,53.5,20.9,54.6,20.1,55.2z M13.8,54.8
	c-0.8-0.6-0.9-1.8-0.2-2.5c0.6-0.8,1.8-0.9,2.5-0.2c0.8,0.6,0.9,1.8,0.2,2.5C15.7,55.4,14.5,55.5,13.8,54.8z M12.1,48.8
	c0.4-0.9,1.4-1.4,2.4-1c0.9,0.4,1.4,1.4,1,2.4c-0.4,0.9-1.4,1.4-2.4,1C12.2,50.7,11.8,49.7,12.1,48.8z"/>
<path class="st5" d="M18.5,45.4c1,0.3,1.5,1.3,1.3,2.3c-0.3,1-1.3,1.5-2.3,1.3c-1-0.3-1.5-1.3-1.3-2.3
	C16.5,45.7,17.5,45.1,18.5,45.4z M22.5,50.3c0,1-0.8,1.9-1.8,1.9c-1,0-1.9-0.8-1.9-1.8c0-1,0.8-1.9,1.8-1.9
	C21.7,48.5,22.5,49.3,22.5,50.3z M19.1,55.7c-1,0.3-2-0.2-2.4-1.1c-0.3-1,0.2-2,1.1-2.4c1-0.3,2,0.2,2.4,1.1
	C20.6,54.3,20.1,55.4,19.1,55.7z M13,54.2c-0.6-0.8-0.5-2,0.3-2.6c0.8-0.6,2-0.5,2.6,0.3c0.6,0.8,0.5,2-0.3,2.6
	C14.7,55.1,13.6,55,13,54.2z M12.5,47.8c0.6-0.8,1.7-1.1,2.6-0.5c0.8,0.6,1.1,1.7,0.5,2.6c-0.6,0.8-1.7,1.1-2.6,0.5
	C12.2,49.8,12,48.6,12.5,47.8z"/>
<path class="st6" d="M19.5,45.5c1,0.5,1.3,1.7,0.8,2.6c-0.5,1-1.7,1.3-2.6,0.8c-1-0.5-1.3-1.7-0.8-2.6C17.4,45.4,18.6,45,19.5,45.5z
	 M22.8,51.4c-0.2,1.1-1.2,1.8-2.3,1.6c-1.1-0.2-1.8-1.2-1.6-2.3c0.2-1.1,1.2-1.8,2.3-1.6C22.2,49.3,23,50.3,22.8,51.4z M18.2,56.3
	c-1.1,0.2-2.1-0.6-2.2-1.6c-0.2-1.1,0.6-2.1,1.7-2.2c1.1-0.2,2.1,0.6,2.2,1.7C20,55.1,19.3,56.1,18.2,56.3z M12.1,53.5
	c-0.5-1-0.1-2.1,0.9-2.6c1-0.5,2.1-0.1,2.6,0.9c0.5,1,0.1,2.1-0.9,2.6C13.8,54.8,12.6,54.4,12.1,53.5z M13,46.8c0.8-0.8,2-0.7,2.8,0
	c0.8,0.8,0.7,2,0,2.8c-0.8,0.8-2,0.7-2.8,0C12.2,48.8,12.2,47.6,13,46.8z"/>
<path class="st7" d="M20.6,45.6c0.9,0.7,1.1,2.1,0.4,3c-0.7,0.9-2.1,1.1-3,0.4c-0.9-0.7-1.1-2.1-0.4-3
	C18.3,45.1,19.7,44.9,20.6,45.6z M23,52.5c-0.4,1.1-1.6,1.7-2.7,1.3c-1.1-0.4-1.7-1.6-1.3-2.7c0.4-1.1,1.6-1.7,2.7-1.3
	S23.4,51.4,23,52.5z M17.2,56.9c-1.2,0-2.1-1-2.1-2.2c0-1.2,1-2.1,2.2-2.1c1.2,0,2.1,1,2.1,2.2C19.4,56,18.4,56.9,17.2,56.9z
	 M11.3,52.8c-0.3-1.1,0.3-2.3,1.4-2.7c1.1-0.3,2.3,0.3,2.7,1.4c0.3,1.1-0.3,2.3-1.4,2.7C12.8,54.5,11.6,53.9,11.3,52.8z M13.4,45.8
	c1-0.7,2.3-0.4,3,0.5c0.7,1,0.4,2.3-0.5,3c-1,0.7-2.3,0.4-3-0.5C12.2,47.8,12.4,46.5,13.4,45.8z"/>
<path class="st8" d="M21.7,45.8c0.9,0.9,0.9,2.4,0,3.4c-0.9,0.9-2.4,0.9-3.4,0c-0.9-0.9-0.9-2.4,0-3.4
	C19.3,44.8,20.8,44.8,21.7,45.8z M23.3,53.6c-0.6,1.2-2,1.6-3.2,1c-1.2-0.6-1.6-2-1-3.2c0.6-1.2,2-1.6,3.2-1
	C23.4,51,23.9,52.4,23.3,53.6z M16.3,57.5c-1.3-0.2-2.2-1.4-2-2.7c0.2-1.3,1.4-2.2,2.7-2c1.3,0.2,2.2,1.4,2,2.7
	C18.8,56.8,17.6,57.7,16.3,57.5z M10.4,52c-0.2-1.3,0.7-2.5,2-2.7c1.3-0.2,2.5,0.7,2.7,2c0.2,1.3-0.7,2.5-2,2.7
	C11.8,54.2,10.6,53.3,10.4,52z M13.8,44.8c1.2-0.6,2.6-0.1,3.2,1.1c0.6,1.2,0.1,2.6-1,3.2c-1.2,0.6-2.6,0.1-3.2-1.1
	C12.2,46.8,12.6,45.4,13.8,44.8z"/>
<path class="st9" d="M22.8,45.9c0.9,1.1,0.7,2.8-0.4,3.7c-1.1,0.9-2.8,0.7-3.7-0.4c-0.9-1.1-0.7-2.8,0.4-3.7
	C20.3,44.5,21.9,44.7,22.8,45.9z M23.5,54.7c-0.8,1.2-2.5,1.5-3.7,0.7c-1.2-0.8-1.5-2.5-0.7-3.7c0.8-1.2,2.5-1.5,3.7-0.7
	C24,51.9,24.3,53.5,23.5,54.7z M15.3,58.1c-1.4-0.4-2.2-1.9-1.8-3.3c0.4-1.4,1.9-2.2,3.3-1.8c1.4,0.4,2.2,1.9,1.8,3.3
	C18.1,57.7,16.7,58.5,15.3,58.1z M9.6,51.3c-0.1-1.5,1.1-2.7,2.5-2.7s2.7,1.1,2.7,2.5c0.1,1.5-1.1,2.7-2.5,2.7
	C10.8,53.9,9.6,52.8,9.6,51.3z M14.2,43.8c1.4-0.5,2.9,0.2,3.4,1.6c0.5,1.4-0.2,2.9-1.6,3.4c-1.4,0.5-2.9-0.2-3.4-1.6
	C12.2,45.8,12.9,44.3,14.2,43.8z"/>
<path class="st10" d="M24,46c0.9,1.4,0.5,3.2-0.9,4.1c-1.4,0.9-3.2,0.5-4.1-0.9c-0.9-1.4-0.5-3.2,0.9-4.1C21.3,44.2,23.1,44.6,24,46
	z M23.8,55.9c-1,1.3-2.9,1.5-4.1,0.4c-1.3-1-1.5-2.9-0.4-4.1c1-1.3,2.9-1.5,4.1-0.4C24.6,52.8,24.8,54.6,23.8,55.9z M14.3,58.7
	c-1.5-0.6-2.3-2.3-1.7-3.8c0.6-1.5,2.3-2.3,3.8-1.7c1.5,0.6,2.3,2.3,1.7,3.8C17.5,58.5,15.8,59.3,14.3,58.7z M8.7,50.6
	c0.1-1.6,1.5-2.9,3.1-2.8c1.6,0.1,2.9,1.5,2.8,3.1c-0.1,1.6-1.5,2.9-3.1,2.8C9.8,53.6,8.6,52.2,8.7,50.6z M14.7,42.7
	c1.6-0.4,3.2,0.5,3.6,2.1c0.4,1.6-0.5,3.2-2.1,3.6c-1.6,0.4-3.2-0.5-3.6-2.1S13.1,43.1,14.7,42.7z"/>
<path class="st11" d="M25.1,46.1c0.9,1.6,0.3,3.6-1.3,4.4c-1.6,0.9-3.6,0.3-4.4-1.3c-0.9-1.6-0.3-3.6,1.3-4.4
	C22.3,44,24.3,44.5,25.1,46.1z M24,57c-1.2,1.3-3.3,1.4-4.6,0.1c-1.3-1.2-1.4-3.3-0.1-4.6c1.2-1.3,3.3-1.4,4.6-0.1
	C25.2,53.7,25.2,55.7,24,57z M13.3,59.3c-1.6-0.8-2.3-2.7-1.6-4.3c0.8-1.6,2.7-2.3,4.3-1.6c1.6,0.8,2.3,2.7,1.6,4.3
	C16.8,59.4,14.9,60.1,13.3,59.3z M7.8,49.8c0.2-1.8,1.9-3,3.6-2.8c1.8,0.2,3,1.9,2.8,3.6c-0.2,1.8-1.9,3-3.6,2.8
	C8.8,53.2,7.5,51.6,7.8,49.8z M15.1,41.6c1.8-0.3,3.5,0.8,3.8,2.6c0.3,1.8-0.8,3.5-2.6,3.8c-1.8,0.3-3.5-0.8-3.8-2.6
	C12.2,43.7,13.3,42,15.1,41.6z"/>
<path class="st12" d="M26.3,46.2c0.8,1.8,0.1,3.9-1.7,4.8c-1.8,0.8-3.9,0.1-4.8-1.7c-0.8-1.8-0.1-3.9,1.7-4.8
	C23.3,43.7,25.5,44.4,26.3,46.2z M24.3,58.2c-1.4,1.4-3.7,1.3-5.1-0.1c-1.4-1.4-1.3-3.7,0.1-5.1c1.4-1.4,3.7-1.3,5.1,0.1
	C25.8,54.6,25.7,56.9,24.3,58.2z M12.2,60c-1.7-1-2.4-3.1-1.4-4.9c0.9-1.7,3.1-2.4,4.9-1.4c1.7,0.9,2.4,3.1,1.4,4.9
	C16.1,60.3,13.9,60.9,12.2,60z M6.8,49c0.4-1.9,2.2-3.2,4.2-2.9c1.9,0.4,3.2,2.2,2.9,4.2c-0.4,1.9-2.2,3.2-4.2,2.9
	C7.7,52.8,6.5,51,6.8,49z M15.6,40.5c2-0.3,3.8,1.1,4,3.1c0.3,2-1.1,3.8-3.1,4c-2,0.3-3.8-1.1-4-3.1C12.2,42.6,13.6,40.8,15.6,40.5z
	"/>
<path class="st13" d="M27.5,46.4c0.8,2-0.1,4.3-2.1,5.1c-2,0.8-4.3-0.1-5.1-2.1c-0.8-2,0.1-4.3,2.1-5.1
	C24.4,43.4,26.7,44.4,27.5,46.4z M24.5,59.4c-1.6,1.4-4.1,1.2-5.5-0.4c-1.4-1.6-1.2-4.1,0.4-5.5c1.7-1.4,4.1-1.2,5.5,0.4
	C26.4,55.6,26.2,58,24.5,59.4z M11.1,60.6c-1.8-1.1-2.4-3.6-1.3-5.4c1.1-1.8,3.6-2.4,5.4-1.3c1.8,1.1,2.4,3.6,1.3,5.4
	C15.4,61.2,13,61.7,11.1,60.6z M5.9,48.2c0.5-2.1,2.6-3.4,4.7-2.9c2.1,0.5,3.4,2.6,2.9,4.7c-0.5,2.1-2.6,3.4-4.7,2.9
	C6.7,52.5,5.4,50.3,5.9,48.2z M16,39.4c2.2-0.2,4.1,1.4,4.2,3.6c0.2,2.2-1.4,4.1-3.6,4.2c-2.2,0.2-4.1-1.4-4.2-3.6
	C12.3,41.5,13.9,39.6,16,39.4z"/>
<path class="st14" d="M28.8,46.5c0.8,2.2-0.3,4.7-2.6,5.5c-2.2,0.8-4.7-0.3-5.5-2.6c-0.8-2.2,0.3-4.7,2.6-5.5
	C25.5,43.1,28,44.3,28.8,46.5z M24.8,60.7c-1.9,1.5-4.5,1.1-6-0.7c-1.5-1.9-1.1-4.5,0.7-6c1.9-1.5,4.5-1.1,6,0.7
	C27,56.5,26.6,59.2,24.8,60.7z M10,61.3c-2-1.3-2.5-4-1.2-5.9c1.3-2,4-2.5,5.9-1.2c2,1.3,2.5,4,1.2,5.9C14.7,62.1,12,62.6,10,61.3z
	 M4.9,47.4c0.6-2.3,3-3.6,5.3-2.9c2.3,0.6,3.6,3,2.9,5.3c-0.6,2.3-3,3.6-5.3,2.9C5.6,52.1,4.3,49.7,4.9,47.4z M16.5,38.3
	c2.4-0.1,4.3,1.8,4.4,4.1c0.1,2.4-1.8,4.3-4.1,4.4c-2.4,0.1-4.3-1.8-4.4-4.1C12.3,40.4,14.1,38.4,16.5,38.3z"/>
<path class="st15" d="M30,46.6c0.8,2.4-0.5,5-3,5.8c-2.4,0.8-5-0.5-5.8-3c-0.8-2.4,0.5-5,3-5.8C26.6,42.8,29.2,44.2,30,46.6z
	 M25,61.9c-2.1,1.5-5,1-6.5-1c-1.5-2.1-1-5,1-6.5c2.1-1.5,5-1,6.5,1C27.6,57.5,27.1,60.4,25,61.9z M8.9,61.9c-2.1-1.5-2.5-4.4-1-6.5
	c1.5-2.1,4.4-2.5,6.5-1c2.1,1.5,2.5,4.4,1,6.5C13.9,63,11,63.4,8.9,61.9z M4,46.6c0.8-2.4,3.4-3.8,5.8-3c2.4,0.8,3.8,3.4,3,5.8
	c-0.8,2.4-3.4,3.8-5.8,3C4.5,51.7,3.2,49,4,46.6z M17,37.1c2.6,0,4.6,2.1,4.6,4.6c0,2.6-2.1,4.6-4.6,4.6c-2.6,0-4.6-2.1-4.6-4.6
	C12.4,39.2,14.4,37.1,17,37.1z"/>
<path class="st16" d="M17,67.4c9.1,0,16.6-7.4,16.6-16.6c0-9.1-7.4-16.6-16.6-16.6c-9.1,0-16.6,7.4-16.6,16.6
	C0.5,60,7.9,67.4,17,67.4z"/>
<circle class="st17" cx="17" cy="41.8" r="4.8"/>
<path class="st17" d="M30.1,46.5c0.8,2.5-0.5,5.1-3,5.9c-2.5,0.8-5.1-0.5-5.9-3c-0.8-2.5,0.5-5.1,3-5.9
	C26.7,42.7,29.3,44.1,30.1,46.5z M25.1,62c-2.1,1.5-5,1.1-6.5-1c-1.5-2.1-1.1-5,1-6.5c2.1-1.5,5-1.1,6.5,1
	C27.7,57.6,27.2,60.5,25.1,62z M8.9,62c-2.1-1.5-2.5-4.4-1-6.5c1.5-2.1,4.4-2.6,6.5-1s2.5,4.4,1,6.5C13.9,63.1,11,63.5,8.9,62z"/>
<path class="st2" d="M153.6,50.7h-5.2l2.5-10L153.6,50.7z M136.7,43.9h0.9c0.7,0,1.6-0.1,2.1-0.5c0.5-0.4,0.6-1.2,0.6-1.8
	c0-0.6-0.1-1.3-0.6-1.7c-0.5-0.4-1.4-0.5-2.1-0.5h-1L136.7,43.9L136.7,43.9z M120.6,38.9c-1,0-1.7,0.5-2.1,1.4
	c-0.6,1.3-0.7,3.3-0.7,4.6c0,1.4,0.1,3.4,0.7,4.7c0.4,0.9,1.1,1.4,2.1,1.4c1,0,1.7-0.5,2.1-1.4c0.6-1.3,0.7-3.3,0.7-4.7
	c0-1.4-0.1-3.4-0.7-4.7C122.2,39.4,121.6,38.9,120.6,38.9z M66.4,38.9c-1,0-1.7,0.5-2.1,1.4c-0.6,1.3-0.7,3.3-0.7,4.6
	c0,1.4,0.1,3.4,0.7,4.7c0.4,0.9,1.1,1.4,2.1,1.4c1,0,1.7-0.5,2.1-1.4c0.6-1.3,0.7-3.3,0.7-4.7c0-1.4-0.1-3.4-0.7-4.7
	C68.1,39.4,67.4,38.9,66.4,38.9z M145.7,55.1L145.7,55.1L145.7,55.1c0-0.4,0-0.8,0-1.1c0-0.5,0.6-0.9,1-0.9c3.5,0,7.1,0,10.6,0
	c0.6,0,1.1,0.4,1.1,1c0,0,0,1,0,1v0h0c0.7,0,1.3,0,2,0h0l0-4.4h-0.8c-0.3,0-0.7,0-0.9-0.3c-0.3-0.2-0.5-1.1-0.6-1.5l-3.4-12.2h-5.3
	l-3.8,12.3c-0.1,0.4-0.3,0.9-0.6,1.3c-0.2,0.3-0.6,0.4-0.9,0.4h-0.6l0,4.3h0C144.4,55.1,145.7,55.1,145.7,55.1z M136.7,45.9v3.5
	c0,0.3,0,1,0.2,1.2c0.2,0.2,0.7,0.2,1,0.2h0.6l0.1,2.3h-8.3l-0.1-2.3h0.6c0.3,0,0.8,0,1-0.2c0.2-0.2,0.2-0.9,0.2-1.2v-8.9
	c0-0.3,0-0.9-0.2-1.2c-0.2-0.2-0.7-0.2-1-0.2h-0.5v-2.3h9.3c1.4,0,3.3,0.2,4.5,1.1c1.1,0.8,1.4,2.1,1.4,3.4c0,1.3-0.3,2.6-1.4,3.4
	c-1.2,0.9-3,1.1-4.5,1.1H136.7z M112.1,45c0-2.3,0.6-4.6,2.2-6.3c1.7-1.7,3.9-2.3,6.2-2.3c2.3,0,4.5,0.6,6.2,2.3
	c1.7,1.7,2.2,4,2.2,6.3c0,2.3-0.6,4.6-2.2,6.3c-1.7,1.7-3.9,2.3-6.2,2.3c-2.3,0-4.5-0.6-6.1-2.3C112.7,49.6,112.1,47.3,112.1,45z
	 M106,43.2l3.9,6.6c0.2,0.3,0.4,0.6,0.7,0.8c0.3,0.2,0.5,0.2,0.8,0.2h0.6v2.3h-8.6v-2.3h0.6c0.2,0,0.6,0,0.8-0.1
	c0.1-0.1,0.2-0.2,0.2-0.3c0-0.1,0-0.2,0-0.3c0-0.1-0.1-0.2-0.1-0.3l-2.1-3.6l-2.2,1.9v1.4c0,0.3,0,0.9,0.2,1.2
	c0.2,0.2,0.7,0.2,0.9,0.2h0.4v2.3h-7.9v-2.3h0.5c0.3,0,0.8,0,1-0.2c0.2-0.2,0.2-0.9,0.2-1.2v-8.9c0-0.3,0-0.9-0.2-1.2
	c-0.2-0.2-0.7-0.2-1-0.2h-0.5v-2.3h7.6v2.3h0c-0.3,0-0.7,0-0.9,0.2c-0.2,0.2-0.2,0.9-0.2,1.2v4l4.6-4.3c0.1-0.1,0.2-0.2,0.3-0.3
	c0.1-0.1,0.1-0.2,0.1-0.3c0-0.1-0.1-0.2-0.2-0.3c-0.2-0.1-0.4-0.1-0.6-0.1H104v-2.3h7.4v2.3H111c-0.3,0-0.6,0.2-0.9,0.3
	c-0.4,0.2-0.8,0.6-1.1,0.9L106,43.2z M82.6,43.4h4v-2.9c0-0.3,0-0.9-0.2-1.1c-0.2-0.2-0.6-0.2-0.8-0.2h-0.1v-2.3h7.7v2.3h-0.5
	c-0.3,0-0.8,0-1,0.2c-0.2,0.2-0.2,0.9-0.2,1.2v8.9c0,0.3,0,0.9,0.2,1.2c0.2,0.2,0.7,0.2,1,0.2h0.5v2.3h-7.7v-2.3h0.1
	c0.3,0,0.7,0,0.8-0.2c0.2-0.2,0.2-0.9,0.2-1.1v-3.6h-4v3.6c0,0.3,0,0.9,0.2,1.1c0.2,0.2,0.6,0.2,0.8,0.2h0.1v2.3h-7.7v-2.3h0.5
	c0.3,0,0.7,0,0.9-0.2c0.2-0.2,0.2-0.9,0.2-1.2v-8.9c0-0.3,0-1-0.2-1.2c-0.2-0.2-0.7-0.2-1-0.2h-0.5v-2.3h7.7v2.3h-0.1
	c-0.2,0-0.7,0-0.8,0.2c-0.2,0.2-0.2,0.9-0.2,1.1L82.6,43.4L82.6,43.4z M58,45c0-2.3,0.6-4.6,2.2-6.3c1.7-1.7,3.9-2.3,6.2-2.3
	c2.3,0,4.5,0.6,6.2,2.3c1.7,1.7,2.2,4,2.2,6.3c0,2.3-0.6,4.6-2.2,6.3c-1.7,1.7-3.9,2.3-6.2,2.3c-2.3,0-4.5-0.6-6.1-2.3
	C58.6,49.6,58,47.3,58,45z M46.5,44.5l4.6-4.3c0.1-0.1,0.2-0.2,0.3-0.3c0.1-0.1,0.1-0.2,0.1-0.3c0-0.1-0.1-0.2-0.2-0.3
	c-0.2-0.1-0.4-0.1-0.6-0.1h-0.8v-2.3h7.7v2.3h-0.8c-0.3,0-0.6,0.2-0.9,0.3c-0.4,0.2-0.8,0.6-1.1,0.9l-2.9,2.8l3.9,6.6
	c0.2,0.3,0.4,0.6,0.7,0.8c0.3,0.2,0.5,0.2,0.8,0.2H58v2.3h-8.6v-2.3H50c0.2,0,0.6,0,0.8-0.1c0.1-0.1,0.2-0.2,0.2-0.3
	c0-0.1,0-0.2,0-0.3c0-0.1-0.1-0.2-0.1-0.3l-2.1-3.6l-2.2,1.9v1.4c0,0.3,0,0.9,0.2,1.2c0.2,0.2,0.7,0.2,0.9,0.2H48v2.3h-8.2v-2.3h0.7
	c0.3,0,0.8,0,1-0.2c0.2-0.2,0.2-0.9,0.2-1.2v-8.9c0-0.3,0-0.9-0.2-1.2c-0.2-0.2-0.7-0.2-1-0.2h-0.5v-2.3h7.6v2.3h0
	c-0.3,0-0.7,0-0.9,0.2c-0.2,0.2-0.2,0.9-0.2,1.2L46.5,44.5L46.5,44.5z"/>
<path class="st18" d="M153.6,50.7h-5.2l2.5-10L153.6,50.7z M136.7,43.9h0.9c0.7,0,1.6-0.1,2.1-0.5c0.5-0.4,0.6-1.2,0.6-1.8
	c0-0.6-0.1-1.3-0.6-1.7c-0.5-0.4-1.4-0.5-2.1-0.5h-1L136.7,43.9L136.7,43.9z M120.6,38.9c-1,0-1.7,0.5-2.1,1.4
	c-0.6,1.3-0.7,3.3-0.7,4.6c0,1.4,0.1,3.4,0.7,4.7c0.4,0.9,1.1,1.4,2.1,1.4c1,0,1.7-0.5,2.1-1.4c0.6-1.3,0.7-3.3,0.7-4.7
	c0-1.4-0.1-3.4-0.7-4.7C122.2,39.4,121.6,38.9,120.6,38.9z M66.4,38.9c-1,0-1.7,0.5-2.1,1.4c-0.6,1.3-0.7,3.3-0.7,4.6
	c0,1.4,0.1,3.4,0.7,4.7c0.4,0.9,1.1,1.4,2.1,1.4c1,0,1.7-0.5,2.1-1.4c0.6-1.3,0.7-3.3,0.7-4.7c0-1.4-0.1-3.4-0.7-4.7
	C68.1,39.4,67.4,38.9,66.4,38.9z M145.7,55.1L145.7,55.1L145.7,55.1c0-0.4,0-0.8,0-1.1c0-0.5,0.6-0.9,1-0.9c3.5,0,7.1,0,10.6,0
	c0.6,0,1.1,0.4,1.1,1c0,0,0,1,0,1v0h0c0.7,0,1.3,0,2,0h0l0-4.4h-0.8c-0.3,0-0.7,0-0.9-0.3c-0.3-0.2-0.5-1.1-0.6-1.5l-3.4-12.2h-5.3
	l-3.8,12.3c-0.1,0.4-0.3,0.9-0.6,1.3c-0.2,0.3-0.6,0.4-0.9,0.4h-0.6l0,4.3h0C144.4,55.1,145.7,55.1,145.7,55.1z M136.7,45.9v3.5
	c0,0.3,0,1,0.2,1.2c0.2,0.2,0.7,0.2,1,0.2h0.6l0.1,2.3h-8.3l-0.1-2.3h0.6c0.3,0,0.8,0,1-0.2c0.2-0.2,0.2-0.9,0.2-1.2v-8.9
	c0-0.3,0-0.9-0.2-1.2c-0.2-0.2-0.7-0.2-1-0.2h-0.5v-2.3h9.3c1.4,0,3.3,0.2,4.5,1.1c1.1,0.8,1.4,2.1,1.4,3.4c0,1.3-0.3,2.6-1.4,3.4
	c-1.2,0.9-3,1.1-4.5,1.1H136.7z M112.1,45c0-2.3,0.6-4.6,2.2-6.3c1.7-1.7,3.9-2.3,6.2-2.3c2.3,0,4.5,0.6,6.2,2.3
	c1.7,1.7,2.2,4,2.2,6.3c0,2.3-0.6,4.6-2.2,6.3c-1.7,1.7-3.9,2.3-6.2,2.3c-2.3,0-4.5-0.6-6.1-2.3C112.7,49.6,112.1,47.3,112.1,45z
	 M106,43.2l3.9,6.6c0.2,0.3,0.4,0.6,0.7,0.8c0.3,0.2,0.5,0.2,0.8,0.2h0.6v2.3h-8.6v-2.3h0.6c0.2,0,0.6,0,0.8-0.1
	c0.1-0.1,0.2-0.2,0.2-0.3c0-0.1,0-0.2,0-0.3c0-0.1-0.1-0.2-0.1-0.3l-2.1-3.6l-2.2,1.9v1.4c0,0.3,0,0.9,0.2,1.2
	c0.2,0.2,0.7,0.2,0.9,0.2h0.4v2.3h-7.9v-2.3h0.5c0.3,0,0.8,0,1-0.2c0.2-0.2,0.2-0.9,0.2-1.2v-8.9c0-0.3,0-0.9-0.2-1.2
	c-0.2-0.2-0.7-0.2-1-0.2h-0.5v-2.3h7.6v2.3h0c-0.3,0-0.7,0-0.9,0.2c-0.2,0.2-0.2,0.9-0.2,1.2v4l4.6-4.3c0.1-0.1,0.2-0.2,0.3-0.3
	c0.1-0.1,0.1-0.2,0.1-0.3c0-0.1-0.1-0.2-0.2-0.3c-0.2-0.1-0.4-0.1-0.6-0.1H104v-2.3h7.4v2.3H111c-0.3,0-0.6,0.2-0.9,0.3
	c-0.4,0.2-0.8,0.6-1.1,0.9L106,43.2z M82.6,43.4h4v-2.9c0-0.3,0-0.9-0.2-1.1c-0.2-0.2-0.6-0.2-0.8-0.2h-0.1v-2.3h7.7v2.3h-0.5
	c-0.3,0-0.8,0-1,0.2c-0.2,0.2-0.2,0.9-0.2,1.2v8.9c0,0.3,0,0.9,0.2,1.2c0.2,0.2,0.7,0.2,1,0.2h0.5v2.3h-7.7v-2.3h0.1
	c0.3,0,0.7,0,0.8-0.2c0.2-0.2,0.2-0.9,0.2-1.1v-3.6h-4v3.6c0,0.3,0,0.9,0.2,1.1c0.2,0.2,0.6,0.2,0.8,0.2h0.1v2.3h-7.7v-2.3h0.5
	c0.3,0,0.7,0,0.9-0.2c0.2-0.2,0.2-0.9,0.2-1.2v-8.9c0-0.3,0-1-0.2-1.2c-0.2-0.2-0.7-0.2-1-0.2h-0.5v-2.3h7.7v2.3h-0.1
	c-0.2,0-0.7,0-0.8,0.2c-0.2,0.2-0.2,0.9-0.2,1.1L82.6,43.4L82.6,43.4z M58,45c0-2.3,0.6-4.6,2.2-6.3c1.7-1.7,3.9-2.3,6.2-2.3
	c2.3,0,4.5,0.6,6.2,2.3c1.7,1.7,2.2,4,2.2,6.3c0,2.3-0.6,4.6-2.2,6.3c-1.7,1.7-3.9,2.3-6.2,2.3c-2.3,0-4.5-0.6-6.1-2.3
	C58.6,49.6,58,47.3,58,45z M46.5,44.5l4.6-4.3c0.1-0.1,0.2-0.2,0.3-0.3c0.1-0.1,0.1-0.2,0.1-0.3c0-0.1-0.1-0.2-0.2-0.3
	c-0.2-0.1-0.4-0.1-0.6-0.1h-0.8v-2.3h7.7v2.3h-0.8c-0.3,0-0.6,0.2-0.9,0.3c-0.4,0.2-0.8,0.6-1.1,0.9l-2.9,2.8l3.9,6.6
	c0.2,0.3,0.4,0.6,0.7,0.8c0.3,0.2,0.5,0.2,0.8,0.2H58v2.3h-8.6v-2.3H50c0.2,0,0.6,0,0.8-0.1c0.1-0.1,0.2-0.2,0.2-0.3
	c0-0.1,0-0.2,0-0.3c0-0.1-0.1-0.2-0.1-0.3l-2.1-3.6l-2.2,1.9v1.4c0,0.3,0,0.9,0.2,1.2c0.2,0.2,0.7,0.2,0.9,0.2H48v2.3h-8.2v-2.3h0.7
	c0.3,0,0.8,0,1-0.2c0.2-0.2,0.2-0.9,0.2-1.2v-8.9c0-0.3,0-0.9-0.2-1.2c-0.2-0.2-0.7-0.2-1-0.2h-0.5v-2.3h7.6v2.3h0
	c-0.3,0-0.7,0-0.9,0.2c-0.2,0.2-0.2,0.9-0.2,1.2L46.5,44.5L46.5,44.5z"/>
</svg>
