<?xml version="1.0" encoding="utf-8"?>
<!-- Generator: Adobe Illustrator 15.0.2, SVG Export Plug-In . SVG Version: 6.00 Build 0)  -->
<!DOCTYPE svg PUBLIC "-//W3C//DTD SVG 1.1//EN" "http://www.w3.org/Graphics/SVG/1.1/DTD/svg11.dtd">
<svg version="1.1" id="Слой_1" xmlns="http://www.w3.org/2000/svg" xmlns:xlink="http://www.w3.org/1999/xlink" x="0px" y="0px"
	 width="160px" height="100px" viewBox="0 0 160 100" enable-background="new 0 0 160 100" xml:space="preserve">
<g>
	<path d="M19.979,58.378c-1.299-0.335-1.376-0.411-1.963-2.421L15.061,43h-3.848L4.128,55.133c-0.942,1.622-1.759,2.885-3.746,3.322
		L0,60.543h7.365l0.382-2.088l-0.484-0.051c-1.096-0.129-1.479-0.334-1.479-0.746c0-0.283,0.153-0.619,0.408-1.108l2.268-4.249
		l3.134-5.616l1.045,5.616l0.382,2.008l0.408,1.983c0.102,0.49,0.179,0.851,0.179,1.134c0,0.566-0.332,0.773-1.453,0.928
		l-0.841,0.104l-0.382,2.086h8.97l0.382-2.086C20.158,58.43,19.979,58.378,19.979,58.378z"/>
	<path d="M30.707,60.541l0.356-2.111l0.535-0.052c1.453-0.153,1.81-0.515,2.115-2.164l1.071-6.13l-7.9,5.873l-0.026,0.257
		c-0.306,1.649-0.051,2.01,1.351,2.164l0.484,0.052l-0.356,2.111h-8.945l0.357-2.111l0.535-0.052
		c1.453-0.153,1.81-0.515,2.115-2.164l1.529-8.886c0.305-1.648,0.051-2.009-1.351-2.164l-0.484-0.051L22.448,43h8.945l-0.357,2.113
		l-0.536,0.051c-1.453,0.154-1.809,0.515-2.115,2.164l-1.071,6.13l7.9-5.873l0.026-0.257c0.306-1.648,0.051-2.009-1.351-2.164
		l-0.485-0.051L33.763,43h8.945l-0.356,2.113l-0.536,0.051c-1.452,0.154-1.809,0.515-2.115,2.164l-1.529,8.886
		c-0.306,1.649-0.051,2.01,1.351,2.164l0.484,0.052l-0.357,2.111H30.707z"/>
	<path d="M58.787,63.838c0.103-2.523,0.051-3.297-3.033-3.297H46.07c-3.083,0-2.625,0.464-4.587,3.479l-1.58-0.181l1.809-5.485
		c2.243-0.026,3.16,0.051,4.027-1.52c1.86-3.35,1.886-4.25,3.058-8.811c0.383-2.086,0.128-2.679-1.172-2.833l-0.637-0.077L47.371,43
		h16.157l-0.383,2.112l-0.637,0.077c-1.351,0.155-1.784,0.721-2.141,2.833l-1.325,7.65c-0.433,2.447,0.077,2.73,1.81,2.68
		l-0.434,5.485L58.787,63.838L58.787,63.838L58.787,63.838z M56.111,48.1c0.382-2.214,0.306-2.627-0.536-2.627h-2.268
		c-0.586,0-0.765,0.516-1.045,1.546c-1.224,4.971-1.198,5.306-3.262,9.53c-0.79,1.443-0.433,1.624,0.23,1.624h4.307
		c0.764,0,0.815-0.026,1.274-2.603L56.111,48.1z"/>
	<path d="M78.026,60.541H61.869l0.383-2.086l0.561-0.051c1.351-0.18,1.733-0.593,2.039-2.19l1.605-8.886
		c0.052-0.283,0.103-0.773,0.103-1.005c0-0.721-0.433-1.107-1.35-1.185l-0.562-0.051L65.03,43h14.882l1.402,5.692l-1.785,0.567
		c-1.248-2.756-3.186-4.173-5.785-4.173c-0.994,0-1.861,0.206-2.191,0.54c-0.331,0.284-0.484,0.67-0.663,1.751l-0.483,2.603
		c0.407,0.051,0.585,0.051,1.019,0.051c1.86,0,2.268-0.386,2.855-2.653h1.808l-1.401,7.779h-1.81
		c0.051-0.413,0.051-0.593,0.051-0.772c0-1.674-0.611-2.138-2.931-2.112l-0.765,4.25c-0.127,0.722-0.127,0.722-0.127,0.954
		c0,0.618,0.611,0.9,1.987,0.9c3.033,0,4.969-1.08,8.129-4.533l1.683,0.902L78.026,60.541z"/>
	<path d="M95.047,52.607c-1.171,0.438-2.599,0.645-4.765,0.645h-2.115l-0.536,2.962c-0.025,0.206-0.077,0.798-0.077,1.03
		c0,0.695,0.485,1.107,1.352,1.16l0.865,0.051l-0.382,2.086h-9.175l0.382-2.086l0.561-0.051c1.351-0.18,1.734-0.593,2.04-2.19
		l1.605-8.886c0.051-0.309,0.101-0.747,0.101-1.005c0-0.721-0.433-1.107-1.351-1.185l-0.56-0.051L83.349,43h8.716
		c2.778,0,4.001,0.206,5.071,0.85c1.045,0.644,1.683,1.906,1.683,3.374C98.819,49.672,97.367,51.732,95.047,52.607z M93.263,45.499
		c-0.383-0.283-1.045-0.438-1.861-0.438c-0.79,0-1.325,0.155-1.631,0.463c-0.229,0.232-0.28,0.334-0.458,1.442l-0.739,4.07h0.637
		c1.835,0,2.395-0.129,3.211-0.644c0.993-0.669,1.656-1.854,1.656-2.988C94.079,46.632,93.748,45.86,93.263,45.499z"/>
	<path d="M120.3,60.541h-15.112l0.383-2.086l0.561-0.051c1.325-0.129,1.758-0.619,2.038-2.19l1.606-8.886
		c0.051-0.361,0.077-0.669,0.102-0.954c0-0.695-0.28-1.133-1.351-1.236l-0.561-0.051L108.322,43h9.201l-0.382,2.086l-0.893,0.051
		c-1.325,0.18-1.759,0.593-2.04,2.189l-1.605,8.913c-0.076,0.412-0.102,0.747-0.102,1.031c0,0.721,0.332,0.979,1.504,0.979
		c3.848,0,6.575-3.246,7.543-4.688l1.757,0.952L120.3,60.541z"/>
	<path d="M137.652,60.541h-16.157l0.383-2.086l0.56-0.051c1.352-0.129,1.759-0.645,2.04-2.19l1.605-8.886
		c0.051-0.361,0.077-0.669,0.102-0.927c0-0.773-0.331-1.159-1.35-1.262l-0.561-0.051L124.657,43h14.881l1.403,5.692l-1.784,0.567
		c-1.25-2.756-3.186-4.173-5.786-4.173c-2.6,0-2.625,1.056-2.854,2.292l-0.483,2.602c0.408,0.052,0.586,0.052,1.018,0.052
		c1.861,0,2.269-0.386,2.854-2.653h1.809l-1.4,7.779h-1.811c0.026-0.309,0.051-0.566,0.051-0.824c0-1.957-1.147-2.035-2.93-2.061
		l-0.765,4.25c-0.051,0.334-0.101,0.592-0.101,0.824c0,0.773,0.433,1.03,1.962,1.03c3.033,0,4.97-1.081,8.129-4.534l1.683,0.902
		L137.652,60.541z"/>
	<path d="M154.827,59.356c-1.656,0.85-3.797,1.185-7.441,1.185h-7.544l0.383-2.086l0.56-0.051c1.352-0.207,1.733-0.593,2.039-2.19
		l1.606-8.887c0.051-0.36,0.103-0.669,0.103-0.953c0-0.695-0.281-1.133-1.351-1.236l-0.562-0.051L142.977,43h8.156
		c5.402,0,8.868,1.236,8.868,7.059C160,54.102,157.987,57.734,154.827,59.356z M151.438,45.113c-2.243,0-2.37,0.979-2.6,2.318
		l-1.605,9.067c-0.077,0.336-0.128,0.619-0.128,0.824c0,0.747,0.51,0.979,1.963,0.979c3.568,0,6.524-3.864,6.524-8.552
		C155.591,46.735,154.139,45.113,151.438,45.113z"/>
</g>
</svg>
