<?xml version="1.0" encoding="utf-8"?>
<!-- Generator: Adobe Illustrator 15.0.2, SVG Export Plug-In . SVG Version: 6.00 Build 0)  -->
<!DOCTYPE svg PUBLIC "-//W3C//DTD SVG 1.1//EN" "http://www.w3.org/Graphics/SVG/1.1/DTD/svg11.dtd">
<svg version="1.1" id="Слой_1" xmlns="http://www.w3.org/2000/svg" xmlns:xlink="http://www.w3.org/1999/xlink" x="0px" y="0px"
	 width="160px" height="100px" viewBox="0 0 160 100" enable-background="new 0 0 160 100" xml:space="preserve">
<path fill="#EC1C24" d="M0,38.005v1.379h0.526c1.054,0,2.027,0.243,2.027,3.729v19.86c0,3.285-0.81,3.729-1.987,3.729H0v1.379
	h22.981l1.824-9.768H22.86c-1.013,3.525-3.972,7.255-8.025,7.255c-1.256,0-2.513-0.243-2.513-3.04V43.112
	c0-3.486,0.972-3.729,2.025-3.729h1.096v-1.379H0z M28.844,38.005v1.379h0.729c1.783,0,1.824,1.905,1.824,3.729v13.619
	c0,3.526,0.041,12.166,13.942,12.166c12.322,0,12.282-8.761,12.282-12.166V44.247c0-2.351-0.122-4.864,2.27-4.864h0.284v-1.378
	h-8.39v1.379h0.285c2.351,0,2.391,2.189,2.391,4.864v12.484c0,4.214-0.893,8.835-6.647,8.835s-6.647-4.62-6.647-8.835V43.112
	c0-1.824,0.082-3.729,1.784-3.729h0.77v-1.379H28.844z"/>
<path fill="#EC1C24" d="M73.924,51.904l-6.706,12.352c-1.285,2.367-2.032,2.242-3.289,2.444v1.379h12.119V66.7
	c-1.459,0.081-4.857,0.312-4.857-1.106c0-1.217-0.229-0.743,1.188-3.357l3.539-6.533l8.056,14.281
	c0.232,0.412,0.405,0.935,0.405,1.299c0,0.769-0.689,1.053-1.093,1.053h-0.284v2.611h73.496l-57.77-1.996
	c-1.662-0.08-3.307-1.193-4.134-2.707L83.634,50.201l4.688-8.11c1.766-3.056,4.831-2.467,6.737-2.709v-1.379H83.587v1.379h0.608
	c1.095,0,0.925-0.695,0.925,0.643c0,1.174-0.544,2.097-1.095,2.959l-2.744,4.3l-6.207-10.229c-0.752-1.238-1.392-2.123-1.313-2.966
	c0.062-0.684,0.989-1.009,1.438-1.009h0.283v-3.227H1.579l58.253,2.789c0.689,0,2.091,0.343,3.647,2.796L73.924,51.904z
	 M100.354,38.005h21.509l2.614,9.415h-1.5c-0.689-4.701-5.965-6.699-8.357-6.699h-1.945v7.063c3.162,0.04,4.052-2.027,4.215-5.107
	h1.582l1.839,13.175h-1.582c-0.161-3-2.933-5.434-6.055-5.353V62.77c0,2.594,1.054,2.797,2.311,2.797
	c3.729,0,8.887-5.542,10.184-9.514l1.621,0.566l-3.171,11.461h-23.265v-1.379h0.81c1.542,0,1.744-1.904,1.744-3.729v-19.86
	c0-1.824-0.203-3.729-1.744-3.729h-0.81v-1.379H100.354z M130.737,38.005h15.444v1.379h-1.095c-1.055,0-2.027,0.243-2.027,3.729
	v19.413c0,2.798,1.256,3.041,2.514,3.041c4.053,0,7.011-3.729,8.024-7.255h1.945l-1.824,9.769h-22.982v-1.379h0.568
	c1.177,0,1.986-0.444,1.986-3.729V43.112c0-3.486-0.972-3.729-2.025-3.729h-0.528v-1.379H130.737z"/>
<path fill="#EC1C24" d="M157.149,28c0.48,0,0.946,0.123,1.403,0.368c0.456,0.247,0.811,0.598,1.066,1.055
	c0.255,0.457,0.382,0.935,0.382,1.432c0,0.492-0.126,0.963-0.377,1.417c-0.25,0.455-0.601,0.807-1.053,1.057
	c-0.454,0.251-0.925,0.376-1.419,0.376c-0.496,0-0.969-0.124-1.42-0.376c-0.453-0.25-0.805-0.604-1.058-1.057
	c-0.251-0.452-0.377-0.924-0.377-1.417c0-0.497,0.127-0.975,0.383-1.432c0.255-0.458,0.611-0.81,1.068-1.055
	C156.202,28.124,156.67,28,157.149,28 M157.149,28.474c-0.401,0-0.791,0.103-1.169,0.308c-0.379,0.206-0.676,0.5-0.891,0.88
	c-0.215,0.381-0.321,0.779-0.321,1.193c0,0.41,0.107,0.804,0.316,1.181c0.21,0.377,0.505,0.671,0.883,0.881
	c0.378,0.21,0.771,0.317,1.182,0.317c0.41,0,0.807-0.106,1.185-0.317c0.376-0.21,0.671-0.504,0.879-0.881
	c0.209-0.377,0.313-0.77,0.313-1.181c0-0.414-0.104-0.812-0.318-1.193c-0.214-0.38-0.51-0.675-0.891-0.88
	C157.937,28.577,157.546,28.474,157.149,28.474 M155.898,32.431h0.494v-1.303h0.29c0.175,0,0.309,0.035,0.398,0.105
	c0.132,0.095,0.303,0.334,0.519,0.713l0.272,0.484h0.605l-0.375-0.601c-0.18-0.285-0.332-0.488-0.455-0.609
	c-0.065-0.064-0.152-0.118-0.26-0.163c0.264-0.021,0.477-0.113,0.638-0.28c0.158-0.166,0.238-0.361,0.238-0.585
	c0-0.161-0.046-0.31-0.142-0.451c-0.096-0.141-0.225-0.241-0.386-0.297c-0.162-0.058-0.423-0.084-0.783-0.084h-1.055V32.431
	L155.898,32.431z M156.392,30.704h0.602c0.287,0,0.483-0.043,0.587-0.129c0.104-0.085,0.157-0.198,0.157-0.34
	c0-0.09-0.025-0.171-0.076-0.244c-0.05-0.071-0.12-0.126-0.208-0.161c-0.09-0.036-0.256-0.053-0.499-0.053h-0.564L156.392,30.704
	L156.392,30.704z"/>
</svg>
