<?xml version="1.0" encoding="utf-8"?>
<!-- Generator: Adobe Illustrator 15.0.2, SVG Export Plug-In . SVG Version: 6.00 Build 0)  -->
<!DOCTYPE svg PUBLIC "-//W3C//DTD SVG 1.1//EN" "http://www.w3.org/Graphics/SVG/1.1/DTD/svg11.dtd">
<svg version="1.1" id="Слой_1" xmlns="http://www.w3.org/2000/svg" xmlns:xlink="http://www.w3.org/1999/xlink" x="0px" y="0px"
	 width="160px" height="100px" viewBox="0 0 160 100" enable-background="new 0 0 160 100" xml:space="preserve">
<path fill="#2D4C27" d="M6.235,20c3.289,0,5.967,2.678,5.967,5.945c0,3.291-2.678,5.971-5.967,5.971
	c-3.271,0-5.948-2.681-5.948-5.971C0.287,22.677,2.964,20.001,6.235,20"/>
<rect x="0" y="33.57" fill="#2D4C27" width="1.205" height="33.401"/>
<rect x="2.821" y="33.57" fill="#2D4C27" width="1.207" height="33.401"/>
<rect x="5.643" y="33.57" fill="#2D4C27" width="1.206" height="33.401"/>
<rect x="8.463" y="33.57" fill="#2D4C27" width="1.204" height="33.401"/>
<polygon fill="#2D4C27" points="11.26,33.57 12.469,33.57 12.469,64.902 11.279,66.971 11.26,66.971 "/>
<polygon fill="#2D4C27" points="12.469,64.902 12.469,45.387 13.281,43.997 13.281,63.514 "/>
<polygon fill="#2D4C27" points="9.665,50.271 10.464,48.859 10.464,66.969 9.665,66.969 "/>
<polygon fill="#2D4C27" points="6.846,55.133 7.645,53.74 7.645,66.971 6.846,66.971 "/>
<polygon fill="#2D4C27" points="4.027,60.02 4.824,58.629 4.824,66.971 4.027,66.971 "/>
<polygon fill="#2D4C27" points="1.205,64.902 2.024,63.496 2.024,66.971 1.205,66.971 "/>
<polygon fill="#2D4C27" points="19.294,33.568 30.571,33.568 13.182,63.674 13.182,44.159 "/>
<rect x="0.051" y="76.361" fill="#2D4C27" width="1.337" height="5.279"/>
<path fill="#2D4C27" d="M4.548,81.641v-5.279h1.558l1.222,1.934c0.349,0.557,0.7,1.213,0.961,1.809h0.026
	c-0.087-0.697-0.112-1.41-0.112-2.201v-1.541h1.222v5.279H8.028l-1.259-2.039c-0.348-0.563-0.734-1.242-1.022-1.863l-0.028,0.008
	c0.037,0.697,0.053,1.441,0.053,2.303v1.592H4.548L4.548,81.641z"/>
<path fill="#2D4C27" d="M16.913,81.49c-0.246,0.109-0.796,0.229-1.513,0.229c-2.037,0-3.087-1.137-3.087-2.641
	c0-1.803,1.433-2.805,3.217-2.805c0.692,0,1.213,0.125,1.449,0.236l-0.27,0.947c-0.271-0.102-0.646-0.195-1.119-0.195
	c-1.057,0-1.879,0.574-1.879,1.748c0,1.055,0.699,1.721,1.889,1.721c0.401,0,0.848-0.076,1.109-0.17L16.913,81.49z"/>
<path fill="#2D4C27" d="M24.926,78.943c0,1.732-1.17,2.783-2.894,2.783c-1.749,0-2.771-1.184-2.771-2.688
	c0-1.582,1.127-2.766,2.866-2.766C23.938,76.273,24.926,77.488,24.926,78.943 M20.669,79.018c0,1.033,0.542,1.76,1.433,1.76
	c0.899,0,1.417-0.766,1.417-1.793c0-0.949-0.508-1.762-1.425-1.762C21.194,77.223,20.669,77.99,20.669,79.018"/>
<polygon fill="#2D4C27" points="28.697,77.361 27.115,77.361 27.115,76.359 31.644,76.359 31.644,77.361 30.034,77.361 
	30.034,81.641 28.697,81.641 "/>
<polygon fill="#2D4C27" points="37.863,79.406 35.696,79.406 35.696,80.66 38.117,80.66 38.117,81.641 34.358,81.641 34.358,76.361 
	37.995,76.361 37.995,77.338 35.696,77.338 35.696,78.436 37.863,78.436 "/>
<path fill="#2D4C27" d="M44.135,81.641l-0.534-0.957c-0.217-0.367-0.356-0.643-0.525-0.947h-0.017
	c-0.122,0.305-0.271,0.58-0.455,0.947l-0.487,0.957h-1.522l1.705-2.672l-1.644-2.609h1.529l0.517,0.963
	c0.176,0.322,0.306,0.58,0.446,0.879h0.019c0.138-0.338,0.251-0.572,0.401-0.879l0.498-0.963h1.521l-1.661,2.576l1.748,2.703h-1.538
	V81.641z"/>
<polygon fill="#2D4C27" points="55.678,79.406 53.509,79.406 53.509,80.66 55.931,80.66 55.931,81.641 52.171,81.641 52.171,76.361 
	55.808,76.361 55.808,77.338 53.509,77.338 53.509,78.436 55.678,78.436 "/>
<polygon fill="#2D4C27" points="58.845,76.361 60.182,76.361 60.182,80.637 62.525,80.637 62.525,81.641 58.845,81.641 "/>
<polygon fill="#2D4C27" points="68.826,79.406 66.656,79.406 66.656,80.66 69.079,80.66 69.079,81.641 65.318,81.641 65.318,76.361 
	68.956,76.361 68.956,77.338 66.656,77.338 66.656,78.436 68.826,78.436 "/>
<path fill="#2D4C27" d="M76.322,81.49c-0.243,0.109-0.795,0.229-1.511,0.229c-2.037,0-3.088-1.137-3.088-2.641
	c0-1.803,1.434-2.805,3.217-2.805c0.691,0,1.213,0.125,1.452,0.236l-0.271,0.945c-0.273-0.1-0.647-0.195-1.12-0.195
	c-1.059,0-1.879,0.574-1.879,1.75c0,1.055,0.699,1.721,1.888,1.721c0.403,0,0.847-0.078,1.111-0.172L76.322,81.49z"/>
<polygon fill="#2D4C27" points="80.461,77.361 78.88,77.361 78.88,76.359 83.408,76.359 83.408,77.361 81.797,77.361 81.797,81.641 
	80.461,81.641 "/>
<path fill="#2D4C27" d="M86.119,76.43c0.431-0.063,1.067-0.109,1.776-0.109c0.874,0,1.487,0.119,1.906,0.416
	c0.35,0.25,0.542,0.619,0.542,1.105c0,0.672-0.536,1.135-1.043,1.299v0.023c0.412,0.15,0.641,0.502,0.79,0.988
	c0.181,0.594,0.367,1.283,0.479,1.488h-1.363c-0.095-0.15-0.235-0.58-0.412-1.23c-0.157-0.658-0.41-0.84-0.951-0.848h-0.402v2.078
	h-1.32V76.43H86.119L86.119,76.43z M87.44,78.701h0.526c0.665,0,1.057-0.297,1.057-0.76c0-0.486-0.368-0.729-0.979-0.736
	c-0.324,0-0.508,0.023-0.604,0.039V78.701L87.44,78.701z"/>
<path fill="#2D4C27" d="M98.67,78.943c0,1.732-1.171,2.783-2.895,2.783c-1.749,0-2.772-1.184-2.772-2.688
	c0-1.582,1.13-2.766,2.868-2.766C97.682,76.273,98.67,77.488,98.67,78.943 M94.413,79.018c0,1.033,0.54,1.76,1.433,1.76
	c0.898,0,1.417-0.766,1.417-1.793c0-0.949-0.509-1.762-1.426-1.762C94.936,77.223,94.413,77.99,94.413,79.018"/>
<path fill="#2D4C27" d="M101.55,81.641v-5.279h1.556l1.225,1.934c0.35,0.557,0.7,1.213,0.96,1.809h0.026
	c-0.087-0.697-0.114-1.41-0.114-2.201v-1.541h1.225v5.279h-1.399l-1.258-2.039c-0.351-0.563-0.734-1.242-1.023-1.863l-0.025,0.008
	c0.034,0.697,0.053,1.441,0.053,2.303v1.592H101.55L101.55,81.641z"/>
<rect x="109.587" y="76.361" fill="#2D4C27" width="1.339" height="5.279"/>
<path fill="#2D4C27" d="M118.413,81.49c-0.243,0.109-0.794,0.229-1.512,0.229c-2.037,0-3.087-1.137-3.087-2.641
	c0-1.803,1.433-2.805,3.218-2.805c0.691,0,1.216,0.125,1.452,0.236l-0.271,0.945c-0.271-0.1-0.646-0.195-1.12-0.195
	c-1.056,0-1.877,0.574-1.877,1.75c0,1.055,0.697,1.721,1.889,1.721c0.4,0,0.848-0.078,1.108-0.172L118.413,81.49z"/>
<path fill="#2D4C27" d="M121.337,80.41c0.358,0.166,0.91,0.328,1.478,0.328c0.613,0,0.935-0.227,0.935-0.572
	c0-0.326-0.281-0.516-0.986-0.744c-0.98-0.303-1.619-0.791-1.619-1.559c0-0.898,0.839-1.59,2.229-1.59
	c0.665,0,1.154,0.127,1.504,0.268l-0.297,0.961c-0.235-0.102-0.654-0.248-1.232-0.248c-0.576,0-0.857,0.234-0.857,0.506
	c0,0.338,0.334,0.488,1.094,0.746c1.041,0.344,1.528,0.83,1.528,1.572c0,0.885-0.759,1.639-2.376,1.639
	c-0.675,0-1.34-0.158-1.669-0.32L121.337,80.41z"/>
<path fill="#2D4C27" d="M136.715,81.398c-0.408,0.125-1.187,0.295-1.967,0.295c-1.075,0-1.853-0.242-2.396-0.711
	c-0.54-0.455-0.838-1.143-0.829-1.92c0.008-1.758,1.434-2.756,3.366-2.756c0.76,0,1.345,0.131,1.633,0.258l-0.281,0.955
	c-0.321-0.127-0.726-0.23-1.37-0.23c-1.11,0-1.951,0.566-1.951,1.711c0,1.09,0.762,1.73,1.854,1.73c0.306,0,0.551-0.031,0.654-0.08
	v-1.102h-0.907v-0.93h2.193V81.398L136.715,81.398z"/>
<path fill="#2D4C27" d="M139.764,76.43c0.429-0.063,1.066-0.109,1.774-0.109c0.873,0,1.484,0.119,1.904,0.416
	c0.35,0.25,0.542,0.619,0.542,1.105c0,0.672-0.534,1.135-1.041,1.299v0.023c0.41,0.15,0.64,0.502,0.789,0.988
	c0.183,0.594,0.367,1.283,0.481,1.488h-1.363c-0.097-0.15-0.235-0.58-0.41-1.23c-0.158-0.658-0.412-0.84-0.955-0.848h-0.402v2.078
	h-1.317V76.43H139.764L139.764,76.43z M141.083,78.701h0.525c0.664,0,1.056-0.297,1.056-0.76c0-0.486-0.366-0.729-0.979-0.736
	c-0.322,0-0.506,0.023-0.603,0.039V78.701L141.083,78.701z"/>
<path fill="#2D4C27" d="M152.311,78.943c0,1.732-1.173,2.783-2.894,2.783c-1.748,0-2.771-1.184-2.771-2.688
	c0-1.582,1.129-2.766,2.867-2.766C151.324,76.273,152.311,77.488,152.311,78.943 M148.053,79.018c0,1.033,0.543,1.76,1.436,1.76
	c0.899,0,1.414-0.766,1.414-1.793c0-0.949-0.505-1.762-1.425-1.762C148.579,77.223,148.053,77.99,148.053,79.018"/>
<path fill="#2D4C27" d="M156.522,76.361V79.4c0,0.908,0.384,1.369,1.065,1.369c0.698,0,1.084-0.438,1.084-1.369v-3.039H160v2.959
	c0,1.629-0.919,2.404-2.457,2.404c-1.485,0-2.359-0.734-2.359-2.422v-2.943h1.338V76.361z"/>
<g>
	<g>
		<path fill="#2D4A2B" d="M30.99,44.244v7.948c0,3.857-0.127,6.694-0.381,10.191h0.085c0.97-2.408,2.49-5.343,3.671-7.752
			l5.105-10.387h3.039v22.227h-2.911v-7.684c0-4.75,0.083-7.521,0.336-10.488h-0.084c-1.013,2.77-2.322,5.211-3.417,7.453
			L31.118,66.47h-3.08V44.244H30.99z"/>
		<path fill="#2D4A2B" d="M50.868,44.244v9.53h7.976v-9.53h3.248v22.227h-3.248V56.082h-7.976v10.389h-3.249V44.244H50.868z"/>
		<path fill="#2D4A2B" d="M70.367,44.244v10.092h0.59l6.034-10.092h3.544l-6.961,10.387c3.502,0.594,4.644,2.937,5.358,5.639
			c0.591,2.113,1.012,4.287,1.899,6.2H77.54c-0.674-1.452-1.14-3.661-1.645-5.54c-0.718-2.705-1.647-4.717-5.023-4.717h-0.504V66.47
			h-3.165V44.244H70.367z"/>
		<path fill="#2D4A2B" d="M98.218,55.191c0,8.346-3.627,11.543-8.227,11.543c-4.726,0-7.891-3.926-7.891-11.411
			c0-7.354,3.418-11.345,8.355-11.345C95.306,43.979,98.218,48.103,98.218,55.191z M85.475,55.357c0,4.584,1.139,9.135,4.769,9.135
			c3.626,0,4.597-4.85,4.597-9.202c0-4.154-0.971-9.069-4.642-9.069C86.614,46.222,85.475,50.838,85.475,55.357z"/>
		<path fill="#2D4A2B" d="M104.465,46.519h-5.189v-2.275h13.631v2.275h-5.191v19.953h-3.251L104.465,46.519L104.465,46.519z"/>
		<path fill="#2D4A2B" d="M126.45,55.918h-7.128v8.344h8.101v2.21h-11.351V44.245h10.843v2.209h-7.594v7.32h7.129V55.918
			L126.45,55.918z"/>
		<path fill="#2D4A2B" d="M134.218,44.244v10.092h0.591l6.034-10.092h3.546l-6.963,10.387c3.504,0.594,4.643,2.937,5.36,5.639
			c0.59,2.113,1.01,4.287,1.896,6.2h-3.292c-0.674-1.452-1.139-3.661-1.645-5.54c-0.718-2.705-1.647-4.717-5.021-4.717h-0.508V66.47
			h-3.164V44.244H134.218z"/>
		<path fill="#2D4A2B" d="M159.582,66.076c-0.889,0.361-2.323,0.59-4.093,0.59c-5.528,0-9.535-3.494-9.535-11.045
			c0-8.773,5.569-11.576,10.084-11.576c1.688,0,2.953,0.263,3.503,0.56l-0.718,2.142c-0.675-0.23-1.353-0.461-2.827-0.461
			c-3.037,0-6.625,2.309-6.625,9.104c0,6.795,3.206,9.035,6.708,9.035c1.225,0,2.28-0.23,2.955-0.461L159.582,66.076z"/>
	</g>
</g>
</svg>
