<?xml version="1.0" encoding="utf-8"?>
<!-- Generator: Adobe Illustrator 15.0.2, SVG Export Plug-In . SVG Version: 6.00 Build 0)  -->
<!DOCTYPE svg PUBLIC "-//W3C//DTD SVG 1.1//EN" "http://www.w3.org/Graphics/SVG/1.1/DTD/svg11.dtd">
<svg version="1.1" id="Слой_1" xmlns="http://www.w3.org/2000/svg" xmlns:xlink="http://www.w3.org/1999/xlink" x="0px" y="0px"
	 width="160px" height="100px" viewBox="0 0 160 100" enable-background="new 0 0 160 100" xml:space="preserve">
<polyline fill="#B189BD" points="54.693,40.505 54.693,65.167 55.538,65.167 55.538,40.505 "/>
<path fill="#929497" d="M132.583,43.574l-1.371,2.221c-0.692-0.324-1.417-0.485-2.176-0.485c-0.291,0-0.562,0.051-0.818,0.158
	c-0.313,0.124-0.469,0.295-0.469,0.515c0,0.287,0.239,0.5,0.718,0.644c0.08,0.032,0.453,0.103,1.121,0.217
	c2.222,0.382,3.332,1.352,3.332,2.911c0,1.213-0.569,2.145-1.707,2.796c-0.985,0.573-2.214,0.858-3.699,0.858
	c-1.65,0-3.19-0.374-4.619-1.134l1.473-2.418c1.093,0.658,2.165,0.989,3.212,0.989c0.313,0,0.586-0.06,0.821-0.173
	c0.302-0.144,0.45-0.335,0.45-0.573c0-0.383-0.439-0.666-1.32-0.845c-0.648-0.128-1.464-0.34-2.459-0.646
	c-0.871-0.44-1.305-1.165-1.305-2.18c0-1.137,0.529-2.019,1.588-2.651c0.927-0.553,2.077-0.831,3.448-0.831
	C130.227,42.945,131.49,43.153,132.583,43.574"/>
<path fill="#929497" d="M110.524,43.271h4.069v5.234c0,0.698,0.128,1.209,0.384,1.533c0.312,0.394,0.859,0.59,1.641,0.59
	c0.783,0,1.328-0.196,1.641-0.59c0.267-0.324,0.4-0.835,0.4-1.533v-5.234h4.051v5.907c0,2.82-2.032,4.229-6.092,4.229
	c-4.061,0-6.094-1.408-6.094-4.229V43.271L110.524,43.271z"/>
<rect x="105.518" y="40.331" fill="#929497" width="4.066" height="12.749"/>
<polygon fill="#929497" points="102.383,46.141 102.383,53.079 98.313,53.079 98.313,46.141 96.99,46.141 96.99,43.271 
	98.313,43.271 98.313,40.32 102.383,40.32 102.383,43.271 104.671,43.271 104.671,46.141 "/>
<path fill="#929497" d="M83.899,43.271h4.066v5.234c0,0.698,0.13,1.209,0.387,1.533c0.312,0.394,0.858,0.59,1.638,0.59
	c0.781,0,1.329-0.196,1.642-0.59c0.271-0.324,0.402-0.835,0.402-1.533v-5.234h4.047v5.907c0,2.82-2.027,4.229-6.091,4.229
	c-4.06,0-6.091-1.408-6.091-4.229L83.899,43.271L83.899,43.271z"/>
<path fill="#929497" d="M151.984,43.271v1.263c0.871-1.061,2.093-1.59,3.703-1.59c2.875,0,4.313,1.358,4.313,4.072v6.063h-4.065
	v-4.787c0-0.833-0.052-1.377-0.152-1.633c-0.248-0.633-0.802-0.945-1.671-0.945c-1.419,0-2.128,0.758-2.128,2.276v5.09h-4.065
	v-9.809H151.984L151.984,43.271z"/>
<polygon fill="#929497" points="74.529,40.411 82.648,40.411 82.648,53.119 77.619,53.119 77.619,43.617 74.188,53.119 
	68.968,53.119 65.731,43.657 65.731,53.119 61.188,53.119 61.188,40.411 69.162,40.411 71.927,48.957 "/>
<path fill="#929497" d="M66.847,60.219c0-1.236-1.061-2.411-2.393-2.411c-0.809,0-1.665,0.43-2.317,1.157
	c-0.647,0.713-1.046,1.682-1.046,2.775c0,1.791,1.141,3.377,3.093,3.377c0.491,0,1.584-0.287,2.583-1.539l-0.254-0.334
	c-0.571,0.539-1.172,0.795-1.806,0.795c-1.111,0-2.347-0.888-2.362-3.045c1.888-0.063,3.867-0.221,4.138-0.271
	C66.768,60.659,66.847,60.536,66.847,60.219 M65.104,60.297c-0.918,0.033-1.791,0.047-2.68,0.047
	c0.24-1.283,0.935-1.951,1.664-1.951c0.872,0,1.413,0.765,1.397,1.586C65.485,60.203,65.387,60.297,65.104,60.297"/>
<path fill="#929497" d="M70.887,64.926h-3.535v-0.411c0.999-0.096,1.141-0.189,1.141-1.239V56.68c0-1.077-0.093-1.125-1.09-1.205
	v-0.381c0.822-0.097,1.803-0.363,2.344-0.557v8.738c0,1.05,0.125,1.144,1.141,1.239L70.887,64.926L70.887,64.926z"/>
<path fill="#929497" d="M77.401,60.219c0-1.236-1.062-2.411-2.394-2.411c-0.809,0-1.666,0.43-2.312,1.157
	c-0.653,0.713-1.05,1.682-1.05,2.775c0,1.791,1.142,3.377,3.092,3.377c0.492,0,1.586-0.287,2.584-1.539l-0.254-0.334
	c-0.57,0.539-1.173,0.795-1.806,0.795c-1.111,0-2.349-0.888-2.362-3.045c1.886-0.063,3.866-0.221,4.137-0.271
	C77.322,60.659,77.401,60.536,77.401,60.219 M75.657,60.297c-0.92,0.033-1.79,0.047-2.678,0.047
	c0.236-1.283,0.933-1.951,1.664-1.951c0.869,0,1.408,0.765,1.395,1.586C76.038,60.203,75.943,60.297,75.657,60.297"/>
<path fill="#929497" d="M84.012,63.166l0.268,0.332c-0.698,0.922-1.759,1.619-2.696,1.619c-1.998,0-3.172-1.619-3.172-3.313
	c0-1.22,0.525-2.284,1.587-3.108c0.826-0.635,1.775-0.888,2.377-0.888c0.65,0,1.174,0.206,1.427,0.413
	c0.208,0.172,0.252,0.316,0.252,0.492c0,0.334-0.346,0.68-0.522,0.68c-0.08,0-0.158-0.046-0.3-0.174
	c-0.476-0.44-1.032-0.649-1.586-0.649c-1.047,0-1.964,0.873-1.964,2.536c0,2.203,1.504,2.934,2.394,2.934
	C82.758,64.039,83.28,63.852,84.012,63.166"/>
<path fill="#929497" d="M89.286,64.356l-1.078,0.554c-0.27,0.143-0.521,0.207-0.665,0.207c-0.999,0-1.553-0.631-1.553-1.889v-4.611
	h-1.094l-0.063-0.156L85.261,58h0.729v-1.158l1.029-1.048l0.223,0.032V58h1.792c0.141,0.155,0.095,0.506-0.095,0.617h-1.696v4.074
	c0,1.284,0.522,1.52,0.918,1.52c0.397,0,0.76-0.158,0.981-0.266L89.286,64.356z"/>
<path fill="#929497" d="M92.28,59.488c0.508-0.794,1.191-1.682,1.949-1.682c0.538,0,0.921,0.412,0.921,0.795
	c0,0.317-0.207,0.633-0.51,0.776c-0.189,0.079-0.332,0.063-0.424-0.032c-0.223-0.237-0.416-0.334-0.668-0.334
	c-0.412,0-0.92,0.477-1.27,1.365v2.898c0,1.049,0.079,1.144,1.3,1.238v0.412h-3.646v-0.412c0.982-0.095,1.095-0.189,1.095-1.238
	v-3.278c0-1.049-0.08-1.108-0.982-1.238v-0.348c0.775-0.126,1.475-0.316,2.235-0.649L92.28,59.488L92.28,59.488z"/>
<path fill="#929497" d="M99.317,64.926h-3.488v-0.411c0.998-0.096,1.11-0.189,1.11-1.271v-3.278c0-0.969-0.046-1.045-0.999-1.188
	v-0.385c0.808-0.125,1.552-0.333,2.249-0.616v5.467c0,1.082,0.112,1.177,1.127,1.271V64.926z"/>
<path fill="#929497" d="M105.703,63.166l0.272,0.332c-0.699,0.922-1.762,1.619-2.694,1.619c-2,0-3.174-1.619-3.174-3.313
	c0-1.22,0.525-2.284,1.587-3.108c0.823-0.635,1.774-0.888,2.377-0.888c0.65,0,1.172,0.206,1.428,0.413
	c0.203,0.172,0.251,0.316,0.251,0.492c0,0.334-0.349,0.68-0.521,0.68c-0.079,0-0.159-0.046-0.302-0.174
	c-0.478-0.44-1.031-0.649-1.586-0.649c-1.045,0-1.964,0.873-1.964,2.536c0,2.203,1.505,2.934,2.395,2.934
	C104.45,64.039,104.974,63.852,105.703,63.166"/>
<path fill="#929497" d="M97.463,56.432c-0.415,0-0.793-0.383-0.793-0.812c0-0.474,0.379-0.821,0.809-0.821
	c0.442,0,0.791,0.348,0.791,0.821C98.271,56.049,97.922,56.432,97.463,56.432"/>
<path fill="#D71921" d="M49.629,40.027L49.488,58.75l-5.11,6.449h-10.79L48.44,46.751h-4.134c-2.517,0-3.215,1.31-3.215,1.31
	L27.324,65.234l-10.591-0.035L31.6,46.754h-4.024c-2.519,0-3.221,1.31-3.221,1.31L10.588,65.235L0,65.202l17.219-21.367
	c0,0,3.164-3.831,6.76-3.831L30.763,40h4.417v2.601c1.246-1.112,3.306-2.573,5.531-2.573H49.629L49.629,40.027z"/>
<path fill="#929497" d="M142.771,43.271v0.95c-0.847-0.85-2.03-1.276-3.548-1.276c-1.683,0-3.072,0.515-4.166,1.547
	c-1.049,0.995-1.577,2.22-1.577,3.67c0,1.445,0.539,2.67,1.609,3.687c1.116,1.038,2.504,1.56,4.168,1.56
	c1.629,0,2.783-0.473,3.513-1.418v1.089h4.051v-9.808H142.771z M142.169,49.784c-0.482,0.4-1.106,0.601-1.875,0.601
	c-0.783,0-1.416-0.201-1.907-0.601c-0.48-0.401-0.718-0.939-0.718-1.608c0-0.648,0.237-1.18,0.718-1.59
	c0.491-0.412,1.124-0.616,1.907-0.616c0.769,0,1.394,0.204,1.875,0.616c0.489,0.41,0.733,0.942,0.733,1.59
	C142.904,48.845,142.659,49.383,142.169,49.784"/>
</svg>
