<?xml version="1.0" encoding="utf-8"?>
<!-- Generator: Adobe Illustrator 15.0.2, SVG Export Plug-In . SVG Version: 6.00 Build 0)  -->
<!DOCTYPE svg PUBLIC "-//W3C//DTD SVG 1.1//EN" "http://www.w3.org/Graphics/SVG/1.1/DTD/svg11.dtd">
<svg version="1.1" id="Слой_1" xmlns="http://www.w3.org/2000/svg" xmlns:xlink="http://www.w3.org/1999/xlink" x="0px" y="0px"
	 width="160px" height="100px" viewBox="0 0 160 100" enable-background="new 0 0 160 100" xml:space="preserve">
<g>
	<polygon fill="#C50084" points="0,25 0,78.828 66.905,72.826 14.143,67.898 1.148,25 	"/>
	<polygon fill="#D4D4D4" points="131.171,78.828 137.792,66.467 66.905,72.826 	"/>
	<polygon fill="#A3006C" points="1.148,25 14.143,67.898 66.905,72.826 137.792,66.467 160,25 	"/>
	<rect x="37.784" y="40.486" fill="#FFFFFF" width="3.198" height="13.907"/>
	<polygon fill="#FFFFFF" points="50.579,46.051 42.372,46.051 42.372,48.833 50.579,48.833 50.579,54.394 53.777,54.394 
		53.777,40.486 50.579,40.486 	"/>
	<polygon fill="#FFFFFF" points="97.029,50.319 97.029,40.486 93.83,40.486 93.83,54.393 97.029,54.393 106.626,44.562 
		106.626,54.393 109.824,54.393 109.824,40.486 106.626,40.486 	"/>
	<polygon fill="#FFFFFF" points="128.6,40.486 111.493,40.486 111.493,43.268 118.239,43.268 118.239,54.394 121.854,54.394 
		121.854,43.268 128.6,43.268 	"/>
	<path fill="#FFFFFF" d="M32.497,40.486h-2.712v2.779h2.297v8.348h-9.596v-8.348h2.288v-2.779h-2.706
		c-1.535,0-2.781,1.246-2.781,2.782v8.345c0,1.535,1.246,2.779,2.781,2.779h10.429c1.535,0,2.78-1.244,2.78-2.779v-8.345
		C35.277,41.732,34.031,40.486,32.497,40.486"/>
	<path fill="#FFFFFF" d="M88.545,40.486H78.117c-1.539,0-2.783,1.246-2.783,2.782v11.125h3.197V43.268h9.599v4.172h-8.206v2.779
		h8.206v4.174h3.198V43.268C91.329,41.732,90.084,40.486,88.545,40.486"/>
	<path fill="#FFFFFF" d="M56.84,43.266v8.349h-1.602v2.778h2.016c1.539,0,2.782-1.244,2.782-2.779v-8.348h9.597v11.127h3.199
		l0.001-13.906H59.621C58.082,40.486,56.84,41.73,56.84,43.266"/>
	<rect x="26.169" y="39.096" fill="#FFFFFF" width="2.225" height="6.955"/>
	<rect x="99.392" y="39.096" fill="#FFFFFF" width="4.871" height="2.224"/>
</g>
</svg>
