<?xml version="1.0" encoding="utf-8"?>
<!-- Generator: Adobe Illustrator 15.0.2, SVG Export Plug-In . SVG Version: 6.00 Build 0)  -->
<!DOCTYPE svg PUBLIC "-//W3C//DTD SVG 1.1//EN" "http://www.w3.org/Graphics/SVG/1.1/DTD/svg11.dtd">
<svg version="1.1" id="Слой_1" xmlns="http://www.w3.org/2000/svg" xmlns:xlink="http://www.w3.org/1999/xlink" x="0px" y="0px"
	 width="160px" height="100px" viewBox="0 0 160 100" enable-background="new 0 0 160 100" xml:space="preserve">
<g>
	<path fill="#E27E3B" d="M160,50.629c0,14.146-9.569,25.632-21.354,25.632c-11.788,0-21.358-11.485-21.358-25.632
		c0-14.145,9.569-25.629,21.358-25.629C150.431,24.999,160,36.484,160,50.629L160,50.629z"/>
	<path fill="#E6E7E8" d="M128.277,46.217c0-3.526,3.098-10.144,10.036-10.144c6.946,0,10.04,6.618,10.04,10.144
		c0,3.523-2.457,6.635-3.312,8.115c-0.857,1.479-1.385,4.805-1.385,4.805l-1.07,1.068h-8.545l-1.065-1.068
		c0,0-0.426-3.326-1.28-4.805C130.839,52.851,128.277,49.74,128.277,46.217L128.277,46.217z M134.041,60.846h8.545v1.493
		l-0.539,0.748h-7.473l-0.535-0.748L134.041,60.846L134.041,60.846z M134.577,63.62h7.473v2.562l-0.426,0.854h-6.618l-0.429-0.854
		L134.577,63.62L134.577,63.62z M136.287,67.676h4.056l-0.424,0.75h-3.208L136.287,67.676L136.287,67.676z"/>
	<path fill="#231F20" d="M126.302,51.17c0,2.494-1.526,4.207-3.879,4.207c-2.337,0-3.889-1.715-3.889-4.207
		c0-2.473,1.672-4.217,3.889-4.217C124.697,46.945,126.302,48.623,126.302,51.17L126.302,51.17L126.302,51.17z M124.383,51.156
		c0-1.291-0.578-2.533-1.961-2.533c-1.399,0-1.986,1.296-1.986,2.539c0,1.236,0.636,2.5,1.978,2.5
		C123.769,53.664,124.383,52.344,124.383,51.156L124.383,51.156z"/>
	<path fill="#231F20" d="M133.453,52.813c0.018,1.541-1.465,2.572-3.245,2.572c-3.54,0-3.299-2.633-3.314-2.85h1.878
		c-0.08,0.818,0.763,1.273,1.518,1.258c0.556-0.01,1.24-0.111,1.328-0.845c0.173-1.474-4.612-0.413-4.612-3.471
		c0-1.624,1.623-2.516,3.203-2.516c2.243,0,3.247,1.328,3.247,2.753h-1.929c0,0,0.093-1.135-1.355-1.135
		c-0.566,0-1.192,0.222-1.265,0.745C128.715,50.703,133.416,49.684,133.453,52.813L133.453,52.813z"/>
	<path fill="#231F20" d="M141.002,49.92c0,1.164-0.566,2.072-1.623,2.558l1.336,2.667h-2.042l-1.187-2.549h-1.209v2.549h-1.86
		v-7.961h4.07C139.922,47.185,141.002,48.386,141.002,49.92L141.002,49.92L141.002,49.92z M139.1,49.92
		c-0.029-0.557-0.35-1.058-0.905-1.058h-1.939v2.144h1.939C138.743,51.006,139.124,50.416,139.1,49.92L139.1,49.92z"/>
	<path fill="#231F20" d="M149.054,55.145h-1.979l-0.481-1.369h-3.132l-0.473,1.369h-1.998l2.897-7.969h2.272L149.054,55.145
		L149.054,55.145L149.054,55.145z M146.031,52.113l-0.991-2.918v0.02l-1.018,2.898H146.031L146.031,52.113z"/>
	<polygon fill="#231F20" points="157.368,55.154 155.421,55.154 155.412,50.758 153.464,54.014 151.52,50.875 151.52,55.154 
		149.508,55.154 149.508,47.176 151.566,47.189 153.426,50.424 155.398,47.189 157.368,47.176 	"/>
	<path fill="#D0D0D8" d="M125.791,51.036c0,2.323-1.388,3.822-3.495,3.822c-2.089,0-3.499-1.503-3.499-3.822
		c0-2.299,1.523-3.84,3.499-3.84C124.329,47.192,125.791,48.663,125.791,51.036L125.791,51.036L125.791,51.036z M124.746,51.018
		c0-1.377-0.644-3.021-2.45-3.021c-1.823,0-2.476,1.701-2.476,3.031c0,1.336,0.713,2.994,2.468,2.994
		C124.058,54.021,124.746,52.298,124.746,51.018L124.746,51.018L124.746,51.018z M132.94,52.709
		c0.016,1.206-1.158,2.156-2.844,2.156c-1.667,0-2.337-0.61-2.636-1.137c-0.156-0.283-0.226-0.574-0.261-0.815l-0.004-0.042h1.022
		c0.086,0.371,0.319,0.665,0.602,0.871c0.391,0.283,0.898,0.42,1.362,0.408c0.521-0.008,1.655-0.096,1.794-1.258
		c0.084-0.725-0.504-1.059-0.95-1.221c-0.255-0.096-0.543-0.166-0.8-0.225l-0.869-0.206c-1.195-0.308-2.066-0.733-2.066-1.929
		c0-1.271,1.292-2.104,2.805-2.104c1.791,0,2.618,0.889,2.802,1.895h-1.071c-0.029-0.111-0.071-0.228-0.136-0.348
		c-0.25-0.451-0.76-0.812-1.634-0.812c-0.578,0-1.611,0.228-1.734,1.152c-0.104,0.724,0.51,1.034,0.93,1.187
		c0.429,0.15,1.025,0.256,1.622,0.416C132.039,51.008,132.927,51.461,132.94,52.709L132.94,52.709L132.94,52.709z M140.477,49.763
		c0,1.011-0.475,1.771-1.389,2.189l-0.424,0.194l0.104,0.211l1.132,2.264h-1.05l-1.149-2.457l-0.06-0.135h-1.968v2.592h-0.99v-7.188
		h3.688C139.543,47.434,140.477,48.413,140.477,49.763L140.477,49.763L140.477,49.763z M139.448,49.744
		c-0.039-0.673-0.452-1.51-1.371-1.51h-2.425v3.084h2.425C138.981,51.318,139.477,50.402,139.448,49.744L139.448,49.744
		L139.448,49.744z M148.361,54.622h-1.047l-0.431-1.241l-0.054-0.149h-3.83l-0.054,0.149l-0.428,1.241h-1.064l2.527-6.958
		l0.261-0.237h1.274l0.307,0.208L148.361,54.622L148.361,54.622L148.361,54.622z M145.135,48.484l-0.205-0.141l-0.224,0.138
		l-1.461,3.962h3.326L145.135,48.484L145.135,48.484L145.135,48.484z M156.861,54.628h-1.074l-0.01-4.952l-0.178-0.128l-0.245,0.136
		l-2.016,3.375l-2.006-3.23l-0.224-0.142l-0.196,0.12v4.822h-1.141V47.43l1.38,0.01l1.952,3.396l0.188,0.077l0.198-0.074
		l2.076-3.398l1.294-0.008L156.861,54.628L156.861,54.628z"/>
	<path fill="#909BBE" d="M125.897,51.146c0,2.318-1.388,3.818-3.494,3.818c-2.093,0-3.5-1.504-3.5-3.818c0-2.3,1.523-3.84,3.5-3.84
		C124.432,47.299,125.897,48.77,125.897,51.146L125.897,51.146L125.897,51.146z M124.851,51.125c0-1.379-0.642-3.025-2.448-3.025
		c-1.823,0-2.472,1.703-2.472,3.032c0,1.339,0.709,2.995,2.463,2.995C124.166,54.127,124.851,52.402,124.851,51.125L124.851,51.125
		L124.851,51.125z M133.046,52.814c0.02,1.211-1.157,2.158-2.843,2.158c-1.669,0-2.338-0.605-2.631-1.135
		c-0.159-0.287-0.229-0.572-0.263-0.818l-0.005-0.041h1.02c0.089,0.375,0.32,0.668,0.605,0.871c0.39,0.287,0.893,0.416,1.363,0.406
		c0.518-0.01,1.649-0.094,1.79-1.254c0.087-0.728-0.505-1.059-0.948-1.225c-0.254-0.093-0.542-0.162-0.804-0.227l-0.865-0.205
		c-1.198-0.302-2.067-0.731-2.067-1.926c0-1.27,1.292-2.106,2.804-2.106c1.79,0,2.624,0.89,2.809,1.896h-1.075
		c-0.032-0.104-0.076-0.224-0.141-0.342c-0.249-0.452-0.756-0.814-1.637-0.814c-0.575,0-1.602,0.226-1.729,1.154
		c-0.1,0.721,0.511,1.035,0.928,1.184c0.434,0.152,1.026,0.26,1.625,0.418C132.145,51.113,133.033,51.563,133.046,52.814
		L133.046,52.814L133.046,52.814z M140.582,49.869c0,1.01-0.477,1.771-1.384,2.19l-0.426,0.196l0.106,0.205l1.132,2.27h-1.058
		l-1.14-2.461l-0.064-0.129h-1.966v2.59h-0.988v-7.191h3.684C139.646,47.54,140.582,48.519,140.582,49.869L140.582,49.869
		L140.582,49.869z M139.554,49.848c-0.038-0.666-0.454-1.506-1.374-1.506h-2.424v3.082h2.424
		C139.086,51.424,139.587,50.511,139.554,49.848L139.554,49.848L139.554,49.848z M148.465,54.73h-1.047l-0.434-1.243l-0.053-0.152
		h-3.826l-0.054,0.152l-0.427,1.243h-1.065l2.53-6.963l0.256-0.237h1.272l0.309,0.211L148.465,54.73L148.465,54.73L148.465,54.73z
		 M145.238,48.59l-0.198-0.135l-0.229,0.135l-1.459,3.959h3.327L145.238,48.59L145.238,48.59L145.238,48.59z M156.968,54.736h-1.079
		l-0.005-4.951l-0.179-0.133l-0.241,0.141l-2.017,3.369l-2.01-3.232l-0.219-0.134l-0.2,0.12v4.82h-1.14v-7.201l1.375,0.01
		l1.958,3.392l0.187,0.079l0.198-0.076l2.074-3.395l1.296-0.011V54.736L156.968,54.736z"/>
	<path fill="#1D3151" d="M126.109,51.357c0,2.322-1.385,3.822-3.492,3.822c-2.091,0-3.5-1.503-3.5-3.822
		c0-2.301,1.522-3.84,3.5-3.84C124.648,47.514,126.109,48.984,126.109,51.357L126.109,51.357L126.109,51.357z M125.068,51.34
		c0-1.377-0.644-3.026-2.45-3.026c-1.823,0-2.476,1.705-2.476,3.032c0,1.34,0.713,2.995,2.47,2.995
		C124.381,54.341,125.068,52.616,125.068,51.34L125.068,51.34L125.068,51.34z M133.261,53.029c0.013,1.209-1.161,2.157-2.845,2.157
		c-1.668,0-2.335-0.606-2.635-1.138c-0.16-0.283-0.225-0.573-0.259-0.814l-0.005-0.042h1.021c0.09,0.37,0.321,0.663,0.604,0.87
		c0.392,0.283,0.895,0.42,1.364,0.406c0.521-0.006,1.651-0.095,1.793-1.256c0.085-0.725-0.507-1.06-0.953-1.224
		c-0.252-0.091-0.539-0.163-0.799-0.224l-0.866-0.203c-1.199-0.311-2.068-0.734-2.068-1.93c0-1.271,1.291-2.105,2.804-2.105
		c1.792,0,2.618,0.889,2.807,1.895h-1.075c-0.027-0.109-0.072-0.227-0.136-0.346c-0.251-0.453-0.757-0.811-1.636-0.811
		c-0.576,0-1.606,0.228-1.732,1.15c-0.102,0.723,0.513,1.035,0.93,1.186c0.428,0.153,1.026,0.258,1.625,0.418
		C132.36,51.328,133.25,51.78,133.261,53.029L133.261,53.029L133.261,53.029z M140.796,50.085c0,1.009-0.473,1.772-1.386,2.188
		l-0.423,0.193l0.1,0.211l1.139,2.264h-1.058l-1.143-2.455l-0.061-0.133h-1.973v2.588h-0.985v-7.187h3.686
		C139.863,47.755,140.796,48.734,140.796,50.085L140.796,50.085L140.796,50.085z M139.766,50.064c-0.036-0.672-0.45-1.51-1.372-1.51
		h-2.423v3.082h2.423C139.301,51.637,139.802,50.726,139.766,50.064L139.766,50.064L139.766,50.064z M148.681,54.941h-1.047
		l-0.435-1.241l-0.052-0.149h-3.828l-0.052,0.149l-0.436,1.241h-1.06l2.527-6.959l0.259-0.236h1.273l0.309,0.211L148.681,54.941
		L148.681,54.941L148.681,54.941z M145.452,48.805l-0.204-0.135l-0.221,0.13l-1.465,3.964h3.329L145.452,48.805L145.452,48.805
		L145.452,48.805z M157.182,54.953h-1.076l-0.009-4.958l-0.176-0.126l-0.245,0.135l-2.017,3.373l-2.008-3.231l-0.223-0.14
		l-0.193,0.122v4.825h-1.141v-7.202l1.376,0.009l1.956,3.393l0.189,0.078l0.197-0.076l2.072-3.395l1.297-0.01V54.953L157.182,54.953
		z"/>
	<path fill="#2B4972" d="M125.966,51.25c0,2.304-1.375,3.783-3.455,3.783c-2.07,0-3.465-1.482-3.465-3.783
		c0-2.279,1.51-3.801,3.465-3.801C124.515,47.44,125.966,48.895,125.966,51.25L125.966,51.25L125.966,51.25z M125,51.233
		c0-1.385-0.65-3.065-2.489-3.065c-1.857,0-2.511,1.738-2.511,3.074c0,1.342,0.717,3.028,2.5,3.028
		C124.305,54.27,125,52.514,125,51.233L125,51.233L125,51.233z M127.454,53.12h0.945c0.098,0.373,0.332,0.662,0.614,0.866
		c0.399,0.287,0.913,0.424,1.387,0.418c0.516-0.008,1.684-0.098,1.828-1.293c0.09-0.752-0.528-1.097-0.978-1.262
		c-0.252-0.096-0.537-0.165-0.801-0.227l-0.867-0.205c-1.198-0.307-2.042-0.727-2.042-1.893c0-1.24,1.267-2.068,2.769-2.068
		c1.749,0,2.565,0.855,2.762,1.824h-0.999c-0.033-0.119-0.075-0.22-0.136-0.326c-0.256-0.465-0.776-0.836-1.667-0.836
		c-0.576,0-1.643,0.23-1.771,1.188c-0.104,0.748,0.536,1.075,0.953,1.224c0.433,0.153,1.028,0.26,1.627,0.42
		c1.161,0.308,2.021,0.751,2.039,1.973c0.011,1.18-1.134,2.115-2.811,2.115c-1.654,0-2.314-0.598-2.602-1.115
		C127.557,53.645,127.485,53.363,127.454,53.12L127.454,53.12L127.454,53.12z M140.652,49.98c0,0.992-0.466,1.74-1.362,2.152
		l-0.46,0.208l0.12,0.245l1.107,2.213h-0.971l-1.132-2.438l-0.072-0.153h-2.032v2.591h-0.912v-7.117h3.651
		C139.731,47.684,140.652,48.645,140.652,49.98L140.652,49.98L140.652,49.98z M139.701,49.952c-0.042-0.676-0.46-1.539-1.414-1.539
		h-2.458v3.158h2.458C139.22,51.571,139.731,50.627,139.701,49.952L139.701,49.952L139.701,49.952z M148.518,54.799h-0.964
		l-0.425-1.218l-0.062-0.177h-3.88l-0.063,0.177l-0.425,1.218h-0.981l2.508-6.901l0.239-0.222h1.25l0.286,0.199L148.518,54.799
		L148.518,54.799L148.518,54.799z M145.38,48.685l-0.001-0.014l-0.012-0.005l-0.223-0.152l-0.251,0.156l-1.488,4.021h3.436
		L145.38,48.685L145.38,48.685L145.38,48.685z M157.038,54.806h-1.003l-0.008-4.915V49.87l-0.214-0.155l-0.269,0.154l-0.011,0.01
		l-1.981,3.32l-1.975-3.18l-0.004-0.008l-0.25-0.154L151.085,50v4.806h-1.06v-7.128l1.318,0.012l1.946,3.371l0.002,0.014l0.217,0.09
		l0.225-0.084l0.008-0.012l2.06-3.379l1.238-0.012V54.806L157.038,54.806z"/>
	<path fill="none" stroke="#586F95" stroke-width="0.1814" stroke-miterlimit="2.6131" d="M126.003,51.25
		c0,2.319-1.385,3.82-3.492,3.82c-2.093,0-3.501-1.501-3.501-3.82c0-2.297,1.524-3.839,3.501-3.839
		C124.543,47.403,126.003,48.876,126.003,51.25L126.003,51.25z M124.962,51.233c0-1.38-0.644-3.027-2.451-3.027
		c-1.823,0-2.474,1.706-2.474,3.036c0,1.34,0.71,2.99,2.463,2.99C124.274,54.232,124.962,52.508,124.962,51.233L124.962,51.233z
		 M133.155,52.922c0.012,1.207-1.156,2.154-2.846,2.154c-1.665,0-2.334-0.606-2.635-1.133c-0.157-0.283-0.228-0.572-0.26-0.819
		l-0.001-0.04h1.016c0.09,0.371,0.324,0.668,0.606,0.875c0.391,0.281,0.895,0.412,1.363,0.406c0.52-0.008,1.65-0.102,1.788-1.258
		c0.091-0.729-0.501-1.059-0.949-1.224c-0.25-0.093-0.538-0.163-0.8-0.224l-0.867-0.207c-1.196-0.305-2.066-0.735-2.066-1.929
		c0-1.269,1.291-2.106,2.804-2.106c1.792,0,2.623,0.893,2.807,1.898h-1.072c-0.032-0.109-0.076-0.227-0.142-0.346
		c-0.251-0.452-0.752-0.814-1.633-0.814c-0.579,0-1.608,0.229-1.732,1.154c-0.101,0.719,0.511,1.035,0.931,1.187
		c0.428,0.151,1.02,0.259,1.624,0.418C132.252,51.224,133.141,51.674,133.155,52.922L133.155,52.922z M140.691,49.98
		c0,1.006-0.478,1.766-1.387,2.184l-0.425,0.197l0.106,0.207l1.133,2.266h-1.055l-1.145-2.458l-0.062-0.128h-1.97v2.586h-0.987
		v-7.188h3.689C139.756,47.646,140.691,48.627,140.691,49.98L140.691,49.98z M139.663,49.958c-0.038-0.671-0.452-1.507-1.375-1.507
		h-2.42v3.082h2.42C139.194,51.533,139.693,50.617,139.663,49.958L139.663,49.958z M148.572,54.835h-1.044l-0.433-1.238
		l-0.051-0.154h-3.831l-0.054,0.154l-0.432,1.238h-1.062l2.527-6.96l0.257-0.239h1.277l0.308,0.213L148.572,54.835L148.572,54.835z
		 M145.343,48.695l-0.2-0.137l-0.224,0.137l-1.461,3.959h3.326L145.343,48.695L145.343,48.695z M157.076,54.843h-1.077l-0.012-4.952
		l-0.174-0.129l-0.245,0.135l-2.016,3.373l-2.007-3.232l-0.223-0.136l-0.202,0.12v4.82h-1.136v-7.201l1.379,0.012l1.951,3.392
		l0.188,0.077l0.197-0.07l2.074-3.398l1.299-0.012v7.201L157.076,54.843L157.076,54.843z"/>
	<path fill="#E27E3B" d="M21.578,51.406c0,6.921-4.243,11.676-10.776,11.676C4.306,63.082,0,58.327,0,51.406
		c0-6.88,4.64-11.723,10.801-11.723C17.115,39.66,21.578,44.327,21.578,51.406L21.578,51.406z M16.255,51.361
		c0-3.584-1.612-7.034-5.453-7.034c-3.889,0-5.521,3.604-5.521,7.056c0,3.431,1.765,6.944,5.499,6.944
		C14.534,58.328,16.255,54.658,16.255,51.361L16.255,51.361z M41.123,55.963c0.042,4.289-4.063,7.145-9.01,7.145
		c-9.833,0-9.167-7.318-9.209-7.919h5.212c-0.223,2.275,2.119,3.537,4.216,3.491c1.545-0.02,3.446-0.305,3.689-2.342
		c0.485-4.09-12.809-1.149-12.809-9.641c0-4.517,4.505-6.991,8.901-6.991c6.225,0,9.01,3.69,9.01,7.652h-5.368
		c0,0,0.263-3.164-3.756-3.164c-1.567,0-3.313,0.616-3.508,2.078C27.956,50.1,41.009,47.269,41.123,55.963L41.123,55.963z
		 M61.701,47.932c0,3.23-1.566,5.752-4.5,7.102l3.709,7.406h-5.675l-3.292-7.075h-3.356v7.075h-5.171V40.326h11.307
		C58.701,40.326,61.701,43.667,61.701,47.932L61.701,47.932z M56.425,47.932c-0.086-1.547-0.973-2.942-2.518-2.942h-5.388v5.952
		h5.388C55.429,50.94,56.493,49.305,56.425,47.932L56.425,47.932z M83.765,62.439H78.27l-1.327-3.799H68.24l-1.325,3.799h-5.539
		l8.037-22.138h6.314L83.765,62.439L83.765,62.439z M75.374,54.016l-2.761-8.099v0.05l-2.822,8.049H75.374L75.374,54.016z
		 M106.469,62.463h-5.406l-0.023-12.207L95.629,59.3l-5.411-8.71v11.873h-5.587V40.302l5.718,0.045l5.167,8.979l5.479-8.979
		l5.475-0.045V62.463L106.469,62.463z"/>
</g>
</svg>
