<?xml version="1.0" encoding="utf-8"?>
<!-- Generator: Adobe Illustrator 15.0.2, SVG Export Plug-In . SVG Version: 6.00 Build 0)  -->
<!DOCTYPE svg PUBLIC "-//W3C//DTD SVG 1.1//EN" "http://www.w3.org/Graphics/SVG/1.1/DTD/svg11.dtd">
<svg version="1.1" id="Слой_1" xmlns="http://www.w3.org/2000/svg" xmlns:xlink="http://www.w3.org/1999/xlink" x="0px" y="0px"
	 width="160px" height="100px" viewBox="0 0 160 100" enable-background="new 0 0 160 100" xml:space="preserve">
<path fill="none" stroke="#005088" stroke-width="0.534" stroke-miterlimit="22.926" d="M157.068,37.868
	c1.616,0,2.932-1.317,2.932-2.934c0-1.616-1.316-2.934-2.932-2.934s-2.933,1.318-2.933,2.934
	C154.135,36.55,155.452,37.868,157.068,37.868z"/>
<path fill="#004784" d="M137.58,44.486v4.131l-2.863,5.265l2.863-4.855v4.512l-0.186,0.343l0.186-0.314v1.443h-4.217v-3.375
	L137.58,44.486z M137.58,39.945v3.748l-4.216,7.754v-4.351L137.58,39.945z M137.58,35.404v3.363l-4.216,7.755v-3.967L137.58,35.404z
	 M135.653,34.13l1.776-0.004l-4.065,7.472v-3.557h-0.016L135.653,34.13z M132.97,34.142c0.131-0.001,0.26-0.003,0.394-0.003
	l1.381-0.006l-2.13,3.921c-0.781,0.033-1.488,0.132-2.124,0.294L132.97,34.142z M121.924,42.938
	c0.291-2.974,1.493-5.319,3.719-6.838L121.924,42.938z M121.857,47.988v-3.516h-0.005c0-0.194,0.004-0.385,0.009-0.575l5.016-8.505
	c0.679-0.323,1.432-0.588,2.257-0.788L121.857,47.988z M121.857,52.912v-4.465l8.285-14.051c0.6-0.103,1.231-0.175,1.901-0.216
	l-2.415,4.441c-2.373,0.924-3.5,2.917-3.491,5.728v0.69L121.857,52.912z M126.143,54.998h-4.285V52.99l4.279-7.262l0.004,4.231
	l-2.134,3.923l2.134-3.617L126.143,54.998z M118.152,45.646v4.229l-2.18,4.008l2.18-3.697v4.842h-3.934v-2.711L118.152,45.646z
	 M118.152,41.104v3.846l-3.934,7.237v-4.411L118.152,41.104z M118.152,36.564v3.462l-3.934,7.235v-4.025L118.152,36.564z
	 M101.542,35.796v-1.655h0.899L101.542,35.796z M101.542,41.029v-3.824l1.806-3.064h1.938L101.542,41.029z M101.542,45.952v-3.92
	l3.981-6.756v3.352L101.542,45.952z M101.542,50.877v-4.306l3.981-6.753v3.734L101.542,50.877z M101.542,55.029v-3.918l3.981-6.754
	v3.677l2.269-3.732l-5.209,9.581l11.644-19.741h1.771L105.26,53.883l11.644-19.741h1.247v0.959l-3.934,7.235V41.38l-8.453,13.649
	H101.542L101.542,55.029z M83.708,34.123h-1.539v2.827L83.708,34.123z M86.385,34.123h-1.771l-2.098,3.559h1.932L86.385,34.123z
	 M89.063,34.123h-1.771l-2.098,3.559h1.934L89.063,34.123z M91.741,34.123h-1.77l-2.098,3.559h0.514v2.609L91.741,34.123z
	 M94.417,34.123h-1.767l-4.264,7.228v3.864L94.417,34.123z M98.583,37.681h0.18v-0.304L98.583,37.681z M95.905,37.681h1.932
	l0.926-1.698v-1.86h-0.757L95.905,37.681z M93.229,37.681h1.933l1.936-3.559h-1.769L93.229,37.681z M92.62,42.352V38.71
	l-4.233,7.182v4.247L92.62,42.352z M88.387,55h4.233v-2.668l-0.914,1.551l0.914-1.682v-4.41l-3.592,6.092l3.592-6.605v-4.026
	l-4.233,7.181V55z M78.392,53.756c0.31-0.352,0.554-0.761,0.714-1.211L78.392,53.756z M56.916,34.146h-2.497v4.594L56.916,34.146z
	 M58.652,35.876v-1.73h-0.829l-3.403,5.774v3.742L58.652,35.876z M58.652,40.8v-3.521l-4.233,7.182v4.127L58.652,40.8z
	 M58.652,45.725V41.82L54.419,49v2.283c0,0.564,0.126,1.1,0.351,1.581L58.652,45.725z M64.949,34.146H64.71v0.443L64.949,34.146z
	 M67.627,34.146h-1.771l-1.147,1.946v3.421L67.627,34.146z M68.899,36.733v-2.587h-0.364l-3.825,6.487v3.804L68.899,36.733z
	 M68.899,41.659V38.07l-4.189,7.104v4.188L68.899,41.659z M75.12,50.224v0.286c0,0.463-0.316,0.857-0.75,0.985l-1.409,2.388
	l1.283-2.359c-0.059,0.01-0.119,0.016-0.181,0.016h-2.396l-1.384,2.344l1.275-2.344h-2.571l-1.383,2.344l1.293-2.375v-4.357
	l-3.97,6.732l3.97-7.3V42.61l-4.189,7.104v1.825h-1.076l-1.383,2.344l1.275-2.344h-2.572l-1.382,2.344l1.275-2.344H59.68
	c-0.456,0-0.847-0.305-0.979-0.72l-1.807,3.063l1.765-3.25c-0.004-0.039-0.008-0.081-0.008-0.124V46.36l-3.86,6.549
	c0.608,1.261,1.902,2.136,3.389,2.136h17.382c1.117,0,2.124-0.494,2.814-1.271l0.814-1.5c0.087-0.316,0.133-0.648,0.133-0.99v-3.65
	l-3.685,6.25l3.685-6.778v-4.013L75.12,50.224z M75.12,45.683v4.23l4.205-7.733v-3.628L75.12,45.683z M75.66,34.146h-0.54v0.995
	L75.66,34.146z M78.339,34.146h-1.77L75.121,36.6v3.464L78.339,34.146z M79.324,34.146h-0.079l-4.126,6.996v3.848l4.205-7.732
	V34.146L79.324,34.146z M154.844,42.946c0.658,0.209,1.229,0.488,1.717,0.839l-2.096,3.855c-0.167-0.409-0.446-0.74-0.833-0.99
	c-0.208-0.136-0.466-0.252-0.77-0.346L154.844,42.946z M152.413,42.527c0.729,0.044,1.394,0.144,1.995,0.297l-1.847,3.396
	c-0.587-0.145-1.317-0.219-2.189-0.231L152.413,42.527z M149.754,42.498h1.716c0.148,0,0.293,0.002,0.436,0.006l-1.895,3.483h-2.314
	L149.754,42.498z M146.788,42.498h2.439l-1.896,3.489h-1.479v2.721l-2.812,5.174l2.812-4.773v2.375h1.171l-1.306,2.398l1.416-2.398
	h2.567l-1.306,2.398l1.417-2.398h0.129c1.139,0,1.978-0.046,2.513-0.139l-1.381,2.538l1.513-2.563
	c0.037-0.008,0.071-0.016,0.105-0.023c0.513-0.133,0.968-0.422,1.369-0.871c0.402-0.455,0.606-1.012,0.606-1.675
	c0-0.289-0.032-0.555-0.094-0.798l2.31-3.918c0.121,0.103,0.233,0.209,0.342,0.323c0.396,0.413,0.726,0.854,0.991,1.321
	l-4.463,8.207l4.638-7.868c0.41,0.846,0.615,1.776,0.615,2.793c0,0.118-0.002,0.237-0.008,0.354l-2.567,4.721l2.538-4.303
	c-0.11,1.089-0.456,2.036-1.042,2.843c-0.718,0.991-1.535,1.664-2.461,2.019c-0.918,0.353-2.25,0.531-3.993,0.531h-9.814v-3.775
	L146.788,42.498z M145.852,39.54v2.958h0.411l-4.607,8.475v-4.315L145.852,39.54z M145.852,34.999v3.328l-4.196,7.721v-3.93
	L145.852,34.999z M143.654,34.19h1.772l-3.771,6.932v-3.545L143.654,34.19z M141.655,34.19h1.093l-1.093,2.008V34.19z"/>
<path fill="#004784" d="M156.215,34.681h1.025c0.218,0,0.389-0.023,0.511-0.069c0.123-0.045,0.217-0.117,0.281-0.214
	c0.062-0.101,0.094-0.208,0.094-0.325c0-0.169-0.061-0.311-0.184-0.419c-0.125-0.111-0.32-0.166-0.588-0.166h-1.14L156.215,34.681
	L156.215,34.681z M155.738,36.694v-3.606h1.598c0.321,0,0.565,0.033,0.734,0.099c0.167,0.064,0.3,0.179,0.398,0.343
	c0.101,0.164,0.151,0.345,0.151,0.543c0,0.256-0.082,0.471-0.249,0.647c-0.167,0.175-0.42,0.287-0.767,0.335
	c0.125,0.059,0.221,0.12,0.287,0.178c0.14,0.13,0.271,0.29,0.396,0.479l0.627,0.983h-0.602l-0.477-0.751
	c-0.141-0.214-0.254-0.382-0.347-0.495c-0.088-0.116-0.169-0.195-0.239-0.24c-0.073-0.048-0.146-0.079-0.22-0.098
	c-0.052-0.01-0.14-0.017-0.264-0.017h-0.553v1.602H155.738L155.738,36.694z"/>
<path fill="#EC1C24" d="M156.305,59.106h0.434c-0.026,0.286-0.125,0.511-0.3,0.674c-0.178,0.163-0.406,0.245-0.687,0.245
	c-0.279,0-0.507-0.082-0.683-0.245s-0.276-0.388-0.303-0.674h0.435c0.015,0.149,0.067,0.262,0.157,0.339
	c0.091,0.076,0.223,0.115,0.395,0.115c0.174,0,0.305-0.039,0.396-0.115C156.239,59.368,156.292,59.256,156.305,59.106
	 M153.905,60.26h0.874v3.084l1.879-3.084h0.931v4.633h-0.876v-3.024l-1.873,3.024h-0.936L153.905,60.26L153.905,60.26z
	 M146.572,60.26h0.875v3.084l1.878-3.084h0.93v4.633h-0.874v-3.024l-1.875,3.024h-0.935V60.26L146.572,60.26z M139.209,64.893V60.26
	h0.936v1.824h1.833V60.26h0.937v4.633h-0.937v-2.025h-1.833v2.025H139.209z M134.308,63.06l-0.639-1.72l-0.626,1.72H134.308z
	 M136.031,64.893h-1.02l-0.404-1.053h-1.852l-0.381,1.053h-0.992l1.805-4.633h0.988L136.031,64.893z M124.532,60.26h3.684v4.633
	h-0.934v-3.855h-1.813v3.855h-0.937V60.26z M116.437,64.893V60.26h1.399l0.843,3.161l0.831-3.161h1.4v4.633h-0.867v-3.646
	l-0.918,3.646h-0.901l-0.918-3.646v3.646H116.437L116.437,64.893z M109.51,62.573c0,0.525,0.123,0.921,0.363,1.192
	c0.242,0.271,0.55,0.406,0.924,0.406c0.372,0,0.678-0.135,0.918-0.402c0.237-0.27,0.356-0.671,0.356-1.209
	c0-0.531-0.117-0.928-0.348-1.188c-0.233-0.262-0.543-0.393-0.927-0.393c-0.386,0-0.698,0.134-0.935,0.397
	C109.628,61.641,109.51,62.039,109.51,62.573 M108.545,62.605c0-0.475,0.069-0.869,0.212-1.189c0.105-0.234,0.25-0.447,0.431-0.635
	c0.181-0.188,0.381-0.328,0.6-0.416c0.288-0.123,0.622-0.184,0.999-0.184c0.681,0,1.228,0.211,1.636,0.635
	c0.411,0.423,0.617,1.012,0.617,1.767c0,0.747-0.204,1.331-0.612,1.755c-0.407,0.422-0.952,0.633-1.63,0.633
	c-0.689,0-1.237-0.211-1.645-0.629C108.748,63.921,108.545,63.341,108.545,62.605 M102.12,60.26h0.937v1.971
	c0.208-0.02,0.35-0.074,0.424-0.161c0.073-0.085,0.188-0.325,0.34-0.72c0.194-0.502,0.39-0.813,0.585-0.938
	c0.194-0.121,0.506-0.181,0.938-0.181c0.022,0,0.065-0.001,0.135-0.003v0.689l-0.131-0.002c-0.192,0-0.331,0.024-0.42,0.071
	c-0.089,0.048-0.16,0.12-0.215,0.216c-0.054,0.098-0.135,0.297-0.244,0.599c-0.058,0.159-0.12,0.293-0.184,0.401
	c-0.067,0.107-0.183,0.208-0.354,0.303c0.209,0.06,0.382,0.178,0.517,0.357c0.136,0.178,0.285,0.431,0.448,0.758l0.631,1.27h-1.1
	l-0.554-1.197c-0.008-0.018-0.026-0.051-0.053-0.098c-0.009-0.016-0.049-0.091-0.114-0.219c-0.123-0.229-0.221-0.369-0.297-0.426
	c-0.078-0.059-0.197-0.087-0.354-0.089v2.028h-0.936L102.12,60.26L102.12,60.26L102.12,60.26z M91.974,63.06l-0.639-1.72
	l-0.626,1.72H91.974z M93.697,64.893h-1.019l-0.404-1.053h-1.852l-0.382,1.053h-0.994l1.806-4.633h0.989L93.697,64.893z M82.2,60.26
	h3.683v4.633h-0.935v-3.855h-1.813v3.855h-0.937V60.26H82.2z M74.867,60.26h3.684v4.633h-0.936v-3.855h-1.813v3.855h-0.936
	L74.867,60.26L74.867,60.26z M67.679,60.26h1.046l1.08,2.406l0.922-2.406h0.976l-1.565,3.52c-0.17,0.383-0.344,0.673-0.52,0.871
	c-0.177,0.199-0.407,0.301-0.686,0.301c-0.277,0-0.492-0.02-0.646-0.055v-0.697c0.131,0.011,0.251,0.014,0.359,0.014
	c0.217,0,0.372-0.039,0.465-0.119c0.094-0.078,0.184-0.249,0.271-0.51L67.679,60.26z M62.172,61.043v1.314h0.511
	c0.37,0,0.618-0.023,0.743-0.072c0.122-0.047,0.22-0.123,0.291-0.229c0.07-0.103,0.107-0.221,0.107-0.359
	c0-0.167-0.051-0.305-0.15-0.417c-0.098-0.108-0.225-0.177-0.375-0.205c-0.112-0.021-0.337-0.032-0.672-0.032H62.172L62.172,61.043z
	 M61.239,64.893V60.26h1.5c0.568,0,0.94,0.024,1.112,0.07c0.267,0.068,0.489,0.221,0.668,0.453c0.179,0.234,0.269,0.534,0.269,0.902
	c0,0.283-0.052,0.523-0.154,0.717c-0.104,0.195-0.236,0.347-0.395,0.457c-0.157,0.111-0.32,0.184-0.485,0.22
	c-0.224,0.044-0.546,0.067-0.97,0.067h-0.611v1.748h-0.934V64.893L61.239,64.893z M54.936,60.26h3.141v0.777h-2.205v3.855h-0.936
	L54.936,60.26L54.936,60.26z"/>
<path fill="#EC1C24" d="M0,64.157v-2.632l1.444,0.014L0,64.157z M23.98,60.835c-0.082,0.33-0.337,0.763-0.729,1.222L23.98,60.835z
	 M48.555,35.023v1.874l-1.125,0.01L48.555,35.023z M47.272,34.103h0.406l-1.551,2.818l-0.541,0.006L47.272,34.103z M45.442,34.103
	h0.405l-1.562,2.835l-0.541,0.006L45.442,34.103z M43.612,34.103h0.405l-1.571,2.854l-0.542,0.006L43.612,34.103z M41.78,34.103
	h0.408l-1.586,2.878c-0.199,0.015-0.396,0.043-0.59,0.083L41.78,34.103z M39.95,34.103h0.406l-1.997,3.63
	c-0.374,0.224-0.719,0.486-1.035,0.77L39.95,34.103z M38.12,34.103h0.406L22.944,62.39c-0.692,0.702-1.684,1.428-2.868,1.915
	L38.12,34.103z M30.798,34.103h0.406L14.345,64.707l18.283-30.604h0.405L16.175,64.707L34.46,34.104h0.406l-16.86,30.603
	l18.283-30.603h0.407L20.051,64.316c-0.872,0.356-1.847,0.587-2.884,0.587H0v-0.701l1.59-2.661l1.675,0.017l-1.736,3.149
	l1.881-3.146l1.676,0.016l-1.725,3.131l1.869-3.131l1.676,0.016l-1.714,3.115l1.859-3.113l0.805,0.008
	c0.396-0.102,0.753-0.225,1.079-0.363l-1.911,3.469l2.13-3.569c2.291-1.092,2.77-3.111,3.956-5.224l9.525-17.318l0.02-0.055
	l0.808-1.352c0.354-0.467,0.803-0.966,1.333-1.425L8.853,64.707l18.071-30.246c0.168-0.067,0.342-0.126,0.518-0.175L10.684,64.707
	l18.301-30.636c0.13,0.001,0.263,0.007,0.396,0.018L12.514,64.707L30.798,34.103z"/>
<polygon fill="#004784" points="0.018,34.157 22.052,34.157 22.052,35.63 1.69,35.63 1.72,58.938 0.049,58.967 "/>
<polygon fill="#004784" points="48.572,64.926 25.657,64.926 25.657,63.453 46.9,63.453 46.9,39.114 48.541,39.114 "/>
</svg>
