<?xml version="1.0" encoding="utf-8"?>
<!-- Generator: Adobe Illustrator 15.0.2, SVG Export Plug-In . SVG Version: 6.00 Build 0)  -->
<!DOCTYPE svg PUBLIC "-//W3C//DTD SVG 1.1//EN" "http://www.w3.org/Graphics/SVG/1.1/DTD/svg11.dtd">
<svg version="1.1" id="Слой_1" xmlns="http://www.w3.org/2000/svg" xmlns:xlink="http://www.w3.org/1999/xlink" x="0px" y="0px"
	 width="160px" height="100px" viewBox="0 0 160 100" enable-background="new 0 0 160 100" xml:space="preserve">
<g>
	<g>
		<path fill="#991A01" d="M25.851,63.684c-3.39,2.157-6.892,3.234-10.506,3.234c-4.472,0-8.147-1.457-11.026-4.371
			C1.439,59.631,0,55.742,0,50.875C0,45.574,1.567,41.282,4.702,38c3.134-3.282,7.132-4.923,11.992-4.923
			c3.083,0,6.054,0.654,8.913,1.962c-0.735,3.236-1.378,6.633-1.93,10.19l-1.685,0.31l-2.358-8.606
			c-0.552-0.229-1.296-0.344-2.236-0.344c-2.327,0-4.237,1.142-5.728,3.426c-1.491,2.284-2.235,5.342-2.235,9.175
			c0,4.475,0.944,7.775,2.833,9.896c1.889,2.125,4.579,3.186,8.07,3.186c1.675,0,3.431-0.218,5.269-0.654L25.851,63.684z"/>
		<path fill="#991A01" d="M61.84,49.327c0,5.233-1.552,9.473-4.655,12.722c-3.104,3.247-7.147,4.871-12.129,4.871
			c-4.839,0-8.699-1.532-11.577-4.596C30.6,59.26,29.16,55.249,29.16,50.291c0-5.026,1.511-9.151,4.533-12.376
			c3.022-3.224,7.106-4.837,12.252-4.837c4.881,0,8.75,1.485,11.609,4.458C60.412,40.508,61.84,44.438,61.84,49.327z M38.685,49.603
			c0,4.176,0.557,7.569,1.67,10.172c1.112,2.605,2.894,3.908,5.345,3.908c2.287,0,3.966-1.147,5.039-3.443
			c1.072-2.295,1.608-5.704,1.608-10.225c0-4.246-0.566-7.591-1.7-10.036c-1.132-2.444-2.904-3.666-5.314-3.666
			c-2.246,0-3.916,1.102-5.009,3.305C39.23,41.823,38.685,45.15,38.685,49.603z"/>
		<path fill="#991A01" d="M114.554,49.327c0,5.233-1.445,9.473-4.335,12.722c-2.89,3.247-6.61,4.871-11.164,4.871
			c-4.492,0-8.025-1.515-10.598-4.544c-2.572-3.03-3.89-6.942-3.951-11.741h-5.421v5.854c0,2.754,0.02,4.659,0.061,5.714
			c0.041,0.62,0.296,1.011,0.766,1.171l3.186,1.033l0.092,1.651c-2.594-0.068-5.36-0.103-8.301-0.103
			c-2.96,0-5.921,0.035-8.881,0.103l-0.153-1.651l3.89-1.205c0.469-0.16,0.724-0.505,0.766-1.033c0.04-0.895,0.061-2.398,0.061-4.51
			V43.577c0-2.732-0.021-4.625-0.061-5.681c-0.042-0.62-0.297-1.01-0.766-1.17l-3.859-1.205l-0.092-1.653
			c3.021,0.07,5.983,0.104,8.882,0.104c3.002,0,5.768-0.034,8.3-0.104l0.153,1.653l-3.216,0.998c-0.47,0.184-0.725,0.54-0.766,1.068
			c-0.04,0.895-0.061,2.398-0.061,4.509v5.372h5.574c0.43-4.017,1.95-7.418,4.564-10.208c2.614-2.789,6.146-4.183,10.597-4.183
			c4.512,0,8.097,1.485,10.751,4.458C113.226,40.508,114.554,44.438,114.554,49.327z M93.358,49.603c0,4.2,0.48,7.614,1.439,10.242
			c0.96,2.628,2.502,3.942,4.626,3.942c2.021,0,3.497-1.159,4.427-3.478c0.928-2.317,1.393-5.749,1.393-10.294
			c0-4.269-0.49-7.636-1.469-10.104c-0.981-2.467-2.512-3.702-4.596-3.702c-2.001,0-3.472,1.108-4.41,3.322
			C93.828,41.748,93.358,45.105,93.358,49.603z"/>
		<path fill="#991A01" d="M121.966,55.386l2.144,7.437c1.552,0.619,2.972,0.93,4.259,0.93c1.899,0,3.384-0.608,4.456-1.824
			c1.071-1.217,1.608-2.903,1.608-5.062c0-2.11-0.556-3.683-1.669-4.717c-1.114-1.032-2.66-1.549-4.641-1.549
			c-0.899,0-1.981,0.185-3.246,0.552l-0.184-4.029c1.572,0.345,2.746,0.517,3.522,0.517c1.818,0,3.235-0.465,4.257-1.394
			c1.021-0.93,1.532-2.37,1.532-4.321c0-1.835-0.516-3.242-1.547-4.218c-1.032-0.976-2.394-1.463-4.089-1.463
			c-1.307,0-2.695,0.287-4.165,0.861l-1.715,6.196l-1.685,0.276c-0.448-2.8-0.99-5.6-1.624-8.401
			c3.818-1.446,7.738-2.168,11.761-2.168c3.798,0,6.719,0.667,8.759,1.997c2.042,1.331,3.064,3.202,3.064,5.611
			c0,3.925-2.206,6.507-6.617,7.747c1.41,0.322,2.614,0.735,3.614,1.239c1.001,0.505,1.813,1.101,2.436,1.791
			c0.624,0.688,1.071,1.481,1.347,2.376c0.275,0.895,0.414,1.883,0.414,2.96c0,3.282-1.327,5.802-3.982,7.558
			c-2.655,1.756-6.167,2.633-10.537,2.633c-4.064,0-7.647-0.769-10.751-2.307c0.693-3.052,1.266-6.035,1.715-8.951L121.966,55.386z"
			/>
	</g>
	<g>
		<path fill="#991A01" d="M147.476,39.131c-0.598,0-1.169,0.005-1.711,0.015l-0.026-0.255l0.816-0.224
			c0.084-0.027,0.128-0.082,0.132-0.163c0.007-0.254,0.011-0.583,0.011-0.983v-4.976h-1.468l-0.468,1.355l-0.286,0.046l-0.131-1.905
			l0.036-0.041c0.835,0.013,1.635,0.02,2.4,0.02h1.42c0.765,0,1.569-0.007,2.415-0.02l0.031,0.041l-0.336,1.864l-0.285,0.046
			l-0.332-1.406h-1.472v4.977c0,0.401,0.004,0.728,0.01,0.983c0.004,0.082,0.049,0.136,0.138,0.163l0.799,0.224l0.015,0.254
			C148.619,39.136,148.049,39.131,147.476,39.131z"/>
		<path fill="#991A01" d="M157.515,32c0.468,0.013,0.892,0.02,1.268,0.02c0.336,0,0.731-0.006,1.188-0.02l0.03,0.26l-0.698,0.198
			c-0.079,0.024-0.119,0.08-0.123,0.168c-0.007,0.224-0.01,0.506-0.01,0.846v4.06c0,0.4,0.003,0.739,0.01,1.014
			c0.003,0.078,0.049,0.13,0.138,0.158l0.662,0.189L160,39.146c-0.486-0.01-1.024-0.015-1.615-0.015
			c-0.573,0-1.054,0.005-1.442,0.015l-0.025-0.255l0.586-0.178c0.082-0.024,0.124-0.085,0.127-0.183
			c0.011-0.265,0.015-0.599,0.015-0.999v-3.259c0-0.177,0.005-0.515,0.015-1.014c-0.115,0.292-0.237,0.594-0.367,0.906l-2.028,4.967
			l-0.458,0.04l-1.936-4.823c-0.115-0.275-0.234-0.583-0.356-0.921c0.006,0.482,0.01,0.8,0.01,0.952v3.153
			c0,0.4,0.004,0.733,0.01,0.999c0.003,0.098,0.047,0.159,0.133,0.184l0.56,0.178l0.015,0.255c-0.401-0.01-0.749-0.015-1.043-0.015
			c-0.292,0-0.675,0.005-1.147,0.015l-0.026-0.255l0.683-0.188c0.089-0.028,0.134-0.08,0.138-0.158
			c0.007-0.275,0.01-0.613,0.01-1.014v-4.059c0-0.34-0.003-0.622-0.01-0.846c-0.003-0.088-0.043-0.144-0.123-0.168l-0.682-0.198
			L151.029,32c0.564,0.013,0.986,0.02,1.268,0.02c0.387,0,0.783-0.006,1.188-0.02l1.778,4.487c0.078,0.193,0.148,0.377,0.209,0.55
			c0.068-0.173,0.139-0.356,0.213-0.55L157.515,32z"/>
	</g>
</g>
</svg>
