<?xml version="1.0" encoding="utf-8"?>
<!-- Generator: Adobe Illustrator 15.0.2, SVG Export Plug-In . SVG Version: 6.00 Build 0)  -->
<!DOCTYPE svg PUBLIC "-//W3C//DTD SVG 1.1//EN" "http://www.w3.org/Graphics/SVG/1.1/DTD/svg11.dtd">
<svg version="1.1" id="Слой_1" xmlns="http://www.w3.org/2000/svg" xmlns:xlink="http://www.w3.org/1999/xlink" x="0px" y="0px"
	 width="160px" height="100px" viewBox="0 0 160 100" enable-background="new 0 0 160 100" xml:space="preserve">
<g>
	<path fill="#CDCDCD" d="M63.662,40.15c6.709,4.129,11.136,11.221,11.136,19.277c0,5.48-2.049,10.515-5.469,14.473l0.513-1.104
		c3.418-3.959,5.466-8.993,5.466-14.472c0-8.057-4.427-15.15-11.134-19.277L63.662,40.15"/>
	<path fill="#CDCDCD" d="M63.662,40.15c6.709,4.129,11.136,11.221,11.136,19.277c0,5.48-2.049,10.515-5.469,14.473l0.513-1.104
		c3.418-3.959,5.466-8.993,5.466-14.472c0-8.057-4.427-15.15-11.134-19.277L63.662,40.15"/>
	<path fill="#FFFFFF" d="M26.678,51.868c2.45-6.599,8.02-11.837,15.062-14.183l0.511-1.104c-7.043,2.346-12.612,7.585-15.063,14.182
		L26.678,51.868"/>
	
		<linearGradient id="SVGID_1_" gradientUnits="userSpaceOnUse" x1="726.9282" y1="547.2637" x2="742.5015" y2="547.2637" gradientTransform="matrix(1 0 0 1 -700.25 -503.0391)">
		<stop  offset="0" style="stop-color:#FFFFFF"/>
		<stop  offset="1" style="stop-color:#8A8A8A"/>
	</linearGradient>
	<path fill="url(#SVGID_1_)" d="M26.678,51.868c2.45-6.599,8.02-11.837,15.062-14.183l0.511-1.104
		c-7.043,2.346-12.612,7.585-15.063,14.182L26.678,51.868"/>
	<path fill="#CDCDCD" d="M53.691,47.852c4.049,1.261,6.97,4.825,6.97,9.029c0,2.26-0.844,4.336-2.253,5.968l0.512-1.104
		c1.409-1.634,2.253-3.709,2.253-5.968c0-4.205-2.921-7.77-6.97-9.029L53.691,47.852"/>
	<path fill="#CDCDCD" d="M53.691,47.852c4.049,1.261,6.97,4.825,6.97,9.029c0,2.26-0.844,4.336-2.253,5.968l0.512-1.104
		c1.409-1.634,2.253-3.709,2.253-5.968c0-4.205-2.921-7.77-6.97-9.029L53.691,47.852"/>
	<path fill="#FFFFFF" d="M40.82,53.764c0.912-2.461,2.878-4.461,5.396-5.538l0.51-1.104c-2.515,1.075-4.481,3.077-5.393,5.538
		L40.82,53.764"/>
	<path fill="none" stroke="#FFFFFF" stroke-width="0.206" stroke-miterlimit="10" d="M40.82,53.764
		c0.912-2.461,2.878-4.461,5.396-5.538l0.51-1.104c-2.515,1.075-4.481,3.077-5.393,5.538L40.82,53.764"/>
	<path fill="#CDCDCD" d="M86.416,26.957c10.931,9.375,17.78,22.826,17.78,37.769c0,4.139-0.526,8.161-1.517,12.016l0.512-1.104
		c0.991-3.854,1.519-7.877,1.519-12.017c0-14.94-6.851-28.393-17.783-37.767L86.416,26.957"/>
	<path fill="#CDCDCD" d="M86.416,26.957c10.931,9.375,17.78,22.826,17.78,37.769c0,4.139-0.526,8.161-1.517,12.016l0.512-1.104
		c0.991-3.854,1.519-7.877,1.519-12.017c0-14.94-6.851-28.393-17.783-37.767L86.416,26.957"/>
	<polyline fill="#CDCDCD" points="99.527,43.228 98.557,40.604 74.746,48.271 75.716,50.893 99.527,43.228 	"/>
	<polyline fill="#CDCDCD" points="99.527,43.228 98.557,40.604 74.746,48.271 75.716,50.893 99.527,43.228 	"/>
	<polyline fill="#CDCDCD" points="131.055,37.914 130.085,35.289 106.275,42.955 107.245,45.578 131.055,37.914 	"/>
	<polyline fill="#CDCDCD" points="131.055,37.914 130.085,35.289 106.275,42.955 107.245,45.578 131.055,37.914 	"/>
	<polyline fill="#CDCDCD" points="57.25,52.002 57.879,53.699 74.746,48.271 74.117,46.574 57.25,52.002 	"/>
	<polyline fill="#CDCDCD" points="57.25,52.002 57.879,53.699 74.746,48.271 74.117,46.574 57.25,52.002 	"/>
	<polyline fill="#CDCDCD" points="55.894,54.338 56.521,56.035 73.387,50.605 72.76,48.909 55.894,54.338 	"/>
	<polyline fill="#CDCDCD" points="55.894,54.338 56.521,56.035 73.387,50.605 72.76,48.909 55.894,54.338 	"/>
	<polyline fill="#CDCDCD" points="99.527,43.228 100.156,44.924 117.022,39.494 116.396,37.799 99.527,43.228 	"/>
	<polyline fill="#CDCDCD" points="99.527,43.228 100.156,44.924 117.022,39.494 116.396,37.799 99.527,43.228 	"/>
	<polyline fill="#CDCDCD" points="116.125,37.074 116.392,37.8 123.595,35.481 123.327,34.758 116.125,37.074 	"/>
	<polyline fill="#CDCDCD" points="116.125,37.074 116.392,37.8 123.595,35.481 123.327,34.758 116.125,37.074 	"/>
	<polyline fill="#CDCDCD" points="120.867,36.355 121.135,37.08 128.337,34.763 128.068,34.039 120.867,36.355 	"/>
	<polyline fill="#CDCDCD" points="120.867,36.355 121.135,37.08 128.337,34.763 128.068,34.039 120.867,36.355 	"/>
	
		<linearGradient id="SVGID_2_" gradientUnits="userSpaceOnUse" x1="700.2495" y1="580.8691" x2="754.4409" y2="580.8691" gradientTransform="matrix(1 0 0 1 -700.25 -503.0391)">
		<stop  offset="0" style="stop-color:#FFFFFF"/>
		<stop  offset="1" style="stop-color:#8A8A8A"/>
	</linearGradient>
	<polyline fill="url(#SVGID_2_)" points="50.826,77.178 0,77.831 54.191,78.483 50.826,77.178 	"/>
	
		<linearGradient id="SVGID_3_" gradientUnits="userSpaceOnUse" x1="741.9702" y1="576.1357" x2="754.4409" y2="576.1357" gradientTransform="matrix(1 0 0 1 -700.25 -503.0391)">
		<stop  offset="0" style="stop-color:#FFFFFF"/>
		<stop  offset="1" style="stop-color:#8A8A8A"/>
	</linearGradient>
	<polyline fill="url(#SVGID_3_)" points="54.191,78.483 41.721,67.712 50.826,77.178 54.191,78.483 	"/>
	<path fill="#CDCDCD" d="M46.943,55.637c3.3-8.885,9.148-16.662,16.723-22.571l0.512-1.103c-7.575,5.907-13.422,13.684-16.723,22.57
		L46.943,55.637"/>
	<path fill="#CDCDCD" d="M46.943,55.637c3.3-8.885,9.148-16.662,16.723-22.571l0.512-1.103c-7.575,5.907-13.422,13.684-16.723,22.57
		L46.943,55.637"/>
	
		<linearGradient id="SVGID_4_" gradientUnits="userSpaceOnUse" x1="738.9292" y1="561.4775" x2="738.9292" y2="578.667" gradientTransform="matrix(1 0 0 1 -700.25 -503.0391)">
		<stop  offset="0" style="stop-color:#D9D9D9"/>
		<stop  offset="1" style="stop-color:#000000"/>
	</linearGradient>
	<path fill="url(#SVGID_4_)" d="M44.671,58.439l-2.303,8.216l2.787,8.974h-5.617c-0.551-2.265-0.972-4.21-1.259-5.839
		c-0.382,2.037-0.797,3.983-1.245,5.839h-4.831l2.489-8.974l-2.489-8.216h4.831c0.771,3.504,1.186,5.496,1.245,5.972
		c0.551-2.928,0.971-4.917,1.259-5.972H44.671"/>
	
		<linearGradient id="SVGID_5_" gradientUnits="userSpaceOnUse" x1="722.3433" y1="561.5811" x2="722.3433" y2="578.9805" gradientTransform="matrix(1 0 0 1 -700.25 -503.0391)">
		<stop  offset="0" style="stop-color:#D9D9D9"/>
		<stop  offset="1" style="stop-color:#000000"/>
	</linearGradient>
	<path fill="url(#SVGID_5_)" d="M28.963,58.543v17.091h-6.063l0.1-1.413c-0.413,0.576-0.921,1.008-1.526,1.292
		c-0.603,0.29-1.298,0.43-2.084,0.43c-0.897,0-1.642-0.134-2.232-0.408c-0.587-0.277-1.021-0.643-1.304-1.096
		c-0.282-0.454-0.452-0.932-0.525-1.423c-0.07-0.494-0.105-1.476-0.105-2.944V58.543h5.964v11.632c0,1.333,0.045,2.12,0.142,2.37
		c0.091,0.251,0.346,0.376,0.76,0.376c0.443,0,0.707-0.128,0.786-0.388C22.959,72.274,23,71.447,23,70.048V58.543H28.963"/>
	<path fill="#373A53" d="M49.644,48.447c0-0.491-0.023-0.803-0.077-0.941c-0.047-0.135-0.15-0.203-0.303-0.203
		c-0.133,0-0.232,0.055-0.301,0.165c-0.07,0.11-0.105,0.435-0.105,0.978v4.896c0,0.611,0.023,0.986,0.068,1.128
		c0.044,0.146,0.154,0.216,0.319,0.216c0.171,0,0.28-0.082,0.327-0.246c0.049-0.166,0.072-0.557,0.072-1.175v-4.819 M52.151,51.895
		c0,1.053-0.022,1.8-0.067,2.236c-0.048,0.441-0.189,0.843-0.43,1.205c-0.239,0.363-0.565,0.641-0.974,0.836
		s-0.887,0.295-1.429,0.295c-0.518,0-0.982-0.095-1.394-0.278c-0.412-0.184-0.741-0.457-0.99-0.825c-0.25-0.368-0.4-0.769-0.447-1.2
		c-0.047-0.433-0.071-1.188-0.071-2.269v-1.797c0-1.053,0.023-1.799,0.068-2.238c0.045-0.439,0.186-0.839,0.43-1.203
		c0.24-0.361,0.563-0.641,0.975-0.836c0.408-0.194,0.885-0.293,1.429-0.293c0.515,0,0.979,0.094,1.391,0.277
		c0.41,0.184,0.743,0.457,0.992,0.826c0.25,0.367,0.397,0.768,0.445,1.199c0.05,0.434,0.07,1.188,0.07,2.268L52.151,51.895
		L52.151,51.895z M45.414,45.749v10.493h-2.198l-1.306-4.771v4.771h-2.097V45.749h2.096l1.407,4.727v-4.727H45.414z M38.806,45.749
		v10.493h-2.509v-4.406h-0.751v4.406h-2.51V45.749h2.51v3.753h0.751v-3.753H38.806z M32.138,50.324h-2.509v-1.826
		c0-0.531-0.029-0.863-0.081-0.997c-0.052-0.13-0.171-0.195-0.354-0.195c-0.208,0-0.337,0.079-0.394,0.238
		c-0.055,0.163-0.083,0.507-0.083,1.039v4.873c0,0.511,0.029,0.843,0.083,0.997c0.057,0.156,0.182,0.235,0.377,0.235
		c0.187,0,0.31-0.079,0.366-0.235c0.056-0.155,0.086-0.521,0.086-1.096v-1.313h2.508v0.405c0,1.085-0.07,1.855-0.211,2.31
		c-0.139,0.45-0.453,0.851-0.936,1.188c-0.483,0.345-1.079,0.517-1.783,0.517c-0.736,0-1.342-0.148-1.819-0.439
		c-0.477-0.287-0.793-0.688-0.947-1.199c-0.155-0.513-0.232-1.281-0.232-2.311v-3.066c0-0.756,0.025-1.321,0.071-1.701
		c0.047-0.379,0.189-0.744,0.428-1.092c0.236-0.35,0.565-0.627,0.982-0.828c0.42-0.199,0.9-0.301,1.444-0.301
		c0.74,0,1.352,0.158,1.832,0.467c0.479,0.313,0.795,0.7,0.946,1.164c0.15,0.465,0.227,1.187,0.227,2.168L32.138,50.324
		L32.138,50.324z M21.21,45.749h4.183v2.1H23.72v1.989h1.566v1.998H23.72v2.307h1.841v2.1H21.21L21.21,45.749L21.21,45.749z
		 M20.637,45.749v2.1h-1.489v8.394h-2.509v-8.394h-1.484v-2.1H20.637z"/>
	
		<linearGradient id="SVGID_6_" gradientUnits="userSpaceOnUse" x1="707.2144" y1="548.4502" x2="707.2144" y2="578.665" gradientTransform="matrix(1 0 0 1 -700.25 -503.0391)">
		<stop  offset="0" style="stop-color:#D9D9D9"/>
		<stop  offset="1" style="stop-color:#000000"/>
	</linearGradient>
	<polyline fill="url(#SVGID_6_)" points="7.602,45.412 7.602,71.666 12.098,71.666 12.322,75.627 1.606,75.627 1.606,45.412 
		7.602,45.412 	"/>
	<path fill="#FFFFFF" d="M51.624,12C111.315,12,160,29.11,160,50.089c0,20.98-48.685,38.091-108.375,38.091
		c-18.428,0-35.8-1.634-51.019-4.504v-2.524c15.025,3.064,32.457,4.823,51.019,4.823c56.235,0,102.101-16.121,102.101-35.887
		c0-19.765-45.866-35.884-102.101-35.884c-18.563,0-35.994,1.758-51.019,4.82v-2.521C15.823,13.632,33.195,12,51.624,12"/>
	<path fill="#CAC7FF" d="M51.624,12C111.315,12,160,29.11,160,50.089c0,20.98-48.685,38.091-108.375,38.091
		c-18.428,0-35.8-1.634-51.019-4.504v-2.524c15.025,3.064,32.457,4.823,51.019,4.823c56.235,0,102.101-16.121,102.101-35.887
		c0-19.765-45.866-35.884-102.101-35.884c-18.563,0-35.994,1.758-51.019,4.82v-2.521C15.823,13.632,33.195,12,51.624,12"/>
</g>
</svg>
