<!-- Generated by IcoMoon.io -->
<svg version="1.1" xmlns="http://www.w3.org/2000/svg" width="42" height="42" viewBox="0 0 42 42">
<title>soran</title>
<path fill="#ff65c2" d="M21 0c-11.598 0-21 9.402-21 21s9.402 21 21 21 21-9.402 21-21-9.402-21-21-21zM21 39.375c-2.582 0-5.040-0.534-7.269-1.495l9.563-10.758c0.214-0.24 0.331-0.551 0.331-0.872v-3.938c0-0.725-0.588-1.313-1.313-1.313-4.634 0-9.524-4.818-9.572-4.866-0.246-0.246-0.58-0.384-0.928-0.384h-5.25c-0.725 0-1.313 0.588-1.313 1.313v7.875c0 0.497 0.281 0.952 0.726 1.174l4.524 2.262v7.706c-4.76-3.32-7.875-8.836-7.875-15.080 0-2.818 0.635-5.488 1.769-7.875h4.793c0.348 0 0.682-0.138 0.928-0.384l5.25-5.25c0.246-0.246 0.384-0.58 0.384-0.928v-3.175c1.664-0.495 3.426-0.762 5.25-0.762 2.888 0 5.619 0.667 8.051 1.854-0.17 0.144-0.335 0.294-0.494 0.453-1.487 1.487-2.307 3.465-2.307 5.568s0.819 4.081 2.307 5.568c1.494 1.494 3.495 2.308 5.563 2.308 0.13 0 0.26-0.003 0.39-0.010 0.567 2.125 1.589 7.656-0.345 15.272-0.018 0.072-0.029 0.143-0.035 0.214-3.336 3.408-7.986 5.523-13.131 5.523z"></path>
</svg>
