<?xml version="1.0" encoding="utf-8"?>
<!-- Generator: Adobe Illustrator 23.1.1, SVG Export Plug-In . SVG Version: 6.00 Build 0)  -->
<svg version="1.1" id="Layer_1" xmlns="http://www.w3.org/2000/svg" xmlns:xlink="http://www.w3.org/1999/xlink" x="0px" y="0px"
	 viewBox="0 0 140 140" style="enable-background:new 0 0 140 140;" xml:space="preserve">
<style type="text/css">
	.st0{fill:#FABC3D;}
</style>
<g>
	<g id="Layer_1-2_1_">
		<path class="st0" d="M110.6,60.6h-2.3c-0.8-21.3-18.8-37.9-40.1-37.1C48.1,24.2,32,40.4,31.2,60.6h-1.9c-3.4,0-6.2,2.7-6.2,6.1
			v18.7c0.1,3.3,2.8,6,6.2,6h11.9V60.6h-8c0.3-9.4,4.2-18.5,11-25.1c14.2-13.9,36.9-13.9,51,0c6.8,6.6,10.7,15.6,11,25.1h-8.2v42.9
			c0,3.1-2.5,5.5-5.5,5.6H76.3c-0.6-3.5-3.9-6-7.5-5.4c-3.5,0.6-6,3.9-5.4,7.5c0.5,3.1,3.3,5.5,6.5,5.5s6-2.3,6.4-5.5h16.3
			c4.2,0,7.6-3.4,7.6-7.6V91.4h10.5c3.3-0.1,6-2.7,6.2-6V66.6C116.8,63.3,114,60.6,110.6,60.6z M114.6,66.6v18.7
			c-0.1,2.1-1.9,3.9-4,3.9h-10.5V62.6h10.5C112.8,62.6,114.6,64.4,114.6,66.6C114.7,66.6,114.7,66.6,114.6,66.6L114.6,66.6z
			 M39,62.6v26.6h-9.7c-2.1-0.1-3.9-1.8-4-3.9V66.6c0-2.2,1.8-4,4-4H39z M74.2,110c0,2.5-2,4.4-4.4,4.4c-2.4,0-4.4-2-4.4-4.4
			c0-2.5,2-4.4,4.4-4.5l0,0C72.2,105.6,74.2,107.6,74.2,110L74.2,110z"/>
	</g>
</g>
</svg>
