<?xml version="1.0" encoding="utf-8"?>
<!-- Generator: Adobe Illustrator 23.0.4, SVG Export Plug-In . SVG Version: 6.00 Build 0)  -->
<svg version="1.1" id="Layer_1" xmlns="http://www.w3.org/2000/svg" xmlns:xlink="http://www.w3.org/1999/xlink" x="0px" y="0px"
	 viewBox="0 0 140 140" style="enable-background:new 0 0 140 140;" xml:space="preserve">
<style type="text/css">
	.st0{fill:#FABC3D;}
</style>
<g>
	<path class="st0" d="M70,41.91c-0.81,0-1.64,0.05-2.45,0.14c-10.31,1.14-18.52,9.83-19.09,20.22c-0.35,6.26,2.03,12.36,6.52,16.71
		c3.72,3.61,5.85,8.58,5.85,13.64v2.84c0,2.73,2.22,4.96,4.96,4.96h8.43c2.73,0,4.96-2.22,4.96-4.96v-2.83
		c0-5.12,2.08-10.05,5.71-13.51c4.32-4.11,6.69-9.66,6.69-15.62C91.58,51.59,81.9,41.91,70,41.91z M82.81,76.94
		c-4.22,4.02-6.64,9.74-6.64,15.68v2.83c0,1.08-0.88,1.96-1.96,1.96h-8.43c-1.08,0-1.96-0.88-1.96-1.96v-2.84
		c0-5.86-2.47-11.62-6.77-15.79c-3.87-3.75-5.91-9-5.61-14.39c0.5-8.94,7.56-16.42,16.43-17.4c0.71-0.08,1.42-0.12,2.12-0.12
		c10.24,0,18.58,8.33,18.58,18.58C88.58,68.62,86.53,73.4,82.81,76.94z"/>
	<path class="st0" d="M77.26,102.47H62.74c-0.83,0-1.5,0.67-1.5,1.5s0.67,1.5,1.5,1.5h14.52c0.83,0,1.5-0.67,1.5-1.5
		S78.09,102.47,77.26,102.47z"/>
	<path class="st0" d="M78.76,108.74c0-0.83-0.67-1.5-1.5-1.5H62.74c-0.83,0-1.5,0.67-1.5,1.5s0.67,1.5,1.5,1.5h14.52
		C78.09,110.24,78.76,109.57,78.76,108.74z"/>
	<path class="st0" d="M75.13,113.5c0-0.83-0.67-1.5-1.5-1.5h-7.26c-0.83,0-1.5,0.67-1.5,1.5s0.67,1.5,1.5,1.5h7.26
		C74.46,115,75.13,114.33,75.13,113.5z"/>
	<path class="st0" d="M34.56,63.44h8.69c0.83,0,1.5-0.67,1.5-1.5s-0.67-1.5-1.5-1.5h-8.69c-0.83,0-1.5,0.67-1.5,1.5
		S33.73,63.44,34.56,63.44z"/>
	<path class="st0" d="M105.44,60.44h-8.69c-0.83,0-1.5,0.67-1.5,1.5s0.67,1.5,1.5,1.5h8.69c0.83,0,1.5-0.67,1.5-1.5
		S106.27,60.44,105.44,60.44z"/>
	<path class="st0" d="M68.5,26.5v8.69c0,0.83,0.67,1.5,1.5,1.5s1.5-0.67,1.5-1.5V26.5c0-0.83-0.67-1.5-1.5-1.5S68.5,25.67,68.5,26.5
		z"/>
	<path class="st0" d="M96.12,35.82c-0.59-0.59-1.54-0.59-2.12,0l-6.14,6.14c-0.59,0.58-0.59,1.54,0,2.12
		c0.29,0.29,0.68,0.44,1.06,0.44s0.77-0.15,1.06-0.44l6.14-6.14C96.71,37.36,96.71,36.41,96.12,35.82z"/>
	<path class="st0" d="M46,88.07l6.14-6.14c0.59-0.58,0.59-1.53,0-2.12c-0.59-0.59-1.53-0.59-2.12,0l-6.14,6.14
		c-0.59,0.58-0.59,1.54,0,2.12c0.29,0.29,0.68,0.44,1.06,0.44C45.32,88.51,45.7,88.36,46,88.07z"/>
	<path class="st0" d="M50.02,44.08c0.29,0.29,0.68,0.44,1.06,0.44s0.77-0.15,1.06-0.44c0.59-0.58,0.59-1.54,0-2.12L46,35.82
		c-0.59-0.59-1.53-0.59-2.12,0c-0.59,0.58-0.59,1.54,0,2.12L50.02,44.08z"/>
	<path class="st0" d="M96.12,85.95l-6.14-6.14c-0.59-0.59-1.54-0.59-2.12,0s-0.59,1.54,0,2.12L94,88.07
		c0.29,0.29,0.68,0.44,1.06,0.44s0.77-0.15,1.06-0.44C96.71,87.48,96.71,86.53,96.12,85.95z"/>
</g>
</svg>
