<?xml version="1.0" encoding="utf-8"?>
<!-- Generator: Adobe Illustrator 23.0.4, SVG Export Plug-In . SVG Version: 6.00 Build 0)  -->
<svg version="1.1" id="Layer_1" xmlns="http://www.w3.org/2000/svg" xmlns:xlink="http://www.w3.org/1999/xlink" x="0px" y="0px"
	 viewBox="0 0 140 140" style="enable-background:new 0 0 140 140;" xml:space="preserve">
<style type="text/css">
	.st0{fill:#FABC3D;}
</style>
<g>
	<rect x="34.54" y="57.27" class="st0" width="53.86" height="2"/>
	<rect x="34.54" y="71.46" class="st0" width="53.86" height="2"/>
	<rect x="34.54" y="85.65" class="st0" width="39.41" height="2"/>
	<rect x="34.54" y="99.85" class="st0" width="36.76" height="2"/>
	<path class="st0" d="M97.33,78.57V31.75c0-3.52-2.87-6.39-6.39-6.39H32c-3.52,0-6.39,2.87-6.39,6.39v76.5
		c0,3.52,2.87,6.39,6.39,6.39h64.33c9.96,0,18.06-8.1,18.06-18.06C114.39,86.96,106.82,79.09,97.33,78.57z M32,27.36h58.94
		c2.42,0,4.39,1.97,4.39,4.39v11.89H27.61V31.75C27.61,29.33,29.58,27.36,32,27.36z M32,112.64c-2.42,0-4.39-1.97-4.39-4.39V45.64
		h67.72v32.93c-9.49,0.52-17.06,8.39-17.06,18.01c0,7,4.01,13.06,9.84,16.06H32z M96.33,112.64c-8.86,0-16.06-7.21-16.06-16.06
		s7.21-16.06,16.06-16.06c8.86,0,16.06,7.21,16.06,16.06S105.18,112.64,96.33,112.64z"/>
	<polygon class="st0" points="94.1,103.16 88.91,99.86 87.84,101.55 94.73,105.93 105.13,89.14 103.43,88.09 	"/>
</g>
</svg>
