<?xml version="1.0" encoding="utf-8"?>
<!-- Generator: Adobe Illustrator 23.0.4, SVG Export Plug-In . SVG Version: 6.00 Build 0)  -->
<svg version="1.1" id="Layer_1" xmlns="http://www.w3.org/2000/svg" xmlns:xlink="http://www.w3.org/1999/xlink" x="0px" y="0px"
	 viewBox="0 0 140 140" style="enable-background:new 0 0 140 140;" xml:space="preserve">
<style type="text/css">
	.st0{fill:#FABC3D;}
</style>
<g>
	<path class="st0" d="M111.34,58.72v-18H69.85l-9.23-8.37H27.59v8h-8v66.12l-0.43,1.18h0.43h82.75h0.7l17.8-48.93H111.34z
		 M29.59,34.35h30.26l9.23,8.37h40.26v16h-6v-10H61.85l-9.23-8.37H29.59V34.35z M21.59,42.35h30.26l9.23,8.37h40.26v8H36.96
		l-15.37,42.25V42.35z M101.64,105.65H22.02l16.34-44.93h79.62L101.64,105.65z"/>
	<rect x="35.83" y="96.39" class="st0" width="24.61" height="2"/>
	<rect x="48.14" y="90.39" class="st0" width="2.33" height="2"/>
	<rect x="53.14" y="90.39" class="st0" width="2.33" height="2"/>
	<rect x="58.11" y="90.39" class="st0" width="2.33" height="2"/>
</g>
</svg>
