<?xml version="1.0" encoding="utf-8"?>
<!-- Generator: Adobe Illustrator 23.0.4, SVG Export Plug-In . SVG Version: 6.00 Build 0)  -->
<svg version="1.1" id="Layer_1" xmlns="http://www.w3.org/2000/svg" xmlns:xlink="http://www.w3.org/1999/xlink" x="0px" y="0px"
	 viewBox="0 0 140 140" style="enable-background:new 0 0 140 140;" xml:space="preserve">
<style type="text/css">
	.st0{fill:#FABC3D;}
</style>
<path class="st0" d="M110.8,92.35c-2.74,0-5.26,0.98-7.23,2.6l-18.1-18.1c2.31-2.8,3.69-6.39,3.69-10.29s-1.39-7.49-3.69-10.29
	L98.2,43.54c1.66,1.39,3.8,2.24,6.14,2.24c5.28,0,9.58-4.3,9.58-9.58s-4.3-9.58-9.58-9.58s-9.58,4.3-9.58,9.58
	c0,2.23,0.77,4.27,2.05,5.9L84.1,54.83c-2.91-2.76-6.83-4.47-11.15-4.47c-4.11,0-7.86,1.55-10.72,4.08l-14.6-14.61
	c1.22-1.53,1.96-3.47,1.96-5.57c0-4.93-4.01-8.94-8.94-8.94s-8.94,4.01-8.94,8.94s4.01,8.94,8.94,8.94c2.1,0,4.03-0.73,5.56-1.95
	l14.61,14.61c-2.32,2.63-3.8,6-4.03,9.71H41.71c-0.51-5.93-5.49-10.6-11.55-10.6c-6.4,0-11.6,5.2-11.6,11.6s5.2,11.6,11.6,11.6
	c6.06,0,11.04-4.67,11.55-10.6H56.8c0.24,3.88,1.84,7.39,4.34,10.06L46.81,93.47c-1.09-0.7-2.39-1.12-3.78-1.12
	c-3.87,0-7.02,3.15-7.02,7.01s3.15,7.02,7.02,7.02s7.01-3.15,7.01-7.02c0-1.76-0.65-3.36-1.72-4.59l14.26-15.76
	c2.81,2.35,6.43,3.77,10.37,3.77c4.32,0,8.24-1.71,11.15-4.47l18.05,18.05c-1.69,1.98-2.72,4.55-2.72,7.35
	c0,6.26,5.1,11.36,11.36,11.36s11.36-5.1,11.36-11.36C122.16,97.45,117.06,92.35,110.8,92.35z M104.35,28.63
	c4.18,0,7.58,3.4,7.58,7.58s-3.4,7.58-7.58,7.58s-7.58-3.4-7.58-7.58S100.17,28.63,104.35,28.63z M40.65,41.2
	c-3.82,0-6.94-3.11-6.94-6.94c0-3.82,3.11-6.94,6.94-6.94s6.94,3.11,6.94,6.94c0,1.56-0.52,2.99-1.39,4.15l-0.12-0.12l-1.41,1.41
	l0.12,0.12C43.63,40.68,42.2,41.2,40.65,41.2z M30.16,76.17c-5.29,0-9.6-4.31-9.6-9.6s4.31-9.6,9.6-9.6s9.6,4.31,9.6,9.6
	S35.45,76.17,30.16,76.17z M43.03,104.38c-2.77,0-5.02-2.25-5.02-5.02c0-2.76,2.25-5.01,5.02-5.01c2.76,0,5.01,2.25,5.01,5.01
	C48.05,102.13,45.8,104.38,43.03,104.38z M72.95,80.78c-7.84,0-14.21-6.38-14.21-14.21s6.38-14.21,14.21-14.21
	s14.21,6.38,14.21,14.21S80.79,80.78,72.95,80.78z M110.8,113.08c-5.16,0-9.36-4.2-9.36-9.36s4.2-9.36,9.36-9.36s9.36,4.2,9.36,9.36
	C120.16,108.88,115.96,113.08,110.8,113.08z"/>
</svg>
