<svg viewBox="0 0 512 512">
	<path fill="#ecb84c" d="M304.17,290.594H260v35.92c12.945,0.24,25.871,1.729,38.756,4.459C302.018,318.564,303.878,304.863,304.17,290.594z"/>
	<path fill="#ecb84c" d="M289.375,217.262c-8.15-15.711-18.459-25.123-29.375-26.979v48.371c12.19-0.236,24.361-1.619,36.495-4.146    C294.484,228.33,292.112,222.537,289.375,217.262z"/>
	<path fill="#ecb84c" d="M222.625,355.926c8.151,15.713,18.459,25.123,29.376,26.979v-48.365c-12.149,0.264-24.313,1.67-36.473,4.209    C217.534,344.9,219.898,350.67,222.625,355.926z"/>
	<path fill="#ecb84c" d="M213.262,331.043c12.915-2.742,25.834-4.254,38.739-4.523v-35.926h-44.17C208.123,304.889,209.99,318.615,213.262,331.043    z"/>
	<path fill="#ecb84c" d="M304.323,232.719c8.414-2.098,16.809-4.742,25.177-7.947c-12.187-14.756-28.636-25.803-47.421-31.186    c5.295,5.102,10.151,11.807,14.397,19.992C299.513,219.43,302.131,225.859,304.323,232.719z"/>
	<path fill="#ecb84c" d="M289.375,355.926c2.737-5.275,5.109-11.068,7.121-17.246c-12.135-2.527-24.306-3.91-36.496-4.146v48.371    C270.916,381.049,281.225,371.637,289.375,355.926z"/>
	<rect fill="#ecb84c" height="317.371" width="33.578" x="94.992" y="121.268"/>
	<path fill="#ecb84c" d="M310.545,92.771c0-11.064-8.995-20.066-20.051-20.066h-68.987c-11.057,0-20.052,9.002-20.052,20.066v20.039h109.09V92.771    z"/>
	<path fill="#ecb84c" d="M25.159,146.842v266.223c0,14.102,11.472,25.574,25.574,25.574h36.26V121.268h-36.26    C36.631,121.268,25.159,132.74,25.159,146.842z"/>
	<path fill="#ecb84c" d="M306.548,332.768c9.344,2.346,18.663,5.361,27.951,9.02c10.123-14.635,16.337-32.215,17.106-51.193H312.17    C311.876,305.445,309.944,319.752,306.548,332.768z"/>
	<path fill="#ecb84c" d="M312.17,282.594h39.436c-0.77-18.979-6.979-36.561-17.098-51.197c-9.291,3.66-18.613,6.676-27.961,9.023    C309.944,253.436,311.876,267.742,312.17,282.594z"/>
	<path fill="#ecb84c" d="M296.477,359.609c-4.234,8.164-9.078,14.855-14.357,19.953c18.763-5.383,35.192-16.416,47.37-31.152    c-8.364-3.201-16.756-5.846-25.166-7.943C302.131,347.328,299.513,353.758,296.477,359.609z"/>
	<path fill="#ecb84c" d="M298.756,242.213c-12.885,2.732-25.811,4.221-38.756,4.463v35.918h44.17C303.878,268.324,302.018,254.623,298.756,242.213    z"/>
	<rect fill="#ecb84c" height="317.371" width="33.563" x="383.445" y="121.268"/>
	<path fill="#ecb84c" d="M229.881,379.563c-5.279-5.098-10.123-11.789-14.358-19.953c-3.026-5.832-5.637-12.24-7.825-19.078    c-8.397,2.09-16.79,4.721-25.174,7.895C194.701,363.154,211.125,374.182,229.881,379.563z"/>
	<path fill="#ecb84c" d="M136.57,438.639h238.875V121.268H136.57V438.639z M256,181.938c57.176,0,103.693,46.949,103.693,104.656    c0,57.111-45.586,103.672-101.969,104.604c-0.574,0.031-1.148,0.053-1.724,0.053s-1.151-0.021-1.724-0.053    c-56.384-0.932-101.97-47.492-101.97-104.604C152.307,228.887,198.824,181.938,256,181.938z"/>
	<path fill="#ecb84c" d="M461.268,121.268h-36.26v317.371h36.26c14.102,0,25.574-11.473,25.574-25.574V146.842    C486.842,132.74,475.369,121.268,461.268,121.268z"/>
	<path fill="#ecb84c" d="M215.523,213.578c4.246-8.186,9.103-14.891,14.397-19.992c-18.778,5.381-35.222,16.422-47.408,31.17    c8.387,3.178,16.785,5.809,25.186,7.9C209.887,225.818,212.498,219.41,215.523,213.578z"/>
	<path fill="#ecb84c" d="M207.83,282.594H252v-35.926c-12.905-0.27-25.824-1.781-38.739-4.521C209.99,254.572,208.123,268.299,207.83,282.594z"/>
	<path fill="#ecb84c" d="M215.527,234.439c12.16,2.537,24.324,3.945,36.473,4.209v-48.365c-10.917,1.855-21.225,11.268-29.376,26.979    C219.898,222.518,217.534,228.287,215.527,234.439z"/>
	<path fill="#ecb84c" d="M199.831,290.594h-39.436c0.77,18.982,6.986,36.566,17.113,51.203c9.311-3.627,18.634-6.627,27.962-8.965    C202.063,319.799,200.125,305.471,199.831,290.594z"/>
	<path fill="#ecb84c" d="M205.47,240.355c-9.331-2.34-18.656-5.34-27.971-8.969c-10.122,14.639-16.335,32.225-17.104,51.207h39.436    C200.125,267.719,202.063,253.389,205.47,240.355z"/>
</svg>