<?xml version="1.0" encoding="utf-8"?>
<!-- Generator: Adobe Illustrator 22.0.1, SVG Export Plug-In . SVG Version: 6.00 Build 0)  -->
<svg version="1.1" id="Слой_1" xmlns="http://www.w3.org/2000/svg" xmlns:xlink="http://www.w3.org/1999/xlink" x="0px" y="0px"
	 width="160px" height="100px"
	 viewBox="0 0 160 100" style="enable-background:new 0 0 160 100;" xml:space="preserve">
<style type="text/css">
	.st0{fill:#3B51A3;}
</style>
<path class="st0" d="M55.4,54l-0.6,3.9C54,57.3,53.1,57,52,57c-0.9,0-1.8,0.4-2.4,1.2c-0.6,0.7-1,1.6-1,2.5c0,0.7,0.2,1.3,0.7,1.7
	c0.4,0.5,1,0.7,1.7,0.7c1.2,0,2.2-0.3,3-0.9l-0.6,3.9c-1.2,0.5-2.4,0.8-3.6,0.8c-1.9,0-3.3-0.5-4.4-1.5c-1.1-1-1.6-2.3-1.6-4
	c0-0.4,0-0.9,0.1-1.3c0.3-2.2,1.4-3.9,3.1-5.2c1.5-1.1,3.1-1.7,5-1.7C53.2,53.2,54.4,53.5,55.4,54"/>
<polygon class="st0" points="66.6,53.6 66.1,57.2 61.7,57.2 61.6,58.4 65.5,58.4 65,61.6 61,61.6 60.8,62.9 65.2,62.9 64.6,66.5
	55.6,66.5 57.7,53.6 "/>
<path class="st0" d="M75,57.7c0-0.1,0-0.2,0-0.3c0-0.5-0.3-0.8-1-0.8H73l-0.4,2.2c0.7,0,1.3-0.1,1.6-0.2
	C74.7,58.5,74.9,58.2,75,57.7 M74.5,62.4c0-0.1,0-0.1,0-0.2c0-0.6-0.4-0.9-1.1-0.9h-1.1L72,63.4h1.1c0.3,0,0.6-0.1,0.9-0.2
	C74.3,63,74.4,62.7,74.5,62.4 M79.3,56.7c-0.2,1.2-1,2-2.4,2.4c0.8,0.2,1.4,0.5,1.8,1c0.4,0.5,0.7,1.1,0.7,1.8c0,0.2,0,0.4-0.1,0.6
	c-0.2,1.1-0.7,2-1.5,2.6c-1,0.8-2.4,1.2-4.2,1.2h-6.6l2-12.8h6.4c2.6,0,3.9,0.8,3.9,2.4C79.3,56.2,79.3,56.5,79.3,56.7"/>
<polygon class="st0" points="95.8,53.6 90.4,60 93.7,66.5 88.4,66.5 86.2,61.2 85.3,66.5 80.7,66.5 82.8,53.6 87.4,53.6 86.6,58.7
	90.6,53.6 "/>
<path class="st0" d="M103,61.1l-0.3-3.8h0l-1.5,3.8C101.1,61.1,103,61.1,103,61.1z M108.3,66.5h-4.9l-0.2-2.3h-3.4l-0.9,2.3h-4.9
	l5.8-12.8h6.7L108.3,66.5z"/>
<path class="st0" d="M116.7,62.4c0-0.1,0-0.1,0-0.2c0-0.5-0.5-0.7-1.4-0.7H115l-0.3,1.9h0.5C116.1,63.4,116.6,63.1,116.7,62.4
	 M121.6,53.6l-0.6,3.6h-5.3l-0.2,1.2h1.5c3,0,4.5,1.1,4.5,3.2c0,0.2,0,0.5-0.1,0.8c-0.2,1.2-0.7,2.1-1.7,2.8
	c-1.1,0.8-2.6,1.3-4.5,1.3h-5.6l2-12.8L121.6,53.6L121.6,53.6z"/>
<polygon class="st0" points="133.7,53.6 133.2,57.2 128.9,57.2 128.7,58.4 132.6,58.4 132.1,61.6 128.1,61.6 127.9,62.9 132.3,62.9
	131.7,66.5 122.8,66.5 124.8,53.6 "/>
<path class="st0" d="M147.8,53.6l-2,12.8h-4.6l1.5-9.2h-2l-0.7,4.4c-0.3,1.7-0.8,2.9-1.7,3.7c-0.9,0.8-2.2,1.3-4,1.3
	c-0.3,0-0.9-0.1-1.7-0.2l0.9-3.6c0.3,0.1,0.6,0.2,0.9,0.2c0.6,0,1-0.6,1.2-1.7l1.2-7.7L147.8,53.6L147.8,53.6z"/>
<path class="st0" d="M155.6,62.2c0-0.1,0-0.2,0-0.2c0-0.6-0.4-0.9-1.3-0.9h-0.4l-0.4,2.3h0.5C155,63.4,155.5,63,155.6,62.2
	 M160.3,62c-0.2,1.3-0.8,2.3-1.7,3.1c-1.1,0.9-2.6,1.4-4.5,1.4h-5.6l2-12.8h4.6l-0.7,4.4h1.5c1.4,0,2.5,0.3,3.3,0.9
	c0.8,0.6,1.1,1.3,1.1,2.4C160.3,61.5,160.3,61.7,160.3,62"/>
<path class="st0" d="M8.5,64.7c1,0.6,2.1,0.8,3.1,0.9c-7.7-3.1-6.4-13.9,0.1-16.1C4.7,51.4,3.2,59.2,8.5,64.7 M12.7,48
	c-5,0-9.2,4.1-9.2,9.1c0,3,1.5,5.7,3.8,7.4c1.2,1.4,2.8,2.7,4.7,3.7l0.3-0.7c-0.9-0.5-1.8-1.1-2.7-1.8c0.9,0.3,1.9,0.5,3,0.5
	c0.3,0,0.5,0,0.8,0c-0.5-0.5-1-1.1-1.4-1.7c-3.6-1.7-5.1-8.5-1.7-11.4c0.1-0.4,0.3-0.9,0.5-1.3c-4.7,3.1-3.6,9.7,0.1,12.9
	c-5.8-3.3-5-11.9,0.4-14c0.4-0.7,0.8-1.3,1.2-1.9c-6.1,0.3-10.8,7.1-6.5,14C2.2,58.8,3.4,48.8,13,48.2c0.1-0.1,0.1-0.2,0.2-0.2
	C13,48,12.9,48,12.7,48 M13.5,59.1h0.4c0-0.1,0-0.1-0.1-0.2c0-0.1-0.1-0.1-0.2-0.2c-0.1-0.1-0.2-0.1-0.3-0.1c-0.1,0-0.2-0.1-0.4-0.1
	c-0.2,0-0.3,0-0.5,0.1c-0.1,0.1-0.2,0.2-0.3,0.3c-0.1,0.1-0.1,0.3-0.1,0.5c0,0.2,0,0.3,0.1,0.5c0.1,0.1,0.2,0.2,0.3,0.3
	c0.1,0.1,0.3,0.1,0.5,0.1c0.2,0,0.3,0,0.4-0.1c0.1-0.1,0.2-0.1,0.3-0.2c0.1-0.1,0.1-0.2,0.2-0.3h-0.4c0,0.1,0,0.1-0.1,0.2
	c0,0-0.1,0.1-0.1,0.1c-0.1,0-0.1,0-0.2,0c-0.1,0-0.2,0-0.3-0.1c-0.1,0-0.1-0.1-0.2-0.2c0-0.1-0.1-0.2-0.1-0.3c0-0.2,0-0.4,0.1-0.4
	c0.1-0.1,0.2-0.1,0.3-0.1c0.1,0,0.3,0,0.3,0.1C13.4,58.9,13.5,59,13.5,59.1 M15,59.6c0,0-0.1,0.1-0.3,0.1c-0.1,0-0.1,0-0.1,0
	c0,0-0.1,0-0.1,0.1c0,0,0,0.1,0,0.1c0,0,0,0.1,0.1,0.1c0,0,0.1,0,0.1,0c0.1,0,0.1,0,0.2,0c0.1,0,0.1,0,0.1-0.1c0,0,0.1-0.1,0.1-0.1
	C15,59.7,15,59.6,15,59.6z M15.4,59.9v-0.7c0-0.1,0-0.2-0.1-0.2C15.2,59,15.1,59,15.1,59c-0.1,0-0.2,0-0.3,0c-0.1,0-0.2,0-0.3,0
	c-0.1,0-0.2,0.1-0.2,0.1c-0.1,0.1-0.1,0.1-0.1,0.3h0.4c0,0,0-0.1,0.1-0.1c0,0,0.1,0,0.2,0c0.1,0,0.1,0,0.2,0c0,0,0.1,0.1,0.1,0.1
	c0,0.1,0,0.1-0.1,0.1l-0.3,0c-0.1,0-0.2,0-0.2,0.1c-0.1,0-0.1,0.1-0.1,0.1c0,0.1-0.1,0.1-0.1,0.2c0,0.1,0,0.1,0.1,0.2
	c0,0.1,0.1,0.1,0.2,0.1c0.1,0,0.1,0,0.2,0c0.1,0,0.2,0,0.3,0c0.1,0,0.1-0.1,0.2-0.1c0,0.1,0,0.1,0,0.1h0.4v0c0,0,0,0-0.1-0.1
	C15.4,60.1,15.4,60,15.4,59.9 M17,60.2V59h-0.4v0.5h-0.5V59h-0.4v1.2h0.4v-0.5h0.5v0.5H17z M17.6,60.2v-0.4l0.2-0.1l0.4,0.5h0.5
	l-0.5-0.7l0.5-0.4v0.2H19v0.9h0.4v-0.9h0.4V59h-1.2h0h-0.4l-0.5,0.5V59h-0.4v1.2H17.6L17.6,60.2z M20.8,59.4H20v0.3h0.8V59.4z
	 M21.5,58.8h0.8v1.3h0.4v-1.6h-1.6v1.6h0.4C21.5,60.2,21.5,58.8,21.5,58.8z M23.9,59.5c0-0.1,0-0.2-0.1-0.2c-0.1,0-0.1-0.1-0.2-0.1
	c-0.2,0-0.3,0.1-0.3,0.3H23.9z M24.3,59.8h-0.4c0,0,0,0.1-0.1,0.1c0,0-0.1,0-0.2,0c-0.1,0-0.2,0-0.2,0c-0.1,0-0.1-0.1-0.1-0.1
	c0,0,0-0.1,0-0.1h1v-0.1c0-0.1,0-0.2-0.1-0.3c0-0.1-0.1-0.2-0.2-0.2C24,59,23.9,59,23.9,59c-0.1,0-0.2,0-0.2,0c-0.1,0-0.3,0-0.4,0.1
	c-0.1,0-0.2,0.1-0.2,0.2c0,0.1-0.1,0.1-0.1,0.2c0,0.1,0,0.1,0,0.2c0,0.1,0,0.2,0.1,0.3c0,0.1,0.1,0.2,0.2,0.2
	c0.1,0.1,0.1,0.1,0.2,0.1c0.1,0,0.2,0,0.3,0c0.1,0,0.3,0,0.4-0.1C24.2,60.1,24.2,60,24.3,59.8 M24.9,60.2h0.4v-0.9h0.4V59h-1.3v0.3
	h0.4V60.2z M26.8,59.5c0-0.1,0-0.2-0.1-0.2c-0.1,0-0.1-0.1-0.2-0.1c-0.2,0-0.3,0.1-0.3,0.3H26.8z M27.2,59.8h-0.4c0,0,0,0.1-0.1,0.1
	c0,0-0.1,0-0.2,0c-0.1,0-0.2,0-0.2,0c0,0-0.1-0.1-0.1-0.1c0,0,0-0.1,0-0.1h1v-0.1c0-0.1,0-0.2-0.1-0.3c0-0.1-0.1-0.2-0.2-0.2
	c-0.1,0-0.1-0.1-0.2-0.1c-0.1,0-0.2,0-0.2,0c-0.1,0-0.3,0-0.4,0.1c-0.1,0-0.2,0.1-0.2,0.2c0,0.1-0.1,0.1-0.1,0.2c0,0.1,0,0.1,0,0.2
	c0,0.1,0,0.2,0.1,0.3c0,0.1,0.1,0.2,0.2,0.2c0.1,0.1,0.1,0.1,0.2,0.1c0.1,0,0.2,0,0.3,0c0.1,0,0.3,0,0.4-0.1
	C27,60.1,27.1,60,27.2,59.8 M28.2,60c0.1,0,0.1,0,0.2-0.1c0,0,0.1-0.1,0.1-0.1c0-0.1,0-0.1,0-0.2c0-0.1,0-0.2-0.1-0.3
	c-0.1-0.1-0.1-0.1-0.2-0.1c-0.2,0-0.3,0.1-0.3,0.4c0,0.1,0,0.2,0.1,0.2C28,59.9,28,60,28.2,60 M27.8,59.2V59h-0.4v1.7h0.4V60h0
	c0.1,0.1,0.2,0.2,0.4,0.2c0.1,0,0.3,0,0.3-0.1c0.1-0.1,0.2-0.1,0.2-0.2c0-0.1,0.1-0.2,0.1-0.3c0-0.1,0-0.2,0-0.3
	c0-0.1-0.1-0.1-0.1-0.2c-0.1-0.1-0.1-0.1-0.2-0.1c-0.1,0-0.1,0-0.2,0c-0.1,0-0.2,0-0.3,0.1C27.9,59,27.9,59.1,27.8,59.2L27.8,59.2
	L27.8,59.2z M29.8,59.2c-0.1,0-0.2,0-0.3,0.1c0,0.1-0.1,0.2-0.1,0.3c0,0.1,0,0.2,0.1,0.3c0.1,0.1,0.1,0.1,0.3,0.1
	c0.1,0,0.2,0,0.3-0.1c0.1-0.1,0.1-0.2,0.1-0.3c0-0.1,0-0.2-0.1-0.3C30,59.3,29.9,59.2,29.8,59.2 M29.4,58.6
	c-0.1,0.1-0.2,0.2-0.2,0.3c-0.1,0.1-0.1,0.3-0.1,0.6v0.1c0,0.1,0,0.2,0.1,0.3c0,0.1,0.1,0.1,0.2,0.2c0.1,0.1,0.1,0.1,0.2,0.1
	c0.1,0,0.2,0,0.3,0c0.1,0,0.2,0,0.3,0c0.1,0,0.2-0.1,0.2-0.1c0.1-0.1,0.1-0.1,0.2-0.2c0-0.1,0.1-0.2,0.1-0.3c0-0.1,0-0.2-0.1-0.3
	c0-0.1-0.1-0.1-0.2-0.2c-0.1-0.1-0.1-0.1-0.2-0.1c-0.1,0-0.2,0-0.3,0c-0.1,0-0.2,0-0.2,0.1c-0.1,0-0.1,0.1-0.2,0.1
	c0-0.1,0.1-0.1,0.1-0.2c0,0,0.1-0.1,0.1-0.1c0,0,0.1,0,0.2,0c0.1,0,0.2,0,0.2,0c0.1,0,0.2,0,0.2,0c0.1,0,0.1-0.1,0.2-0.1
	c0,0,0.1-0.1,0.1-0.1c0,0,0-0.1,0-0.1h-0.3c0,0,0,0,0,0c0,0-0.1,0-0.1,0c-0.2,0-0.3,0-0.4,0C29.5,58.5,29.4,58.6,29.4,58.6
	 M31.6,60.2l0.5-1.2h-0.4l-0.3,0.9h0L31.1,59h-0.4l0.5,1.3c0,0.1,0,0.1-0.1,0.1c0,0-0.1,0-0.2,0c0,0-0.1,0-0.1,0v0.3
	c0.1,0,0.1,0,0.2,0c0.1,0,0.2,0,0.2,0c0.1,0,0.1,0,0.1-0.1c0,0,0.1-0.1,0.1-0.1C31.6,60.4,31.6,60.3,31.6,60.2 M33,60
	c0.1,0,0.1,0,0.2-0.1c0,0,0.1-0.1,0.1-0.1c0-0.1,0-0.1,0-0.2c0-0.1,0-0.2-0.1-0.3c-0.1-0.1-0.1-0.1-0.2-0.1c-0.2,0-0.3,0.1-0.3,0.4
	c0,0.1,0,0.2,0.1,0.2C32.8,59.9,32.9,60,33,60 M32.6,59.2V59h-0.4v1.7h0.4V60h0c0.1,0.1,0.2,0.2,0.4,0.2c0.1,0,0.3,0,0.3-0.1
	c0.1-0.1,0.2-0.1,0.2-0.2c0-0.1,0.1-0.2,0.1-0.3c0-0.1,0-0.2,0-0.3c0-0.1-0.1-0.1-0.1-0.2c-0.1-0.1-0.1-0.1-0.2-0.1
	c-0.1,0-0.1,0-0.2,0c-0.1,0-0.2,0-0.3,0.1C32.7,59,32.7,59.1,32.6,59.2L32.6,59.2L32.6,59.2z M34.9,59.2V59h-1v1.2h0.4v-0.9H34.9z
	 M27.7,64.7v-0.3h-0.3c-0.1,0-0.1,0-0.2,0c0,0-0.1,0.1-0.1,0.1c0,0.1,0,0.1,0.1,0.1c0,0,0.1,0,0.2,0L27.7,64.7L27.7,64.7z
	 M26.8,65.4h0.5l0.4-0.5h0.1v0.5H28v-1.2h-0.6c-0.4,0-0.6,0.1-0.6,0.4c0,0.1,0,0.1,0.1,0.2c0,0.1,0.1,0.1,0.1,0.1c0.1,0,0.1,0,0.2,0
	L26.8,65.4z M26.6,65.4v-1.2h-0.4l-0.5,0.7v-0.7h-0.4v1.2h0.4l0.5-0.7v0.7H26.6z M25,65h-0.4c0,0,0,0.1,0,0.1c0,0,0,0.1-0.1,0.1
	c0,0-0.1,0-0.1,0c-0.1,0-0.2,0-0.2-0.1c0,0-0.1-0.1-0.1-0.1c0-0.1,0-0.1,0-0.2c0-0.1,0-0.1,0-0.2c0-0.1,0.1-0.1,0.1-0.1
	c0,0,0.1-0.1,0.2-0.1c0.1,0,0.2,0.1,0.3,0.2H25c0-0.1-0.1-0.2-0.1-0.3c-0.1-0.1-0.2-0.1-0.2-0.1c-0.1,0-0.2,0-0.3,0
	c-0.2,0-0.3,0-0.4,0.1c-0.1,0.1-0.2,0.1-0.2,0.2c0,0.1-0.1,0.2-0.1,0.3c0,0.1,0,0.1,0,0.2c0,0.1,0.1,0.1,0.1,0.2
	c0.1,0.1,0.1,0.1,0.2,0.1c0.1,0,0.2,0.1,0.3,0.1c0.1,0,0.2,0,0.3-0.1c0.1,0,0.2-0.1,0.2-0.1c0-0.1,0.1-0.1,0.1-0.2
	C25,65.1,25,65,25,65 M23.5,65h-0.4c0,0,0,0.1,0,0.1c0,0,0,0.1-0.1,0.1c0,0-0.1,0-0.1,0c-0.1,0-0.2,0-0.2-0.1c0,0-0.1-0.1-0.1-0.1
	c0-0.1,0-0.1,0-0.2c0-0.1,0-0.1,0-0.2c0-0.1,0.1-0.1,0.1-0.1c0,0,0.1-0.1,0.2-0.1c0.1,0,0.2,0.1,0.3,0.2h0.4c0-0.1-0.1-0.2-0.1-0.3
	c-0.1-0.1-0.2-0.1-0.2-0.1c-0.1,0-0.2,0-0.3,0c-0.2,0-0.3,0-0.4,0.1c-0.1,0.1-0.2,0.1-0.2,0.2c0,0.1-0.1,0.2-0.1,0.3
	c0,0.1,0,0.1,0,0.2c0,0.1,0.1,0.1,0.1,0.2c0.1,0.1,0.1,0.1,0.2,0.1c0.1,0,0.2,0.1,0.3,0.1c0.1,0,0.2,0,0.3-0.1
	c0.1,0,0.2-0.1,0.2-0.1c0-0.1,0.1-0.1,0.1-0.2C23.5,65.1,23.5,65,23.5,65 M21.3,64.5c-0.1,0-0.2,0-0.3,0.1c-0.1,0.1-0.1,0.2-0.1,0.3
	c0,0.1,0,0.2,0.1,0.3c0.1,0.1,0.1,0.1,0.3,0.1c0.1,0,0.2,0,0.3-0.1c0.1-0.1,0.1-0.2,0.1-0.3s0-0.2-0.1-0.3
	C21.5,64.5,21.4,64.5,21.3,64.5 M21.3,65.4c0.1,0,0.2,0,0.3,0c0.1,0,0.2-0.1,0.2-0.1c0.1-0.1,0.1-0.1,0.2-0.2c0-0.1,0.1-0.2,0.1-0.3
	c0-0.1,0-0.2-0.1-0.3c0-0.1-0.1-0.1-0.2-0.2c-0.1-0.1-0.1-0.1-0.2-0.1c-0.1,0-0.2,0-0.3,0c-0.1,0-0.2,0-0.3,0
	c-0.1,0-0.2,0.1-0.2,0.1c-0.1,0.1-0.1,0.1-0.2,0.2c0,0.1-0.1,0.2-0.1,0.3c0,0.1,0,0.3,0.1,0.4c0.1,0.1,0.2,0.2,0.3,0.2
	C21,65.4,21.1,65.4,21.3,65.4 M19.6,64.6c0.1,0,0.2,0,0.3-0.1c0-0.1,0.1-0.1,0.1-0.2c0-0.1,0-0.1-0.1-0.2c-0.1,0-0.1-0.1-0.3-0.1
	h-0.3v0.5L19.6,64.6L19.6,64.6z M19.2,65.4v-0.6h0.5c0.2,0,0.3,0,0.4-0.1c0.1-0.1,0.2-0.1,0.2-0.2c0-0.1,0.1-0.2,0.1-0.2
	c0-0.1,0-0.2-0.1-0.3c0-0.1-0.1-0.1-0.2-0.2c-0.1,0-0.2-0.1-0.3-0.1h-0.9v1.6H19.2L19.2,65.4z M21.4,45.7c-0.2,0-0.3,0.1-0.5,0.1
	v2.1l-0.7,1.3v1l-0.5,0.9v5.6h-8.2c0.1-6.5,5.5-11.9,12.1-11.9c6.2,0,11.4,4.7,12,10.6h0.6c-0.7-6.3-6.1-11.2-12.6-11.2
	c-7,0-12.7,5.7-12.7,12.6c0,0.1,0,0.3,0,0.4h0.6v0h8.7v-0.2v-0.4v-5.4l0.5-1v-1l0.7-1.3L21.4,45.7L21.4,45.7z M22.3,45.5
	c-0.2,0-0.3,0-0.5,0.1V48l0.7,1.3v1l0.5,1v5.4v0.4v0.2h0.8h3.7v-0.2v-0.4v-2.8l0.5-0.9v-0.9l0.4-0.5l0.3,0.5v0.9l0.5,0.9v2.8V57v0.3
	h6.6l0,0c-0.2,6.4-5.6,11.6-12.1,11.6c-6.1,0-11.2-4.5-12-10.4h-0.6c0.8,6.2,6.1,11,12.6,11c7,0,12.7-5.7,12.7-12.6
	c0-0.1,0-0.1,0-0.2h-0.6h-6.2v-2.9L29.2,53v-1l-0.6-0.8l-0.1-2.6h-0.2l-0.1,2.6L27.5,52v1L27,53.8v2.9h-3.2h-0.3v-5.6L23,50.1v-1
	l-0.7-1.3L22.3,45.5L22.3,45.5z M23.7,43.2c7.6,0,13.8,6.1,13.8,13.7c0,7.5-6.2,13.7-13.8,13.7c-2.3,0-4.5-0.6-6.4-1.6
	c-1.3,0.5-2.8,0.7-4.2,0.7c-7,0-12.6-5.6-12.6-12.5C0.3,50.3,6,44.6,13,44.6c1.3,0,2.5,0.2,3.6,0.5c1.3-0.8,2.7-1.3,4.3-1.7
	l0.6-15.3h0.3l0.6,15.1C22.8,43.2,23.2,43.2,23.7,43.2"/>
<path class="st0" d="M40,41.9c0-0.2-0.2-0.3-0.5-0.3h-0.1v0.7h0.2C39.9,42.3,40,42.2,40,41.9 M41,43.9l-0.6-1.3
	c0.4-0.1,0.6-0.4,0.6-0.8c0-0.6-0.4-0.8-1.3-0.8h-1.2v2.9h0.9v-1.1h0.1l0.5,1.1L41,43.9L41,43.9z M41.8,42.5c0-0.6-0.2-1.1-0.6-1.5
	c-0.4-0.4-0.9-0.6-1.5-0.6c-0.6,0-1.1,0.2-1.5,0.6c-0.4,0.4-0.6,0.9-0.6,1.5c0,0.6,0.2,1.1,0.6,1.5c0.4,0.4,0.9,0.6,1.5,0.6
	c0.6,0,1.1-0.2,1.5-0.6C41.6,43.6,41.8,43.1,41.8,42.5 M42.4,42.5c0,0.7-0.3,1.4-0.8,1.9c-0.6,0.5-1.2,0.8-1.9,0.8
	c-0.7,0-1.4-0.3-1.9-0.8c-0.5-0.5-0.8-1.1-0.8-1.9c0-0.7,0.3-1.4,0.8-1.9c0.5-0.5,1.1-0.8,1.9-0.8c0.8,0,1.4,0.3,1.9,0.8
	C42.1,41.2,42.4,41.8,42.4,42.5"/>
<polygon class="st0" points="53.7,44.7 53.4,46.1 51.9,46.1 51.3,50 49.4,50 50.2,44.7 "/>
<path class="st0" d="M58.1,46.4C58.1,46.4,58.1,46.3,58.1,46.4c0-0.4-0.2-0.5-0.5-0.5h-0.2l-0.2,1h0.1
	C57.9,46.9,58.1,46.7,58.1,46.4 M60,46.5c-0.1,0.5-0.3,0.9-0.7,1.2c-0.4,0.3-0.9,0.4-1.6,0.4h-0.6L56.8,50h-1.9l0.8-5.3H58
	c0.7,0,1.2,0.1,1.6,0.4c0.3,0.3,0.4,0.6,0.4,1.1C60.1,46.3,60,46.4,60,46.5"/>
<polygon class="st0" points="67.2,44.7 64.1,50 62.1,50 62.9,48.5 61.6,44.7 63.7,44.7 64.2,46.3 65.1,44.7 "/>
<polygon class="st0" points="74,44.7 73.1,50 71.2,50 71.8,46.1 70.5,46.1 69.9,50 68,50 68.8,44.7 "/>
<polygon class="st0" points="81.5,44.7 80.6,50 78.7,50 79.3,46.1 78,46.1 77.4,50 75.5,50 76.3,44.7 "/>
<path class="st0" d="M86.1,47.7L86,46.2h0l-0.6,1.6H86.1z M88.3,50h-2l-0.1-1h-1.4l-0.4,1h-2l2.4-5.3h2.7L88.3,50z"/>
<polygon class="st0" points="102.1,44.7 99.9,47.3 101.3,50 99,50 98.1,47.8 97.8,50 95.9,50 96.7,44.7 98.6,44.7 98.3,46.8
	100,44.7 "/>
<path class="st0" d="M107.3,47.3c0-0.1,0-0.2,0-0.2c0-0.3-0.1-0.5-0.3-0.7c-0.2-0.2-0.4-0.2-0.6-0.2c-0.3,0-0.5,0.1-0.8,0.3
	c-0.2,0.2-0.4,0.5-0.5,0.9c0,0.1,0,0.2,0,0.2c0,0.3,0.1,0.5,0.3,0.7c0.2,0.2,0.4,0.2,0.6,0.2c0.3,0,0.5-0.1,0.8-0.3
	C107.1,48,107.2,47.7,107.3,47.3 M105.8,50.1c-0.9,0-1.5-0.2-2-0.7c-0.4-0.4-0.6-1-0.6-1.6c0-1,0.3-1.8,1-2.4
	c0.7-0.6,1.5-0.9,2.5-0.9c0.9,0,1.5,0.2,2,0.7c0.4,0.4,0.6,0.9,0.6,1.6c0,1-0.3,1.8-1,2.4C107.6,49.8,106.8,50.1,105.8,50.1"/>
<polygon class="st0" points="117.8,44.7 117.7,50 115.8,50 115.9,47.6 114.8,50 113.5,50 113.1,47.6 112.5,50 110.6,50 112.1,44.7
	114.3,44.7 114.6,47.2 115.6,44.7 "/>
<polygon class="st0" points="125.6,44.7 124.8,50 122.9,50 123.5,46.1 122.2,46.1 121.6,50 119.7,50 120.5,44.7 "/>
<path class="st0" d="M130.3,47.7l-0.1-1.6h0l-0.6,1.6H130.3z M132.5,50h-2l-0.1-1H129l-0.4,1h-2l2.4-5.3h2.7L132.5,50z"/>
<polygon class="st0" points="140.3,44.7 139.5,50 137.5,50 137.9,47.9 136.5,47.9 136.2,50 134.3,50 135.1,44.7 137,44.7
	136.7,46.6 138.1,46.6 138.4,44.7 "/>
<polygon class="st0" points="147.9,44.7 147.1,50 145.2,50 145.6,47.4 143.6,50 141.8,50 142.7,44.7 144.6,44.7 144.2,47.3
	146.2,44.7 "/>
<path class="st0" d="M154.7,43.1c-0.1,0.4-0.3,0.7-0.7,1c-0.4,0.2-0.7,0.3-1.1,0.3c-0.4,0-0.7-0.1-0.9-0.3c-0.3-0.2-0.5-0.5-0.5-0.8
	c0-0.1,0-0.1,0-0.2h1.1c0,0,0,0.1,0,0.1c0,0.3,0.1,0.4,0.4,0.4c0.3,0,0.5-0.2,0.6-0.5L154.7,43.1L154.7,43.1z M155.5,44.7l-0.8,5.3
	h-1.9l0.4-2.5l-2,2.5h-1.8l0.8-5.3h1.9l-0.4,2.6l2-2.6H155.5z"/>
</svg>
