<?xml version="1.0" encoding="utf-8"?>
<!-- Generator: Adobe Illustrator 22.0.1, SVG Export Plug-In . SVG Version: 6.00 Build 0)  -->
<svg version="1.0" id="Слой_1" xmlns="http://www.w3.org/2000/svg" xmlns:xlink="http://www.w3.org/1999/xlink" x="0px" y="0px"
	 width="160px" height="100px" viewBox="0 0 160 100" style="enable-background:new 0 0 160 100;" xml:space="preserve">
<style type="text/css">
	.st0{fill:#0A74BA;}
	.st1{fill:#F89E2A;}
</style>
<path class="st0" d="M104.5,46.1c-1.4,3.7-3.4,7.2-9.1,7.2h-7.2h-8.3c-1.5,0-2.7-0.5-3.3-1.4c-0.6-0.8-0.7-1.9-0.5-3.1h9.1
	c0,0,0,0,0,0h4.6c0-0.1,0.1-0.2,0.1-0.2l-1,2.7h4l2.6-7.2l1.3-3.7h4.2c1.5,0,2.7,0.5,3.3,1.4C105.1,42.8,105.2,44.4,104.5,46.1
	 M79,40.3h4.1c1.5,0,2.7,0.5,3.3,1.4c0.5,0.8,0.7,1.8,0.5,3h-9.6L79,40.3z M134.1,53.2l6.1-16.9H136l-6.1,16.9h-4.2
	c-1.5,0-2.7-0.5-3.3-1.4c-0.9-1.3-0.6-2.9-0.2-4.3c1.4-3.7,2.7-7.4,4-11.1h-4.2l-0.9,2.5c-1.4-1.6-3.6-2.5-6.1-2.5h-6.9l-0.9,2.5
	c-1.4-1.6-3.5-2.5-6.1-2.5h-6.9l-3.6,9.9c0.6-2.5,0.3-5-1-6.8c-1.4-2-3.7-3.1-6.5-3.1h-2.7l-4.2,0l-3,8.4h-10l3-8.4h-4.2l-0.9,2.4
	c-1.4-1.6-3.5-2.5-6-2.5h-6.9l-1.4,3.9h8.3c1.5,0,2.7,0.5,3.3,1.4c0.5,0.8,0.7,1.8,0.5,3H45.2l-1.4,3.9h13.4c-2,2.6-5.4,4.5-8.7,4.5
	h-6.3l-1.4,3.9H49c2.1,0,4.2-0.6,6.2-1.7l-0.6,1.7h4.2l3-8.4c0,0,0-0.1,0-0.1h10l-3.1,8.5H73l0.9-2.5c1.4,1.6,3.6,2.5,6.1,2.5h6.9
	l-2.4,6.7h4.2l2.4-6.7h4c2.1,0,4.3-0.6,6.3-1.7l-0.6,1.7h4.2c2-5.6,4.1-11.2,6.1-16.9h4.2c1.5,0,2.7,0.5,3.3,1.4
	c0.9,1.3,0.6,3,0.2,4.3c-1,2.6-1,5.6,0.6,8c1.4,2,3.7,3.1,6.5,3.1h6.9h2v0h8.6c1.1,0,2.2-0.2,3.3-0.5l1.9-5.2
	c-1.6,1.1-3.4,1.7-5.1,1.7L134.1,53.2L134.1,53.2z M158.3,36.4L158.3,36.4l-6.3-0.1c-5.5,0-11.4,4.3-13.4,9.7
	c-0.7,1.8-0.8,3.5-0.5,5.1h4.1c-0.3-0.7-0.4-1.6-0.2-2.5c0-0.1,0-0.2,0.1-0.3c0,0,0,0,0,0c0-0.1,0-0.2,0.1-0.3c0,0,0,0,0-0.1
	c0-0.1,0-0.2,0.1-0.3c0,0,0,0,0-0.1c0-0.1,0.1-0.2,0.1-0.3c1.4-3.9,5.9-7.1,9.7-7.1h2.6l-6.1,16.9h4.2l7.5-20.8L158.3,36.4
	L158.3,36.4z"/>
<path class="st0" d="M92.4,61.5c0.2-0.1,0.4-0.1,0.6-0.1c0.3,0,0.4,0.1,0.6,0.2c0.1,0.1,0.2,0.3,0.2,0.6c0,0.4-0.1,0.7-0.3,1
	c-0.2,0.2-0.5,0.4-0.8,0.4c-0.2,0-0.4,0-0.6-0.1l0.1-0.4c0.1,0.1,0.3,0.1,0.5,0.1c0.4,0,0.6-0.2,0.7-0.7h-0.8l0.1-0.3h0.8v-0.1
	c0-0.4-0.1-0.5-0.4-0.5c-0.1,0-0.3,0-0.4,0.1L92.4,61.5z"/>
<path class="st0" d="M96.1,61.5l-0.4,2.1h-0.4l0.3-1.8H95c-0.1,0.4-0.2,0.7-0.3,0.9c-0.1,0.2-0.2,0.4-0.3,0.5
	c-0.1,0.1-0.2,0.2-0.3,0.3c-0.1,0-0.2,0.1-0.4,0.1h0l0.1-0.3c0.2,0,0.4-0.1,0.5-0.4c0.1-0.3,0.3-0.7,0.4-1.3L96.1,61.5L96.1,61.5z"
	/>
<path class="st0" d="M96.7,62.3c0.1,0,0.2,0.1,0.4,0.1c0.2,0,0.4,0,0.5-0.1c0.1-0.1,0.2-0.2,0.2-0.3c0-0.1,0-0.1-0.1-0.2
	c-0.1,0-0.1-0.1-0.2-0.1c-0.2,0-0.3,0-0.4,0.1C96.9,62,96.8,62.2,96.7,62.3 M96.7,62.6c0,0,0,0.1,0,0.1c0,0.2,0.1,0.4,0.2,0.5
	c0.1,0.1,0.2,0.1,0.4,0.1c0.2,0,0.3-0.1,0.5-0.2l0,0.4c-0.2,0.1-0.4,0.1-0.5,0.1c-0.5,0-0.8-0.3-0.8-0.9c0-0.4,0.1-0.7,0.3-0.9
	c0.2-0.2,0.5-0.4,0.9-0.4c0.2,0,0.4,0,0.5,0.1c0.1,0.1,0.2,0.2,0.2,0.4c0,0.2-0.1,0.4-0.3,0.5c-0.2,0.1-0.4,0.2-0.7,0.2
	C96.9,62.7,96.8,62.7,96.7,62.6z"/>
<path class="st0" d="M100.3,61.5l-0.1,0.3c0,0,0,0-0.1,0c0,0-0.1,0-0.1,0c0,0,0,0-0.1,0.1c-0.1,0.3-0.3,0.5-0.6,0.6
	c0.3,0.1,0.4,0.3,0.4,0.6c0,0.1,0,0.1,0,0.1c0,0,0,0,0.1,0c0,0,0,0,0.1,0l-0.1,0.3c0,0-0.1,0-0.1,0c-0.2,0-0.4-0.1-0.4-0.4
	c0-0.2,0-0.3-0.1-0.4c-0.1-0.1-0.2-0.1-0.4-0.1h0l-0.2,0.9h-0.4l0.4-2.1H99l-0.1,0.8h0c0.2,0,0.4,0,0.5-0.1c0.1-0.1,0.2-0.2,0.3-0.4
	c0-0.1,0.1-0.2,0.2-0.3c0.1-0.1,0.2-0.1,0.3-0.1C100.2,61.5,100.2,61.5,100.3,61.5"/>
<path class="st0" d="M102.8,63.6l0.2-1c0-0.3,0.1-0.4,0.1-0.5c0-0.2-0.1-0.3-0.3-0.3c-0.1,0-0.1,0-0.2,0c-0.1,0-0.1,0.1-0.2,0.2
	l-0.3,1.5h-0.4l0.3-1.5c0,0,0,0,0-0.1c0-0.2-0.1-0.3-0.4-0.3c-0.1,0-0.2,0-0.3,0.1c-0.1,0.1-0.2,0.1-0.2,0.2l-0.3,1.5h-0.4l0.3-1.5
	c0,0,0-0.1,0-0.2c0-0.1,0-0.3,0-0.4l0.4-0.1c0,0.1,0,0.2,0,0.3c0.1-0.1,0.1-0.2,0.3-0.2c0.1,0,0.2-0.1,0.4-0.1
	c0.3,0,0.5,0.1,0.6,0.3c0.1-0.1,0.1-0.1,0.3-0.2c0.1-0.1,0.2-0.1,0.4-0.1c0.4,0,0.6,0.2,0.6,0.5c0,0.1,0,0.1,0,0.2l-0.3,1.4
	L102.8,63.6L102.8,63.6z"/>
<path class="st0" d="M104.1,63.2c0,0,0.1,0.1,0.1,0.1c0.1,0,0.1,0,0.2,0c0.3,0,0.5-0.1,0.6-0.3c0.1-0.2,0.2-0.4,0.2-0.8
	c0-0.3-0.2-0.5-0.5-0.5c0,0-0.1,0-0.1,0c0,0-0.1,0-0.1,0.1c0,0-0.1,0-0.1,0.1c0,0,0,0-0.1,0c0,0,0,0-0.1,0.1c0,0,0,0.1-0.1,0.3
	L104.1,63.2z M104.1,63.5l-0.2,0.9h-0.4l0.4-2.3c0-0.1,0-0.2,0-0.3c0-0.1,0-0.2,0-0.3l0.4-0.1c0,0,0,0.1,0,0.3
	c0.1-0.1,0.1-0.1,0.3-0.2c0.1-0.1,0.2-0.1,0.3-0.1c0.5,0,0.8,0.3,0.8,0.8c0,0.3-0.1,0.5-0.2,0.7c-0.1,0.2-0.2,0.4-0.4,0.5
	c-0.2,0.1-0.4,0.2-0.6,0.2c-0.1,0-0.2,0-0.3,0C104.2,63.6,104.1,63.5,104.1,63.5z"/>
<path class="st0" d="M106.3,62.8c0,0.4,0.1,0.5,0.4,0.5c0.2,0,0.4-0.1,0.5-0.3c0.1-0.2,0.2-0.5,0.2-0.7c0-0.3-0.1-0.5-0.4-0.5
	c-0.2,0-0.4,0.1-0.5,0.3C106.4,62.3,106.3,62.5,106.3,62.8 M106,62.8c0-0.2,0-0.4,0.1-0.7c0.1-0.2,0.2-0.4,0.4-0.5
	c0.2-0.1,0.4-0.2,0.6-0.2c0.3,0,0.4,0.1,0.6,0.2c0.1,0.1,0.2,0.3,0.2,0.6c0,0.4-0.1,0.7-0.3,1c-0.2,0.3-0.5,0.4-0.8,0.4
	c-0.2,0-0.4-0.1-0.6-0.2C106,63.3,106,63.1,106,62.8z"/>
<path class="st0" d="M110.5,63.6l0.2-1c0-0.3,0.1-0.4,0.1-0.5c0-0.2-0.1-0.3-0.3-0.3c-0.1,0-0.1,0-0.2,0c-0.1,0-0.2,0.1-0.2,0.2
	l-0.3,1.5h-0.4l0.3-1.5c0,0,0,0,0-0.1c0-0.2-0.1-0.3-0.4-0.3c-0.1,0-0.2,0-0.3,0.1c-0.1,0.1-0.2,0.1-0.2,0.2l-0.3,1.5h-0.4l0.3-1.5
	c0,0,0-0.1,0-0.2c0-0.1,0-0.3,0-0.4l0.4-0.1c0,0.1,0,0.2,0,0.3c0.1-0.1,0.1-0.2,0.3-0.2c0.1,0,0.2-0.1,0.4-0.1
	c0.3,0,0.5,0.1,0.6,0.3c0.1-0.1,0.1-0.1,0.3-0.2c0.1-0.1,0.2-0.1,0.4-0.1c0.4,0,0.6,0.2,0.6,0.5c0,0.1,0,0.1,0,0.2l-0.3,1.4
	L110.5,63.6L110.5,63.6z"/>
<path class="st0" d="M111.9,62.3c0.1,0,0.2,0.1,0.4,0.1c0.2,0,0.4,0,0.5-0.1c0.1-0.1,0.2-0.2,0.2-0.3c0-0.1,0-0.1-0.1-0.2
	c-0.1,0-0.1-0.1-0.2-0.1c-0.2,0-0.3,0-0.4,0.1C112.1,62,112,62.2,111.9,62.3 M111.8,62.6c0,0,0,0.1,0,0.1c0,0.2,0.1,0.4,0.2,0.5
	c0.1,0.1,0.2,0.1,0.4,0.1c0.2,0,0.3-0.1,0.5-0.2l0,0.4c-0.2,0.1-0.4,0.1-0.5,0.1c-0.5,0-0.8-0.3-0.8-0.9c0-0.4,0.1-0.7,0.3-0.9
	c0.2-0.2,0.5-0.4,0.9-0.4c0.2,0,0.4,0,0.5,0.1c0.1,0.1,0.2,0.2,0.2,0.4c0,0.2-0.1,0.4-0.3,0.5c-0.2,0.1-0.4,0.2-0.7,0.2
	C112.1,62.7,112,62.7,111.8,62.6z"/>
<polygon class="st0" points="114.8,63.6 114.4,62.9 113.8,63.6 113.3,63.6 114.2,62.5 113.7,61.5 114.1,61.5 114.5,62.2 115,61.5
	115.5,61.5 114.6,62.5 115.2,63.6 "/>
<polygon class="st0" points="117.6,61.5 117.2,63.6 116.8,63.6 117,62.7 116.1,62.7 115.9,63.6 115.5,63.6 115.9,61.5 116.3,61.5
	116.1,62.3 117.1,62.3 117.2,61.5 "/>
<path class="st0" d="M118.5,61.5l-0.2,1.4c0,0,0,0.1,0,0.1c0,0.2,0.1,0.3,0.3,0.3c0.1,0,0.3-0.1,0.4-0.2c0.1-0.1,0.2-0.2,0.2-0.4
	l0.2-1.3h0.4l-0.4,2.1h-0.4l0.1-0.3c-0.1,0.2-0.4,0.3-0.8,0.3c-0.2,0-0.3,0-0.4-0.1c-0.1-0.1-0.1-0.2-0.1-0.4c0-0.1,0-0.1,0-0.2
	l0.2-1.4L118.5,61.5L118.5,61.5L118.5,61.5z"/>
<path class="st0" d="M122,61.5l-0.4,2.1h-0.4l0.2-0.8c-0.2,0.1-0.4,0.1-0.5,0.1c-0.2,0-0.4,0-0.5-0.1c-0.1-0.1-0.2-0.2-0.2-0.5
	c0-0.1,0-0.1,0-0.2l0.1-0.5h0.4c-0.1,0.3-0.1,0.5-0.1,0.6c0,0,0,0.1,0,0.1c0,0.2,0.1,0.4,0.4,0.4c0.2,0,0.3,0,0.5-0.1l0.2-0.9H122z"
	/>
<path class="st0" d="M122.7,62.3c0.1,0,0.2,0.1,0.4,0.1c0.2,0,0.4,0,0.5-0.1c0.1-0.1,0.2-0.2,0.2-0.3c0-0.1,0-0.1-0.1-0.2
	c-0.1,0-0.1-0.1-0.2-0.1c-0.2,0-0.3,0-0.4,0.1C122.8,62,122.7,62.2,122.7,62.3 M122.6,62.6c0,0,0,0.1,0,0.1c0,0.2,0.1,0.4,0.2,0.5
	c0.1,0.1,0.2,0.1,0.4,0.1c0.2,0,0.3-0.1,0.5-0.2l0,0.4c-0.2,0.1-0.4,0.1-0.5,0.1c-0.5,0-0.8-0.3-0.8-0.9c0-0.4,0.1-0.7,0.3-0.9
	c0.2-0.2,0.5-0.4,0.9-0.4c0.2,0,0.4,0,0.5,0.1c0.1,0.1,0.2,0.2,0.2,0.4c0,0.2-0.1,0.4-0.3,0.5c-0.2,0.1-0.4,0.2-0.7,0.2
	C122.9,62.7,122.7,62.7,122.6,62.6z"/>
<path class="st0" d="M125.9,61.6l-0.1,0.3c-0.1-0.1-0.2-0.1-0.4-0.1c-0.2,0-0.4,0.1-0.6,0.3c-0.1,0.2-0.2,0.4-0.2,0.7
	c0,0.1,0,0.2,0.1,0.3c0,0.1,0.1,0.1,0.2,0.2c0.1,0.1,0.2,0.1,0.2,0.1c0.2,0,0.4-0.1,0.5-0.2l0,0.4c-0.2,0.1-0.4,0.1-0.6,0.1
	c-0.3,0-0.4-0.1-0.6-0.2c-0.1-0.1-0.2-0.3-0.2-0.6c0-0.4,0.1-0.7,0.3-1c0.2-0.3,0.5-0.4,0.8-0.4C125.6,61.5,125.8,61.5,125.9,61.6"
	/>
<path class="st0" d="M128,61.5l-0.1,0.3c0,0,0,0-0.1,0c0,0-0.1,0-0.1,0c0,0,0,0-0.1,0.1c-0.1,0.3-0.3,0.5-0.6,0.6
	c0.3,0.1,0.4,0.3,0.4,0.6c0,0.1,0,0.1,0,0.1c0,0,0,0,0.1,0c0,0,0,0,0.1,0l-0.1,0.3c0,0-0.1,0-0.1,0c-0.2,0-0.4-0.1-0.4-0.4
	c0-0.2,0-0.3-0.1-0.4c-0.1-0.1-0.2-0.1-0.4-0.1h0l-0.2,0.9h-0.4l0.4-2.1h0.4l-0.1,0.8h0c0.2,0,0.4,0,0.5-0.1
	c0.1-0.1,0.2-0.2,0.3-0.4c0-0.1,0.1-0.2,0.2-0.3c0.1-0.1,0.2-0.1,0.3-0.1C127.9,61.5,128,61.5,128,61.5"/>
<path class="st0" d="M129.7,61.9c0-0.1-0.2-0.1-0.3-0.1c-0.2,0-0.4,0.1-0.5,0.3c-0.2,0.2-0.2,0.5-0.2,0.8c0,0.3,0.1,0.4,0.4,0.4
	c0.1,0,0.2,0,0.3-0.1c0.1-0.1,0.2-0.1,0.2-0.2c0-0.1,0.1-0.2,0.1-0.3L129.7,61.9z M130.1,61.6l-0.3,1.2c0,0.1,0,0.2,0,0.2
	c0,0.2,0,0.3,0.1,0.5h-0.4c0-0.1-0.1-0.2-0.1-0.3c-0.1,0.1-0.2,0.2-0.3,0.2c-0.1,0.1-0.2,0.1-0.4,0.1c-0.2,0-0.3-0.1-0.5-0.2
	c-0.1-0.1-0.2-0.3-0.2-0.5c0-0.4,0.1-0.7,0.3-1c0.2-0.3,0.5-0.4,0.9-0.4C129.7,61.5,129.9,61.5,130.1,61.6z"/>
<path class="st0" d="M131.8,61.8c-0.1,0-0.2-0.1-0.4-0.1c-0.2,0-0.3,0-0.4,0.1c-0.1,0.1-0.1,0.2-0.1,0.3c0,0.1,0,0.1,0.1,0.2
	c0,0,0.1,0.1,0.2,0.1c0.1,0,0.1,0,0.2,0l0.3,0L131.8,61.8z M130.9,62.6c-0.3-0.1-0.4-0.2-0.4-0.4c0-0.2,0.1-0.4,0.3-0.5
	c0.2-0.1,0.4-0.2,0.7-0.2c0.1,0,0.3,0,0.4,0c0.1,0,0.2,0,0.2,0c0,0,0,0,0,0.1c0,0,0,0,0,0l-0.3,1.9h-0.4l0.2-0.8h-0.1
	c-0.2,0-0.4,0-0.5,0.1c-0.1,0.1-0.2,0.2-0.3,0.4c-0.1,0.2-0.2,0.4-0.5,0.4c0,0-0.1,0-0.1,0l0.1-0.3c0,0,0,0,0.1,0
	c0.1,0,0.1,0,0.1-0.1c0.1-0.1,0.1-0.3,0.2-0.3C130.7,62.7,130.8,62.7,130.9,62.6z"/>
<path class="st0" d="M135.6,61.5l-0.1,0.3c0,0,0,0-0.1,0c0,0-0.1,0-0.1,0c0,0,0,0-0.1,0.1c-0.1,0.3-0.3,0.5-0.6,0.6
	c0.3,0.1,0.4,0.3,0.4,0.6c0,0.1,0,0.1,0,0.1c0,0,0,0,0.1,0c0,0,0,0,0.1,0l-0.1,0.3c0,0-0.1,0-0.1,0c-0.2,0-0.4-0.1-0.4-0.4
	c0-0.2,0-0.3-0.1-0.4c-0.1-0.1-0.2-0.1-0.4-0.1h0l-0.2,0.9h-0.4l0.4-2.1h0.4l-0.1,0.8h0c0.2,0,0.4,0,0.5-0.1
	c0.1-0.1,0.2-0.2,0.3-0.4c0-0.1,0.1-0.2,0.2-0.3c0.1-0.1,0.2-0.1,0.3-0.1C135.5,61.5,135.5,61.5,135.6,61.5"/>
<path class="st0" d="M136.1,62.8c0,0.4,0.1,0.5,0.4,0.5c0.2,0,0.4-0.1,0.5-0.3c0.1-0.2,0.2-0.5,0.2-0.7c0-0.3-0.1-0.5-0.4-0.5
	c-0.2,0-0.4,0.1-0.5,0.3C136.1,62.3,136.1,62.5,136.1,62.8 M135.7,62.8c0-0.2,0-0.4,0.1-0.7c0.1-0.2,0.2-0.4,0.4-0.5
	c0.2-0.1,0.4-0.2,0.6-0.2c0.2,0,0.4,0.1,0.6,0.2c0.1,0.1,0.2,0.3,0.2,0.6c0,0.4-0.1,0.7-0.3,1c-0.2,0.3-0.5,0.4-0.8,0.4
	c-0.2,0-0.4-0.1-0.6-0.2C135.8,63.3,135.7,63.1,135.7,62.8z"/>
<polygon class="st0" points="140,63.6 140,62.3 139.1,63.6 139,63.6 138.6,62.3 138.1,63.6 137.7,63.6 138.6,61.5 138.7,61.5
	139.1,63 140.2,61.5 140.3,61.5 140.3,63.6 "/>
<path class="st0" d="M142,63.6l0.2-1.2c0-0.1,0-0.2,0-0.3c0-0.2-0.1-0.3-0.3-0.3c-0.1,0-0.1,0-0.2,0c-0.1,0-0.1,0.1-0.2,0.1
	c-0.1,0-0.1,0.1-0.1,0.1l-0.3,1.5h-0.4L141,62c0,0,0-0.1,0-0.1c0-0.1,0-0.2,0-0.3l0.4-0.1c0,0.2,0.1,0.3,0.1,0.3
	c0.2-0.2,0.4-0.3,0.7-0.3c0.4,0,0.6,0.2,0.6,0.6c0,0.1,0,0.1,0,0.2l-0.2,1.3L142,63.6L142,63.6z"/>
<path class="st0" d="M144.5,61.9c0-0.1-0.2-0.1-0.3-0.1c-0.2,0-0.4,0.1-0.5,0.3c-0.2,0.2-0.2,0.5-0.2,0.8c0,0.3,0.1,0.4,0.4,0.4
	c0.1,0,0.2,0,0.3-0.1c0.1-0.1,0.2-0.1,0.2-0.2c0-0.1,0.1-0.2,0.1-0.3L144.5,61.9z M144.9,61.6l-0.3,1.2c0,0.1,0,0.2,0,0.2
	c0,0.2,0,0.3,0.1,0.5h-0.4c0-0.1-0.1-0.2-0.1-0.3c-0.1,0.1-0.2,0.2-0.3,0.2c-0.1,0.1-0.2,0.1-0.3,0.1c-0.2,0-0.3-0.1-0.5-0.2
	c-0.1-0.1-0.2-0.3-0.2-0.5c0-0.4,0.1-0.7,0.3-1c0.2-0.3,0.5-0.4,0.9-0.4C144.5,61.5,144.7,61.5,144.9,61.6z"/>
<polygon class="st0" points="147.2,61.5 146.8,63.6 146.4,63.6 146.6,62.7 145.6,62.7 145.5,63.6 145.1,63.6 145.5,61.5 145.8,61.5
	145.7,62.3 146.6,62.3 146.8,61.5 "/>
<path class="st0" d="M148.1,61.5l-0.2,1.4c0,0,0,0.1,0,0.1c0,0.2,0.1,0.3,0.3,0.3c0.1,0,0.3-0.1,0.4-0.2c0.1-0.1,0.2-0.2,0.2-0.4
	l0.2-1.3h0.4l-0.4,2.1h-0.4l0.1-0.3c-0.1,0.2-0.4,0.3-0.8,0.3c-0.2,0-0.3,0-0.4-0.1c-0.1-0.1-0.1-0.2-0.1-0.4c0-0.1,0-0.1,0-0.2
	l0.2-1.4L148.1,61.5L148.1,61.5z"/>
<path class="st0" d="M151.1,61.8c-0.1,0-0.2-0.1-0.4-0.1c-0.2,0-0.3,0-0.4,0.1c-0.1,0.1-0.1,0.2-0.1,0.3c0,0.1,0,0.1,0.1,0.2
	c0,0,0.1,0.1,0.2,0.1c0.1,0,0.2,0,0.2,0l0.3,0L151.1,61.8z M150.3,62.6c-0.3-0.1-0.4-0.2-0.4-0.4c0-0.2,0.1-0.4,0.3-0.5
	c0.2-0.1,0.4-0.2,0.7-0.2c0.1,0,0.3,0,0.4,0c0.1,0,0.2,0,0.2,0c0,0,0,0,0,0.1c0,0,0,0,0,0l-0.3,1.9h-0.4l0.2-0.8h-0.1
	c-0.2,0-0.4,0-0.5,0.1c-0.1,0.1-0.2,0.2-0.3,0.4c-0.1,0.2-0.2,0.4-0.5,0.4c0,0-0.1,0-0.1,0l0.1-0.3c0,0,0,0,0.1,0
	c0.1,0,0.1,0,0.1-0.1c0.1-0.1,0.1-0.3,0.2-0.3C150,62.7,150.1,62.7,150.3,62.6z"/>
<path class="st1" d="M35.9,39.4c-1.4-2-3.7-3.1-6.5-3.1H14.3c-5.5,0-11.4,4.3-13.4,9.7c-1.1,2.9-0.8,5.8,0.6,8
	c1.4,2,3.7,3.1,6.5,3.1c3,0,6,0,9,0l4.5-12.4h-4.2l-3.1,8.5H8.1c-1.5,0-2.7-0.5-3.3-1.4C4,50.7,4,49.1,4.6,47.4
	c1.4-3.9,5.9-7.1,9.7-7.1h15.1c1.5,0,2.7,0.5,3.3,1.4c0.7,1.1,0.8,2.6,0.2,4.3c-1.4,3.9-5.9,7.1-9.7,7.1h-0.7l-1.4,3.9h2.1
	c5.5,0,11.4-4.3,13.4-9.7C37.6,44.4,37.4,41.5,35.9,39.4"/>
</svg>
