<?xml version="1.0" encoding="utf-8"?>
<!-- Generator: Adobe Illustrator 22.0.1, SVG Export Plug-In . SVG Version: 6.00 Build 0)  -->
<svg version="1.0" id="Слой_1" xmlns="http://www.w3.org/2000/svg" xmlns:xlink="http://www.w3.org/1999/xlink" x="0px" y="0px"
	 width="160px" height="100px" viewBox="0 0 160 100" style="enable-background:new 0 0 160 100;" xml:space="preserve">
<g id="Слой_2_1_">
	<g id="Layer_1">
		<path d="M84.1,46.6h13.5c-0.1-2.1-1.2-3.9-2.9-5c-1.8-1.1-3.9-1.7-6-1.6c-1.6,0-3.2,0.3-4.6,0.9c-1.2,0.5-2.2,1.1-3.2,1.9
			l-3.9-5.2c1.6-1.1,3.3-1.9,5.2-2.6c2.1-0.8,4.4-1.1,6.7-1.1c5.2,0,8.9,1.2,11.3,3.5c2.2,2.1,3.9,4.7,4.7,7.7
			c0.2,0.8,0.3,1.7,0.4,2.5c0.1,0.8,0.1,1.6,0.1,2.4c0,0.6,0,1.3-0.1,1.9c-0.1,0.7-0.2,1.3-0.3,2c-0.8,3.3-2.6,6.4-5.1,8.7
			c-2.7,2.6-6.7,4-12,4c-2.2,0-4.4-0.3-6.4-1c-1.7-0.6-3.3-1.4-4.8-2.4l4.3-4.9c0.3,0.2,0.6,0.4,0.9,0.6c0.3,0.2,0.6,0.4,0.9,0.5
			c0.8,0.4,1.7,0.7,2.5,0.9c1,0.2,2,0.3,3,0.3c0.5,0,1.2,0,1.9-0.1c0.8-0.1,1.5-0.2,2.2-0.4c1.3-0.4,2.5-1.1,3.4-2.1
			c1.2-1.3,1.9-3,1.9-4.8H84.1L84.1,46.6L84.1,46.6z"/>
		<path d="M117.8,65.8h-7.7V34.4h10.2c4.1,0,7.1,1,9,3c1.7,1.8,2.8,4.2,3,6.7c0,0.2,0.1,0.3,0.1,0.5v0.5c0.1,3-1,5.9-3,8.1
			c-2,2.3-5,3.4-9.1,3.4h-2.6L117.8,65.8z M119.8,50.5h0.8c0.3,0,0.6-0.1,0.9-0.1c0.9-0.1,1.6-0.6,2.2-1.2c0.7-0.7,1-1.9,1-3.7
			c0-1.8-0.4-3-1.2-3.7c-0.7-0.6-1.6-1-2.5-1.1l-0.6-0.1h-0.6h-2v9.9C117.8,50.5,119.8,50.5,119.8,50.5z"/>
		<path d="M135.7,65.8h-7.6l15.2-32h0.7l15.2,32h-7.6l-2-4.2h-11.9L135.7,65.8z M147.1,55.3l-3.4-6.4l-3.5,6.4
			C140.2,55.3,147.1,55.3,147.1,55.3z"/>
		<path d="M151.2,37.4c0-2.2,1.7-4,3.9-4c2.2,0,4,1.7,4,3.9c0,2.2-1.7,4-3.9,4c0,0,0,0-0.1,0C153,41.3,151.2,39.6,151.2,37.4
			C151.2,37.4,151.2,37.4,151.2,37.4z M155.1,40.6c1.8,0,3.2-1.4,3.2-3.2c0-1.8-1.4-3.2-3.2-3.2c-1.8,0-3.2,1.4-3.2,3.2c0,0,0,0,0,0
			c-0.1,1.7,1.3,3.2,3,3.2C155,40.6,155,40.6,155.1,40.6z M154.2,39.6h-0.7v-4.4h1.7c1.1,0,1.6,0.4,1.6,1.3c0,0.6-0.5,1.2-1.1,1.2
			c0,0,0,0-0.1,0l1.3,2h-0.8l-1.2-1.9h-0.8L154.2,39.6z M155,37.1c0.6,0,1.1,0,1.1-0.7c0-0.6-0.5-0.7-1-0.7h-0.9v1.4L155,37.1
			L155,37.1z"/>
		<ellipse cx="30.7" cy="50" rx="4.8" ry="4.8"/>
		<ellipse cx="40.3" cy="50" rx="3.1" ry="3.1"/>
		<ellipse cx="30.7" cy="13.3" rx="1.6" ry="1.6"/>
		<ellipse cx="30.7" cy="18.9" rx="2.4" ry="2.4"/>
		<ellipse cx="30.7" cy="26.3" rx="3.3" ry="3.3"/>
		<ellipse cx="30.7" cy="33.1" rx="2" ry="1.9"/>
		<ellipse cx="30.7" cy="86.6" rx="1.6" ry="1.6"/>
		<ellipse cx="30.7" cy="81" rx="2.4" ry="2.4"/>
		<ellipse cx="30.7" cy="73.6" rx="3.3" ry="3.3"/>
		<ellipse cx="30.7" cy="66.8" rx="2" ry="1.9"/>
		<path d="M20.8,14.6c0.3,0.9-0.2,1.8-1,2.1c-0.9,0.3-1.8-0.2-2.1-1c-0.3-0.9,0.2-1.8,1-2.1c0,0,0,0,0,0
			C19.6,13.3,20.5,13.8,20.8,14.6C20.8,14.6,20.8,14.6,20.8,14.6z"/>
		<path d="M23.3,19.7c0.4,1.3-0.3,2.6-1.5,3c0,0,0,0,0,0c-1.3,0.4-2.6-0.3-3.1-1.5c-0.4-1.3,0.3-2.6,1.5-3c0,0,0,0,0,0
			C21.5,17.7,22.9,18.4,23.3,19.7z"/>
		<path d="M26.5,26.5c0.6,1.7-0.4,3.6-2.1,4.2c-1.7,0.6-3.6-0.4-4.2-2.1c-0.6-1.7,0.4-3.6,2.1-4.2c0,0,0,0,0,0
			C24,23.8,25.9,24.7,26.5,26.5C26.4,26.4,26.5,26.4,26.5,26.5z"/>
		<path d="M27.3,33.3c0.3,1-0.2,2.1-1.2,2.5c-1,0.3-2.1-0.2-2.5-1.2c-0.3-1,0.2-2.1,1.2-2.5c0,0,0,0,0,0
			C25.9,31.8,26.9,32.3,27.3,33.3C27.3,33.3,27.3,33.3,27.3,33.3z"/>
		<path d="M40.5,85.3c-0.3-0.9,0.2-1.8,1-2.1c0.9-0.3,1.8,0.2,2.1,1c0.3,0.9-0.2,1.8-1,2.1c0,0,0,0,0,0
			C41.7,86.6,40.8,86.1,40.5,85.3z"/>
		<path d="M38,80.3c-0.4-1.3,0.3-2.7,1.6-3.1c1.3-0.4,2.7,0.3,3.1,1.6c0.4,1.3-0.3,2.7-1.6,3.1C39.8,82.2,38.4,81.5,38,80.3z"/>
		<path d="M34.9,73.5c-0.6-1.7,0.4-3.6,2.1-4.2c1.7-0.6,3.6,0.4,4.2,2.1c0.6,1.7-0.4,3.6-2.1,4.2c0,0,0,0,0,0
			C37.3,76.1,35.5,75.2,34.9,73.5C34.9,73.5,34.9,73.5,34.9,73.5z"/>
		<path d="M34.1,66.6c-0.3-1,0.2-2.1,1.2-2.4c0,0,0,0,0,0c1-0.3,2.1,0.2,2.5,1.2c0.3,1-0.2,2.1-1.3,2.5S34.4,67.6,34.1,66.6
			L34.1,66.6z"/>
		<path d="M10.3,19.4c0.5,0.7,0.4,1.7-0.4,2.2c0,0,0,0,0,0c-0.7,0.5-1.7,0.4-2.3-0.4C7.2,20.6,7.3,19.6,8,19c0,0,0,0,0,0
			C8.8,18.5,9.8,18.7,10.3,19.4z"/>
		<path d="M14.3,23.4c0.8,1.1,0.6,2.6-0.5,3.4c0,0,0,0,0,0c-1.1,0.8-2.6,0.6-3.4-0.5c0,0,0,0,0,0c-0.8-1.1-0.6-2.6,0.5-3.4
			c0,0,0,0,0,0C11.9,22.1,13.4,22.3,14.3,23.4C14.3,23.4,14.3,23.4,14.3,23.4z"/>
		<path d="M19.4,28.9c1.1,1.5,0.7,3.5-0.7,4.6c0,0,0,0,0,0c-1.5,1.1-3.5,0.7-4.6-0.7c-1.1-1.5-0.8-3.5,0.7-4.6c0,0,0,0,0,0
			C16.2,27.1,18.3,27.4,19.4,28.9z"/>
		<path d="M22.3,35.2c0.6,0.9,0.4,2.1-0.4,2.7c0,0,0,0,0,0c-0.9,0.6-2.1,0.4-2.7-0.4c-0.6-0.9-0.4-2.1,0.4-2.7c0,0,0,0,0,0
			C20.4,34.1,21.6,34.3,22.3,35.2z"/>
		<path d="M51,80.5c-0.5-0.7-0.4-1.7,0.4-2.2c0,0,0,0,0,0c0.7-0.5,1.7-0.4,2.3,0.4c0.5,0.7,0.4,1.7-0.4,2.2c0,0,0,0,0,0
			C52.6,81.4,51.6,81.3,51,80.5L51,80.5z"/>
		<path d="M47.1,76.5c-0.8-1.1-0.6-2.6,0.5-3.4c0,0,0,0,0,0c1.1-0.8,2.6-0.6,3.4,0.5c0,0,0,0,0,0c0.8,1.1,0.6,2.6-0.5,3.4
			c0,0,0,0,0,0C49.4,77.9,47.9,77.6,47.1,76.5C47.1,76.5,47.1,76.5,47.1,76.5z"/>
		<path d="M42,71c-1.1-1.5-0.7-3.5,0.7-4.6c0,0,0,0,0,0c1.5-1.1,3.5-0.7,4.6,0.7c1.1,1.5,0.7,3.5-0.7,4.6c0,0,0,0,0,0
			C45.1,72.8,43.1,72.5,42,71z"/>
		<path d="M39.1,64.7c-0.6-0.9-0.4-2.1,0.4-2.7c0,0,0,0,0,0c0.9-0.6,2.1-0.4,2.7,0.4c0.6,0.9,0.4,2.1-0.4,2.7c0,0,0,0,0,0
			C40.9,65.8,39.7,65.6,39.1,64.7z"/>
		<path d="M1.8,27.1c0.7,0.5,0.9,1.5,0.4,2.2c0,0,0,0,0,0c-0.5,0.7-1.5,0.9-2.3,0.4c-0.7-0.5-0.9-1.5-0.4-2.2c0,0,0,0,0,0
			C0.1,26.8,1.1,26.6,1.8,27.1z"/>
		<path d="M6.8,29.7c1.1,0.8,1.3,2.3,0.6,3.4c0,0,0,0,0,0c-0.8,1.1-2.3,1.3-3.4,0.5c0,0,0,0,0,0c-1.1-0.8-1.3-2.3-0.6-3.4
			c0,0,0,0,0,0C4.1,29.2,5.7,28.9,6.8,29.7C6.8,29.7,6.8,29.7,6.8,29.7z"/>
		<path d="M13.4,33.4c1.5,1.1,1.8,3.1,0.7,4.6c0,0,0,0,0,0c-1.1,1.5-3.1,1.8-4.6,0.7c-1.5-1-1.8-3.1-0.8-4.6c0,0,0,0,0,0
			C9.8,32.6,11.9,32.3,13.4,33.4z"/>
		<path d="M18.1,38.5c0.9,0.6,1.1,1.8,0.4,2.7c0,0,0,0,0,0c-0.6,0.9-1.8,1.1-2.7,0.4c-0.9-0.6-1.1-1.8-0.4-2.7c0,0,0,0,0,0
			C16,38.1,17.2,37.9,18.1,38.5z"/>
		<path d="M59.5,72.8c-0.7-0.5-0.9-1.5-0.4-2.2c0,0,0,0,0,0c0.5-0.7,1.5-0.9,2.3-0.4l0,0c0.7,0.5,0.9,1.5,0.4,2.2c0,0,0,0,0,0
			C61.3,73.1,60.3,73.3,59.5,72.8z"/>
		<path d="M54.5,70.2c-1.1-0.8-1.3-2.3-0.5-3.4c0,0,0,0,0,0c0.8-1.1,2.3-1.3,3.4-0.5c0,0,0,0,0,0c1.1,0.8,1.3,2.3,0.5,3.4
			c0,0,0,0,0,0C57.2,70.8,55.7,71,54.5,70.2C54.6,70.2,54.6,70.2,54.5,70.2z"/>
		<path d="M48,66.5c-1.5-1.1-1.8-3.1-0.7-4.6c0,0,0,0,0,0c1.1-1.5,3.1-1.8,4.6-0.7c1.5,1.1,1.8,3.1,0.7,4.6c0,0,0,0,0,0
			C51.5,67.2,49.5,67.6,48,66.5z"/>
		<path d="M43.2,61.4c-0.9-0.6-1.1-1.8-0.4-2.7c0,0,0,0,0,0c0.6-0.9,1.9-1.1,2.7-0.4c0.9,0.6,1.1,1.8,0.4,2.7c0,0,0,0,0,0
			C45.3,61.9,44.1,62.1,43.2,61.4z"/>
		<path d="M65.2,62.8c-0.8-0.3-1.3-1.2-1-2c0.3-0.8,1.2-1.3,2-1c0.9,0.2,1.4,1.1,1.1,2c-0.2,0.9-1.1,1.4-2,1.1
			C65.3,62.9,65.3,62.8,65.2,62.8L65.2,62.8L65.2,62.8z"/>
		<path d="M59.7,61.9c-1.3-0.4-2-1.8-1.5-3.1c0.4-1.3,1.8-2,3.1-1.5c1.3,0.4,2,1.8,1.5,3C62.3,61.6,61,62.3,59.7,61.9
			C59.7,61.9,59.7,61.9,59.7,61.9z"/>
		<path d="M52.3,60.4c-1.7-0.6-2.7-2.4-2.1-4.2c0.6-1.7,2.4-2.7,4.2-2.1c1.7,0.6,2.6,2.4,2.1,4.1C55.9,60,54,61,52.3,60.4z"/>
		<path d="M46.2,57c-1-0.3-1.6-1.4-1.2-2.5c0.3-1,1.4-1.6,2.5-1.2c1,0.3,1.5,1.4,1.2,2.4C48.3,56.8,47.2,57.3,46.2,57z"/>
		<ellipse cx="67.5" cy="50" rx="1.6" ry="1.6"/>
		<ellipse cx="62" cy="50" rx="2.4" ry="2.4"/>
		<ellipse cx="54.5" cy="50" rx="3.3" ry="3.3"/>
		<ellipse cx="47.6" cy="50" rx="2" ry="1.9"/>
		<path d="M66.2,40.2c-0.8,0.3-1.8-0.2-2-1c-0.3-0.9,0.2-1.8,1-2c0.8-0.3,1.8,0.2,2,1c0,0,0,0,0,0C67.6,39,67.1,39.9,66.2,40.2
			C66.2,40.2,66.2,40.2,66.2,40.2z"/>
		<path d="M61.2,42.7c-1.3,0.4-2.6-0.3-3.1-1.6c-0.4-1.3,0.3-2.6,1.6-3.1c1.3-0.4,2.6,0.3,3.1,1.6C63.2,40.9,62.5,42.2,61.2,42.7z"
			/>
		<path d="M54.3,45.8c-1.7,0.6-3.6-0.4-4.1-2.1c-0.6-1.7,0.4-3.6,2.1-4.1c1.7-0.6,3.6,0.4,4.1,2.1C57,43.4,56,45.2,54.3,45.8z"/>
		<path d="M47.4,46.6c-1,0.3-2.1-0.2-2.4-1.3c-0.3-1,0.2-2.1,1.3-2.4c1-0.3,2.1,0.2,2.4,1.2C49,45.2,48.4,46.3,47.4,46.6z"/>
		<path d="M-0.1,70.2c0.7-0.5,1.7-0.4,2.3,0.4c0.5,0.7,0.4,1.7-0.4,2.2c-0.7,0.5-1.7,0.4-2.3-0.4C-1,71.7-0.8,70.7-0.1,70.2z"/>
		<path d="M3.9,66.3c1.1-0.8,2.6-0.6,3.4,0.5c0,0,0,0,0,0c0.8,1.1,0.6,2.6-0.5,3.4c0,0,0,0,0,0c-1.1,0.8-2.6,0.6-3.4-0.5
			c0,0,0,0,0,0C2.6,68.6,2.8,67.1,3.9,66.3C3.9,66.3,3.9,66.3,3.9,66.3z"/>
		<path d="M9.5,61.2c1.5-1.1,3.5-0.7,4.6,0.7c1.1,1.5,0.7,3.5-0.7,4.6c0,0,0,0,0,0c-1.5,1.1-3.5,0.7-4.6-0.7
			C7.7,64.3,8,62.3,9.5,61.2C9.5,61.2,9.5,61.2,9.5,61.2z"/>
		<path d="M15.8,58.3c0.9-0.6,2.1-0.4,2.7,0.4c0.6,0.9,0.4,2.1-0.4,2.7c0,0,0,0,0,0c-0.9,0.6-2.1,0.4-2.7-0.4
			C14.8,60.1,14.9,58.9,15.8,58.3z"/>
		<path d="M61.4,29.7c-0.7,0.5-1.7,0.4-2.3-0.4c-0.5-0.7-0.4-1.7,0.4-2.2c0,0,0,0,0,0c0.7-0.5,1.7-0.4,2.3,0.4l0,0
			C62.3,28.2,62.2,29.2,61.4,29.7C61.5,29.7,61.5,29.7,61.4,29.7z"/>
		<path d="M57.4,33.7c-1.1,0.8-2.6,0.6-3.4-0.5c0,0,0,0,0,0c-0.8-1.1-0.6-2.6,0.5-3.4c0,0,0,0,0,0c1.1-0.8,2.6-0.6,3.4,0.5
			c0,0,0,0,0,0C58.7,31.3,58.5,32.9,57.4,33.7C57.4,33.6,57.4,33.6,57.4,33.7z"/>
		<path d="M51.9,38.7c-1.5,1.1-3.5,0.7-4.6-0.7c-1.1-1.5-0.7-3.5,0.7-4.6c0,0,0,0,0,0c1.5-1.1,3.5-0.7,4.6,0.7
			C53.7,35.6,53.4,37.6,51.9,38.7C51.9,38.7,51.9,38.7,51.9,38.7z"/>
		<path d="M45.5,41.6c-0.9,0.6-2.1,0.4-2.7-0.4c-0.6-0.9-0.4-2.1,0.4-2.7c0,0,0,0,0,0c0.9-0.6,2.1-0.4,2.7,0.4
			C46.6,39.8,46.4,41,45.5,41.6C45.5,41.6,45.5,41.6,45.5,41.6z"/>
		<path d="M7.7,78.6c0.5-0.7,1.5-0.9,2.3-0.4c0.7,0.5,0.9,1.5,0.4,2.2c0,0,0,0,0,0c-0.5,0.7-1.5,0.9-2.3,0.4
			C7.3,80.4,7.2,79.4,7.7,78.6z"/>
		<path d="M10.3,73.7c0.8-1.1,2.3-1.3,3.4-0.6c0,0,0,0,0,0c1.1,0.8,1.3,2.3,0.6,3.4c0,0,0,0,0,0c-0.8,1.1-2.3,1.3-3.4,0.6
			c0,0,0,0,0,0C9.8,76.3,9.5,74.8,10.3,73.7C10.3,73.7,10.3,73.7,10.3,73.7z"/>
		<path d="M14,67.2c1.1-1.5,3.1-1.8,4.6-0.7c1.5,1.1,1.8,3.1,0.7,4.6c0,0,0,0,0,0c-1.1,1.5-3.1,1.8-4.6,0.7
			C13.3,70.7,12.9,68.6,14,67.2C14,67.2,14,67.2,14,67.2z"/>
		<path d="M19.1,62.4c0.6-0.9,1.9-1.1,2.7-0.4c0.9,0.6,1.1,1.8,0.4,2.7c0,0,0,0,0,0c-0.6,0.9-1.9,1.1-2.7,0.4
			C18.7,64.5,18.5,63.3,19.1,62.4C19.1,62.5,19.1,62.5,19.1,62.4z"/>
		<path d="M53.7,21.3c-0.5,0.7-1.5,0.9-2.3,0.4c-0.7-0.5-0.9-1.5-0.4-2.2c0,0,0,0,0,0c0.5-0.7,1.5-0.9,2.3-0.4
			C54,19.5,54.2,20.6,53.7,21.3C53.7,21.3,53.7,21.3,53.7,21.3z"/>
		<path d="M51,26.2c-0.8,1.1-2.3,1.3-3.4,0.5c0,0,0,0,0,0c-1.1-0.8-1.3-2.3-0.6-3.4c0,0,0,0,0,0c0.8-1.1,2.3-1.3,3.4-0.5
			c0,0,0,0,0,0C51.6,23.6,51.8,25.1,51,26.2C51,26.2,51,26.2,51,26.2z"/>
		<path d="M47.3,32.8c-1.1,1.5-3.1,1.8-4.6,0.7c-1.5-1.1-1.8-3.1-0.7-4.6c0,0,0,0,0,0c1.1-1.5,3.1-1.8,4.6-0.7
			C48.1,29.2,48.4,31.3,47.3,32.8C47.3,32.7,47.3,32.7,47.3,32.8z"/>
		<path d="M42.3,37.5c-0.6,0.9-1.9,1.1-2.7,0.4c-0.9-0.6-1.1-1.8-0.4-2.7c0,0,0,0,0,0c0.6-0.9,1.9-1.1,2.7-0.4
			C42.7,35.4,42.9,36.6,42.3,37.5C42.3,37.5,42.3,37.5,42.3,37.5z"/>
		<path d="M17.7,84.3c0.3-0.9,1.2-1.3,2-1.1c0.9,0.3,1.3,1.2,1.1,2c-0.3,0.9-1.2,1.3-2,1.1c0,0,0,0,0,0C17.9,86,17.5,85.1,17.7,84.3
			C17.7,84.3,17.7,84.3,17.7,84.3z"/>
		<path d="M18.7,78.8c0.4-1.3,1.8-2,3.1-1.6c1.3,0.4,2,1.8,1.6,3c0,0,0,0,0,0c-0.4,1.3-1.8,2-3.1,1.6C19,81.4,18.3,80,18.7,78.8
			L18.7,78.8z"/>
		<path d="M20.2,71.4c0.6-1.7,2.4-2.7,4.2-2.1c1.7,0.6,2.7,2.4,2.1,4.1c-0.6,1.7-2.4,2.7-4.2,2.1c0,0,0,0,0,0
			C20.6,75,19.6,73.2,20.2,71.4z"/>
		<path d="M23.6,65.4c0.3-1,1.4-1.6,2.4-1.3c1,0.3,1.6,1.4,1.3,2.4c-0.3,1-1.4,1.6-2.4,1.3c0,0,0,0,0,0
			C23.8,67.5,23.3,66.4,23.6,65.4z"/>
		<path d="M43.6,15.6c-0.3,0.9-1.2,1.3-2,1.1c-0.9-0.3-1.3-1.2-1.1-2c0.3-0.9,1.2-1.3,2-1.1c0,0,0,0,0,0
			C43.4,13.9,43.9,14.8,43.6,15.6C43.6,15.6,43.6,15.6,43.6,15.6z"/>
		<path d="M42.7,21.2c-0.4,1.3-1.8,2-3.1,1.6c-1.3-0.4-2-1.8-1.5-3.1c0.4-1.3,1.8-2,3.1-1.5C42.4,18.6,43.1,19.9,42.7,21.2z"/>
		<path d="M41.2,28.5c-0.6,1.7-2.4,2.7-4.2,2.1c-1.7-0.6-2.7-2.4-2.1-4.2c0.6-1.7,2.4-2.7,4.1-2.1c0,0,0,0,0,0
			C40.8,24.9,41.7,26.8,41.2,28.5z"/>
		<path d="M37.8,34.5c-0.3,1-1.4,1.6-2.5,1.3c-1-0.3-1.6-1.4-1.3-2.5c0.3-1,1.4-1.6,2.5-1.3c0,0,0,0,0,0
			C37.5,32.4,38.1,33.5,37.8,34.5C37.8,34.5,37.8,34.5,37.8,34.5z"/>
	</g>
</g>
</svg>
