<?xml version="1.0" encoding="utf-8"?>
<!-- Generator: Adobe Illustrator 22.0.1, SVG Export Plug-In . SVG Version: 6.00 Build 0)  -->
<svg version="1.0" id="Слой_1" xmlns="http://www.w3.org/2000/svg" xmlns:xlink="http://www.w3.org/1999/xlink" x="0px" y="0px"
	 width="160px" height="100px" viewBox="0 0 160 100" style="enable-background:new 0 0 160 100;" xml:space="preserve">
<style type="text/css">
	.st0{fill:none;}
	.st1{fill:#00A551;}
	.st2{fill:#231F20;}
</style>
<g>
	<path class="st0" d="M159.2,43.3c0-0.1,0-0.1,0-0.1c0,0-0.1-0.1-0.1-0.1c-0.1,0-0.1,0-0.3,0h-0.3v0.5h0.3c0.2,0,0.3,0,0.3-0.1
		C159.1,43.4,159.2,43.4,159.2,43.3z"/>
	<path class="st0" d="M159.5,42.4c-0.2-0.1-0.4-0.2-0.7-0.2c-0.2,0-0.4,0.1-0.7,0.2c-0.2,0.1-0.4,0.3-0.5,0.5
		c-0.1,0.2-0.2,0.4-0.2,0.7c0,0.2,0.1,0.5,0.2,0.7c0.1,0.2,0.3,0.4,0.5,0.5c0.2,0.1,0.4,0.2,0.7,0.2s0.5-0.1,0.7-0.2
		c0.2-0.1,0.4-0.3,0.5-0.5c0.1-0.2,0.2-0.4,0.2-0.7c0-0.2-0.1-0.5-0.2-0.7C159.9,42.7,159.7,42.6,159.5,42.4z M159.2,44.5l-0.2-0.3
		c-0.1-0.2-0.2-0.4-0.3-0.4c-0.1,0-0.1-0.1-0.2-0.1h-0.2v0.7h-0.3v0v-1.8h0.6c0.2,0,0.4,0,0.4,0c0.1,0,0.2,0.1,0.2,0.2
		c0.1,0.1,0.1,0.2,0.1,0.3c0,0.1,0,0.2-0.1,0.3c-0.1,0.1-0.2,0.1-0.4,0.2c0.1,0,0.1,0.1,0.1,0.1c0.1,0.1,0.2,0.2,0.3,0.3l0.2,0.3
		L159.2,44.5L159.2,44.5z"/>
	<path class="st1" d="M159.1,43.8c0,0-0.1-0.1-0.1-0.1c0.1,0,0.3-0.1,0.4-0.2c0.1-0.1,0.1-0.2,0.1-0.3c0-0.1,0-0.2-0.1-0.3
		c-0.1-0.1-0.1-0.1-0.2-0.2c-0.1,0-0.2,0-0.4,0h-0.6v1.8v0h0.3v-0.7h0.2c0.1,0,0.2,0,0.2,0.1c0.1,0.1,0.2,0.2,0.3,0.4l0.2,0.3h0.3
		l-0.2-0.3C159.3,44,159.2,43.9,159.1,43.8z M158.7,43.5h-0.3V43h0.3c0.1,0,0.2,0,0.3,0c0.1,0,0.1,0.1,0.1,0.1c0,0,0,0.1,0,0.1
		c0,0.1,0,0.1-0.1,0.2C159,43.5,158.9,43.5,158.7,43.5z"/>
	<path class="st1" d="M160.2,42.8c-0.1-0.3-0.3-0.5-0.6-0.6c-0.3-0.1-0.5-0.2-0.8-0.2c-0.3,0-0.5,0.1-0.8,0.2
		c-0.3,0.1-0.5,0.3-0.6,0.6c-0.1,0.3-0.2,0.5-0.2,0.8c0,0.3,0.1,0.6,0.2,0.8c0.1,0.3,0.3,0.5,0.6,0.6c0.3,0.1,0.5,0.2,0.8,0.2
		c0.3,0,0.5-0.1,0.8-0.2c0.3-0.1,0.5-0.3,0.6-0.6c0.1-0.3,0.2-0.5,0.2-0.8C160.5,43.3,160.4,43.1,160.2,42.8z M160,44.3
		c-0.1,0.2-0.3,0.4-0.5,0.5c-0.2,0.1-0.4,0.2-0.7,0.2c-0.2,0-0.5-0.1-0.7-0.2c-0.2-0.1-0.4-0.3-0.5-0.5c-0.1-0.2-0.2-0.4-0.2-0.7
		c0-0.2,0.1-0.5,0.2-0.7c0.1-0.2,0.3-0.4,0.5-0.5c0.2-0.1,0.4-0.2,0.7-0.2c0.2,0,0.4,0.1,0.7,0.2c0.2,0.1,0.4,0.3,0.5,0.5
		c0.1,0.2,0.2,0.4,0.2,0.7C160.2,43.9,160.1,44.1,160,44.3z"/>
	<path class="st1" d="M112.4,42l-3,16h44.6l3-16C156.9,42,112.4,42,112.4,42z M113.7,52.6l-0.5-0.8l-1.1-1.9L114,48l0.8-0.8h1.9
		l-2,2.2l-0.5,0.6h0l0,0l0,0h0l0.3,0.6l1.2,2.2H113.7z M116.3,52.6l-0.5-0.8l-1.1-1.9l1.8-1.9l0.8-0.8h1.9l-2,2.2l-0.5,0.5l0,0.1h0
		l0.3,0.6l1.2,2.2H116.3z M128,48.6l-0.6,3.2H124l-0.8,4.2h-4.4v0v0l2.2-12.2h8l-0.6,3.3h-3.6l-0.3,1.5
		C124.6,48.6,128,48.6,128,48.6z M136.4,53.4h-2.6l-0.3-0.3c-0.4,0.2-0.7,0.3-1,0.4c-0.3,0.1-0.7,0.1-1,0.1c-0.8,0-1.4-0.2-1.9-0.6
		c-0.5-0.4-0.8-1-0.8-1.6c0-0.5,0.2-0.9,0.5-1.3c0.3-0.4,0.8-0.6,1.5-0.8c-0.1-0.2-0.2-0.4-0.2-0.5c0-0.2-0.1-0.3-0.1-0.5
		c0-0.5,0.2-1,0.7-1.3c0.4-0.3,1-0.5,1.7-0.5c0.7,0,1.3,0.2,1.7,0.6c0.5,0.4,0.7,0.8,0.7,1.4c0,0.4-0.1,0.8-0.4,1.1
		c-0.3,0.3-0.6,0.5-1.1,0.7l0.5,0.6c0.2-0.1,0.4-0.3,0.5-0.4c0.2-0.1,0.4-0.3,0.5-0.5l1.1,1.4c-0.2,0.2-0.4,0.3-0.5,0.5
		c-0.2,0.1-0.4,0.3-0.6,0.4L136.4,53.4z M146.4,48.6l-0.6,3.2h-3.4l-0.8,4.2h-4.4l2.2-12.2h8l-0.6,3.3h-3.6l-0.3,1.5H146.4z
		 M146.9,52.7l2-2.2l0.4-0.4l0,0l0.1-0.1h0l0,0l0,0h0l0-0.1l-0.1-0.1h0l-0.2-0.4l-1.2-2.2h1.9l0.5,0.8l1.1,1.9l-1.8,1.9l-0.8,0.8
		C148.8,52.7,146.9,52.7,146.9,52.7z M152.1,51.8l-0.8,0.8h-1.9l2-2.2l0.5-0.6h0l0,0l0,0l-0.3-0.5l-1.2-2.2h1.9l0.5,0.8l1.1,1.9
		L152.1,51.8z"/>
	<path class="st1" d="M133,47.8c-0.1,0-0.2,0-0.3,0.1c-0.1,0.1-0.1,0.2-0.1,0.4c0,0.1,0,0.2,0,0.2c0,0.1,0.1,0.2,0.1,0.2
		c0.2-0.1,0.4-0.1,0.5-0.2c0.1-0.1,0.2-0.2,0.2-0.4c0-0.1,0-0.2-0.1-0.3C133.2,47.9,133.1,47.8,133,47.8z"/>
	<path class="st1" d="M131.2,50.8c-0.1,0.1-0.1,0.2-0.1,0.3c0,0.2,0.1,0.3,0.2,0.4c0.1,0.1,0.3,0.2,0.5,0.2c0,0,0.1,0,0.2,0
		c0.1,0,0.2,0,0.3-0.1l-0.7-1C131.4,50.6,131.3,50.7,131.2,50.8z"/>
	<path class="st2" d="M11.6,44.5h-3c-0.4,0-0.7,0.3-0.7,0.7v9c0,0.4,0.3,0.7,0.7,0.7h3.1c1.9,0,2.6-0.5,2.6-2.5v-1
		c0-1.3-0.2-1.5-1.4-2c1.1-0.3,1.4-0.9,1.4-2v-0.7C14.3,45.1,13.6,44.5,11.6,44.5z M9.5,45.9h1.6c0.9,0,1.1,0.1,1.2,0.2
		c0.3,0.2,0.3,0.5,0.3,0.9v0.7c0,0.4,0,0.8-0.3,1c-0.2,0.2-0.5,0.2-1,0.2H9.5V45.9L9.5,45.9L9.5,45.9z M12.7,52.3
		c0,0.5-0.1,0.8-0.2,1c-0.2,0.2-0.4,0.2-1,0.2h-2v-3.5h1.9c1,0,1.3,0.1,1.3,1.4V52.3z"/>
	<path class="st2" d="M26.9,44.4h-1.8v0c-0.5,0-1.6,0-2.1,1c-0.2,0.5-0.3,0.6-0.3,2.1v4.4c0,1.3,0.1,1.6,0.3,2c0.5,1,1.5,1,2.3,1
		h1.6c0.7,0,1.2,0,1.8-0.5c0.7-0.6,0.7-1.4,0.7-2v-5.6C29.3,44.6,28.3,44.4,26.9,44.4z M27.7,52c0,1.1,0,1.5-1,1.5h-1.1
		c-1.1,0-1.1-0.3-1.1-1.5v-4.6c0-1.6,0.2-1.7,1.4-1.7h0.6c1.1,0,1.3,0.3,1.3,1.7L27.7,52L27.7,52z"/>
	<path class="st2" d="M37.2,54.1l-1.9-8.8h0L35.2,45c-0.1-0.3-0.3-0.5-0.6-0.5h-1.5c-0.3,0-0.6,0.2-0.6,0.5l-2.2,9.2h0l-0.1,0.5
		c0,0.2,0.1,0.3,0.2,0.3h1.1c0.2,0,0.4-0.1,0.4-0.3l0.1-0.5l0.1-0.5l0,0v0l0.4-2h2.4l0.5,2.5h0l0.1,0.5c0,0.2,0.2,0.3,0.4,0.3H37
		c0.2,0,0.3-0.1,0.2-0.3L37.2,54.1z M32.8,50.2l1-4.7l0.9,4.7H32.8z"/>
	<path class="st2" d="M41.7,44.5h-3c-0.4,0-0.7,0.3-0.7,0.7v9c0,0.4,0.3,0.7,0.7,0.7h3.1c1.9,0,2.6-0.5,2.6-2.5v-1
		c0-1.3-0.2-1.5-1.4-2c1.1-0.3,1.4-0.9,1.4-2v-0.7C44.4,45.1,43.7,44.5,41.7,44.5z M39.6,45.9h1.6c0.9,0,1.1,0.1,1.2,0.2
		c0.3,0.2,0.3,0.5,0.3,0.9v0.7c0,0.4,0,0.8-0.3,1c-0.2,0.2-0.5,0.2-1,0.2h-1.9L39.6,45.9L39.6,45.9z M42.8,52.3c0,0.5-0.1,0.8-0.2,1
		c-0.2,0.2-0.4,0.2-1,0.2h-2v-3.5h1.9c1,0,1.3,0.1,1.3,1.4L42.8,52.3L42.8,52.3z"/>
	<path class="st2" d="M52.5,44.5h-7.1c-0.2,0-0.3,0.1-0.3,0.3v0.8c0,0.2,0.1,0.3,0.3,0.3h2.7v8.8c0,0.2,0.1,0.3,0.3,0.3h1
		c0.2,0,0.3-0.1,0.3-0.3v-8.8h2.7c0.2,0,0.3-0.1,0.3-0.3v-0.8C52.7,44.6,52.6,44.5,52.5,44.5z"/>
	<path class="st2" d="M57.6,44.4h-1.8v0c-0.5,0-1.6,0-2.1,1c-0.2,0.5-0.2,0.6-0.2,2.1v4.4c0,1.3,0.1,1.6,0.2,2c0.5,1,1.5,1,2.3,1
		h1.6c0.7,0,1.2,0,1.8-0.5c0.7-0.6,0.7-1.4,0.7-2v-5.6C60,44.6,58.9,44.4,57.6,44.4z M58.4,52c0,1.1,0,1.5-1,1.5h-1.1
		c-1.1,0-1.1-0.3-1.1-1.5v-4.6c0-1.6,0.2-1.7,1.4-1.7h0.6c1.1,0,1.3,0.3,1.3,1.7L58.4,52L58.4,52z"/>
	<path class="st2" d="M69.6,44.5h-1.3c-0.2,0-0.3,0.2-0.4,0.4l-2.4,5.3l-2.3-5.3c-0.1-0.2-0.2-0.4-0.4-0.4h-1.2
		c-0.2,0-0.4,0.2-0.4,0.4v9.8c0,0.2,0.1,0.3,0.3,0.3h0.9c0.2,0,0.3-0.1,0.3-0.3V47l2,4.8c0.1,0.1,0.1,0.2,0.2,0.2H66
		c0.1,0,0.2-0.1,0.2-0.2l2.2-4.8l0,7.7c0,0.2,0.1,0.3,0.3,0.3h0.9c0.2,0,0.3-0.1,0.3-0.3v-9.8C70,44.6,69.8,44.5,69.6,44.5z"/>
	<path class="st2" d="M77.7,54.1l-1.9-8.8h0L75.7,45c-0.1-0.3-0.3-0.5-0.6-0.5h-1.5c-0.3,0-0.6,0.2-0.6,0.5l-2.2,9.2l-0.1,0.5
		c0,0.2,0.1,0.3,0.2,0.3H72c0.2,0,0.4-0.1,0.4-0.3l0.1-0.5l0.1-0.5l0,0v0l0.4-2h2.4l0.5,2.5h0l0.1,0.5c0,0.2,0.2,0.3,0.4,0.3h1.1
		c0.2,0,0.3-0.1,0.2-0.3L77.7,54.1z M73.3,50.2l1-4.7l0.9,4.7H73.3z"/>
	<path class="st2" d="M84.4,44.5h-7.1c-0.2,0-0.3,0.1-0.3,0.3v0.8c0,0.2,0.1,0.3,0.3,0.3H80v8.8c0,0.2,0.1,0.3,0.3,0.3h1
		c0.2,0,0.3-0.1,0.3-0.3v-8.8h2.7c0.2,0,0.3-0.1,0.3-0.3v-0.8C84.7,44.6,84.5,44.5,84.4,44.5z"/>
	<path class="st2" d="M91.9,44.5h-1.2c-0.2,0-0.3,0.2-0.4,0.4l-3.5,7.5v-7.5c0-0.2-0.1-0.3-0.3-0.3h-0.9c-0.2,0-0.3,0.1-0.3,0.3v9.8
		c0,0.2,0.2,0.4,0.4,0.4h1c0.2,0,0.3-0.2,0.4-0.4l0.1-0.2h0l3.7-7.5v7.7c0,0.2,0.1,0.3,0.3,0.3H92c0.2,0,0.3-0.1,0.3-0.3v-9.8
		C92.3,44.6,92.1,44.5,91.9,44.5z"/>
	<path class="st2" d="M99,44.5h-0.9c-0.3,0-0.4,0.2-0.5,0.4L95,49.2l0-4.5c0-0.2-0.1-0.3-0.3-0.3h-1c-0.2,0-0.3,0.1-0.3,0.3v9.8
		c0,0.2,0.1,0.3,0.3,0.3h1c0.2,0,0.3-0.1,0.3-0.3l0-4.2h1.6c1,0,1.1,0.1,1.1,0.8v3.3c0,0.2,0.1,0.3,0.3,0.3h1c0.2,0,0.3-0.1,0.3-0.3
		v-3.5c0-0.5,0-1.1-0.4-1.6c-0.4-0.4-0.8-0.4-1.2-0.4h-1l2.6-4.3C99.5,44.7,99.5,44.5,99,44.5z"/>
	<path class="st2" d="M107.1,54.6l-0.1-0.5l-1.9-8.8h0L105,45c-0.1-0.3-0.3-0.5-0.6-0.5h-1.5c-0.3,0-0.6,0.2-0.6,0.5l-2.2,9.2h0
		l-0.1,0.5c0,0.2,0.1,0.3,0.2,0.3h1.1c0.2,0,0.4-0.1,0.4-0.3l0.1-0.5l0.1-0.5l0,0l0,0l0.4-2h2.4l0.5,2.5l0.1,0.5
		c0,0.2,0.2,0.3,0.4,0.3h1.1C107,55,107.1,54.8,107.1,54.6z M102.6,50.2l1-4.7l0.9,4.7H102.6z"/>
	<path class="st2" d="M6.3,53.6H3.2c-1.1,0-1.1-0.7-1.1-1.9v-1.3h4.1c0.2,0,0.3-0.1,0.3-0.3v-0.9c0-0.2-0.1-0.3-0.3-0.3H2.1v-1.1
		c0-1.6,0.2-2,1.4-2h2.7c0.2,0,0.3-0.1,0.3-0.3v-0.8c0-0.2-0.1-0.3-0.3-0.3H2.8c-1.7,0-2.4,0.7-2.4,2.3c0,0.2,0,0.5,0,0.8v4.3
		c0,1.3,0.1,1.6,0.3,2c0.5,1,1.5,1,2.3,1h3.3c0.2,0,0.3-0.1,0.3-0.3v-0.8C6.6,53.7,6.5,53.6,6.3,53.6z"/>
	<path class="st2" d="M19.3,44.5h-3c-0.4,0-0.7,0.3-0.7,0.7h0v8.4v0.5v0.5c0,0.2,0.1,0.3,0.3,0.3h1c0.2,0,0.3-0.1,0.3-0.3v-0.5v-0.5
		v-3.2h2.1c1.5,0,2.3-0.5,2.3-2.4v-1.4C21.6,45.4,21.3,44.5,19.3,44.5z M20,47.8c0,1-0.2,1.2-1,1.2h-1.8v-3.1H19
		c0.9,0,1.1,0.2,1.1,1L20,47.8L20,47.8z"/>
	<path class="st1" d="M53.6,57.8c-0.1,0-0.1,0-0.1,0.1v0.1h55.8l-0.1,0.3H53.6c-0.1,0-0.1-0.1-0.1-0.1v-0.4
		C53.5,57.8,53.5,57.8,53.6,57.8l55.8-0.1l0,0.1H53.6z M45.1,57.7c-0.4,0.1-0.8,0.2-1.2,0.2H0.6c-0.1,0-0.1,0-0.1,0.1v0.1h43.4
		c0.5,0,0.8-0.1,1.3-0.2l8.2-2.2l0-0.1c0-0.1-0.1-0.1-0.1-0.1L45.1,57.7z M0.6,57.8h43.3c0.5,0,0.9-0.1,1.4-0.2l8-2.1
		c0.1,0,0.1,0,0.1,0.1l0.1,0.3c0,0.1,0,0.1-0.1,0.1l-8,2.1c-0.5,0.1-0.8,0.2-1.3,0.2H0.6c-0.1,0-0.1-0.1-0.1-0.1v-0.4
		C0.5,57.8,0.5,57.8,0.6,57.8z"/>
</g>
</svg>
