<?xml version="1.0" encoding="utf-8"?>
<!-- Generator: Adobe Illustrator 22.0.1, SVG Export Plug-In . SVG Version: 6.00 Build 0)  -->
<svg version="1.0" id="Слой_1" xmlns="http://www.w3.org/2000/svg" xmlns:xlink="http://www.w3.org/1999/xlink" x="0px" y="0px"
	 width="160px" height="100px" viewBox="0 0 160 100" style="enable-background:new 0 0 160 92.9;" xml:space="preserve">
<style type="text/css">
	.st0{fill:#ED1D24;}
	.st1{fill:none;stroke:#000000;stroke-width:0.769;}
</style>
<path d="M65.4,42.5c4.4,0,8,3.5,8,8c0,4.4-3.5,8-8,8c-4.4,0-8-3.5-8-8C57.4,46,60.9,42.5,65.4,42.5 M65.4,54.6c2.2,0,4-1.8,4-4.1
	c0-2.3-1.8-4.1-4-4.1c-2.2,0-4,1.8-4,4.1C61.4,52.8,63.1,54.6,65.4,54.6"/>
<path d="M75.2,58.1V42.9h3.6v2.9c0.8-2.9,3.3-3.1,4.2-3.1h0.5v4.2h-0.6c-3.5,0-3.7,2.8-3.7,4.5v6.7L75.2,58.1L75.2,58.1z"/>
<path d="M92.6,42.9v3.9h-2.9v5.4c0,0.9,0,2,1.8,2h1.1v3.9h-1.1c-1.2,0-2.8,0.1-4.1-0.8c-1.9-1.3-1.8-3.5-1.8-5.1V38.8h4v4.1H92.6z"
	/>
<rect x="95.7" y="42.9" width="4" height="15.2"/>
<path d="M102.5,54.2h4.8c0.6,0,1.6,0,1.6-0.8c0-1-1.6-1.6-2.5-2.1c-2-0.9-3.7-1.7-3.7-4.1c0-2.3,1.3-4.3,4.8-4.3h4.9v3.9h-4.6
	c-0.5,0-1.2-0.1-1.2,0.6c0,0.5,0.4,0.8,1.8,1.4c2.3,1.1,4.6,2,4.6,4.8c0,1.3-0.5,4.5-6,4.5h-4.6V54.2z"/>
<rect x="125" y="36.2" width="4" height="21.9"/>
<path d="M147.2,51.6c-0.7,4.5-4.5,6.8-8,6.8c-4.5,0-8-3.5-8-8c0-4.5,3.5-8,8-8c3.2,0,5.8,1.7,7.2,4.5l-7.7,5.8l-1.9-2.5l4-3.1
	c-0.5-0.6-1.3-0.8-2-0.8c-2,0-3.5,1.8-3.5,4.1c0,2.8,2.3,4.1,4.1,4.1c1.8,0,3.5-1.3,3.8-3.4L147.2,51.6z"/>
<path d="M148.5,54.2c1.1,0,2.4-0.2,3.2-1.7c0.3-0.6,0.4-1.3,0.4-2.1c0-0.7-0.1-1.4-0.4-2.1c-0.8-1.5-2.1-1.7-3.2-1.7h-0.3v-3.9h0.7
	c1.3,0,4,0.1,5.2,3c1.3-2.9,3.9-3,5.2-3h0.7v3.9h-0.3c-1.1,0-2.4,0.2-3.2,1.7c-0.3,0.6-0.4,1.3-0.4,2.1c0,0.7,0.1,1.4,0.4,2
	c0.8,1.6,2.1,1.7,3.2,1.7h0.3v3.9h-0.6c-1.5,0-4-0.1-5.3-3c-1.3,2.9-3.8,3-5.3,3h-0.6v-3.9L148.5,54.2L148.5,54.2z"/>
<path class="st0" d="M99.8,39c0,0.6-0.5,1.1-1.2,1.1l-2.8,0v-2.9c0-0.6,0.5-1.1,1.2-1.1l2.8,0V39z"/>
<path d="M56.1,49.1L56.1,49.1c0,0.4-0.4,0.8-0.8,0.8h-5.9v8.2h-4.6v-15c0-1.7,0-4,1.9-5.6c1.6-1.3,3.8-1.3,5.6-1.3h3.8v4.4h-3.3
	c-1.8,0-3.4-0.1-3.4,3.5v1.4h6.7L56.1,49.1L56.1,49.1z"/>
<path d="M122.5,42.9h-3.1v-0.8c0-2,1-2,2-2h1.1v-3.9h-0.9c-1.6,0-3.3,0-4.6,1.2c-1.6,1.4-1.6,3.8-1.6,5.8v14.9h4V46.7h2.3
	c0.4,0,0.8-0.4,0.8-0.8V42.9L122.5,42.9z"/>
<path class="st1" d="M35.5,53.4c0,5.9-4.8,10.8-10.8,10.8L0,64.2V39.5c0-5.9,4.8-10.8,10.8-10.8l24.6-0.1L35.5,53.4L35.5,53.4z"/>
<path class="st0" d="M25.6,30.7L25.6,30.7L25.6,30.7l-0.1,7.9h0.1v3.8H15.3c0,0-0.7,0-1.1,0.4c-0.5,0.4-0.4,0.9-0.4,0.9V49
	c0,0-0.1,0.6,0.4,1c0.4,0.4,0.9,0.4,0.9,0.4h10.5c0,3.9-2.6,4.1-5.6,4.1h-6.1v7.6h6.9c3.1,0,6.7,0.1,9.5-2.1
	c3.2-2.6,3.3-6.5,3.3-9.4v-20H25.6z"/>
<path d="M15.4,38.7h10.1v-7.9H14.7c-3.1,0-6.7-0.1-9.5,2.2C2,35.6,2,39.3,2,42.3v19.9h7.7v-8.4v-7.4V44
	C9.7,37.9,12.4,38.7,15.4,38.7"/>
</svg>
