<?xml version="1.0" encoding="utf-8"?>
<!-- Generator: Adobe Illustrator 22.0.1, SVG Export Plug-In . SVG Version: 6.00 Build 0)  -->
<svg version="1.0" id="Layer_1" xmlns="http://www.w3.org/2000/svg" xmlns:xlink="http://www.w3.org/1999/xlink" x="0px" y="0px"
	 width="160px" height="100px" viewBox="0 0 160 100" style="enable-background:new 0 0 160 100;" xml:space="preserve">
<style type="text/css">
	.st0{fill:#152128;}
	.st1{fill:#93A2AD;}
	.st2{fill:#FDB913;}
</style>
<g>
	<g>
		<path class="st0" d="M65.9,31c1,0,1.9,0.9,1.9,1.9v10.9c0,1.1,0.7,1.9,1.5,1.9c0.8,0,2-0.7,2.6-1.6l7.8-11.6
			c0.6-0.9,1.9-1.6,3-1.6h8.7c1,0,1.4,0.7,0.8,1.6L80.8,48.8c-0.6,0.9-0.6,2.3,0,3.1l12.4,16.9c0.6,0.9,0.3,1.6-0.8,1.6h-9
			c-1,0-2.4-0.7-3-1.6L72,56.6c-0.6-0.9-1.8-1.6-2.7-1.6c-0.8,0-1.5,0.9-1.5,1.9v11.5c0,1.1-0.9,1.9-1.9,1.9h-6.5
			c-1,0-1.9-0.9-1.9-1.9V33c0-1.1,0.9-1.9,1.9-1.9L65.9,31L65.9,31L65.9,31z"/>
	</g>
</g>
<g>
	<g>
		<path class="st0" d="M97.9,70.4c-1,0-1.9-0.9-1.9-1.9V33c0-1.1,0.9-1.9,1.9-1.9h16.5c1,0,2.8,0,3.8,0.1c0,0,3.2,0.2,4.9,0.7
			c1.7,0.5,3.1,1.5,4,3c0.9,1.5,1.4,3.6,1.4,6.3c0,1.8-0.2,3.4-0.5,4.6c-0.3,1.2-0.9,2.2-1.8,3c-0.9,0.8-2.2,1.3-3.8,1.6
			c0,0.2,0.8,0.6,1.9,0.7c0,0,1.3,0.2,2.3,1c1,0.7,1.7,1.7,2,2.9c0.3,1.2,0.5,2.7,0.5,4.6c0,3.1-0.5,5.5-1.4,7
			c-0.9,1.6-2.3,2.6-4,3.2c-1.8,0.5-4.2,0.8-7.2,0.8L97.9,70.4L97.9,70.4z M108.2,39.7c-1,0-1.9,0.9-1.9,1.9v3.2
			c0,1.1,0.9,1.9,1.9,1.9h3.6c1,0,2.8,0,3.8-0.1c0,0,0.3,0,0.9-0.2c0.6-0.2,1-0.6,1.3-1.1c0.2-0.5,0.4-1.3,0.4-2.4
			c0-1.2-0.2-2.1-0.6-2.6c-0.4-0.5-1.3-0.7-2.6-0.7H108.2z M108.2,54.1c-1,0-1.9,0.9-1.9,1.9v3.8c0,1.1,0.9,1.9,1.9,1.9h3.9
			c1,0,2.8,0,3.8-0.1c0,0,0.2,0,0.8-0.2c0.7-0.2,1.2-0.6,1.5-1.2c0.3-0.6,0.5-1.4,0.5-2.5c0-1.6-0.3-2.6-0.9-3
			c-0.6-0.5-1.8-0.7-3.6-0.7L108.2,54.1L108.2,54.1L108.2,54.1L108.2,54.1z"/>
	</g>
</g>
<g>
	<g>
		<path class="st0" d="M152.9,40.2c-1,0-1.9,0.9-1.9,1.9v26.3c0,1.1-0.9,1.9-1.9,1.9h-6.5c-1,0-1.9-0.9-1.9-1.9V42.2
			c0-1.1-0.9-1.9-1.9-1.9h-6c-1,0-1.9-0.9-1.9-1.9V33c0-1.1,0.9-1.9,1.9-1.9h26.1c1,0,1.9,0.9,1.9,1.9v5.3c0,1.1-0.9,1.9-1.9,1.9
			C158.8,40.2,152.9,40.2,152.9,40.2z"/>
	</g>
</g>
<g>
	<g>
		<path class="st1" d="M42.4,38.2H30.2c-1,0-2,0.8-2.3,1.8l-3.3,12.5c-0.3,1,0.3,2,1.3,2.3L36,57.6c1,0.3,1.5,1.3,1.2,2.2l-4.9,16.6
			c-0.3,1,0.1,1.3,0.9,0.6l9.5-7.4c0.8-0.6,1.4-1.9,1.4-2.9V40.1C44.2,39.1,43.4,38.2,42.4,38.2"/>
	</g>
</g>
<g>
	<g>
		<path class="st2" d="M27.3,62.5l-9.9-2.8c-1-0.3-1.5-1.2-1.3-2.2c0.2-0.9,0.7-2.5,0.9-3.5L20.8,40c0.3-1-0.3-1.8-1.3-1.8H9.5
			c-1,0-1.8,0.8-1.8,1.8v26.6c0,1,0.6,2.3,1.4,2.9l13.2,10.3c0.8,0.6,1.7,0.3,1.9-0.6l4.3-14.5C28.8,63.8,28.3,62.8,27.3,62.5"/>
	</g>
</g>
<g>
	<g>
		<path class="st0" d="M49.4,31.2h-3.5H2.6c-1,0-1.8,0.8-1.8,1.8v37.2c0,1,0.6,2.3,1.4,2.9l22.3,17.4c0.8,0.6,2.1,0.6,2.9,0
			l22.3-17.4c0.8-0.6,1.4-1.9,1.4-2.9V33C51.2,32,50.4,31.2,49.4,31.2 M28.5,64.8l-4.3,14.5c-0.3,1-1.2,1.3-1.9,0.6L9.1,69.6
			c-0.8-0.6-1.4-1.9-1.4-2.9V40.1c0-1,0.8-1.8,1.8-1.8h9.9c1,0,1.6,0.8,1.3,1.8l-3.7,14.1c-0.3,1-0.7,2.5-0.9,3.5
			c-0.2,0.9,0.3,1.9,1.3,2.2l9.9,2.8C28.3,62.8,28.8,63.8,28.5,64.8 M44.2,66.7c0,1-0.6,2.3-1.4,3l-9.5,7.4
			c-0.8,0.6-1.2,0.3-0.9-0.6l4.9-16.6c0.3-1-0.3-2-1.2-2.2l-10.1-2.8c-1-0.3-1.5-1.3-1.3-2.3L28,40c0.3-1,1.3-1.8,2.3-1.8h12.2
			c1,0,1.8,0.8,1.8,1.8V66.7L44.2,66.7z M49.3,15.4H45c-1,0-1.8,0.9-1.8,2.1v1.1c0,1.1-0.8,2.1-1.8,2.1h-8.1c-1,0-1.8-0.9-1.8-2.1
			v-1.1c0-1.1-0.8-2.1-1.8-2.1h-7.1c-1,0-1.8,0.9-1.8,2.1v1.1c0,1.1-0.8,2.1-1.8,2.1h-8.3c-1,0-1.8-0.9-1.8-2.1v-1.1
			c0-1.1-0.8-2.1-1.8-2.1H2.6c-1,0-1.8,0.9-1.8,2.1v8.5c0,1.1,0.8,2.1,1.8,2.1h46.8c1,0,1.8-0.9,1.8-2.1v-8.5
			C51.2,16.3,50.4,15.4,49.3,15.4"/>
	</g>
</g>
</svg>
