<?xml version="1.0" encoding="utf-8"?>
<!-- Generator: Adobe Illustrator 15.0.2, SVG Export Plug-In . SVG Version: 6.00 Build 0)  -->
<!DOCTYPE svg PUBLIC "-//W3C//DTD SVG 1.1//EN" "http://www.w3.org/Graphics/SVG/1.1/DTD/svg11.dtd">
<svg version="1.1" id="Слой_1" xmlns:svg="http://www.w3.org/2000/svg"
	 xmlns="http://www.w3.org/2000/svg" xmlns:xlink="http://www.w3.org/1999/xlink" x="0px" y="0px" width="160px" height="100px"
	 viewBox="0 0 160 100" enable-background="new 0 0 160 100" xml:space="preserve">
<path fill="#19171A" d="M7.968,33v9.683H9.69V33H7.968z M10.656,35.297v7.36h7.757v19.257h7.06V35.297H10.656z M0,35.33v26.618
	h14.79v-7.359H7.034V35.33H0z M15.757,54.555v9.715h1.715v-9.715H15.757z"/>
<path fill="#E0001A" d="M34.682,34.543v28.735h6.24V34.543H34.682z M144.691,34.543v9.536c-1.343-0.98-3.526-1.14-3.526-1.14
	c-6.719-0.173-9.587,5.51-9.568,9.958c-0.051,5.831,3.795,10.592,9.542,10.138c1.338-0.141,2.439-0.666,3.552-1.543v1.786h6.521
	V34.543H144.691z M52.154,41.486c-5.114,0-10.138,4.205-10.138,10.828c0.006,7.457,4.672,11.777,10.835,11.592
	c4.704-0.154,7.961-3.131,9.146-7.303h-6.432c-0.327,0.665-1.229,1.445-3.11,1.445c-2.407,0-3.68-1.785-3.68-3.559h13.581
	C63.13,46.754,58.144,41.486,52.154,41.486z M97.792,41.902c-3.283,0-5.978,2.515-5.978,2.515v-2.144H85.12v21.004h6.694v-10.72
	c0.044-5.235,5.978-5.613,5.978-5.613V41.902z M99.328,41.902v4.896c0,0,0.576-0.14,2.995-0.063
	c3.072,0.115,2.713,2.623,2.713,2.623s-1.498-0.915-3.654-0.934c-2.355-0.058-7.084,1.382-7.084,7.642
	c-0.013,5.51,4.41,7.117,7.027,7.117c2.521,0,3.981-1.235,3.981-1.235v1.331h6.093c0,0,0-11.31,0-14.317
	c0-2.777-0.512-3.532-1.779-4.94c-1.773-1.952-5.978-2.118-5.978-2.118L99.328,41.902L99.328,41.902z M77.235,42.241v2.202
	c-4.313-4.365-14.387-1.209-14.029,8.634c0.307,9.216,10.055,11.987,14.029,8.415v2.439c-0.02,2.797-3.437,2.7-3.437,2.7
	c-2.983-0.14-3.623-2.028-3.623-2.028h-7.52C64.23,75.1,82.65,75.502,83.514,65.448V42.241H77.235z M112.851,42.241v21.037h6.433
	V50.869c0-2.995,4.768-3.2,4.768,0v12.409h6.336V47.554c0-3.175-4.135-7.84-11.104-3.322v-1.991H112.851z M52.154,47.003
	c1.798,0,3.277,1.344,3.469,3.079h-6.932C48.89,48.347,50.362,47.003,52.154,47.003z M73.344,48.731c2.24,0,4.077,1.817,4.077,4.063
	c0,2.254-1.837,4.052-4.077,4.052c-2.247,0-4.045-1.798-4.045-4.052C69.299,50.549,71.097,48.731,73.344,48.731z M141.069,48.904
	c2.233,0,4.044,1.83,4.044,4.076c0,2.234-1.812,4.045-4.044,4.045c-2.24,0-4.045-1.811-4.045-4.045
	C137.03,50.734,138.829,48.904,141.069,48.904z M102.675,52.827c1.491,0,2.688,1.235,2.688,2.727c0,1.497-1.197,2.682-2.688,2.682
	c-1.492,0-2.713-1.185-2.713-2.682C99.961,54.063,101.184,52.827,102.675,52.827z"/>
<path fill="#888689" d="M156.338,34.575c-1.99,0-3.647,1.651-3.647,3.648c0,2.022,1.658,3.655,3.647,3.655
	c2.03,0,3.662-1.632,3.662-3.655C160,36.226,158.355,34.575,156.338,34.575z M156.338,35.086c1.742,0,3.15,1.428,3.15,3.136
	c0,1.728-1.421,3.11-3.15,3.11c-1.721,0-3.128-1.382-3.128-3.11C153.203,36.514,154.611,35.086,156.338,35.086z M154.893,36.264
	v3.834h0.519v-1.664h1.235c0.608,0,0.697,0.377,0.697,0.697c0,0.147,0,0.736,0.09,0.966h0.634v-0.097
	c-0.167-0.095-0.206-0.166-0.211-0.383l-0.033-0.698c-0.019-0.531-0.236-0.64-0.453-0.723c0.242-0.147,0.543-0.34,0.543-0.909
	c0-0.813-0.659-1.024-1.268-1.024H154.893z M155.411,36.686h1.268c0.269,0,0.691,0.077,0.691,0.66c0,0.569-0.392,0.665-0.781,0.665
	h-1.178V36.686L155.411,36.686z"/>
</svg>
