<?xml version="1.0" encoding="utf-8"?>
<!-- Generator: Adobe Illustrator 15.0.2, SVG Export Plug-In . SVG Version: 6.00 Build 0)  -->
<!DOCTYPE svg PUBLIC "-//W3C//DTD SVG 1.1//EN" "http://www.w3.org/Graphics/SVG/1.1/DTD/svg11.dtd">
<svg version="1.1" id="Слой_1" xmlns="http://www.w3.org/2000/svg" xmlns:xlink="http://www.w3.org/1999/xlink" x="0px" y="0px"
	 width="160px" height="100px" viewBox="0 0 160 100" enable-background="new 0 0 160 100" xml:space="preserve">
<g>
	<g>
		<path fill="#2C3135" d="M0.592,90.865c-0.167,0-0.213-0.014-0.213-0.211v-7.066c0-0.165,0.016-0.213,0.213-0.213h3.472
			c1.062,0,1.698,0.016,2.198,0.288c0.44,0.244,0.864,0.714,0.864,1.594c0,0.439-0.122,1.317-1.138,1.639
			c1.138,0.27,1.366,1.182,1.366,1.727c0,0.501-0.06,1.062-0.561,1.531c-0.698,0.652-1.895,0.712-2.714,0.712H0.592z M2.987,86.302
			h0.804c0.288,0,0.741-0.044,0.741-0.682c0-0.456-0.409-0.622-0.696-0.622H2.987V86.302z M2.987,89.244h0.91
			c0.593,0,0.818-0.365,0.818-0.712c0-0.531-0.454-0.714-0.849-0.714H2.987V89.244z"/>
		<path fill="#2C3135" d="M20.602,83.376c0.198,0,0.273,0.015,0.289,0.228l0.621,7.081c0,0.121-0.06,0.181-0.197,0.181h-2.062
			c-0.166,0-0.288,0-0.288-0.227l-0.077-4.153h-0.075c-0.105,0.484-0.318,1.332-0.439,1.741l-0.424,1.471
			c-0.047,0.167-0.091,0.197-0.302,0.197h-1.289c-0.212,0-0.259-0.03-0.304-0.197L15.6,88.122c-0.137-0.456-0.273-0.88-0.424-1.637
			h-0.061l-0.06,4.153c0,0.227-0.122,0.227-0.288,0.227h-2.063c-0.122,0-0.196-0.029-0.196-0.181l0.636-7.081
			c0.017-0.213,0.091-0.228,0.289-0.228h2.259c0.138,0,0.259,0.015,0.303,0.168l0.606,2.047c0.122,0.395,0.243,0.805,0.38,1.561
			h0.06c0.105-0.575,0.227-0.955,0.363-1.439l0.637-2.168c0.046-0.151,0.167-0.167,0.304-0.167L20.602,83.376L20.602,83.376z"/>
		<path fill="#2C3135" d="M23.172,83.512c0-0.121,0.091-0.137,0.212-0.149l2.184-0.244c0.047,0,0.09,0.015,0.09,0.106v2.927
			c0,0.438-0.029,1.014-0.06,1.456h0.046c0.242-0.638,0.499-1.122,0.788-1.608l1.319-2.32c0.136-0.228,0.181-0.271,0.424-0.302
			l2.228-0.259c0.091,0,0.121,0.03,0.121,0.184v7.475c0,0.089-0.059,0.089-0.121,0.089h-2.228c-0.107,0-0.137-0.014-0.137-0.197
			v-2.636c0-0.378,0.045-1.093,0.077-1.411h-0.061c-0.151,0.394-0.364,0.881-0.864,1.789l-1.245,2.306
			c-0.045,0.075-0.091,0.149-0.242,0.149h-2.32c-0.167,0-0.212-0.014-0.212-0.211V83.512L23.172,83.512z"/>
		<path fill="#2C3135" d="M36.362,91.126c-0.457,0-0.834-0.155-1.168-0.305v2.698c0,0.198-0.031,0.228-0.166,0.244l-2.442,0.287
			c-0.121,0-0.121-0.062-0.121-0.258v-8.216c0-0.851-0.303-1.518-0.303-1.774c0-0.06,0.046-0.092,0.122-0.107l1.758-0.528
			c0.106-0.032,0.213-0.047,0.319-0.047c0.166,0,0.288,0.318,0.41,0.652c0.576-0.487,1.092-0.652,1.758-0.652
			c2.107,0,3.078,1.607,3.078,3.987C39.606,89.73,38.635,91.126,36.362,91.126z M36.104,85.029c-0.259,0-0.561,0.091-0.91,0.363
			v3.881c0.242,0.105,0.531,0.153,0.789,0.153c0.652,0,0.986-0.411,0.986-2.275C36.967,85.544,36.588,85.029,36.104,85.029z"/>
		<path fill="#2C3135" d="M47.77,87.682h-4.292c0.092,1.062,0.517,1.471,1.275,1.471c0.91,0,1.38-0.24,1.955-0.561
			c0.077-0.047,0.122-0.06,0.167-0.06c0.076,0,0.136,0.06,0.196,0.166l0.684,1.275c0.03,0.046,0.046,0.091,0.046,0.12
			c0,0.06-0.046,0.106-0.153,0.168c-1.03,0.697-2.137,0.864-2.97,0.864c-2.519,0-3.806-1.489-3.806-3.943
			c0-2.336,1.394-4.064,3.729-4.064c2.397,0,3.413,1.563,3.413,4.353C48.013,87.667,47.921,87.682,47.77,87.682z M44.51,84.785
			c-0.637,0-0.879,0.32-1.032,1.275h1.972C45.39,85.075,45.102,84.785,44.51,84.785z"/>
		<path fill="#2C3135" d="M58.758,85.65c-0.044,0.091-0.076,0.138-0.136,0.138c-0.046,0-0.106-0.03-0.181-0.076
			c-0.532-0.334-1.017-0.562-1.546-0.562c-0.593,0-1.213,0.484-1.213,2.017c0,1.471,0.607,1.927,1.229,1.927
			c0.5,0,0.91-0.229,1.304-0.456c0.104-0.06,0.181-0.092,0.241-0.092c0.076,0,0.138,0.063,0.198,0.183l0.576,1.122
			c0.031,0.061,0.061,0.123,0.061,0.18c0,0.671-2.018,1.095-2.668,1.095c-2.411,0-3.639-1.532-3.639-3.881
			c0-2.472,1.38-4.124,3.881-4.124c0.865,0,1.7,0.272,2.381,0.773c0.105,0.076,0.152,0.137,0.152,0.213
			c0,0.059-0.031,0.121-0.06,0.212L58.758,85.65z"/>
		<path fill="#2C3135" d="M60.921,90.865c-0.167,0-0.212-0.014-0.212-0.211v-7.066c0-0.165,0.016-0.213,0.212-0.213h3.472
			c1.061,0,1.698,0.016,2.198,0.288c0.439,0.244,0.864,0.714,0.864,1.594c0,0.439-0.123,1.317-1.137,1.639
			c1.137,0.27,1.364,1.182,1.364,1.727c0,0.501-0.06,1.062-0.561,1.531c-0.697,0.652-1.895,0.712-2.714,0.712H60.921z
			 M63.315,86.302h0.805c0.287,0,0.743-0.044,0.743-0.682c0-0.456-0.409-0.622-0.698-0.622h-0.851V86.302z M63.315,89.244h0.911
			c0.592,0,0.819-0.365,0.819-0.712c0-0.531-0.454-0.714-0.849-0.714h-0.88V89.244z"/>
		<path fill="#2C3135" d="M75.829,87.682h-4.291c0.091,1.062,0.516,1.471,1.274,1.471c0.91,0,1.379-0.24,1.956-0.561
			c0.076-0.047,0.121-0.06,0.166-0.06c0.077,0,0.138,0.06,0.198,0.166l0.683,1.275c0.029,0.046,0.045,0.091,0.045,0.12
			c0,0.06-0.045,0.106-0.152,0.168c-1.032,0.697-2.137,0.864-2.971,0.864c-2.517,0-3.806-1.489-3.806-3.943
			c0-2.336,1.394-4.064,3.729-4.064c2.396,0,3.412,1.563,3.412,4.353C76.071,87.667,75.98,87.682,75.829,87.682z M72.569,84.785
			c-0.637,0-0.88,0.32-1.032,1.275h1.971C73.448,85.075,73.16,84.785,72.569,84.785z"/>
		<path fill="#2C3135" d="M81.628,90.655c0,0.166-0.015,0.212-0.212,0.212h-2.304c-0.167,0-0.212-0.015-0.212-0.212v-5.277h-1.654
			c-0.167,0-0.212-0.047-0.212-0.214v-1.576c0-0.165,0.045-0.213,0.212-0.213h6.186c0.152,0,0.242,0.016,0.242,0.151l-0.229,1.638
			c0,0.048-0.045,0.214-0.228,0.214h-1.592v5.276L81.628,90.655L81.628,90.655z"/>
		<path fill="#2C3135" d="M88.178,91.126c-2.427,0-3.729-1.595-3.729-4.021c0-2.365,1.35-3.987,3.745-3.987
			c2.395,0,3.685,1.622,3.685,4.019C91.878,89.472,90.526,91.126,88.178,91.126z M88.162,84.969c-0.637,0-1.017,0.456-1.017,2.168
			c0,1.683,0.38,2.137,1.017,2.137s1.015-0.472,1.015-2.15C89.177,85.439,88.799,84.969,88.162,84.969z"/>
		<path fill="#2C3135" d="M97.45,90.655c0,0.166-0.017,0.212-0.213,0.212h-2.304c-0.167,0-0.215-0.015-0.215-0.212v-5.277h-1.649
			c-0.169,0-0.214-0.047-0.214-0.214v-1.576c0-0.165,0.045-0.213,0.214-0.213h6.185c0.152,0,0.241,0.016,0.241,0.151l-0.226,1.638
			c0,0.048-0.047,0.214-0.228,0.214H97.45V90.655L97.45,90.655z"/>
		<path fill="#2C3135" d="M107.154,87.682h-4.293c0.091,1.062,0.516,1.471,1.274,1.471c0.91,0,1.38-0.24,1.956-0.561
			c0.075-0.047,0.122-0.06,0.166-0.06c0.077,0,0.138,0.06,0.197,0.166l0.682,1.275c0.032,0.046,0.047,0.091,0.047,0.12
			c0,0.06-0.047,0.106-0.15,0.168c-1.033,0.697-2.138,0.864-2.973,0.864c-2.518,0-3.807-1.489-3.807-3.943
			c0-2.336,1.396-4.064,3.731-4.064c2.395,0,3.411,1.563,3.411,4.353C107.396,87.667,107.305,87.682,107.154,87.682z
			 M103.892,84.785c-0.636,0-0.878,0.32-1.03,1.275h1.971C104.771,85.075,104.484,84.785,103.892,84.785z"/>
		<path fill="#2C3135" d="M116.6,90.668c0,0.092-0.061,0.151-0.197,0.168l-2.44,0.259c-0.061,0-0.106,0.015-0.151,0.015
			c-0.092,0-0.137-0.029-0.183-0.137l-0.863-1.561c-0.151-0.273-0.213-0.486-0.287-0.653c-0.078,0.167-0.138,0.41-0.274,0.653
			l-0.909,1.561c-0.061,0.091-0.092,0.122-0.168,0.122c-0.045,0-0.074,0-0.149-0.016l-2.398-0.438
			c-0.137-0.031-0.212-0.092-0.212-0.168c0-0.061,0.031-0.121,0.093-0.196l2.349-3.186l-2.122-3.002
			c-0.061-0.091-0.092-0.15-0.092-0.212c0-0.075,0.061-0.122,0.213-0.151l2.396-0.424c0.061-0.018,0.123-0.018,0.15-0.018
			c0.093,0,0.124,0.047,0.185,0.139l0.684,1.317c0.075,0.168,0.179,0.456,0.24,0.591c0.076-0.165,0.168-0.41,0.289-0.591
			l0.803-1.317c0.061-0.106,0.092-0.139,0.166-0.139c0.048,0,0.108,0.018,0.183,0.03l2.367,0.487
			c0.149,0.029,0.211,0.091,0.211,0.167c0,0.058-0.029,0.12-0.09,0.194l-2.229,2.928l2.365,3.38
			C116.571,90.549,116.6,90.609,116.6,90.668z"/>
		<path fill="#2C3135" d="M122.051,83.544c0-0.123,0.092-0.138,0.152-0.138l2.502-0.258c0.061,0,0.075,0.061,0.075,0.121v7.459
			c0,0.091,0,0.137-0.105,0.137h-2.456c-0.15,0-0.166-0.06-0.166-0.197v-2.697h-1.518v2.773c0,0.107-0.029,0.121-0.105,0.121h-2.441
			c-0.151,0-0.182-0.046-0.182-0.197v-7.096c0-0.121,0.03-0.149,0.151-0.165l2.487-0.259c0.046,0,0.09,0.017,0.09,0.106v2.772h1.517
			v-2.485h-0.001V83.544z"/>
		<path fill="#2C3135" d="M126.639,83.512c0-0.121,0.091-0.137,0.213-0.149l2.184-0.244c0.045,0,0.09,0.015,0.09,0.106v2.927
			c0,0.438-0.029,1.014-0.06,1.456h0.046c0.241-0.638,0.5-1.122,0.787-1.608l1.318-2.32c0.138-0.228,0.185-0.271,0.425-0.302
			l2.229-0.259c0.092,0,0.121,0.03,0.121,0.184v7.475c0,0.089-0.06,0.089-0.121,0.089h-2.229c-0.104,0-0.136-0.014-0.136-0.197
			v-2.636c0-0.378,0.046-1.093,0.076-1.411h-0.06c-0.153,0.394-0.365,0.881-0.865,1.789l-1.241,2.306
			c-0.049,0.075-0.092,0.149-0.244,0.149h-2.319c-0.168,0-0.214-0.014-0.214-0.211V83.512L126.639,83.512z"/>
		<path fill="#2C3135" d="M138.581,90.655c0,0.212,0,0.212-0.15,0.212h-2.351c-0.153,0-0.228,0-0.228-0.197v-7.08
			c0-0.167,0.06-0.181,0.211-0.197l2.214-0.227c0.092-0.016,0.153-0.03,0.195-0.03c0.076,0,0.107,0.044,0.107,0.181v2.641h0.546
			c0.515,0,0.712-0.364,0.818-0.835l0.121-0.515c0.333-1.258,1.395-1.606,2.351-1.606c0.168,0,0.333,0.015,0.378,0.181l0.349,1.425
			c0,0.03,0.016,0.044,0.016,0.076c0,0.104-0.061,0.195-0.166,0.213l-0.273,0.044c-0.409,0.077-0.484,0.304-0.591,0.578
			l-0.182,0.544c-0.121,0.378-0.348,0.713-0.833,0.85v0.046c0.47,0.138,0.804,0.531,0.939,1.093l0.105,0.408
			c0.182,0.743,0.424,0.651,0.683,0.698l0.181,0.03c0.183,0.028,0.228,0.137,0.228,0.258c0,0.045,0,0.073-0.015,0.121l-0.302,1.334
			c-0.03,0.167-0.077,0.228-0.457,0.228c-0.636,0-2.138,0.076-2.517-1.729l-0.136-0.697c-0.106-0.484-0.303-0.743-0.791-0.743
			h-0.453v2.697H138.581z"/>
		<path fill="#2C3135" d="M144.553,83.512c0-0.121,0.091-0.137,0.214-0.149l2.185-0.244c0.045,0,0.089,0.015,0.089,0.106v2.927
			c0,0.438-0.028,1.014-0.06,1.456h0.047c0.242-0.638,0.5-1.122,0.787-1.608l1.319-2.32c0.136-0.228,0.183-0.271,0.424-0.302
			l2.229-0.259c0.091,0,0.121,0.03,0.121,0.184v7.475c0,0.089-0.061,0.089-0.121,0.089h-2.229c-0.105,0-0.135-0.014-0.135-0.197
			v-2.636c0-0.378,0.045-1.093,0.074-1.411h-0.06c-0.152,0.394-0.367,0.881-0.864,1.789l-1.245,2.306
			c-0.044,0.075-0.09,0.149-0.241,0.149h-2.32c-0.167,0-0.214-0.014-0.214-0.211V83.512L144.553,83.512z"/>
	</g>
</g>
<path fill="#2C3135" d="M151.842,46.068c0-1.23,0.278-2.233,1.027-3.121c1.31-1.55,2.912-2.076,4.305-1.94
	c0.639,0.065,1.274-0.211,1.472-0.803l1.281-3.858c0.265-0.804-0.223-1.376-0.869-1.437c-2.72-0.249-5.329,0.715-7.98,3.658
	c-0.289-1.062-0.69-2.132-1.055-2.982c-0.247-0.578-0.863-0.863-1.498-0.619l-3.339,1.281c-0.579,0.227-0.838,0.809-0.607,1.407
	c0.587,1.527,1.173,3.847,1.173,6.795v17.624c0,0.601,0.503,1.104,1.106,1.104h3.878c0.602,0,1.106-0.503,1.106-1.104V46.068
	L151.842,46.068z M121.622,57.773c-0.43,0-1.865-0.039-1.865-2.639V40.243h2.39c0.427,0,0.866-0.336,0.976-0.749l0.905-3.377
	c0.111-0.413-0.146-0.751-0.576-0.751h-3.696c0-3.287,0-5.684,0-5.839c0-0.645-0.501-0.974-1.066-0.822
	c-1.378,0.368-3.633,0.975-3.944,1.058c-0.714,0.191-1.081,0.677-1.081,1.408c0,0.117,0,1.782,0,4.194h-1.868
	c-0.427,0-0.775,0.35-0.775,0.777v3.323c0,0.426,0.349,0.775,0.775,0.775h1.868v15.777c0,4.905,3.45,7.649,7.664,7.649
	c0.976,0,1.884-0.194,2.654-0.454c0.616-0.218,1.021-0.7,0.756-1.506l-1.116-3.334c-0.205-0.613-0.743-0.889-1.346-0.72
	C122.025,57.722,121.788,57.773,121.622,57.773z M133.91,34.87c-5.593,0-8.59,3.514-8.59,9.584v9.64c0,6.071,2.998,9.585,8.59,9.585
	c5.591,0,8.586-3.514,8.586-9.585v-9.64C142.496,38.383,139.5,34.87,133.91,34.87z M136.4,55.088c0,1.794-0.789,2.939-2.49,2.939
	c-1.704,0-2.493-1.146-2.493-2.939V43.457c0-1.792,0.789-2.937,2.493-2.937c1.701,0,2.49,1.145,2.49,2.937V55.088z M63.801,62.072
	c0,0.608,0.498,1.104,1.106,1.104h3.877c0.611,0,1.108-0.499,1.108-1.104V36.476c0-0.61-0.5-1.108-1.108-1.108h-3.877
	c-0.608,0-1.106,0.499-1.106,1.108V62.072z M110.827,61.11c-0.616-1.678-1.084-3.932-1.084-7.013V43.976
	c0-4.419-1.937-6.628-3.562-7.702c-2.729-1.804-6.479-1.874-11.426-0.228c-0.619,0.207-0.936,0.843-0.77,1.475l0.945,3.532
	c0.171,0.634,0.811,0.86,1.345,0.677c3.585-1.245,5.402-1.504,6.667-0.668c0.884,0.583,0.928,1.795,0.928,3.578v1.449
	c0,0-1.948-0.985-3.816-0.985c-4.475,0-7.144,2.828-7.178,7.853v1.358c0,6.616,2.915,9.363,6.739,9.363c2,0,4.117-1.354,5.197-2.706
	c0,0,0.415,1.198,0.85,2.015c0.331,0.626,0.922,0.831,1.595,0.595l2.943-1.054C110.8,62.319,111.046,61.703,110.827,61.11z
	 M103.869,56.83c0,0-0.895,1.494-2.559,1.494c-1.645,0-2.563-0.937-2.563-2.937v-3.083c0-1.449,1.006-2.504,2.563-2.504
	c1.436,0,2.559,0.832,2.559,0.832V56.83z M42.229,61.11c-0.618-1.678-1.086-3.932-1.086-7.013l0.002-10.122
	c0-4.419-1.938-6.628-3.562-7.702c-2.729-1.804-6.479-1.874-11.422-0.228c-0.624,0.207-0.94,0.843-0.773,1.475l0.946,3.532
	c0.17,0.634,0.811,0.86,1.345,0.677c3.583-1.245,5.402-1.504,6.666-0.668c0.883,0.583,0.929,1.795,0.929,3.578l-0.002,1.449
	c0,0-1.949-0.985-3.817-0.985c-4.474,0-7.145,2.828-7.176,7.853v1.358c0,6.616,2.916,9.363,6.74,9.363
	c1.999,0,4.117-1.354,5.196-2.706c0,0,0.415,1.198,0.851,2.015c0.33,0.626,0.924,0.831,1.594,0.595l2.945-1.054
	C42.197,62.319,42.448,61.703,42.229,61.11z M35.271,56.83c0,0-0.895,1.494-2.562,1.494c-1.643,0-2.559-0.937-2.559-2.937v-3.083
	c0-1.449,1.005-2.504,2.559-2.504c1.437,0,2.562,0.832,2.562,0.832V56.83z M90.456,36.019l-3.01-1.054
	c-0.673-0.236-1.266-0.031-1.596,0.595c-0.215,0.403-0.487,1.003-0.69,1.495c-1.031-1.138-2.452-2.186-4.382-2.186
	c-3.821,0-7.514,2.45-7.514,9.363v9.506c0,6.913,3.268,9.197,7.093,9.197c1.365,0,2.788-0.563,3.878-1.339
	c0,0,0.11,0.648,0.11,1.361c0,1.744-0.327,2.754-1.301,3.434c-1.132,0.789-3.176,0.824-6.856-0.344
	c-0.625-0.199-1.203,0.086-1.405,0.71l-1.127,3.464c-0.195,0.604,0.107,1.221,0.716,1.401c2.465,0.749,4.611,1.066,6.582,1.066
	c2.34,0,4.073-0.544,5.634-1.633c1.654-1.154,3.63-3.497,3.63-8.098c0,0-0.223-5.469-0.223-10.018v-8.49
	c0-3.08,0.468-5.334,1.087-7.011C91.301,36.841,91.053,36.226,90.456,36.019z M84.126,56.324c0,0-0.794,1.315-2.495,1.315
	c-1.702,0-2.494-1.401-2.494-3.048v-3.959V43.38c0-1.939,0.96-3.046,2.604-3.046c1.482,0,2.384,1.163,2.384,1.163V56.324
	L84.126,56.324z M6.094,42.982c0-1.875-0.112-3.515-0.112-3.515h0.201c0,0,0.279,2.028,1.251,4.326l7.76,18.362
	c0.237,0.566,0.912,1.021,1.533,1.021h3.434c0.61,0,1.107-0.497,1.107-1.104V26.948c0-0.609-0.497-1.106-1.107-1.106h-3.878
	c-0.609,0-1.107,0.498-1.107,1.106v16.799c0,2.123,0.111,4.252,0.111,4.252h-0.2c0,0-0.777-3.188-1.433-4.763
	c-0.207-0.497-6.911-16.372-6.911-16.372c-0.235-0.562-0.926-1.021-1.535-1.021H1.107C0.498,25.843,0,26.339,0,26.948v35.125
	c0,0.608,0.498,1.104,1.107,1.104h3.877c0.61,0,1.109-0.499,1.109-1.104L6.094,42.982L6.094,42.982z"/>
<path fill="#FA0A19" d="M60.985,35.609c-1.332-0.314-2.69-0.557-4.075-0.726c-0.718-0.087-1.174,0.257-1.324,0.979l-2.563,12.286
	c-0.37,1.768-0.513,3.944-0.642,5.935h-0.203c-0.128-1.991-0.273-4.167-0.641-5.935l-2.567-12.297
	c-0.139-0.666-0.667-1.047-1.333-0.966c-1.381,0.168-2.739,0.411-4.071,0.724c-0.649,0.155-0.961,0.742-0.805,1.326l6.809,25.409
	c0.182,0.677,0.728,1.074,1.398,1.074h2.621c0.678,0,1.219-0.406,1.4-1.074c0.132-0.495,6.801-25.386,6.801-25.386
	C61.972,36.277,61.632,35.76,60.985,35.609z M34.375,5.634l6.818,25.446c0.163,0.608,0.718,0.957,1.371,0.8
	c3.117-0.746,6.369-1.144,9.715-1.144c3.314,0,6.57,0.386,9.717,1.134c0.647,0.157,1.203-0.157,1.375-0.807L70.186,5.63
	L34.375,5.634z"/>
</svg>
