<?xml version="1.0" encoding="utf-8"?>
<!-- Generator: Adobe Illustrator 15.0.2, SVG Export Plug-In . SVG Version: 6.00 Build 0)  -->
<!DOCTYPE svg PUBLIC "-//W3C//DTD SVG 1.1//EN" "http://www.w3.org/Graphics/SVG/1.1/DTD/svg11.dtd">
<svg version="1.1" id="Слой_1" xmlns="http://www.w3.org/2000/svg" xmlns:xlink="http://www.w3.org/1999/xlink" x="0px" y="0px"
	 width="160px" height="100px" viewBox="0 0 160 100" enable-background="new 0 0 160 100" xml:space="preserve">
<path d="M0.112,60.663v-3.45h8.331V34.792h3.399v25.872L0.112,60.663L0.112,60.663z M0,68.572v-3.451h23.354V44.843h3.398l0,23.729
	H0L0,68.572z M0,76.038v-3.456h37.604V54.87h3.4v21.168H0L0,76.038z"/>
<path fill="none" d="M0.112,57.211h8.333V34.793h3.397v25.872H0.112V57.211z M0,65.119h23.354V44.846h3.398v23.728H0V65.119z
	 M0,72.584h37.604V54.872h3.399v21.166H0V72.584z"/>
<path fill="#E53517" d="M0.165,30.138H49.94v4.79H0.165V30.138z M0.165,40.388H49.94v4.792H0.165V40.388z M0.165,50.414H49.94v4.792
	H0.165V50.414z"/>
<path fill="none" stroke="#000000" stroke-width="0.279" stroke-miterlimit="3.864" d="M0.167,30.138h49.775v4.792H0.167V30.138z
	 M0.167,40.388h49.775v4.792H0.167V40.388z M0.167,50.414h49.775v4.792H0.167V50.414z"/>
<polygon points="65.404,60.691 65.404,47.557 62.893,47.557 62.893,60.691 54.911,60.691 54.911,29.793 62.893,29.793 
	62.893,41.394 65.404,41.394 65.404,29.793 73.386,29.793 73.386,60.691 "/>
<polygon points="87.935,60.691 87.935,46.333 83.599,60.691 76.774,60.691 76.774,29.793 83.325,29.793 83.325,44.368 
	87.599,29.793 94.492,29.793 94.492,60.691 "/>
<path d="M96.515,55.911h0.805c0.574,0,2.119-0.267,2.119-1.543V29.794h18.008v30.899h-8.053V35.96h-2.59v19.217
	c0,2.16-0.286,5.515-5.976,5.515h-4.311V55.91L96.515,55.911L96.515,55.911z"/>
<polygon points="120.484,29.792 134.132,29.792 134.132,35.271 127.881,35.271 127.881,42.084 133.449,42.084 133.449,47.555 
	127.881,47.555 127.881,54.531 134.45,54.531 134.45,60.691 120.484,60.691 "/>
<path d="M157.841,29.792h-17.254c0,0-1.435,19.925-1.636,20.956c-0.204,1.035-0.377,3.783-2.384,3.783h-0.373V66.26h5.298v-5.568
	h12.531v5.568H160V54.531h-2.16L157.841,29.792L157.841,29.792z M147.415,35.808h3.03v18.663h-4.749
	C147.314,49.528,147.415,35.808,147.415,35.808"/>
</svg>
