<?xml version="1.0" encoding="utf-8"?>
<!-- Generator: Adobe Illustrator 15.0.2, SVG Export Plug-In . SVG Version: 6.00 Build 0)  -->
<!DOCTYPE svg PUBLIC "-//W3C//DTD SVG 1.1//EN" "http://www.w3.org/Graphics/SVG/1.1/DTD/svg11.dtd">
<svg version="1.1" id="Слой_1" xmlns="http://www.w3.org/2000/svg" xmlns:xlink="http://www.w3.org/1999/xlink" x="0px" y="0px"
	 width="160px" height="100px" viewBox="0 0 160 100" enable-background="new 0 0 160 100" xml:space="preserve">
<g id="g2853">
	<path id="path2859" fill="#0B5ED7" d="M54.277,36.588h-8.596v11.193h-8.948V36.588h-8.596v28.161h8.596V53.672h8.948v11.077h8.596
		V36.588z M84.18,59.091V36.588h-8.597v28.161h15.543l1.292-5.659L84.18,59.091L84.18,59.091z M69.229,36.588h-8.596v28.161h8.596
		V36.588z M104.077,36.588h-8.592v28.161h8.592V36.588z M146.458,43.775c0-1.532,1.532-2.241,4.002-2.241
		c2.709,0,5.654,0.592,7.655,1.421l-0.704-6.131c-2.241-0.472-4.242-0.824-7.888-0.824c-6.947,0-11.657,2.741-11.657,8.484
		c0,9.897,13.426,7.896,13.426,12.491c0,1.764-1.301,2.705-4.478,2.705c-2.822,0-7.184-0.941-9.773-2.238l0.944,6.484
		c2.589,0.943,6.119,1.412,8.948,1.412c7.179,0,13.066-2.357,13.066-9.428C160,46.489,146.458,48.254,146.458,43.775
		 M122.209,58.035c8,0,13.067-4.127,13.067-11.314c0-7.892-5.415-10.721-14.247-10.721c-3.413,0-7.535,0.236-10.477,0.588v28.161
		h8.596v-6.714H122.209L122.209,58.035z M126.8,46.841c0,3.65-1.766,6.128-6.243,6.128h-1.408V41.331
		c0.5-0.028,0.968-0.028,1.408-0.028C124.794,41.302,126.8,43.303,126.8,46.841 M11.657,58.035c8.004,0,13.066-4.127,13.066-11.314
		C24.724,38.829,19.309,36,10.481,36C7.063,36,2.945,36.236,0,36.588v28.161h8.596v-6.714H11.657z M16.251,46.841
		c0,3.65-1.769,6.128-6.243,6.128H8.596V41.331c0.5-0.028,0.973-0.028,1.413-0.028C14.247,41.302,16.251,43.303,16.251,46.841"/>
</g>
</svg>
