<?xml version="1.0" encoding="utf-8"?>
<!-- Generator: Adobe Illustrator 15.0.2, SVG Export Plug-In . SVG Version: 6.00 Build 0)  -->
<!DOCTYPE svg PUBLIC "-//W3C//DTD SVG 1.1//EN" "http://www.w3.org/Graphics/SVG/1.1/DTD/svg11.dtd">
<svg version="1.1" id="Слой_1" xmlns="http://www.w3.org/2000/svg" xmlns:xlink="http://www.w3.org/1999/xlink" x="0px" y="0px"
	 width="160px" height="100px" viewBox="0 0 160 100" enable-background="new 0 0 160 100" xml:space="preserve">
<path fill="#EF7C00" d="M2.721,65.303h28.848V38.087H2.721V65.303z M25.598,48.697c0-1.927-1.301-3.266-3.139-3.266h-2.79v6.532
	h2.898C24.474,51.963,25.598,50.604,25.598,48.697 M22.808,42.462c3.343,0,5.768,2.051,5.768,6.235c0,4.206-2.848,6.235-5.768,6.235
	h-3.139v5.996h-2.97V45.431H9.277v15.498H6.309V42.462H22.808z M0,35.366h34.291v32.659H0V35.366z"/>
<path fill="#181716" d="M156.691,66.966v-3.856v-0.023h0.023h0.474h0.023v0.023v2.826l-0.008,0.361l0.235-0.381h0.002l1.992-2.818
	l0.007-0.01h0.012h0.526h0.021v0.021v3.857v0.022h-0.021h-0.474h-0.022v-0.023v-2.827l0.006-0.361l-0.236,0.373l-0.001,0.002
	l-1.99,2.826l-0.009,0.01h-0.01h-0.527h-0.023V66.966L156.691,66.966z M153.128,66.966v-3.856v-0.023h0.023h0.474h0.023v0.023v1.668
	l1.75-1.686l0.007-0.006h0.009h0.608h0.057l-0.042,0.04l-1.876,1.78l2.079,2.043l0.041,0.039h-0.055h-0.67h-0.011l-0.006-0.008
	l-1.891-1.892v1.877v0.022h-0.023h-0.473h-0.023L153.128,66.966L153.128,66.966z M148.664,66.966v-3.856v-0.023h0.022h0.473h0.023
	v0.023v2.826l-0.006,0.361l0.233-0.381h0.002l1.991-2.818l0.007-0.01h0.013h0.525h0.023v0.021v3.857v0.022h-0.023h-0.472h-0.024
	v-0.023v-2.827l0.007-0.361l-0.235,0.373l-0.001,0.002l-1.991,2.826l-0.009,0.01h-0.01h-0.526h-0.022V66.966L148.664,66.966z
	 M145.402,63.923c-0.179,0.244-0.305,0.603-0.305,1.11c0,0.514,0.124,0.875,0.303,1.119c0.243,0.332,0.583,0.451,0.836,0.451
	c0.255,0,0.596-0.119,0.839-0.451c0.178-0.244,0.305-0.605,0.305-1.119c0-0.508-0.127-0.866-0.305-1.11
	c-0.243-0.33-0.583-0.452-0.839-0.452C145.983,63.471,145.643,63.593,145.402,63.923 M145.095,66.644v1.968v0.022h-0.023h-0.474
	h-0.023v-0.022v-4.757l-0.029-0.745l-0.001-0.023h0.024h0.451h0.023v0.023v0.731c0.08-0.196,0.217-0.427,0.447-0.591
	c0.184-0.133,0.427-0.223,0.748-0.223c0.535,0,0.954,0.189,1.238,0.531c0.293,0.349,0.447,0.854,0.447,1.475
	c0,0.659-0.174,1.139-0.445,1.463c-0.319,0.382-0.772,0.552-1.24,0.552c-0.254,0-0.482-0.072-0.677-0.198
	c-0.196-0.127-0.358-0.31-0.478-0.521L145.095,66.644L145.095,66.644L145.095,66.644z M140.989,63.508v-0.398v-0.023h0.024h2.879
	h0.021v0.023v0.398v0.023h-0.021h-1.18v3.434v0.023h-0.024h-0.473h-0.023v-0.022v-3.435h-1.18h-0.024L140.989,63.508L140.989,63.508
	z M137.803,66.966v-3.856v-0.023h0.023h0.474h0.022v0.023v1.668l1.749-1.686l0.008-0.006h0.01h0.609h0.056l-0.041,0.04l-1.877,1.78
	l2.08,2.043l0.04,0.039h-0.054h-0.669h-0.011l-0.007-0.008l-1.893-1.892v1.877v0.022h-0.021h-0.474h-0.023L137.803,66.966
	L137.803,66.966z M134.571,63.824c-0.218,0.248-0.332,0.596-0.344,0.931h2.177l0.001-0.026c0-0.172-0.022-0.482-0.159-0.752
	c-0.134-0.267-0.38-0.494-0.829-0.505h-0.035C135.033,63.471,134.762,63.612,134.571,63.824 M136.947,65.025v0.152v0.021h-0.023
	h-2.696v0.004c0,0.236,0.049,0.584,0.228,0.873c0.176,0.287,0.482,0.52,0.998,0.527h0.03c0.194,0,0.384-0.012,0.574-0.05
	c0.188-0.036,0.377-0.099,0.565-0.194l0.034-0.018v0.037v0.436v0.016l-0.015,0.007c-0.196,0.083-0.393,0.137-0.584,0.169
	c-0.192,0.031-0.386,0.043-0.582,0.043c-0.561,0-1.012-0.189-1.32-0.548c-0.303-0.352-0.47-0.866-0.47-1.527
	c0-0.601,0.171-1.079,0.46-1.411c0.301-0.348,0.733-0.535,1.238-0.535c0.729,0,1.12,0.332,1.329,0.75
	C136.92,64.191,136.947,64.69,136.947,65.025 M130.391,64.17v-1.061v-0.023h0.023h2.54h0.022v0.023v3.856v0.022h-0.022h-0.472
	h-0.023v-0.022v-3.435h-1.547v0.691l0.001,0.357c0.007,1.324,0.014,2.469-0.935,2.469c-0.07,0-0.145-0.002-0.219-0.008
	c-0.074-0.008-0.147-0.019-0.215-0.039l-0.017-0.004V66.98v-0.383v-0.031l0.03,0.008c0.024,0.009,0.052,0.016,0.082,0.021l0,0
	c0.025,0.004,0.052,0.008,0.078,0.008c0.612,0,0.682-0.646,0.682-1.56c0-0.132-0.002-0.268-0.003-0.409
	C130.393,64.484,130.391,64.328,130.391,64.17 M122.076,65.049h-0.938v1.496h0.938c0.104,0,0.333-0.004,0.535-0.099
	c0.2-0.095,0.375-0.281,0.375-0.653c0-0.365-0.173-0.55-0.371-0.645C122.412,65.053,122.184,65.049,122.076,65.049 M120.618,66.965
	v-3.855v-0.023h0.022h0.474h0.023v0.023v1.496h0.975c0.143,0,0.493,0.006,0.81,0.155c0.319,0.151,0.604,0.45,0.604,1.032
	c0,0.586-0.286,0.887-0.606,1.038c-0.317,0.149-0.669,0.155-0.808,0.155h-1.473h-0.023v-0.021H120.618z M116.875,64.17v-1.061
	v-0.023h0.021h2.542h0.022v0.023v3.855v0.021h-0.022h-0.474h-0.023v-0.021v-3.434h-1.546v0.689l0,0.359
	c0.007,1.322,0.015,2.467-0.934,2.467c-0.072,0-0.144-0.002-0.217-0.008h-0.001c-0.075-0.007-0.147-0.018-0.215-0.037l-0.016-0.006
	v-0.018v-0.381v-0.032l0.03,0.008c0.024,0.009,0.051,0.017,0.079,0.021v0.001c0.027,0.005,0.054,0.009,0.079,0.009
	c0.613,0,0.683-0.646,0.683-1.56c0-0.132-0.001-0.269-0.003-0.409C116.878,64.484,116.875,64.328,116.875,64.17 M113.329,63.824
	c-0.219,0.248-0.333,0.596-0.345,0.93h2.177l0-0.023c0-0.172-0.023-0.484-0.157-0.754c-0.133-0.267-0.381-0.495-0.832-0.505
	l-0.034-0.001C113.787,63.471,113.519,63.611,113.329,63.824 M115.704,65.025v0.152v0.021h-0.022h-2.7v0.004
	c0,0.236,0.05,0.584,0.228,0.873c0.176,0.287,0.486,0.52,1.001,0.528h0.029c0.193,0,0.383-0.013,0.573-0.05
	c0.189-0.037,0.377-0.1,0.563-0.195l0.035-0.018v0.037v0.436v0.017l-0.015,0.007c-0.197,0.083-0.392,0.137-0.584,0.168
	c-0.192,0.032-0.386,0.043-0.583,0.043c-0.56,0-1.011-0.189-1.32-0.548c-0.302-0.351-0.469-0.865-0.469-1.526
	c0-0.6,0.171-1.079,0.461-1.412H112.9c0.302-0.348,0.735-0.535,1.24-0.535c0.727,0,1.12,0.332,1.327,0.752
	C115.676,64.191,115.704,64.69,115.704,65.025 M109.335,63.508v-0.398v-0.023h0.024h2.88h0.021v0.023v0.398v0.023h-0.021h-1.18
	v3.434v0.021h-0.023h-0.474h-0.022v-0.021v-3.434h-1.181h-0.023V63.508L109.335,63.508z M105.399,66.965v-3.855v-0.023h0.023h0.474
	h0.022v0.023v2.826l-0.007,0.359l0.235-0.379h0l1.992-2.818l0.007-0.01h0.013h0.526h0.023v0.021v3.856v0.021h-0.023h-0.473h-0.023
	v-0.021v-2.827l0.007-0.361l-0.236,0.373l0,0.002l-1.993,2.826l-0.006,0.008h-0.011h-0.526h-0.023V66.965L105.399,66.965z
	 M102.017,65.635c-0.07,0.296-0.188,0.576-0.378,0.91h2.05v-3.014h-1.579v1.059C102.109,65.005,102.087,65.328,102.017,65.635
	 M101.589,64.582v-1.473v-0.023h0.021h2.572h0.021v0.023v3.436h0.542h0.023v0.021v1.435v0.024h-0.023h-0.473h-0.023v-0.024v-1.015
	h-3.118v1.015v0.024h-0.022h-0.473h-0.023v-0.024v-1.435v-0.021h0.023h0.408c0.219-0.326,0.356-0.623,0.436-0.932
	C101.563,65.301,101.589,64.971,101.589,64.582 M97.88,63.893c-0.249,0.308-0.362,0.741-0.362,1.148
	c0,0.402,0.112,0.836,0.363,1.143c0.203,0.252,0.5,0.42,0.9,0.42c0.398,0,0.695-0.168,0.9-0.42c0.248-0.307,0.361-0.74,0.361-1.143
	c0-0.407-0.112-0.841-0.361-1.148c-0.205-0.253-0.5-0.422-0.9-0.422C98.38,63.471,98.082,63.64,97.88,63.893 M97.47,66.494
	c-0.314-0.35-0.496-0.852-0.496-1.453c0-0.607,0.18-1.11,0.495-1.462c0.314-0.353,0.767-0.552,1.311-0.552
	c0.543,0,0.996,0.199,1.311,0.552c0.313,0.352,0.493,0.854,0.493,1.462c0,0.602-0.181,1.104-0.496,1.453
	c-0.315,0.354-0.767,0.553-1.308,0.553C98.24,67.047,97.786,66.848,97.47,66.494 M95.058,65.185h-0.997v1.36h1.074
	c0.268,0,0.462-0.07,0.594-0.176c0.155-0.124,0.224-0.301,0.224-0.479c0-0.198-0.07-0.388-0.236-0.521
	C95.575,65.256,95.361,65.185,95.058,65.185 M95.058,63.531h-0.997v1.208h0.997c0.038,0,0.223,0,0.397-0.071
	c0.171-0.071,0.333-0.215,0.333-0.498c0-0.148-0.043-0.339-0.196-0.474C95.48,63.6,95.312,63.531,95.058,63.531 M93.542,66.965
	v-3.855v-0.023h0.022h1.526c0.39,0,0.685,0.105,0.885,0.277c0.224,0.191,0.332,0.467,0.332,0.77c0,0.194-0.049,0.357-0.143,0.492
	c-0.086,0.121-0.21,0.221-0.365,0.299c0.201,0.052,0.369,0.172,0.491,0.331c0.131,0.174,0.206,0.396,0.206,0.636
	c0,0.545-0.29,0.82-0.601,0.958c-0.308,0.137-0.638,0.138-0.721,0.138h-1.609h-0.021v-0.021H93.542z M91.092,65.185h-0.376h-0.023
	v-0.022v-0.4v-0.022h0.023h0.376c0.442,0,0.665-0.126,0.774-0.269c0.11-0.143,0.112-0.305,0.112-0.377
	c0-0.205-0.083-0.356-0.228-0.459c-0.157-0.11-0.39-0.164-0.667-0.164c-0.181,0-0.346,0.023-0.5,0.061
	c-0.153,0.038-0.296,0.092-0.429,0.155l-0.032,0.015v-0.035l-0.018-0.412v-0.018l0.016-0.006c0.172-0.068,0.34-0.121,0.504-0.152
	c0.175-0.036,0.343-0.051,0.503-0.051c0.445,0,0.773,0.106,0.995,0.277c0.257,0.198,0.375,0.48,0.375,0.781
	c0,0.213-0.059,0.391-0.155,0.529c-0.098,0.143-0.24,0.246-0.397,0.307c0.176,0.045,0.389,0.139,0.541,0.328
	c0.117,0.148,0.198,0.354,0.198,0.64c0,0.329-0.136,0.636-0.427,0.853c-0.254,0.188-0.626,0.305-1.128,0.305
	c-0.156,0-0.356-0.016-0.584-0.066c-0.179-0.039-0.378-0.1-0.584-0.19l-0.017-0.006l0.002-0.018l0.053-0.437l0.005-0.035l0.03,0.018
	c0.172,0.096,0.347,0.17,0.528,0.219c0.18,0.048,0.371,0.072,0.572,0.072c0.262,0,0.545-0.063,0.743-0.203
	c0.159-0.114,0.266-0.279,0.266-0.512c0-0.302-0.12-0.477-0.308-0.577C91.644,65.211,91.378,65.185,91.092,65.185 M85.86,66.965
	v-3.855v-0.023h0.023h0.475h0.021v0.023v2.826l-0.007,0.359l0.235-0.379l0,0l1.991-2.818l0.007-0.01h0.013h0.526h0.023v0.021v3.856
	v0.021h-0.023h-0.474h-0.023v-0.021v-2.827l0.008-0.361l-0.238,0.373v0.002l-1.989,2.826l-0.01,0.008h-0.01h-0.526h-0.022
	L85.86,66.965L85.86,66.965z M82.564,63.893c-0.249,0.308-0.363,0.741-0.363,1.148c0,0.402,0.113,0.836,0.363,1.143
	c0.205,0.252,0.501,0.42,0.9,0.42c0.399,0,0.695-0.168,0.899-0.42c0.248-0.307,0.363-0.74,0.363-1.143
	c0-0.407-0.114-0.841-0.362-1.148c-0.206-0.253-0.5-0.422-0.9-0.422C83.065,63.471,82.767,63.64,82.564,63.893 M82.155,66.494
	c-0.314-0.35-0.494-0.852-0.494-1.453c0-0.607,0.179-1.11,0.493-1.462c0.314-0.353,0.766-0.552,1.311-0.552
	c0.543,0,0.996,0.199,1.311,0.552c0.314,0.352,0.494,0.854,0.494,1.462c0,0.602-0.182,1.104-0.496,1.453
	c-0.315,0.354-0.768,0.553-1.309,0.553C82.923,67.047,82.47,66.848,82.155,66.494 M78.509,63.923
	c-0.179,0.243-0.306,0.603-0.306,1.11c0,0.514,0.127,0.875,0.304,1.119c0.242,0.332,0.584,0.451,0.838,0.451
	c0.254,0,0.594-0.119,0.836-0.451c0.179-0.244,0.306-0.605,0.306-1.119c0-0.507-0.128-0.867-0.306-1.11
	c-0.242-0.33-0.582-0.452-0.836-0.452C79.092,63.471,78.752,63.593,78.509,63.923 M78.204,66.643v1.968v0.022H78.18h-0.472h-0.022
	V68.61v-4.756l-0.03-0.745l-0.001-0.023h0.024h0.45h0.023v0.023v0.731c0.079-0.196,0.216-0.427,0.447-0.591
	c0.183-0.133,0.427-0.223,0.748-0.223c0.534,0,0.953,0.189,1.239,0.531c0.292,0.348,0.445,0.854,0.445,1.475
	c0,0.658-0.175,1.137-0.444,1.461c-0.317,0.382-0.771,0.553-1.239,0.553c-0.255,0-0.483-0.072-0.678-0.197
	c-0.193-0.127-0.357-0.31-0.477-0.523L78.204,66.643L78.204,66.643z M73.49,66.965v-3.855v-0.023h0.023h2.961h0.023v0.023v3.855
	v0.021h-0.023h-0.472h-0.023v-0.021v-3.434h-1.968v3.434v0.021h-0.023h-0.473h-0.023L73.49,66.965L73.49,66.965z M67.446,62.09
	c-0.193-0.103-0.365-0.253-0.505-0.439l-0.011-0.015l0.011-0.015l0.228-0.263l0.016-0.021l0.019,0.021
	c0.158,0.191,0.323,0.297,0.471,0.354c0.147,0.055,0.282,0.065,0.382,0.065s0.235-0.01,0.383-0.065
	c0.147-0.058,0.312-0.163,0.47-0.354l0.017-0.021l0.019,0.021l0.226,0.263l0.011,0.015l-0.009,0.015
	c-0.14,0.187-0.313,0.336-0.506,0.439c-0.188,0.101-0.396,0.156-0.61,0.156S67.634,62.19,67.446,62.09 M66.402,66.965v-3.855v-0.023
	h0.023h0.473h0.024v0.023v2.826l-0.007,0.359l0.234-0.379h0l1.992-2.818l0.007-0.01h0.013h0.525h0.022v0.021v3.856v0.021h-0.022
	h-0.473h-0.023v-0.021v-2.827l0.008-0.361l-0.237,0.373l-0.001,0.002l-1.992,2.826l-0.007,0.008h-0.011h-0.526h-0.023V66.965
	L66.402,66.965L66.402,66.965z M61.939,66.965v-3.855v-0.023h0.023h0.474h0.022v0.023v2.826l-0.007,0.359l0.236-0.379h0l1.99-2.818
	l0.007-0.01h0.014h0.526h0.022v0.021v3.856v0.021h-0.022H64.75h-0.023v-0.021v-2.827l0.007-0.361l-0.236,0.373v0.002l-1.99,2.826
	L62.5,66.986h-0.013h-0.525h-0.023V66.965z M58.376,66.965v-3.855v-0.023H58.4h0.473h0.023v0.023v1.666l1.75-1.684l0.006-0.006h0.01
	h0.608h0.058l-0.042,0.04l-1.877,1.779l2.08,2.043l0.04,0.038h-0.055h-0.669h-0.009l-0.007-0.006l-1.892-1.892v1.876v0.021h-0.022
	h-0.474h-0.023v-0.021H58.376z M57.145,63.053c0.158,0.02,0.348,0.057,0.557,0.125l0.017,0.006l-0.002,0.018l-0.021,0.421
	l-0.005,0.032l-0.029-0.012c-0.152-0.066-0.304-0.111-0.454-0.139c-0.149-0.029-0.294-0.04-0.431-0.04
	c-0.436,0-0.791,0.157-1.037,0.429c-0.252,0.278-0.391,0.676-0.391,1.148c0,0.514,0.151,0.891,0.391,1.145
	c0.276,0.291,0.67,0.426,1.089,0.426c0.107,0,0.236-0.008,0.378-0.031c0.144-0.023,0.301-0.065,0.462-0.132l0.028-0.012l0.003,0.031
	l0.046,0.405l0.001,0.018l-0.016,0.007c-0.158,0.06-0.307,0.1-0.453,0.12c-0.146,0.023-0.291,0.031-0.45,0.031
	c-0.624,0-1.125-0.199-1.471-0.544c-0.357-0.354-0.55-0.862-0.55-1.464c0-0.547,0.18-1.086,0.551-1.467
	c0.323-0.332,0.791-0.547,1.41-0.547C56.856,63.027,56.985,63.03,57.145,63.053 M53.838,63.053c0.158,0.02,0.348,0.057,0.556,0.125
	l0.018,0.006l-0.001,0.018l-0.023,0.421l-0.002,0.032l-0.03-0.012c-0.151-0.066-0.304-0.111-0.453-0.139
	c-0.149-0.029-0.295-0.04-0.432-0.04c-0.436,0-0.789,0.157-1.035,0.429c-0.252,0.278-0.392,0.676-0.392,1.148
	c0,0.514,0.152,0.891,0.392,1.145c0.276,0.291,0.668,0.426,1.088,0.426c0.107,0,0.237-0.008,0.377-0.031
	c0.143-0.023,0.3-0.065,0.463-0.132l0.027-0.012l0.003,0.031l0.045,0.405l0.002,0.018l-0.016,0.007
	c-0.159,0.06-0.307,0.1-0.452,0.12c-0.146,0.023-0.292,0.031-0.45,0.031c-0.625,0-1.125-0.199-1.471-0.544
	c-0.357-0.354-0.551-0.862-0.551-1.464c0-0.547,0.181-1.086,0.552-1.467c0.324-0.332,0.792-0.547,1.409-0.547
	C53.55,63.027,53.679,63.03,53.838,63.053 M48.49,68.618c-0.08-0.009-0.161-0.024-0.235-0.046l-0.018-0.006l0.002-0.019l0.044-0.421
	l0.004-0.029l0.027,0.012c0.062,0.02,0.13,0.033,0.195,0.041c0.066,0.006,0.131,0.009,0.188,0.009c0.147,0,0.251-0.052,0.332-0.147
	c0.083-0.097,0.145-0.242,0.204-0.424l0.163-0.496l-1.388-3.975l-0.011-0.031h0.033h0.503h0.016l0.006,0.016l1.014,2.939
	l0.102,0.327l0.103-0.319l0.977-2.947l0.005-0.016h0.016h0.49h0.032l-0.01,0.031l-1.646,4.727c-0.079,0.229-0.175,0.425-0.311,0.565
	c-0.138,0.142-0.316,0.224-0.561,0.224C48.677,68.633,48.584,68.63,48.49,68.618 M45.828,62.154h-0.751v2.135h0.751
	c0.14,0,0.422-0.014,0.666-0.152c0.244-0.141,0.454-0.406,0.454-0.914c0-0.53-0.247-0.799-0.509-0.93
	C46.175,62.158,45.895,62.154,45.828,62.154 M44.534,66.965v-5.26v-0.023h0.023h1.367c0.49,0,0.887,0.152,1.164,0.42
	c0.282,0.27,0.438,0.659,0.438,1.121c0,0.463-0.155,0.854-0.437,1.123c-0.274,0.266-0.672,0.418-1.165,0.418h-0.849v2.201v0.021
	h-0.023h-0.496h-0.023V66.965L44.534,66.965z M128.791,65.191h-1.804h-0.022v-0.023v-0.396v-0.023h0.022h1.803
	c-0.021-0.354-0.157-0.691-0.415-0.93c-0.229-0.212-0.557-0.348-0.991-0.348c-0.133,0-0.291,0.015-0.461,0.056
	c-0.144,0.034-0.301,0.085-0.461,0.16l-0.031,0.015l-0.001-0.035l-0.021-0.42l-0.001-0.016l0.014-0.008
	c0.153-0.067,0.3-0.117,0.457-0.148c0.158-0.033,0.321-0.047,0.508-0.047c0.643,0,1.108,0.201,1.423,0.525
	c0.361,0.371,0.524,0.901,0.524,1.473c0,0.643-0.205,1.135-0.539,1.471c-0.366,0.368-0.889,0.552-1.476,0.552
	c-0.174,0-0.333-0.021-0.483-0.053c-0.149-0.034-0.287-0.081-0.418-0.13l-0.016-0.006v-0.016l0.016-0.421l0.001-0.034l0.031,0.014
	c0.144,0.068,0.289,0.117,0.438,0.15s0.307,0.051,0.478,0.051c0.447,0,0.782-0.154,1.016-0.388
	C128.649,65.946,128.782,65.565,128.791,65.191"/>
<path fill="#181716" d="M123.087,50.815h2.084c0.934,0,1.845,0.335,1.845,1.417c0,0.951-0.85,1.299-1.673,1.299h-2.257
	L123.087,50.815L123.087,50.815z M123.087,47.051h2.084c0.821,0,1.469,0.368,1.469,1.265c0,0.843-0.75,1.11-1.469,1.11h-2.084
	V47.051z M121.524,45.661v9.261h3.904c1.715,0,3.201-0.801,3.201-2.689c0-0.842-0.399-1.674-1.125-2.125l-0.19-0.117l0.171-0.145
	c0.495-0.42,0.718-0.968,0.718-1.616c0-1.735-1.354-2.569-2.964-2.569H121.524L121.524,45.661z M118,50.473v0.392
	c0,1.595-0.793,2.804-2.495,2.804c-0.819,0-1.487-0.555-1.487-1.4c0-1.674,2.013-1.795,3.25-1.795H118z M118.172,54.922h1.448
	l-0.057-2.169v-3.719c0.002-2.229-1.042-3.509-3.338-3.509c-0.947,0-1.851,0.187-2.716,0.567l-0.145,0.064v1.593l0.359-0.198
	c0.76-0.417,1.633-0.636,2.502-0.636c1.326,0,1.756,0.787,1.775,2.002l0.003,0.165h-0.325c-2.252,0-5.271,0.34-5.271,3.252
	c0,1.8,1.445,2.724,3.115,2.724c0.887,0,1.72-0.238,2.376-0.846l0.274-0.252L118.172,54.922L118.172,54.922z M106.115,45.661h-1.563
	v9.261h1.563v-4.055l4.055,4.055h2.213l-5.017-4.926l4.571-4.335h-2.09l-3.732,3.59L106.115,45.661L106.115,45.661z M96.152,57.002
	l-0.158,1.465l0.196,0.056c0.389,0.11,0.811,0.146,1.213,0.146c1.234,0,1.792-0.864,2.161-1.925l3.859-11.083h-1.627l-2.327,7.021
	l-2.424-7.021h-1.661l3.252,9.312l-0.351,1.07c-0.17,0.518-0.37,1.167-1.035,1.167c-0.267,0-0.558-0.017-0.811-0.106L96.152,57.002z
	 M88.593,50.283c0-0.942,0.203-1.968,0.875-2.67c0.395-0.413,0.959-0.697,1.537-0.697c0.576,0,1.141,0.285,1.536,0.697
	c0.673,0.702,0.875,1.728,0.875,2.67c0,0.945-0.197,1.986-0.875,2.693c-0.395,0.412-0.96,0.691-1.536,0.691
	c-0.578,0-1.142-0.279-1.537-0.691C88.792,52.27,88.593,51.229,88.593,50.283 M88.476,45.661h-1.519l0.077,1.949v11.059h1.56v-4.753
	l0.276,0.268c0.583,0.564,1.319,0.875,2.136,0.875c2.773,0,4.021-2.246,4.021-4.775c0-2.576-1.199-4.758-4.021-4.758
	c-0.868,0-1.657,0.285-2.25,0.926l-0.28,0.305L88.476,45.661L88.476,45.661L88.476,45.661z M76.725,45.661h-1.923v9.261h1.562
	v-6.469l2.763,6.469h1.243l2.781-6.348v6.348h1.562v-9.261h-1.752l-3.203,7.103L76.725,45.661z M66.506,50.299
	c0-1.639,0.819-3.383,2.685-3.383s2.684,1.744,2.684,3.383c0,1.639-0.828,3.369-2.684,3.369
	C67.334,53.668,66.506,51.938,66.506,50.299 M64.895,50.299c0,2.621,1.527,4.76,4.297,4.76c2.768,0,4.296-2.139,4.296-4.76
	c0-2.631-1.509-4.774-4.296-4.774C66.402,45.525,64.895,47.668,64.895,50.299 M57.406,50.283c0-0.942,0.2-1.968,0.873-2.67
	c0.395-0.413,0.959-0.697,1.537-0.697c0.577,0,1.141,0.285,1.536,0.697c0.673,0.702,0.874,1.728,0.874,2.67
	c0,0.945-0.197,1.986-0.874,2.693c-0.395,0.412-0.958,0.691-1.536,0.691c-0.579,0-1.141-0.279-1.537-0.691
	C57.602,52.27,57.406,51.229,57.406,50.283 M57.285,45.661h-1.52l0.08,1.949l-0.001,11.059h1.563v-4.753l0.274,0.268
	c0.583,0.564,1.319,0.875,2.135,0.875c2.775,0,4.021-2.246,4.021-4.775c0-2.576-1.198-4.758-4.021-4.758
	c-0.867,0-1.656,0.284-2.249,0.926l-0.281,0.305L57.285,45.661L57.285,45.661z M51.908,54.922h1.614v-12.46h-8.988v12.46h1.613
	V43.921h5.761V54.922z"/>
<rect y="35.366" fill="none" width="160" height="33.268"/>
</svg>
