<?xml version="1.0" encoding="utf-8"?>
<!-- Generator: Adobe Illustrator 15.0.2, SVG Export Plug-In . SVG Version: 6.00 Build 0)  -->
<!DOCTYPE svg PUBLIC "-//W3C//DTD SVG 1.1//EN" "http://www.w3.org/Graphics/SVG/1.1/DTD/svg11.dtd">
<svg version="1.1" id="svg2" xmlns:svg="http://www.w3.org/2000/svg"
	 xmlns="http://www.w3.org/2000/svg" xmlns:xlink="http://www.w3.org/1999/xlink" x="0px" y="0px" width="160px" height="100px"
	 viewBox="0 0 160 100" enable-background="new 0 0 160 100" xml:space="preserve">
<g id="g11" transform="matrix(1.25,0,0,-1.25,-511.80125,157.815)">
	<g id="g2510" transform="translate(1.4705494,-0.9803663)">
		<path id="path53" fill="#009E4D" d="M422.53,100.129c-2.927,1.3-4.672,1.803-6.405,1.803c-1.819,0-2.984-0.651-2.984-1.657
			c0-3.037,10.303-2.182,10.303-9.208c0-3.874-3.25-6.125-7.766-6.125c-3.542,0-5.286,0.917-7.296,1.954v4.346
			c2.898-1.92,4.671-2.598,6.907-2.598c1.938,0,2.983,0.679,2.983,1.861c0,3.307-10.304,2.096-10.304,9.33
			c0,3.489,3.015,5.798,7.709,5.798c2.266,0,4.309-0.475,6.85-1.568L422.53,100.129"/>
		<path id="path55" fill="#009E4D" d="M436.956,85.865c-1.718-0.622-3.17-0.92-4.619-0.92c-4.799,0-7.901,2.795-7.901,7.048
			c0,4.174,3.222,7.123,7.722,7.123c1.39,0,3.168-0.356,4.589-0.886v-3.195c-1.125,0.597-2.428,0.925-3.494,0.925
			c-2.576,0-4.233-1.548-4.233-3.936c0-2.422,1.629-4.017,4.083-4.017c1.036,0,1.957,0.237,3.852,0.947L436.956,85.865"/>
		<path id="path57" fill="#009E4D" d="M474.369,93.559c0.176,1.897,1.277,2.994,2.965,2.994c1.659,0,2.782-1.127,2.96-2.994H474.369
			z M477.037,99.112c-4.211,0-7.208-2.973-7.208-7.159c0-4.216,3.117-7.007,7.921-7.007c1.064,0,3.637,0,6.089,1.815v2.669
			c-2.008-1.431-3.337-1.923-5.051-1.923c-2.706,0-4.361,1.4-4.511,3.791h9.805C484.286,96.285,481.011,99.112,477.037,99.112"/>
		<path id="path59" fill="#009E4D" d="M485.741,85.194h4.287V98.86h-4.287V85.194z"/>
		<path id="path61" fill="#009E4D" d="M501.957,88.929c-0.893-0.804-1.635-1.126-2.55-1.126c-2.018,0-3.296,1.661-3.296,4.151
			c0,2.729,1.278,4.301,3.438,4.301c0.773,0,1.783-0.356,2.409-0.802L501.957,88.929L501.957,88.929z M501.957,105.38v-7.12
			c-1.157,0.56-2.313,0.855-3.56,0.855c-3.91,0-6.616-2.89-6.616-7.072c0-4.092,2.707-7.101,6.375-7.101
			c1.455,0,2.579,0.38,3.801,1.355v-1.099h4.287v20.182H501.957"/>
		<path id="path63" fill="#009E4D" d="M512.589,93.559c0.179,1.897,1.274,2.994,2.958,2.994c1.662,0,2.797-1.127,2.974-2.994
			H512.589z M515.255,99.112c-4.209,0-7.201-2.973-7.201-7.159c0-4.216,3.116-7.007,7.915-7.007c1.063,0,3.642,0,6.1,1.815v2.669
			c-2.011-1.431-3.342-1.923-5.065-1.923c-2.691,0-4.354,1.4-4.504,3.791h9.8C522.505,96.285,519.225,99.112,515.255,99.112"/>
		<g id="g65">
			<g>
				<g>
					<defs>
						<polyline id="SVGID_1_" points="407.971,105.632 407.971,67.846 535.97,67.846 535.97,105.632 						"/>
					</defs>
					<clipPath id="SVGID_2_">
						<use xlink:href="#SVGID_1_"  overflow="visible"/>
					</clipPath>
					<g id="g67" clip-path="url(#SVGID_2_)">
						<path id="path73" fill="#009E4D" d="M528.718,94.947h0.063c1.272,2.844,2.696,4.178,4.35,4.178
							c0.857,0,1.595-0.327,2.839-1.246l-1.18-3.789c-1.126,0.71-1.865,1.007-2.545,1.007c-1.573,0-2.58-1.483-3.527-3.989v-5.894
							h-4.293v13.662h4.293V94.947"/>
						<path id="path75" fill="#009E4D" d="M490.229,104.609c0.402-1.062-0.322-2.543-1.614-3.305
							c-1.296-0.762-2.666-0.52-3.066,0.542c-0.407,1.064,0.314,2.546,1.609,3.304C488.452,105.915,489.823,105.673,490.229,104.609
							"/>
					</g>
				</g>
			</g>
		</g>
		<path id="path77" fill="#009E4D" d="M452.397,93.892c0,3.703-2.517,5.22-5.001,5.22c-1.689,0-3.077-0.713-4.319-2.284h-0.059
			v8.553h-4.291V85.235h4.291v8.657c1.004,1.452,1.861,2.073,2.866,2.073c1.335,0,2.221-0.949,2.221-2.991v-4.8
			c1.439,0.739,2.902,1.193,4.291,1.363L452.397,93.892"/>
		<path id="path79" fill="#009E4D" d="M463.16,99.116c-1.748,0-3.082-0.65-4.449-2.212v1.955h-4.289v-9.286
			c1.486-0.148,3.381-0.83,4.289-1.955V94c1.128,1.692,1.928,2.256,2.995,2.256c1.215,0,2.139-0.802,2.139-2.729v-8.296h4.29v8.651
			C468.135,97.906,465.293,99.116,463.16,99.116"/>
		<path id="path81" fill="#009E4D" d="M470.505,81.306h-4.985v-3.542h4.809v-1.52h-4.809v-3.653h5.134v-1.518h-6.805v11.749h6.657
			V81.306"/>
		<path id="path83" fill="#009E4D" d="M474.576,71.065h1.527v11.761h-1.527V71.065z"/>
		<path id="path85" fill="#009E4D" d="M483.663,77.653c1.082,0,1.754-0.747,1.804-1.919h-3.889
			C481.789,76.959,482.493,77.653,483.663,77.653z M481.551,74.714h5.44c0,2.868-1.311,4.252-3.362,4.252
			c-2.129,0-3.607-1.574-3.607-3.92c0-2.146,1.336-4.127,3.739-4.127c1.312,0,2.158,0.291,3.096,0.913v1.487
			c-0.907-0.594-1.785-0.936-2.71-0.936C482.667,72.385,481.789,73.178,481.551,74.714"/>
		<path id="path87" fill="#009E4D" d="M496.961,76.784c-0.878,0.601-1.464,0.778-2.133,0.778c-1.398,0-2.366-1.073-2.366-2.643
			c0-1.599,1.03-2.563,2.622-2.563c0.654,0,1.277,0.17,2.048,0.514v-1.506c-0.514-0.241-1.494-0.444-2.304-0.444
			c-2.312,0-3.917,1.591-3.917,3.863c0,2.564,1.467,4.184,3.813,4.184c0.896,0,1.498-0.209,2.238-0.534L496.961,76.784"/>
		<path id="path89" fill="#009E4D" d="M503.918,78.818h2.451v-1.376h-2.451v-3.977c0-0.912,0.66-1.174,1.104-1.174
			c0.553,0,1.123,0.194,1.741,0.575v-1.432c-0.536-0.295-1.359-0.515-1.863-0.515c-1.664,0-2.504,1.033-2.504,2.43v4.093h-1.346
			v0.171l2.868,2.806L503.918,78.818"/>
		<path id="path91" fill="#009E4D" d="M512.208,78.818v-1.794h0.031c0.779,1.373,1.519,1.942,2.24,1.942
			c0.622,0,1.204-0.292,1.844-0.897l-0.81-1.347c-0.464,0.46-1.066,0.777-1.429,0.777c-1.051,0-1.876-1.068-1.876-2.393v-4.042
			h-1.526v7.753H512.208"/>
		<path id="path93" fill="#009E4D" d="M531.97,76.784c-0.882,0.601-1.468,0.778-2.141,0.778c-1.394,0-2.354-1.073-2.354-2.643
			c0-1.599,1.031-2.563,2.612-2.563c0.656,0,1.275,0.17,2.056,0.514v-1.506c-0.526-0.241-1.508-0.444-2.314-0.444
			c-2.309,0-3.921,1.591-3.921,3.863c0,2.564,1.473,4.184,3.82,4.184c0.898,0,1.495-0.209,2.242-0.534L531.97,76.784"/>
		<path id="path95" fill="#009E4D" d="M520.371,71.065h1.527v7.753h-1.527V71.065z"/>
		<g id="g97">
			<g>
				<g>
					<defs>
						<polyline id="SVGID_3_" points="407.971,105.632 407.971,67.846 535.97,67.846 535.97,105.632 						"/>
					</defs>
					<clipPath id="SVGID_4_">
						<use xlink:href="#SVGID_3_"  overflow="visible"/>
					</clipPath>
					<g id="g99" clip-path="url(#SVGID_4_)">
						<path id="path105" fill="#009E4D" d="M521.949,81.603c0.149-0.374-0.112-0.904-0.571-1.173
							c-0.462-0.27-0.953-0.183-1.092,0.191c-0.139,0.378,0.114,0.903,0.577,1.173C521.323,82.07,521.809,81.982,521.949,81.603"/>
						<path id="path107" fill="#009E4D" d="M453.602,80.977c-0.27,0-0.383-0.044-0.493-0.167c-0.043-0.048-0.061-0.096-0.077-0.195
							l-1.369-5.191c-0.321-1.821-2.559-3.64-5.475-3.64h-4.054l0.704,2.669h2.604c0.266,0,0.474,0.098,0.648,0.292
							c0.064,0.076,0.147,0.194,0.159,0.314l1.08,4.537c0.32,1.822,2.244,3.834,5.16,3.834h4.152l-0.531-2.454H453.602
							L453.602,80.977z M454.538,77.812l0.464,1.68h4.218c0.521,2.437,0.111,4.693-1.367,6.171
							c-2.992,2.993-9.252,1.976-13.916-2.486c-0.728-0.693-1.343-1.442-1.904-2.208h2.54l-0.591-1.684h-3.034
							c-0.29-0.53-0.562-1.056-0.77-1.591h3.598l-0.576-1.684h-3.535c-0.604-2.573-0.219-4.973,1.302-6.496
							c2.955-2.955,9.196-1.916,13.857,2.545c0.815,0.777,1.489,1.614,2.098,2.473h-3.263l0.498,1.681h3.814
							c0.28,0.534,0.537,1.063,0.738,1.597H454.538"/>
					</g>
				</g>
			</g>
		</g>
	</g>
</g>
</svg>
