<?xml version="1.0" encoding="utf-8"?>
<!-- Generator: Adobe Illustrator 15.0.2, SVG Export Plug-In . SVG Version: 6.00 Build 0)  -->
<!DOCTYPE svg PUBLIC "-//W3C//DTD SVG 1.1//EN" "http://www.w3.org/Graphics/SVG/1.1/DTD/svg11.dtd">
<svg version="1.1" id="Слой_1" xmlns="http://www.w3.org/2000/svg" xmlns:xlink="http://www.w3.org/1999/xlink" x="0px" y="0px"
	 width="160px" height="100px" viewBox="0 0 160 100" enable-background="new 0 0 160 100" xml:space="preserve">
<g>
	
		<linearGradient id="SVGID_1_" gradientUnits="userSpaceOnUse" x1="781.9785" y1="326.9297" x2="781.9785" y2="226.9297" gradientTransform="matrix(1 0 0 1 -700.25 -226.9297)">
		<stop  offset="0" style="stop-color:#9C0D12"/>
		<stop  offset="0.5588" style="stop-color:#ED0C12"/>
		<stop  offset="1" style="stop-color:#F8D9D6"/>
	</linearGradient>
	<rect x="20" fill="url(#SVGID_1_)" width="123.457" height="100"/>
	<g>
		<g>
			<path fill="#FFFFFF" d="M36.875,55.59c-0.909,0-1.649-0.738-1.649-1.648s0.74-1.649,1.649-1.649h90.734
				c0.91,0,1.649,0.74,1.649,1.649c0,0.908-0.739,1.648-1.649,1.648H36.875z"/>
			<path fill="#9C0D12" d="M127.609,52.602c0.74,0,1.341,0.601,1.341,1.34c0,0.74-0.601,1.341-1.341,1.341H36.875
				c-0.74,0-1.34-0.599-1.34-1.341c0-0.739,0.6-1.34,1.34-1.34H127.609 M127.609,51.984H36.875c-1.079,0-1.958,0.877-1.958,1.957
				s0.878,1.957,1.958,1.957h90.734c1.08,0,1.959-0.877,1.959-1.957C129.566,52.861,128.689,51.984,127.609,51.984L127.609,51.984z"
				/>
		</g>
		<g>
			<g>
				<path fill="#FFFFFF" d="M72.596,77.789v-9.35h5.885c0.918,0,1.621,0.265,2.082,0.785c0.403,0.461,0.607,1.102,0.607,1.905v1.103
					h-3.793v-0.793h-0.988v6.351L72.596,77.789L72.596,77.789z"/>
				<path fill="#9C0D12" d="M78.48,68.748c0.832,0,1.449,0.227,1.852,0.682c0.354,0.402,0.529,0.969,0.529,1.7v0.794h-3.176V71.13
					H76.08v6.351h-3.176v-8.731L78.48,68.748 M78.48,68.131h-5.576h-0.616v0.617v8.732v0.617h0.616h3.176h0.617V77.48v-5.733h0.371
					v0.176v0.618h0.617h3.176h0.617v-0.618v-0.794c0-0.881-0.229-1.589-0.683-2.107C80.27,68.43,79.491,68.131,78.48,68.131
					L78.48,68.131z"/>
			</g>
			<g>
				<path fill="#FFFFFF" d="M84.584,77.789c-0.908,0-1.592-0.254-2.036-0.756c-0.434-0.491-0.653-1.141-0.653-1.934v-4.082
					c0-0.805,0.203-1.445,0.604-1.904c0.465-0.522,1.166-0.786,2.085-0.786h6.236c0.908,0,1.603,0.264,2.064,0.784
					c0.416,0.474,0.626,1.115,0.626,1.906V75.1c0,0.805-0.204,1.445-0.604,1.905c-0.465,0.521-1.165,0.786-2.084,0.786h-6.238
					V77.789z M89.719,74.79v-3.465h-4.031v3.465H89.719z"/>
				<path fill="#9C0D12" d="M90.82,68.635c0.82,0,1.431,0.227,1.834,0.68c0.365,0.418,0.548,0.983,0.548,1.701V75.1
					c0,0.73-0.177,1.297-0.529,1.7c-0.403,0.454-1.021,0.681-1.853,0.681h-6.236c-0.818,0-1.421-0.217-1.805-0.651
					c-0.385-0.435-0.577-1.011-0.577-1.729v-4.082c0-0.73,0.176-1.297,0.528-1.701c0.404-0.455,1.021-0.681,1.854-0.681
					L90.82,68.635 M85.378,75.098h4.649v-4.082h-4.649V75.098 M90.82,68.018h-6.236c-1.011,0-1.79,0.299-2.313,0.887
					c-0.457,0.521-0.687,1.23-0.687,2.111V75.1c0,0.869,0.246,1.588,0.731,2.139c0.504,0.57,1.267,0.859,2.268,0.859h6.236
					c1.012,0,1.791-0.299,2.313-0.887c0.456-0.521,0.685-1.23,0.685-2.111v-4.084c0-0.869-0.235-1.578-0.701-2.107
					C92.591,68.316,91.82,68.018,90.82,68.018L90.82,68.018z M85.996,71.634h3.414v2.849h-3.414V71.634L85.996,71.634z"/>
			</g>
			<g>
				<path fill="#FFFFFF" d="M95.029,77.789v-6.256h-0.813v-2.999h0.813v-1.95c0-0.802,0.205-1.439,0.606-1.896
					c0.464-0.521,1.164-0.783,2.085-0.783h4.9v2.998h-3.799v1.633h3.799v2.999h-3.799v6.256L95.029,77.789L95.029,77.789z"/>
				<path fill="#9C0D12" d="M102.313,64.212v2.381h-3.799v2.249h3.799v2.383h-3.799v6.256h-3.176v-6.256h-0.813v-2.383h0.813v-2.259
					c0-0.728,0.176-1.292,0.529-1.692c0.402-0.453,1.021-0.679,1.852-0.679h0.793H102.313 M102.93,63.596h-0.617h-3.799h-0.793
					c-1.012,0-1.789,0.297-2.313,0.883c-0.457,0.52-0.687,1.227-0.687,2.104v1.642h-0.195h-0.617v0.617v2.381v0.617h0.617h0.195
					v5.639v0.617h0.617h3.176h0.616V77.48v-5.64h3.183h0.617v-0.616v-2.382v-0.618h-0.617H99.13v-1.014h3.183h0.617v-0.617v-2.382
					V63.596L102.93,63.596z"/>
			</g>
			<g>
				<path fill="#FFFFFF" d="M103.421,77.789v-9.236h3.792v9.236H103.421z M103.421,68.376v-2.999h3.792v2.999H103.421z"/>
				<path fill="#9C0D12" d="M106.904,65.688v2.381h-3.174v-2.381H106.904 M106.904,68.861v8.619h-3.174v-8.619H106.904
					 M107.521,65.068h-0.617h-3.174h-0.617v0.617v2.381v0.617v0.176v8.619v0.617h0.617h3.174h0.617V77.48v-8.619v-0.617v-0.176
					v-2.381V65.068L107.521,65.068z"/>
			</g>
			<g>
				<rect x="107.977" y="63.904" fill="#FFFFFF" width="3.791" height="13.885"/>
				<path fill="#9C0D12" d="M111.459,64.212V77.48h-3.175V64.212H111.459 M112.077,63.596h-0.617h-3.175h-0.617v0.616V77.48v0.617
					h0.617h3.175h0.617V77.48V64.212V63.596L112.077,63.596z"/>
			</g>
			<g>
				<path fill="#FFFFFF" d="M115.258,77.789c-0.919,0-1.621-0.264-2.083-0.786c-0.403-0.462-0.606-1.104-0.606-1.91v-3.864
					c0-0.793,0.22-1.445,0.654-1.938c0.443-0.502,1.127-0.758,2.035-0.758h5.916c0.92,0,1.621,0.265,2.083,0.787
					c0.403,0.462,0.607,1.104,0.607,1.91v3.381h-7.308v-2.885h3.836V71.55h-4.031v3.238h7.503v2.999L115.258,77.789L115.258,77.789z
					"/>
				<path fill="#9C0D12" d="M121.174,68.843c0.832,0,1.449,0.228,1.852,0.683c0.354,0.404,0.529,0.974,0.529,1.707v3.074h-6.691
					v-2.27h3.838v-0.793h-4.649V75.1h7.503v2.381h-8.297c-0.832,0-1.449-0.227-1.854-0.682c-0.353-0.404-0.528-0.973-0.528-1.705
					V71.23c0-0.721,0.192-1.297,0.577-1.733c0.384-0.437,0.984-0.653,1.805-0.653L121.174,68.843 M121.174,68.227h-5.916
					c-1,0-1.763,0.289-2.268,0.862c-0.485,0.55-0.731,1.271-0.731,2.142v3.863c0,0.883,0.229,1.594,0.683,2.111
					c0.525,0.594,1.305,0.893,2.316,0.893h8.297h0.617V77.48v-2.383v-0.176v-0.617v-3.072c0-0.883-0.229-1.594-0.681-2.112
					C122.964,68.525,122.186,68.227,121.174,68.227L121.174,68.227z"/>
			</g>
		</g>
		<g>
			<g>
				<path fill="#FFFFFF" d="M36.444,88.631V59.419h26.117c2.321,0,4.239,0.851,5.703,2.529c1.377,1.559,2.076,3.502,2.076,5.776
					v0.309H46.796V88.63L36.444,88.631L36.444,88.631z M48.442,78.21v-8.371H70.34v0.31c0,2.25-0.719,4.175-2.138,5.721
					c-1.427,1.554-3.324,2.341-5.642,2.341H48.442z"/>
				<path fill="#9C0D12" d="M62.561,59.729c2.238,0,4.063,0.808,5.472,2.422c1.333,1.509,2,3.367,2,5.574H46.487v20.599h-9.734
					V59.729H62.561 M70.032,70.148c0,2.181-0.687,4.019-2.058,5.513c-1.371,1.495-3.176,2.241-5.414,2.241h-13.81v-7.754H70.032
					 M62.561,59.111H36.753h-0.618v0.617v28.595v0.616h0.618h9.734h0.617v-0.616v-19.98h22.927h0.617v-0.616
					c0-2.353-0.725-4.365-2.153-5.982C66.973,59.997,64.975,59.111,62.561,59.111L62.561,59.111z M70.648,69.531h-0.616h-21.28
					h-0.617v0.617v7.754v0.617h0.617h13.811c2.408,0,4.381-0.821,5.869-2.441c1.473-1.605,2.219-3.6,2.219-5.93v-0.617H70.648z"/>
			</g>
		</g>
		<g>
			<g>
				<path fill="#FFFFFF" d="M36.617,45.167v-10.81h41.23v0.309c0,2.882-0.981,5.378-2.916,7.419
					c-1.939,2.044-4.492,3.082-7.584,3.082H36.617L36.617,45.167z M47.117,31.886c-3.126,0-5.686-0.992-7.607-2.949
					c-1.92-1.955-2.894-4.392-2.894-7.242v-0.309h30.78c3.058,0,5.59,1.001,7.529,2.975c1.938,1.974,2.92,4.401,2.92,7.216v0.309
					H47.117L47.117,31.886z M36.617,18.915v-0.309c0-2.883,0.981-5.379,2.916-7.419c1.939-2.045,4.491-3.082,7.584-3.082h29.546
					v10.809L36.617,18.915L36.617,18.915z"/>
				<path fill="#9C0D12" d="M76.354,8.415v10.192H36.926c0-2.813,0.943-5.216,2.831-7.207c1.887-1.99,4.34-2.986,7.361-2.986
					L76.354,8.415 M67.398,21.695c2.984,0,5.42,0.961,7.309,2.882c1.887,1.922,2.831,4.255,2.831,7h-30.42
					c-3.055,0-5.517-0.952-7.387-2.857c-1.871-1.904-2.805-4.247-2.805-7.026L67.398,21.695 M77.538,34.666
					c0,2.814-0.944,5.217-2.831,7.207c-1.889,1.991-4.341,2.986-7.361,2.986h-30.42V34.666H77.538 M76.973,7.797h-0.617H47.117
					c-3.182,0-5.809,1.069-7.809,3.178c-1.991,2.1-3,4.667-3,7.631v0.617h0.617h39.429h0.617v-0.617V8.415L76.973,7.797
					L76.973,7.797z M67.398,21.078H36.926h-0.618v0.617c0,2.935,1.003,5.444,2.982,7.459c1.981,2.018,4.615,3.041,7.827,3.041
					h30.421h0.616v-0.617c0-2.898-1.012-5.399-3.008-7.433C73.148,22.109,70.541,21.078,67.398,21.078L67.398,21.078z
					 M78.154,34.048h-0.616H36.926h-0.618v0.617v10.192v0.617h0.618h30.42c3.182,0,5.809-1.069,7.809-3.178
					c1.992-2.1,3-4.667,3-7.631V34.048L78.154,34.048z"/>
			</g>
			<g>
				<polygon fill="#FFFFFF" points="96.844,45.167 80.669,8.106 94.938,8.106 105.486,33.849 115.936,8.106 130.307,8.106 
					114.184,45.167 				"/>
				<path fill="#9C0D12" d="M129.834,8.415L113.98,44.858H97.046L81.141,8.415h13.59l10.758,26.251l10.654-26.251H129.834
					 M130.775,7.797h-0.941h-13.691h-0.416l-0.156,0.385l-10.086,24.849L95.3,8.181l-0.157-0.383h-0.414H81.141h-0.942l0.377,0.864
					L96.48,45.104l0.16,0.371h0.405h16.935h0.404l0.161-0.371L130.4,8.661L130.775,7.797L130.775,7.797z"/>
			</g>
		</g>
	</g>
</g>
</svg>
