<?xml version="1.0" encoding="utf-8"?>
<!-- Generator: Adobe Illustrator 15.0.2, SVG Export Plug-In . SVG Version: 6.00 Build 0)  -->
<!DOCTYPE svg PUBLIC "-//W3C//DTD SVG 1.1//EN" "http://www.w3.org/Graphics/SVG/1.1/DTD/svg11.dtd">
<svg version="1.1" id="Слой_1" xmlns="http://www.w3.org/2000/svg" xmlns:xlink="http://www.w3.org/1999/xlink" x="0px" y="0px"
	 width="160px" height="100px" viewBox="0 0 160 100" enable-background="new 0 0 160 100" xml:space="preserve">
<g id="Слой_x0020_1">
	<path fill="#0073BB" d="M33.684,39.881l-1.108,4.653h4.654l1.33-4.653H33.684z M28.587,58.939h4.875l1.33-4.654h-4.875
		L28.587,58.939z M0,51.627h2.66l0.665-2.66h-2.66L0,51.627z M9.308,48.302h3.767l1.108-3.768h-3.989L9.308,48.302z M32.576,44.535
		h-4.875l-1.33,4.875h4.875L32.576,44.535z M15.513,54.285h4.875l1.33-4.875h-4.875L15.513,54.285z"/>
	<path fill="#83D0F4" d="M48.532,63.814c-0.665-0.443-1.33-1.33-1.33-2.438c-0.221-0.665-0.221-1.33,0-2.438h-3.989l1.108-4.654
		h3.989l1.108-3.988H46.98l1.773-6.427h2.438l0.221-1.108l6.427-2.881H43.435l-1.33,4.654H37.23l-2.438,9.75h4.654l1.33-4.875h4.875
		l-1.33,4.875h-4.875l-1.108,4.654h-4.875l-1.33,4.875h16.62C48.753,63.814,48.753,63.814,48.532,63.814z"/>
	<path fill="#0073BB" d="M68.919,56.279c0-0.221,0-0.221,0-0.443h7.313c3.324,0,6.648,0.223,7.092-3.545
		c0.221-1.33,0.221-2.438,0-3.324c-0.443-1.551-1.33-2.659-2.438-3.546c-1.33-0.887-3.324-1.33-5.762-1.33
		c-3.103,0-5.983,0.887-8.2,2.881c-2.216,1.772-3.767,4.21-4.432,7.091c-0.443,1.994-0.443,3.767,0,5.319
		c0.443,1.551,1.33,2.658,2.438,3.323c1.108,0.665,2.438,1.108,4.21,1.108c0.443,0,0.665,0,1.108,0h10.416l1.108-4.211H73.13
		C70.028,59.604,69.141,58.053,68.919,56.279z M71.357,49.854c0.887-0.887,1.773-1.33,2.881-1.33c0.887,0,1.551,0.222,1.995,0.887
		c0.443,0.443,0.665,1.551,0.443,2.881h-6.87C70.249,51.183,70.692,50.297,71.357,49.854z M54.737,59.16
		c-0.221-0.221,0-0.664,0.222-1.551l1.995-8.199h5.983l1.33-4.654h-5.983l1.33-4.875l0,0l-7.535,3.545l-0.443,1.33h-2.438
		l-1.108,4.654h2.438l-2.216,8.643c-0.443,1.33-0.443,2.438-0.443,3.104c0.222,0.885,0.443,1.551,1.108,1.994
		s1.995,0.664,3.546,0.664h6.427l1.108-4.211h-4.432C55.18,59.604,54.737,59.604,54.737,59.16z M155.79,44.756
		c-1.108,0-1.772,0-2.438,0.222c-0.666,0.443-1.108,0.665-1.552,1.108l0.443-1.33h-6.87l-5.319,19.058h6.87l2.66-9.308
		c0.887-2.438,2.659-5.097,6.648-5.097h2.438l1.33-4.654H155.79L155.79,44.756z M140.277,47.637
		c-1.33-2.438-3.989-3.545-7.757-3.545c-3.102,0-5.982,1.108-8.42,2.881c-2.438,1.995-3.989,4.432-4.654,7.313
		c-0.887,3.324-0.443,5.762,1.329,7.756c1.552,1.552,3.768,2.438,6.648,2.438c3.324,0,6.205-0.886,8.644-2.881
		c2.438-1.994,3.988-4.432,4.653-7.313C141.385,51.627,141.163,49.41,140.277,47.637z M133.628,54.285
		c-0.443,1.773-1.108,3.104-1.994,3.989c-0.887,0.665-1.772,1.108-2.881,1.108c-1.108,0-1.773-0.443-2.216-1.108
		c-0.443-0.886-0.443-2.216,0-3.989c0.443-1.551,1.108-2.881,1.995-3.768c0.886-0.887,1.772-1.329,2.88-1.329
		c0.887,0,1.773,0.442,2.216,1.329C134.072,51.404,134.072,52.512,133.628,54.285z M120.997,44.535h-3.103
		c0.222-0.886,0.222-1.108,0.443-1.551c0.443-1.108,1.33-1.33,2.216-1.33h3.324l1.33-4.654h-5.983c-1.33,0-2.66,0.222-3.546,0.443
		c-0.887,0.444-1.551,0.887-2.216,1.551c-0.444,0.665-1.108,1.33-1.33,2.216l-1.108,3.324h-2.659l-1.108,4.876h2.438l-3.768,14.404
		h6.87l3.768-14.404h3.324L120.997,44.535z M107.701,44.756H99.28l-6.87,6.205l3.102-11.523h-7.091l-6.426,24.377h7.091l1.33-4.875
		l3.323-2.66l1.552,7.535h7.534l-3.324-12.41L107.701,44.756z"/>
</g>
</svg>
