<?xml version="1.0" encoding="utf-8"?>
<!-- Generator: Adobe Illustrator 15.0.2, SVG Export Plug-In . SVG Version: 6.00 Build 0)  -->
<!DOCTYPE svg PUBLIC "-//W3C//DTD SVG 1.1//EN" "http://www.w3.org/Graphics/SVG/1.1/DTD/svg11.dtd">
<svg version="1.1" id="Слой_1" xmlns="http://www.w3.org/2000/svg" xmlns:xlink="http://www.w3.org/1999/xlink" x="0px" y="0px"
	 width="160px" height="100px" viewBox="0 0 160 100" enable-background="new 0 0 160 100" xml:space="preserve">
<path fill="#F15D22" d="M67.309,40.273h-7.59l7.621,18.65c0.784,1.912,2.038,3.547,5.516,3.547c3.479,0,4.733-1.635,5.518-3.547
	l7.617-18.65h-7.584l-5.141,14.889c-0.126,0.377-0.313,0.471-0.408,0.471s-0.282-0.094-0.407-0.471L67.309,40.273z"/>
<rect x="52.013" y="40.272" fill="#F15D22" width="7.084" height="21.958"/>
<path fill="#F15D22" d="M42.606,40.273v13.055c0,0.156,0,0.533-0.345,0.533c-0.251-0.001-0.44-0.314-0.596-0.533l-7.358-11.286
	c-1.349-1.911-3.449-2.035-4.64-2.036c-3.234-0.006-5.839,1.549-5.866,5.139V62.23h7.078V49.184c0-0.628,0.345-0.628,0.439-0.628
	c0.22,0,0.439,0.313,0.596,0.532l6.959,10.775c1.379,1.948,3.393,2.596,5.054,2.59c3.027-0.013,5.731-2.027,5.753-5.049l0-17.111
	v-0.02H42.606z"/>
<path fill="#F15D22" d="M0,53.429c0,2.229,0.345,4.646,2.291,6.56c2.259,2.229,5.46,2.484,8.599,2.484
	c3.137,0,6.338-0.256,8.598-2.484c1.945-1.914,2.292-4.33,2.292-6.559V40.273h-7.093l0,12.592c0,0.877-0.031,2.228-1.098,3.107
	c-0.627,0.5-1.694,0.783-2.698,0.783c-1.005,0-2.072-0.283-2.699-0.783c-1.036-0.85-1.099-2.135-1.099-3.107l0-12.592H0V53.429z"/>
<path fill="#F15D22" d="M115.304,62.23h10.03c1.003,0,2.111-0.019,2.946-1.126c0.67-0.878,0.71-2.048,0.712-2.905
	c0-1.002-0.085-2.445-1.002-3.342c-0.522-0.523-1.38-0.857-2.028-1.025l-4.931-1.316c-0.564-0.146-1.232-0.334-1.232-0.795
	c0-0.166,0.105-0.334,0.229-0.396c0.085-0.041,0.23-0.083,0.773-0.083h7.44v-3.636h-9.654c-1.253,0-2.047,0.459-2.508,0.919
	c-0.856,0.856-0.919,2.007-0.919,2.927c0,1.086,0.105,2.34,0.794,3.259c0.294,0.396,0.815,0.878,1.672,1.107l5.663,1.589
	c0.479,0.125,0.94,0.271,0.94,0.73c0,0.209-0.125,0.46-0.815,0.46h-8.105L115.304,62.23z"/>
<path fill="#F15D22" d="M99.284,62.23h4.723v-9.84c0-0.355-0.02-0.648,0.273-0.92c0.207-0.209,0.458-0.23,0.73-0.23h2.613
	c0.438,0,0.96-0.02,1.315,0.355c0.105,0.105,0.356,0.439,0.356,1.233c0,0.377-0.084,0.919-0.314,1.213
	c-0.334,0.396-0.899,0.438-1.316,0.438h-0.753c-1.213,0-2.111,0.668-2.111,1.65v0.313c0,0.711,0.522,1.337,1.003,1.985l2.82,3.802
	l5.684,0.001l-4.179-4.367v-0.083h0.627c1.128,0,2.172-0.522,2.716-1.817c0.502-1.191,0.543-2.925,0.543-3.595
	c0-1.107-0.124-2.403-0.752-3.343c-0.961-1.422-2.569-1.422-3.489-1.422h-7.961c-0.563,0-1.42,0.104-1.964,0.71
	c-0.522,0.585-0.563,1.422-0.565,2.09V62.23z"/>
<path fill="#F15D22" d="M97.771,62.23V58.68h-7.082c-0.292,0-0.668,0.021-0.898-0.188c-0.105-0.083-0.21-0.25-0.21-0.542l0.001-1.59
	l7.982,0.002v-3.178h-7.982v-1.107c0-0.188,0-0.522,0.229-0.711c0.168-0.145,0.459-0.209,0.731-0.209h7.231v-3.551l-10.511-0.001
	c-0.522,0-1.233,0.083-1.775,0.585c-0.544,0.502-0.628,1.107-0.628,1.672v10.029c0,0.689,0,1.275,0.669,1.84
	c0.563,0.459,1.17,0.5,1.777,0.5H97.771z"/>
<path fill="#F15D22" d="M141.291,62.232h5.06l-5.08-12.434c-0.523-1.273-1.359-2.364-3.678-2.364c-2.32,0-3.156,1.09-3.678,2.364
	l-5.077,12.432l5.057,0.002l3.426-9.926c0.083-0.25,0.21-0.314,0.272-0.314c0.063,0,0.188,0.064,0.271,0.314L141.291,62.232z"/>
<path fill="#F15D22" d="M160,62.23v-3.634l-7.585-0.001c-0.25,0-0.564-0.021-0.752-0.188c-0.208-0.189-0.231-0.544-0.231-0.711
	l0.001-10.092h-4.722v12.745c0,0.605,0.313,1.149,0.647,1.421c0.397,0.334,1.023,0.459,1.588,0.459H160L160,62.23z"/>
<path fill="#F15D22" d="M90.498,45.428L90.498,45.428v0.002c0.635,0,1.213-0.261,1.632-0.68c0.418-0.418,0.679-0.996,0.679-1.629
	h-0.002v-0.002l0,0h0.002c0-0.625-0.261-1.197-0.679-1.613c-0.418-0.418-0.998-0.678-1.631-0.678v0.001h-0.001v-0.001
	c-0.625,0-1.197,0.26-1.614,0.676v0.002c-0.416,0.416-0.676,0.988-0.676,1.612v0.001l0,0c0,0.636,0.259,1.213,0.676,1.633
	c0.417,0.417,0.988,0.678,1.613,0.678L90.498,45.428L90.498,45.428z M90.498,45.984L90.498,45.984L90.498,45.984L90.498,45.984
	c-0.779,0-1.491-0.323-2.007-0.842c-0.517-0.52-0.837-1.234-0.837-2.023h-0.001v-0.001v-0.001h0.001
	c0-0.779,0.322-1.491,0.837-2.008v0.001c0.516-0.517,1.23-0.838,2.007-0.838H90.5c0.789,0,1.505,0.321,2.023,0.837
	c0.52,0.517,0.842,1.229,0.842,2.009h0.001v0.001l0,0h-0.001c-0.001,0.79-0.323,1.506-0.84,2.025
	C92.004,45.662,91.288,45.984,90.498,45.984"/>
<path fill="#F15D22" d="M91.581,43.701c-0.021-0.041-0.061-0.102-0.12-0.182c-0.061-0.08-0.122-0.119-0.161-0.16
	c-0.041-0.02-0.121-0.061-0.221-0.1c0.122-0.021,0.241-0.061,0.321-0.121c0.12-0.06,0.202-0.16,0.282-0.281
	c0.06-0.12,0.1-0.26,0.1-0.422c0-0.18-0.04-0.34-0.141-0.461c-0.08-0.141-0.202-0.221-0.361-0.281
	c-0.14-0.039-0.36-0.061-0.642-0.061h-1.505v2.91h0.922l0.001-1.185h0.08c0.08,0,0.14,0.021,0.221,0.081
	c0.02,0.021,0.059,0.061,0.1,0.12c0.02,0.04,0.041,0.062,0.059,0.101L91,44.543h1.021L91.581,43.701z M90.819,42.678
	c-0.041,0.06-0.082,0.08-0.141,0.1c-0.102,0.021-0.181,0.021-0.221,0.04h-0.401v-0.602h0.401c0.161,0,0.26,0.021,0.321,0.08
	c0.061,0.04,0.101,0.12,0.101,0.222C90.88,42.577,90.859,42.637,90.819,42.678"/>
<rect y="40" fill="none" width="160" height="22.473"/>
</svg>
