<?xml version="1.0" encoding="utf-8"?>
<!-- Generator: Adobe Illustrator 15.0.2, SVG Export Plug-In . SVG Version: 6.00 Build 0)  -->
<!DOCTYPE svg PUBLIC "-//W3C//DTD SVG 1.1//EN" "http://www.w3.org/Graphics/SVG/1.1/DTD/svg11.dtd">
<svg version="1.1" id="Слой_1" xmlns="http://www.w3.org/2000/svg" xmlns:xlink="http://www.w3.org/1999/xlink" x="0px" y="0px"
	 width="160px" height="100px" viewBox="0 0 160 100" enable-background="new 0 0 160 100" xml:space="preserve">
<polyline fill="#69A744" points="0,35.112 12.873,35.112 12.873,48.171 20.501,35.112 34.039,35.112 34.039,47.41 44.335,30.914 
	39.856,30.914 57.499,23 65.125,30.914 59.88,30.914 34.896,69.818 21.837,69.818 21.837,56.945 14.209,69.818 0,69.818 0,35.112 
	"/>
<path fill="#69A744" d="M85.531,39.781v24.695c0.093,2.146-0.063,2.832,1.049,4.006c0.985,1.041,2,1.435,3.43,1.336h27.177
	c1.117-0.004,1.85-0.291,2.667-1.05c1.018-0.944,1.239-1.813,1.239-3.341V50.746h-17.352v4.386h3.624v2.287h-8.581v-9.82h22.311
	V35.112H89.918c-1.301,0.047-2.136,0.416-3.053,1.333C85.875,37.437,85.494,38.381,85.531,39.781"/>
<path fill="#69A744" d="M155.675,35.112h-26.727c-2.389,0-4.322,1.934-4.322,4.322v26.058c0,2.389,1.933,4.326,4.322,4.326h26.727
	c2.389,0,4.325-1.938,4.325-4.326V39.434C160,37.046,158.063,35.112,155.675,35.112z M146.841,57.613h-9.248v-9.536h9.248V57.613z"
	/>
<path fill="#69A744" d="M60.358,35.112L35.756,73.535h-5.53l8.393,8.009l17.734-8.009h-4.769l5.721-8.771h11.92v5.054h12.966V35.112
	H60.358z M69.225,57.705h-7.818l7.818-12.012V57.705z"/>
</svg>
